G04 #@! TF.GenerationSoftware,KiCad,Pcbnew,5.1.6-c6e7f7d~86~ubuntu18.04.1*
G04 #@! TF.CreationDate,2021-05-10T21:05:39-07:00*
G04 #@! TF.ProjectId,usb_dev_pmod,7573625f-6465-4765-9f70-6d6f642e6b69,rev?*
G04 #@! TF.SameCoordinates,Original*
G04 #@! TF.FileFunction,Legend,Bot*
G04 #@! TF.FilePolarity,Positive*
%FSLAX46Y46*%
G04 Gerber Fmt 4.6, Leading zero omitted, Abs format (unit mm)*
G04 Created by KiCad (PCBNEW 5.1.6-c6e7f7d~86~ubuntu18.04.1) date 2021-05-10 21:05:39*
%MOMM*%
%LPD*%
G01*
G04 APERTURE LIST*
%ADD10C,0.300000*%
G04 APERTURE END LIST*
D10*
X107321714Y-69018571D02*
X107321714Y-70232857D01*
X107250285Y-70375714D01*
X107178857Y-70447142D01*
X107036000Y-70518571D01*
X106750285Y-70518571D01*
X106607428Y-70447142D01*
X106536000Y-70375714D01*
X106464571Y-70232857D01*
X106464571Y-69018571D01*
X105821714Y-70447142D02*
X105607428Y-70518571D01*
X105250285Y-70518571D01*
X105107428Y-70447142D01*
X105036000Y-70375714D01*
X104964571Y-70232857D01*
X104964571Y-70090000D01*
X105036000Y-69947142D01*
X105107428Y-69875714D01*
X105250285Y-69804285D01*
X105536000Y-69732857D01*
X105678857Y-69661428D01*
X105750285Y-69590000D01*
X105821714Y-69447142D01*
X105821714Y-69304285D01*
X105750285Y-69161428D01*
X105678857Y-69090000D01*
X105536000Y-69018571D01*
X105178857Y-69018571D01*
X104964571Y-69090000D01*
X103821714Y-69732857D02*
X103607428Y-69804285D01*
X103536000Y-69875714D01*
X103464571Y-70018571D01*
X103464571Y-70232857D01*
X103536000Y-70375714D01*
X103607428Y-70447142D01*
X103750285Y-70518571D01*
X104321714Y-70518571D01*
X104321714Y-69018571D01*
X103821714Y-69018571D01*
X103678857Y-69090000D01*
X103607428Y-69161428D01*
X103536000Y-69304285D01*
X103536000Y-69447142D01*
X103607428Y-69590000D01*
X103678857Y-69661428D01*
X103821714Y-69732857D01*
X104321714Y-69732857D01*
X101678857Y-70518571D02*
X101678857Y-69018571D01*
X101321714Y-69018571D01*
X101107428Y-69090000D01*
X100964571Y-69232857D01*
X100893142Y-69375714D01*
X100821714Y-69661428D01*
X100821714Y-69875714D01*
X100893142Y-70161428D01*
X100964571Y-70304285D01*
X101107428Y-70447142D01*
X101321714Y-70518571D01*
X101678857Y-70518571D01*
X99607428Y-70447142D02*
X99750285Y-70518571D01*
X100036000Y-70518571D01*
X100178857Y-70447142D01*
X100250285Y-70304285D01*
X100250285Y-69732857D01*
X100178857Y-69590000D01*
X100036000Y-69518571D01*
X99750285Y-69518571D01*
X99607428Y-69590000D01*
X99536000Y-69732857D01*
X99536000Y-69875714D01*
X100250285Y-70018571D01*
X99036000Y-69518571D02*
X98678857Y-70518571D01*
X98321714Y-69518571D01*
X97750285Y-70518571D02*
X97750285Y-69518571D01*
X97750285Y-69018571D02*
X97821714Y-69090000D01*
X97750285Y-69161428D01*
X97678857Y-69090000D01*
X97750285Y-69018571D01*
X97750285Y-69161428D01*
X96393142Y-70447142D02*
X96536000Y-70518571D01*
X96821714Y-70518571D01*
X96964571Y-70447142D01*
X97036000Y-70375714D01*
X97107428Y-70232857D01*
X97107428Y-69804285D01*
X97036000Y-69661428D01*
X96964571Y-69590000D01*
X96821714Y-69518571D01*
X96536000Y-69518571D01*
X96393142Y-69590000D01*
X95178857Y-70447142D02*
X95321714Y-70518571D01*
X95607428Y-70518571D01*
X95750285Y-70447142D01*
X95821714Y-70304285D01*
X95821714Y-69732857D01*
X95750285Y-69590000D01*
X95607428Y-69518571D01*
X95321714Y-69518571D01*
X95178857Y-69590000D01*
X95107428Y-69732857D01*
X95107428Y-69875714D01*
X95821714Y-70018571D01*
X93321714Y-70518571D02*
X93321714Y-69018571D01*
X92750285Y-69018571D01*
X92607428Y-69090000D01*
X92536000Y-69161428D01*
X92464571Y-69304285D01*
X92464571Y-69518571D01*
X92536000Y-69661428D01*
X92607428Y-69732857D01*
X92750285Y-69804285D01*
X93321714Y-69804285D01*
X91821714Y-70518571D02*
X91821714Y-69018571D01*
X91321714Y-70090000D01*
X90821714Y-69018571D01*
X90821714Y-70518571D01*
X89821714Y-69018571D02*
X89536000Y-69018571D01*
X89393142Y-69090000D01*
X89250285Y-69232857D01*
X89178857Y-69518571D01*
X89178857Y-70018571D01*
X89250285Y-70304285D01*
X89393142Y-70447142D01*
X89536000Y-70518571D01*
X89821714Y-70518571D01*
X89964571Y-70447142D01*
X90107428Y-70304285D01*
X90178857Y-70018571D01*
X90178857Y-69518571D01*
X90107428Y-69232857D01*
X89964571Y-69090000D01*
X89821714Y-69018571D01*
X88536000Y-70518571D02*
X88536000Y-69018571D01*
X88178857Y-69018571D01*
X87964571Y-69090000D01*
X87821714Y-69232857D01*
X87750285Y-69375714D01*
X87678857Y-69661428D01*
X87678857Y-69875714D01*
X87750285Y-70161428D01*
X87821714Y-70304285D01*
X87964571Y-70447142D01*
X88178857Y-70518571D01*
X88536000Y-70518571D01*
X105071714Y-71568571D02*
X104214571Y-71568571D01*
X104643142Y-73068571D02*
X104643142Y-71568571D01*
X103500285Y-73068571D02*
X103643142Y-72997142D01*
X103714571Y-72925714D01*
X103786000Y-72782857D01*
X103786000Y-72354285D01*
X103714571Y-72211428D01*
X103643142Y-72140000D01*
X103500285Y-72068571D01*
X103286000Y-72068571D01*
X103143142Y-72140000D01*
X103071714Y-72211428D01*
X103000285Y-72354285D01*
X103000285Y-72782857D01*
X103071714Y-72925714D01*
X103143142Y-72997142D01*
X103286000Y-73068571D01*
X103500285Y-73068571D01*
X102357428Y-73068571D02*
X102357428Y-72068571D01*
X102357428Y-72211428D02*
X102286000Y-72140000D01*
X102143142Y-72068571D01*
X101928857Y-72068571D01*
X101786000Y-72140000D01*
X101714571Y-72282857D01*
X101714571Y-73068571D01*
X101714571Y-72282857D02*
X101643142Y-72140000D01*
X101500285Y-72068571D01*
X101286000Y-72068571D01*
X101143142Y-72140000D01*
X101071714Y-72282857D01*
X101071714Y-73068571D01*
X99428857Y-71568571D02*
X98928857Y-73068571D01*
X98428857Y-71568571D01*
X97357428Y-72997142D02*
X97500285Y-73068571D01*
X97786000Y-73068571D01*
X97928857Y-72997142D01*
X98000285Y-72854285D01*
X98000285Y-72282857D01*
X97928857Y-72140000D01*
X97786000Y-72068571D01*
X97500285Y-72068571D01*
X97357428Y-72140000D01*
X97286000Y-72282857D01*
X97286000Y-72425714D01*
X98000285Y-72568571D01*
X96643142Y-73068571D02*
X96643142Y-72068571D01*
X96643142Y-72354285D02*
X96571714Y-72211428D01*
X96500285Y-72140000D01*
X96357428Y-72068571D01*
X96214571Y-72068571D01*
X95714571Y-73068571D02*
X95714571Y-71568571D01*
X95714571Y-72140000D02*
X95571714Y-72068571D01*
X95286000Y-72068571D01*
X95143142Y-72140000D01*
X95071714Y-72211428D01*
X95000285Y-72354285D01*
X95000285Y-72782857D01*
X95071714Y-72925714D01*
X95143142Y-72997142D01*
X95286000Y-73068571D01*
X95571714Y-73068571D01*
X95714571Y-72997142D01*
X93786000Y-72997142D02*
X93928857Y-73068571D01*
X94214571Y-73068571D01*
X94357428Y-72997142D01*
X94428857Y-72854285D01*
X94428857Y-72282857D01*
X94357428Y-72140000D01*
X94214571Y-72068571D01*
X93928857Y-72068571D01*
X93786000Y-72140000D01*
X93714571Y-72282857D01*
X93714571Y-72425714D01*
X94428857Y-72568571D01*
X92428857Y-72068571D02*
X92428857Y-73068571D01*
X93071714Y-72068571D02*
X93071714Y-72854285D01*
X93000285Y-72997142D01*
X92857428Y-73068571D01*
X92643142Y-73068571D01*
X92500285Y-72997142D01*
X92428857Y-72925714D01*
X91714571Y-73068571D02*
X91714571Y-72068571D01*
X91714571Y-72354285D02*
X91643142Y-72211428D01*
X91571714Y-72140000D01*
X91428857Y-72068571D01*
X91286000Y-72068571D01*
X90214571Y-72997142D02*
X90357428Y-73068571D01*
X90643142Y-73068571D01*
X90786000Y-72997142D01*
X90857428Y-72854285D01*
X90857428Y-72282857D01*
X90786000Y-72140000D01*
X90643142Y-72068571D01*
X90357428Y-72068571D01*
X90214571Y-72140000D01*
X90143142Y-72282857D01*
X90143142Y-72425714D01*
X90857428Y-72568571D01*
X99571714Y-75618571D02*
X99571714Y-74618571D01*
X99571714Y-74904285D02*
X99500285Y-74761428D01*
X99428857Y-74690000D01*
X99286000Y-74618571D01*
X99143142Y-74618571D01*
X98071714Y-75547142D02*
X98214571Y-75618571D01*
X98500285Y-75618571D01*
X98643142Y-75547142D01*
X98714571Y-75404285D01*
X98714571Y-74832857D01*
X98643142Y-74690000D01*
X98500285Y-74618571D01*
X98214571Y-74618571D01*
X98071714Y-74690000D01*
X98000285Y-74832857D01*
X98000285Y-74975714D01*
X98714571Y-75118571D01*
X97500285Y-74618571D02*
X97143142Y-75618571D01*
X96786000Y-74618571D01*
X95428857Y-75618571D02*
X96286000Y-75618571D01*
X95857428Y-75618571D02*
X95857428Y-74118571D01*
X96000285Y-74332857D01*
X96143142Y-74475714D01*
X96286000Y-74547142D01*
M02*
