G04 #@! TF.GenerationSoftware,KiCad,Pcbnew,5.1.6-c6e7f7d~86~ubuntu18.04.1*
G04 #@! TF.CreationDate,2021-05-10T21:05:39-07:00*
G04 #@! TF.ProjectId,usb_dev_pmod,7573625f-6465-4765-9f70-6d6f642e6b69,rev?*
G04 #@! TF.SameCoordinates,Original*
G04 #@! TF.FileFunction,Soldermask,Bot*
G04 #@! TF.FilePolarity,Negative*
%FSLAX46Y46*%
G04 Gerber Fmt 4.6, Leading zero omitted, Abs format (unit mm)*
G04 Created by KiCad (PCBNEW 5.1.6-c6e7f7d~86~ubuntu18.04.1) date 2021-05-10 21:05:39*
%MOMM*%
%LPD*%
G01*
G04 APERTURE LIST*
%ADD10C,0.100000*%
G04 APERTURE END LIST*
D10*
G36*
X109700496Y-81668675D02*
G01*
X110011513Y-81797503D01*
X110011515Y-81797504D01*
X110291424Y-81984533D01*
X110529467Y-82222576D01*
X110716496Y-82502485D01*
X110716497Y-82502487D01*
X110845325Y-82813504D01*
X110911000Y-83143677D01*
X110911000Y-83480323D01*
X110845325Y-83810496D01*
X110716497Y-84121513D01*
X110716496Y-84121515D01*
X110529467Y-84401424D01*
X110291424Y-84639467D01*
X110011515Y-84826496D01*
X110011514Y-84826497D01*
X110011513Y-84826497D01*
X109700496Y-84955325D01*
X109370323Y-85021000D01*
X109033677Y-85021000D01*
X108703504Y-84955325D01*
X108392487Y-84826497D01*
X108392486Y-84826497D01*
X108392485Y-84826496D01*
X108112576Y-84639467D01*
X107874533Y-84401424D01*
X107687504Y-84121515D01*
X107687503Y-84121513D01*
X107558675Y-83810496D01*
X107493000Y-83480323D01*
X107493000Y-83143677D01*
X107558675Y-82813504D01*
X107687503Y-82502487D01*
X107687504Y-82502485D01*
X107874533Y-82222576D01*
X108112576Y-81984533D01*
X108392485Y-81797504D01*
X108392487Y-81797503D01*
X108703504Y-81668675D01*
X109033677Y-81603000D01*
X109370323Y-81603000D01*
X109700496Y-81668675D01*
G37*
G36*
X101485000Y-84721000D02*
G01*
X99683000Y-84721000D01*
X99683000Y-82919000D01*
X101485000Y-82919000D01*
X101485000Y-84721000D01*
G37*
G36*
X90537512Y-82923927D02*
G01*
X90686812Y-82953624D01*
X90850784Y-83021544D01*
X90998354Y-83120147D01*
X91123853Y-83245646D01*
X91222456Y-83393216D01*
X91290376Y-83557188D01*
X91325000Y-83731259D01*
X91325000Y-83908741D01*
X91290376Y-84082812D01*
X91222456Y-84246784D01*
X91123853Y-84394354D01*
X90998354Y-84519853D01*
X90850784Y-84618456D01*
X90686812Y-84686376D01*
X90537512Y-84716073D01*
X90512742Y-84721000D01*
X90335258Y-84721000D01*
X90310488Y-84716073D01*
X90161188Y-84686376D01*
X89997216Y-84618456D01*
X89849646Y-84519853D01*
X89724147Y-84394354D01*
X89625544Y-84246784D01*
X89557624Y-84082812D01*
X89523000Y-83908741D01*
X89523000Y-83731259D01*
X89557624Y-83557188D01*
X89625544Y-83393216D01*
X89724147Y-83245646D01*
X89849646Y-83120147D01*
X89997216Y-83021544D01*
X90161188Y-82953624D01*
X90310488Y-82923927D01*
X90335258Y-82919000D01*
X90512742Y-82919000D01*
X90537512Y-82923927D01*
G37*
G36*
X93077512Y-82923927D02*
G01*
X93226812Y-82953624D01*
X93390784Y-83021544D01*
X93538354Y-83120147D01*
X93663853Y-83245646D01*
X93762456Y-83393216D01*
X93830376Y-83557188D01*
X93865000Y-83731259D01*
X93865000Y-83908741D01*
X93830376Y-84082812D01*
X93762456Y-84246784D01*
X93663853Y-84394354D01*
X93538354Y-84519853D01*
X93390784Y-84618456D01*
X93226812Y-84686376D01*
X93077512Y-84716073D01*
X93052742Y-84721000D01*
X92875258Y-84721000D01*
X92850488Y-84716073D01*
X92701188Y-84686376D01*
X92537216Y-84618456D01*
X92389646Y-84519853D01*
X92264147Y-84394354D01*
X92165544Y-84246784D01*
X92097624Y-84082812D01*
X92063000Y-83908741D01*
X92063000Y-83731259D01*
X92097624Y-83557188D01*
X92165544Y-83393216D01*
X92264147Y-83245646D01*
X92389646Y-83120147D01*
X92537216Y-83021544D01*
X92701188Y-82953624D01*
X92850488Y-82923927D01*
X92875258Y-82919000D01*
X93052742Y-82919000D01*
X93077512Y-82923927D01*
G37*
G36*
X95617512Y-82923927D02*
G01*
X95766812Y-82953624D01*
X95930784Y-83021544D01*
X96078354Y-83120147D01*
X96203853Y-83245646D01*
X96302456Y-83393216D01*
X96370376Y-83557188D01*
X96405000Y-83731259D01*
X96405000Y-83908741D01*
X96370376Y-84082812D01*
X96302456Y-84246784D01*
X96203853Y-84394354D01*
X96078354Y-84519853D01*
X95930784Y-84618456D01*
X95766812Y-84686376D01*
X95617512Y-84716073D01*
X95592742Y-84721000D01*
X95415258Y-84721000D01*
X95390488Y-84716073D01*
X95241188Y-84686376D01*
X95077216Y-84618456D01*
X94929646Y-84519853D01*
X94804147Y-84394354D01*
X94705544Y-84246784D01*
X94637624Y-84082812D01*
X94603000Y-83908741D01*
X94603000Y-83731259D01*
X94637624Y-83557188D01*
X94705544Y-83393216D01*
X94804147Y-83245646D01*
X94929646Y-83120147D01*
X95077216Y-83021544D01*
X95241188Y-82953624D01*
X95390488Y-82923927D01*
X95415258Y-82919000D01*
X95592742Y-82919000D01*
X95617512Y-82923927D01*
G37*
G36*
X98157512Y-82923927D02*
G01*
X98306812Y-82953624D01*
X98470784Y-83021544D01*
X98618354Y-83120147D01*
X98743853Y-83245646D01*
X98842456Y-83393216D01*
X98910376Y-83557188D01*
X98945000Y-83731259D01*
X98945000Y-83908741D01*
X98910376Y-84082812D01*
X98842456Y-84246784D01*
X98743853Y-84394354D01*
X98618354Y-84519853D01*
X98470784Y-84618456D01*
X98306812Y-84686376D01*
X98157512Y-84716073D01*
X98132742Y-84721000D01*
X97955258Y-84721000D01*
X97930488Y-84716073D01*
X97781188Y-84686376D01*
X97617216Y-84618456D01*
X97469646Y-84519853D01*
X97344147Y-84394354D01*
X97245544Y-84246784D01*
X97177624Y-84082812D01*
X97143000Y-83908741D01*
X97143000Y-83731259D01*
X97177624Y-83557188D01*
X97245544Y-83393216D01*
X97344147Y-83245646D01*
X97469646Y-83120147D01*
X97617216Y-83021544D01*
X97781188Y-82953624D01*
X97930488Y-82923927D01*
X97955258Y-82919000D01*
X98132742Y-82919000D01*
X98157512Y-82923927D01*
G37*
G36*
X83933512Y-82923927D02*
G01*
X84082812Y-82953624D01*
X84246784Y-83021544D01*
X84394354Y-83120147D01*
X84519853Y-83245646D01*
X84618456Y-83393216D01*
X84686376Y-83557188D01*
X84721000Y-83731259D01*
X84721000Y-83908741D01*
X84686376Y-84082812D01*
X84618456Y-84246784D01*
X84519853Y-84394354D01*
X84394354Y-84519853D01*
X84246784Y-84618456D01*
X84082812Y-84686376D01*
X83933512Y-84716073D01*
X83908742Y-84721000D01*
X83731258Y-84721000D01*
X83706488Y-84716073D01*
X83557188Y-84686376D01*
X83393216Y-84618456D01*
X83245646Y-84519853D01*
X83120147Y-84394354D01*
X83021544Y-84246784D01*
X82953624Y-84082812D01*
X82919000Y-83908741D01*
X82919000Y-83731259D01*
X82953624Y-83557188D01*
X83021544Y-83393216D01*
X83120147Y-83245646D01*
X83245646Y-83120147D01*
X83393216Y-83021544D01*
X83557188Y-82953624D01*
X83706488Y-82923927D01*
X83731258Y-82919000D01*
X83908742Y-82919000D01*
X83933512Y-82923927D01*
G37*
G36*
X86473512Y-82923927D02*
G01*
X86622812Y-82953624D01*
X86786784Y-83021544D01*
X86934354Y-83120147D01*
X87059853Y-83245646D01*
X87158456Y-83393216D01*
X87226376Y-83557188D01*
X87261000Y-83731259D01*
X87261000Y-83908741D01*
X87226376Y-84082812D01*
X87158456Y-84246784D01*
X87059853Y-84394354D01*
X86934354Y-84519853D01*
X86786784Y-84618456D01*
X86622812Y-84686376D01*
X86473512Y-84716073D01*
X86448742Y-84721000D01*
X86271258Y-84721000D01*
X86246488Y-84716073D01*
X86097188Y-84686376D01*
X85933216Y-84618456D01*
X85785646Y-84519853D01*
X85660147Y-84394354D01*
X85561544Y-84246784D01*
X85493624Y-84082812D01*
X85459000Y-83908741D01*
X85459000Y-83731259D01*
X85493624Y-83557188D01*
X85561544Y-83393216D01*
X85660147Y-83245646D01*
X85785646Y-83120147D01*
X85933216Y-83021544D01*
X86097188Y-82953624D01*
X86246488Y-82923927D01*
X86271258Y-82919000D01*
X86448742Y-82919000D01*
X86473512Y-82923927D01*
G37*
G36*
X86473512Y-80383927D02*
G01*
X86622812Y-80413624D01*
X86786784Y-80481544D01*
X86934354Y-80580147D01*
X87059853Y-80705646D01*
X87158456Y-80853216D01*
X87226376Y-81017188D01*
X87261000Y-81191259D01*
X87261000Y-81368741D01*
X87226376Y-81542812D01*
X87158456Y-81706784D01*
X87059853Y-81854354D01*
X86934354Y-81979853D01*
X86786784Y-82078456D01*
X86622812Y-82146376D01*
X86473512Y-82176073D01*
X86448742Y-82181000D01*
X86271258Y-82181000D01*
X86246488Y-82176073D01*
X86097188Y-82146376D01*
X85933216Y-82078456D01*
X85785646Y-81979853D01*
X85660147Y-81854354D01*
X85561544Y-81706784D01*
X85493624Y-81542812D01*
X85459000Y-81368741D01*
X85459000Y-81191259D01*
X85493624Y-81017188D01*
X85561544Y-80853216D01*
X85660147Y-80705646D01*
X85785646Y-80580147D01*
X85933216Y-80481544D01*
X86097188Y-80413624D01*
X86246488Y-80383927D01*
X86271258Y-80379000D01*
X86448742Y-80379000D01*
X86473512Y-80383927D01*
G37*
G36*
X83933512Y-80383927D02*
G01*
X84082812Y-80413624D01*
X84246784Y-80481544D01*
X84394354Y-80580147D01*
X84519853Y-80705646D01*
X84618456Y-80853216D01*
X84686376Y-81017188D01*
X84721000Y-81191259D01*
X84721000Y-81368741D01*
X84686376Y-81542812D01*
X84618456Y-81706784D01*
X84519853Y-81854354D01*
X84394354Y-81979853D01*
X84246784Y-82078456D01*
X84082812Y-82146376D01*
X83933512Y-82176073D01*
X83908742Y-82181000D01*
X83731258Y-82181000D01*
X83706488Y-82176073D01*
X83557188Y-82146376D01*
X83393216Y-82078456D01*
X83245646Y-81979853D01*
X83120147Y-81854354D01*
X83021544Y-81706784D01*
X82953624Y-81542812D01*
X82919000Y-81368741D01*
X82919000Y-81191259D01*
X82953624Y-81017188D01*
X83021544Y-80853216D01*
X83120147Y-80705646D01*
X83245646Y-80580147D01*
X83393216Y-80481544D01*
X83557188Y-80413624D01*
X83706488Y-80383927D01*
X83731258Y-80379000D01*
X83908742Y-80379000D01*
X83933512Y-80383927D01*
G37*
G36*
X101897000Y-79799000D02*
G01*
X100795000Y-79799000D01*
X100795000Y-78697000D01*
X101897000Y-78697000D01*
X101897000Y-79799000D01*
G37*
G36*
X83933512Y-77843927D02*
G01*
X84082812Y-77873624D01*
X84246784Y-77941544D01*
X84394354Y-78040147D01*
X84519853Y-78165646D01*
X84618456Y-78313216D01*
X84686376Y-78477188D01*
X84721000Y-78651259D01*
X84721000Y-78828741D01*
X84686376Y-79002812D01*
X84618456Y-79166784D01*
X84519853Y-79314354D01*
X84394354Y-79439853D01*
X84246784Y-79538456D01*
X84082812Y-79606376D01*
X83933512Y-79636073D01*
X83908742Y-79641000D01*
X83731258Y-79641000D01*
X83706488Y-79636073D01*
X83557188Y-79606376D01*
X83393216Y-79538456D01*
X83245646Y-79439853D01*
X83120147Y-79314354D01*
X83021544Y-79166784D01*
X82953624Y-79002812D01*
X82919000Y-78828741D01*
X82919000Y-78651259D01*
X82953624Y-78477188D01*
X83021544Y-78313216D01*
X83120147Y-78165646D01*
X83245646Y-78040147D01*
X83393216Y-77941544D01*
X83557188Y-77873624D01*
X83706488Y-77843927D01*
X83731258Y-77839000D01*
X83908742Y-77839000D01*
X83933512Y-77843927D01*
G37*
G36*
X86473512Y-77843927D02*
G01*
X86622812Y-77873624D01*
X86786784Y-77941544D01*
X86934354Y-78040147D01*
X87059853Y-78165646D01*
X87158456Y-78313216D01*
X87226376Y-78477188D01*
X87261000Y-78651259D01*
X87261000Y-78828741D01*
X87226376Y-79002812D01*
X87158456Y-79166784D01*
X87059853Y-79314354D01*
X86934354Y-79439853D01*
X86786784Y-79538456D01*
X86622812Y-79606376D01*
X86473512Y-79636073D01*
X86448742Y-79641000D01*
X86271258Y-79641000D01*
X86246488Y-79636073D01*
X86097188Y-79606376D01*
X85933216Y-79538456D01*
X85785646Y-79439853D01*
X85660147Y-79314354D01*
X85561544Y-79166784D01*
X85493624Y-79002812D01*
X85459000Y-78828741D01*
X85459000Y-78651259D01*
X85493624Y-78477188D01*
X85561544Y-78313216D01*
X85660147Y-78165646D01*
X85785646Y-78040147D01*
X85933216Y-77941544D01*
X86097188Y-77873624D01*
X86246488Y-77843927D01*
X86271258Y-77839000D01*
X86448742Y-77839000D01*
X86473512Y-77843927D01*
G37*
G36*
X106641244Y-77751699D02*
G01*
X106715142Y-77766398D01*
X106854364Y-77824065D01*
X106979659Y-77907785D01*
X107086215Y-78014341D01*
X107169935Y-78139636D01*
X107227602Y-78278858D01*
X107257000Y-78426654D01*
X107257000Y-78577346D01*
X107227602Y-78725142D01*
X107169935Y-78864364D01*
X107086215Y-78989659D01*
X106979659Y-79096215D01*
X106854364Y-79179935D01*
X106715142Y-79237602D01*
X106641244Y-79252301D01*
X106567347Y-79267000D01*
X106416653Y-79267000D01*
X106342756Y-79252301D01*
X106268858Y-79237602D01*
X106129636Y-79179935D01*
X106004341Y-79096215D01*
X105897785Y-78989659D01*
X105814065Y-78864364D01*
X105756398Y-78725142D01*
X105727000Y-78577346D01*
X105727000Y-78426654D01*
X105756398Y-78278858D01*
X105814065Y-78139636D01*
X105897785Y-78014341D01*
X106004341Y-77907785D01*
X106129636Y-77824065D01*
X106268858Y-77766398D01*
X106342756Y-77751699D01*
X106416653Y-77737000D01*
X106567347Y-77737000D01*
X106641244Y-77751699D01*
G37*
G36*
X104641244Y-77751699D02*
G01*
X104715142Y-77766398D01*
X104854364Y-77824065D01*
X104979659Y-77907785D01*
X105086215Y-78014341D01*
X105169935Y-78139636D01*
X105227602Y-78278858D01*
X105257000Y-78426654D01*
X105257000Y-78577346D01*
X105227602Y-78725142D01*
X105169935Y-78864364D01*
X105086215Y-78989659D01*
X104979659Y-79096215D01*
X104854364Y-79179935D01*
X104715142Y-79237602D01*
X104641244Y-79252301D01*
X104567347Y-79267000D01*
X104416653Y-79267000D01*
X104342756Y-79252301D01*
X104268858Y-79237602D01*
X104129636Y-79179935D01*
X104004341Y-79096215D01*
X103897785Y-78989659D01*
X103814065Y-78864364D01*
X103756398Y-78725142D01*
X103727000Y-78577346D01*
X103727000Y-78426654D01*
X103756398Y-78278858D01*
X103814065Y-78139636D01*
X103897785Y-78014341D01*
X104004341Y-77907785D01*
X104129636Y-77824065D01*
X104268858Y-77766398D01*
X104342756Y-77751699D01*
X104416653Y-77737000D01*
X104567347Y-77737000D01*
X104641244Y-77751699D01*
G37*
G36*
X83933512Y-75303927D02*
G01*
X84082812Y-75333624D01*
X84246784Y-75401544D01*
X84394354Y-75500147D01*
X84519853Y-75625646D01*
X84618456Y-75773216D01*
X84686376Y-75937188D01*
X84721000Y-76111259D01*
X84721000Y-76288741D01*
X84686376Y-76462812D01*
X84618456Y-76626784D01*
X84519853Y-76774354D01*
X84394354Y-76899853D01*
X84246784Y-76998456D01*
X84082812Y-77066376D01*
X83933512Y-77096073D01*
X83908742Y-77101000D01*
X83731258Y-77101000D01*
X83706488Y-77096073D01*
X83557188Y-77066376D01*
X83393216Y-76998456D01*
X83245646Y-76899853D01*
X83120147Y-76774354D01*
X83021544Y-76626784D01*
X82953624Y-76462812D01*
X82919000Y-76288741D01*
X82919000Y-76111259D01*
X82953624Y-75937188D01*
X83021544Y-75773216D01*
X83120147Y-75625646D01*
X83245646Y-75500147D01*
X83393216Y-75401544D01*
X83557188Y-75333624D01*
X83706488Y-75303927D01*
X83731258Y-75299000D01*
X83908742Y-75299000D01*
X83933512Y-75303927D01*
G37*
G36*
X86473512Y-75303927D02*
G01*
X86622812Y-75333624D01*
X86786784Y-75401544D01*
X86934354Y-75500147D01*
X87059853Y-75625646D01*
X87158456Y-75773216D01*
X87226376Y-75937188D01*
X87261000Y-76111259D01*
X87261000Y-76288741D01*
X87226376Y-76462812D01*
X87158456Y-76626784D01*
X87059853Y-76774354D01*
X86934354Y-76899853D01*
X86786784Y-76998456D01*
X86622812Y-77066376D01*
X86473512Y-77096073D01*
X86448742Y-77101000D01*
X86271258Y-77101000D01*
X86246488Y-77096073D01*
X86097188Y-77066376D01*
X85933216Y-76998456D01*
X85785646Y-76899853D01*
X85660147Y-76774354D01*
X85561544Y-76626784D01*
X85493624Y-76462812D01*
X85459000Y-76288741D01*
X85459000Y-76111259D01*
X85493624Y-75937188D01*
X85561544Y-75773216D01*
X85660147Y-75625646D01*
X85785646Y-75500147D01*
X85933216Y-75401544D01*
X86097188Y-75333624D01*
X86246488Y-75303927D01*
X86271258Y-75299000D01*
X86448742Y-75299000D01*
X86473512Y-75303927D01*
G37*
G36*
X105257000Y-76767000D02*
G01*
X103727000Y-76767000D01*
X103727000Y-75237000D01*
X105257000Y-75237000D01*
X105257000Y-76767000D01*
G37*
G36*
X106641244Y-75251699D02*
G01*
X106715142Y-75266398D01*
X106854364Y-75324065D01*
X106979659Y-75407785D01*
X107086215Y-75514341D01*
X107169935Y-75639636D01*
X107227602Y-75778858D01*
X107257000Y-75926654D01*
X107257000Y-76077346D01*
X107227602Y-76225142D01*
X107169935Y-76364364D01*
X107086215Y-76489659D01*
X106979659Y-76596215D01*
X106854364Y-76679935D01*
X106715142Y-76737602D01*
X106641244Y-76752301D01*
X106567347Y-76767000D01*
X106416653Y-76767000D01*
X106342756Y-76752301D01*
X106268858Y-76737602D01*
X106129636Y-76679935D01*
X106004341Y-76596215D01*
X105897785Y-76489659D01*
X105814065Y-76364364D01*
X105756398Y-76225142D01*
X105727000Y-76077346D01*
X105727000Y-75926654D01*
X105756398Y-75778858D01*
X105814065Y-75639636D01*
X105897785Y-75514341D01*
X106004341Y-75407785D01*
X106129636Y-75324065D01*
X106268858Y-75266398D01*
X106342756Y-75251699D01*
X106416653Y-75237000D01*
X106567347Y-75237000D01*
X106641244Y-75251699D01*
G37*
G36*
X101897000Y-75227000D02*
G01*
X100795000Y-75227000D01*
X100795000Y-74125000D01*
X101897000Y-74125000D01*
X101897000Y-75227000D01*
G37*
G36*
X86473512Y-72763927D02*
G01*
X86622812Y-72793624D01*
X86786784Y-72861544D01*
X86934354Y-72960147D01*
X87059853Y-73085646D01*
X87158456Y-73233216D01*
X87226376Y-73397188D01*
X87261000Y-73571259D01*
X87261000Y-73748741D01*
X87226376Y-73922812D01*
X87158456Y-74086784D01*
X87059853Y-74234354D01*
X86934354Y-74359853D01*
X86786784Y-74458456D01*
X86622812Y-74526376D01*
X86473512Y-74556073D01*
X86448742Y-74561000D01*
X86271258Y-74561000D01*
X86246488Y-74556073D01*
X86097188Y-74526376D01*
X85933216Y-74458456D01*
X85785646Y-74359853D01*
X85660147Y-74234354D01*
X85561544Y-74086784D01*
X85493624Y-73922812D01*
X85459000Y-73748741D01*
X85459000Y-73571259D01*
X85493624Y-73397188D01*
X85561544Y-73233216D01*
X85660147Y-73085646D01*
X85785646Y-72960147D01*
X85933216Y-72861544D01*
X86097188Y-72793624D01*
X86246488Y-72763927D01*
X86271258Y-72759000D01*
X86448742Y-72759000D01*
X86473512Y-72763927D01*
G37*
G36*
X83933512Y-72763927D02*
G01*
X84082812Y-72793624D01*
X84246784Y-72861544D01*
X84394354Y-72960147D01*
X84519853Y-73085646D01*
X84618456Y-73233216D01*
X84686376Y-73397188D01*
X84721000Y-73571259D01*
X84721000Y-73748741D01*
X84686376Y-73922812D01*
X84618456Y-74086784D01*
X84519853Y-74234354D01*
X84394354Y-74359853D01*
X84246784Y-74458456D01*
X84082812Y-74526376D01*
X83933512Y-74556073D01*
X83908742Y-74561000D01*
X83731258Y-74561000D01*
X83706488Y-74556073D01*
X83557188Y-74526376D01*
X83393216Y-74458456D01*
X83245646Y-74359853D01*
X83120147Y-74234354D01*
X83021544Y-74086784D01*
X82953624Y-73922812D01*
X82919000Y-73748741D01*
X82919000Y-73571259D01*
X82953624Y-73397188D01*
X83021544Y-73233216D01*
X83120147Y-73085646D01*
X83245646Y-72960147D01*
X83393216Y-72861544D01*
X83557188Y-72793624D01*
X83706488Y-72763927D01*
X83731258Y-72759000D01*
X83908742Y-72759000D01*
X83933512Y-72763927D01*
G37*
G36*
X109700496Y-69628675D02*
G01*
X110011513Y-69757503D01*
X110011515Y-69757504D01*
X110291424Y-69944533D01*
X110529467Y-70182576D01*
X110688207Y-70420148D01*
X110716497Y-70462487D01*
X110845325Y-70773504D01*
X110911000Y-71103677D01*
X110911000Y-71440323D01*
X110845325Y-71770496D01*
X110755904Y-71986376D01*
X110716496Y-72081515D01*
X110529467Y-72361424D01*
X110291424Y-72599467D01*
X110011515Y-72786496D01*
X110011514Y-72786497D01*
X110011513Y-72786497D01*
X109700496Y-72915325D01*
X109370323Y-72981000D01*
X109033677Y-72981000D01*
X108703504Y-72915325D01*
X108392487Y-72786497D01*
X108392486Y-72786497D01*
X108392485Y-72786496D01*
X108112576Y-72599467D01*
X107874533Y-72361424D01*
X107687504Y-72081515D01*
X107648096Y-71986376D01*
X107558675Y-71770496D01*
X107493000Y-71440323D01*
X107493000Y-71103677D01*
X107558675Y-70773504D01*
X107687503Y-70462487D01*
X107715793Y-70420148D01*
X107874533Y-70182576D01*
X108112576Y-69944533D01*
X108392485Y-69757504D01*
X108392487Y-69757503D01*
X108703504Y-69628675D01*
X109033677Y-69563000D01*
X109370323Y-69563000D01*
X109700496Y-69628675D01*
G37*
G36*
X83933512Y-70223927D02*
G01*
X84082812Y-70253624D01*
X84246784Y-70321544D01*
X84394354Y-70420147D01*
X84519853Y-70545646D01*
X84618456Y-70693216D01*
X84686376Y-70857188D01*
X84721000Y-71031259D01*
X84721000Y-71208741D01*
X84686376Y-71382812D01*
X84618456Y-71546784D01*
X84519853Y-71694354D01*
X84394354Y-71819853D01*
X84246784Y-71918456D01*
X84082812Y-71986376D01*
X83933512Y-72016073D01*
X83908742Y-72021000D01*
X83731258Y-72021000D01*
X83706488Y-72016073D01*
X83557188Y-71986376D01*
X83393216Y-71918456D01*
X83245646Y-71819853D01*
X83120147Y-71694354D01*
X83021544Y-71546784D01*
X82953624Y-71382812D01*
X82919000Y-71208741D01*
X82919000Y-71031259D01*
X82953624Y-70857188D01*
X83021544Y-70693216D01*
X83120147Y-70545646D01*
X83245646Y-70420147D01*
X83393216Y-70321544D01*
X83557188Y-70253624D01*
X83706488Y-70223927D01*
X83731258Y-70219000D01*
X83908742Y-70219000D01*
X83933512Y-70223927D01*
G37*
G36*
X87261000Y-72021000D02*
G01*
X85459000Y-72021000D01*
X85459000Y-70219000D01*
X87261000Y-70219000D01*
X87261000Y-72021000D01*
G37*
M02*
