M48
; DRILL file {KiCad 5.1.6-c6e7f7d~86~ubuntu18.04.1} date Mon May 10 21:05:42 2021
; FORMAT={-:-/ absolute / inch / decimal}
; #@! TF.CreationDate,2021-05-10T21:05:42-07:00
; #@! TF.GenerationSoftware,Kicad,Pcbnew,5.1.6-c6e7f7d~86~ubuntu18.04.1
; #@! TF.FileFunction,Plated,1,4,PTH
FMAT,2
INCH
T1C0.0100
T2C0.0197
T3C0.0362
T4C0.0394
T5C0.0906
%
G90
G05
T1
X3.99Y-2.83
T2
X3.5Y-2.76
X3.5Y-2.82
X3.571Y-3.1112
X3.99Y-3.12
X3.99Y-2.94
T3
X4.1139Y-2.9922
X4.1139Y-3.0906
X4.1926Y-2.9922
X4.1926Y-3.0906
T4
X3.56Y-3.3
X3.66Y-3.3
X3.76Y-3.3
X3.86Y-3.3
X3.96Y-3.3
X3.3Y-2.8
X3.3Y-2.9
X3.3Y-3.0
X3.3Y-3.1
X3.3Y-3.2
X3.3Y-3.3
X3.4Y-2.8
X3.4Y-2.9
X3.4Y-3.0
X3.4Y-3.1
X3.4Y-3.2
X3.4Y-3.3
T5
X4.2993Y-2.806
X4.2993Y-3.28
T0
M30
