G04 #@! TF.GenerationSoftware,KiCad,Pcbnew,5.1.6-c6e7f7d~86~ubuntu18.04.1*
G04 #@! TF.CreationDate,2021-05-10T21:05:39-07:00*
G04 #@! TF.ProjectId,usb_dev_pmod,7573625f-6465-4765-9f70-6d6f642e6b69,rev?*
G04 #@! TF.SameCoordinates,Original*
G04 #@! TF.FileFunction,Copper,L4,Bot*
G04 #@! TF.FilePolarity,Positive*
%FSLAX46Y46*%
G04 Gerber Fmt 4.6, Leading zero omitted, Abs format (unit mm)*
G04 Created by KiCad (PCBNEW 5.1.6-c6e7f7d~86~ubuntu18.04.1) date 2021-05-10 21:05:39*
%MOMM*%
%LPD*%
G01*
G04 APERTURE LIST*
G04 #@! TA.AperFunction,ComponentPad*
%ADD10R,1.000000X1.000000*%
G04 #@! TD*
G04 #@! TA.AperFunction,ComponentPad*
%ADD11C,3.316000*%
G04 #@! TD*
G04 #@! TA.AperFunction,ComponentPad*
%ADD12C,1.428000*%
G04 #@! TD*
G04 #@! TA.AperFunction,ComponentPad*
%ADD13R,1.428000X1.428000*%
G04 #@! TD*
G04 #@! TA.AperFunction,ComponentPad*
%ADD14O,1.700000X1.700000*%
G04 #@! TD*
G04 #@! TA.AperFunction,ComponentPad*
%ADD15R,1.700000X1.700000*%
G04 #@! TD*
G04 #@! TA.AperFunction,ViaPad*
%ADD16C,1.100000*%
G04 #@! TD*
G04 #@! TA.AperFunction,ViaPad*
%ADD17C,0.500000*%
G04 #@! TD*
G04 #@! TA.AperFunction,Conductor*
%ADD18C,0.088900*%
G04 #@! TD*
G04 APERTURE END LIST*
D10*
X101346000Y-79248000D03*
X101346000Y-74676000D03*
D11*
X109202000Y-71272000D03*
X109202000Y-83312000D03*
D12*
X106492000Y-76002000D03*
X106492000Y-78502000D03*
X104492000Y-78502000D03*
D13*
X104492000Y-76002000D03*
D14*
X90424000Y-83820000D03*
X92964000Y-83820000D03*
X95504000Y-83820000D03*
X98044000Y-83820000D03*
D15*
X100584000Y-83820000D03*
D14*
X83820000Y-83820000D03*
X86360000Y-83820000D03*
X83820000Y-81280000D03*
X86360000Y-81280000D03*
X83820000Y-78740000D03*
X86360000Y-78740000D03*
X83820000Y-76200000D03*
X86360000Y-76200000D03*
X83820000Y-73660000D03*
X86360000Y-73660000D03*
X83820000Y-71120000D03*
D15*
X86360000Y-71120000D03*
D16*
X88900000Y-71628000D03*
X88900000Y-70104000D03*
X90703071Y-79023371D03*
D17*
X101346000Y-71882000D03*
D18*
X88905451Y-81285451D02*
X86360000Y-78740000D01*
X97022549Y-84841451D02*
X88905451Y-84841451D01*
X88905451Y-84841451D02*
X88905451Y-81285451D01*
X98044000Y-83820000D02*
X97022549Y-84841451D01*
X89402549Y-82798549D02*
X89402549Y-79750549D01*
X90424000Y-83820000D02*
X89402549Y-82798549D01*
X84841451Y-77221451D02*
X83820000Y-76200000D01*
X86873451Y-77221451D02*
X84841451Y-77221451D01*
X89402549Y-79750549D02*
X86873451Y-77221451D01*
X92964000Y-80264000D02*
X86360000Y-73660000D01*
X92964000Y-83820000D02*
X92964000Y-80264000D01*
X95504000Y-83820000D02*
X95504000Y-80772000D01*
X84841451Y-72638549D02*
X83820000Y-73660000D01*
X87370549Y-72638549D02*
X84841451Y-72638549D01*
X95504000Y-80772000D02*
X87370549Y-72638549D01*
M02*
