G04 #@! TF.GenerationSoftware,KiCad,Pcbnew,5.1.6-c6e7f7d~86~ubuntu18.04.1*
G04 #@! TF.CreationDate,2021-05-10T21:05:39-07:00*
G04 #@! TF.ProjectId,usb_dev_pmod,7573625f-6465-4765-9f70-6d6f642e6b69,rev?*
G04 #@! TF.SameCoordinates,Original*
G04 #@! TF.FileFunction,Copper,L1,Top*
G04 #@! TF.FilePolarity,Positive*
%FSLAX46Y46*%
G04 Gerber Fmt 4.6, Leading zero omitted, Abs format (unit mm)*
G04 Created by KiCad (PCBNEW 5.1.6-c6e7f7d~86~ubuntu18.04.1) date 2021-05-10 21:05:39*
%MOMM*%
%LPD*%
G01*
G04 APERTURE LIST*
G04 #@! TA.AperFunction,ComponentPad*
%ADD10R,1.000000X1.000000*%
G04 #@! TD*
G04 #@! TA.AperFunction,ComponentPad*
%ADD11C,3.316000*%
G04 #@! TD*
G04 #@! TA.AperFunction,ComponentPad*
%ADD12C,1.428000*%
G04 #@! TD*
G04 #@! TA.AperFunction,ComponentPad*
%ADD13R,1.428000X1.428000*%
G04 #@! TD*
G04 #@! TA.AperFunction,ComponentPad*
%ADD14O,1.700000X1.700000*%
G04 #@! TD*
G04 #@! TA.AperFunction,ComponentPad*
%ADD15R,1.700000X1.700000*%
G04 #@! TD*
G04 #@! TA.AperFunction,ViaPad*
%ADD16C,1.100000*%
G04 #@! TD*
G04 #@! TA.AperFunction,ViaPad*
%ADD17C,0.500000*%
G04 #@! TD*
G04 #@! TA.AperFunction,Conductor*
%ADD18C,0.127000*%
G04 #@! TD*
G04 #@! TA.AperFunction,Conductor*
%ADD19C,0.088900*%
G04 #@! TD*
G04 APERTURE END LIST*
D10*
X101346000Y-79248000D03*
X101346000Y-74676000D03*
D11*
X109202000Y-71272000D03*
X109202000Y-83312000D03*
D12*
X106492000Y-76002000D03*
X106492000Y-78502000D03*
X104492000Y-78502000D03*
D13*
X104492000Y-76002000D03*
G04 #@! TA.AperFunction,SMDPad,CuDef*
G36*
G01*
X89805500Y-72091000D02*
X90280500Y-72091000D01*
G75*
G02*
X90518000Y-72328500I0J-237500D01*
G01*
X90518000Y-72903500D01*
G75*
G02*
X90280500Y-73141000I-237500J0D01*
G01*
X89805500Y-73141000D01*
G75*
G02*
X89568000Y-72903500I0J237500D01*
G01*
X89568000Y-72328500D01*
G75*
G02*
X89805500Y-72091000I237500J0D01*
G01*
G37*
G04 #@! TD.AperFunction*
G04 #@! TA.AperFunction,SMDPad,CuDef*
G36*
G01*
X89805500Y-70341000D02*
X90280500Y-70341000D01*
G75*
G02*
X90518000Y-70578500I0J-237500D01*
G01*
X90518000Y-71153500D01*
G75*
G02*
X90280500Y-71391000I-237500J0D01*
G01*
X89805500Y-71391000D01*
G75*
G02*
X89568000Y-71153500I0J237500D01*
G01*
X89568000Y-70578500D01*
G75*
G02*
X89805500Y-70341000I237500J0D01*
G01*
G37*
G04 #@! TD.AperFunction*
G04 #@! TA.AperFunction,SMDPad,CuDef*
G36*
G01*
X92374000Y-72406500D02*
X92374000Y-72881500D01*
G75*
G02*
X92136500Y-73119000I-237500J0D01*
G01*
X91561500Y-73119000D01*
G75*
G02*
X91324000Y-72881500I0J237500D01*
G01*
X91324000Y-72406500D01*
G75*
G02*
X91561500Y-72169000I237500J0D01*
G01*
X92136500Y-72169000D01*
G75*
G02*
X92374000Y-72406500I0J-237500D01*
G01*
G37*
G04 #@! TD.AperFunction*
G04 #@! TA.AperFunction,SMDPad,CuDef*
G36*
G01*
X94124000Y-72406500D02*
X94124000Y-72881500D01*
G75*
G02*
X93886500Y-73119000I-237500J0D01*
G01*
X93311500Y-73119000D01*
G75*
G02*
X93074000Y-72881500I0J237500D01*
G01*
X93074000Y-72406500D01*
G75*
G02*
X93311500Y-72169000I237500J0D01*
G01*
X93886500Y-72169000D01*
G75*
G02*
X94124000Y-72406500I0J-237500D01*
G01*
G37*
G04 #@! TD.AperFunction*
G04 #@! TA.AperFunction,SMDPad,CuDef*
G36*
G01*
X92374000Y-70628500D02*
X92374000Y-71103500D01*
G75*
G02*
X92136500Y-71341000I-237500J0D01*
G01*
X91561500Y-71341000D01*
G75*
G02*
X91324000Y-71103500I0J237500D01*
G01*
X91324000Y-70628500D01*
G75*
G02*
X91561500Y-70391000I237500J0D01*
G01*
X92136500Y-70391000D01*
G75*
G02*
X92374000Y-70628500I0J-237500D01*
G01*
G37*
G04 #@! TD.AperFunction*
G04 #@! TA.AperFunction,SMDPad,CuDef*
G36*
G01*
X94124000Y-70628500D02*
X94124000Y-71103500D01*
G75*
G02*
X93886500Y-71341000I-237500J0D01*
G01*
X93311500Y-71341000D01*
G75*
G02*
X93074000Y-71103500I0J237500D01*
G01*
X93074000Y-70628500D01*
G75*
G02*
X93311500Y-70391000I237500J0D01*
G01*
X93886500Y-70391000D01*
G75*
G02*
X94124000Y-70628500I0J-237500D01*
G01*
G37*
G04 #@! TD.AperFunction*
D14*
X90424000Y-83820000D03*
X92964000Y-83820000D03*
X95504000Y-83820000D03*
X98044000Y-83820000D03*
D15*
X100584000Y-83820000D03*
D14*
X83820000Y-83820000D03*
X86360000Y-83820000D03*
X83820000Y-81280000D03*
X86360000Y-81280000D03*
X83820000Y-78740000D03*
X86360000Y-78740000D03*
X83820000Y-76200000D03*
X86360000Y-76200000D03*
X83820000Y-73660000D03*
X86360000Y-73660000D03*
X83820000Y-71120000D03*
D15*
X86360000Y-71120000D03*
G04 #@! TA.AperFunction,SMDPad,CuDef*
G36*
G01*
X97517500Y-76343500D02*
X97517500Y-76818500D01*
G75*
G02*
X97280000Y-77056000I-237500J0D01*
G01*
X96705000Y-77056000D01*
G75*
G02*
X96467500Y-76818500I0J237500D01*
G01*
X96467500Y-76343500D01*
G75*
G02*
X96705000Y-76106000I237500J0D01*
G01*
X97280000Y-76106000D01*
G75*
G02*
X97517500Y-76343500I0J-237500D01*
G01*
G37*
G04 #@! TD.AperFunction*
G04 #@! TA.AperFunction,SMDPad,CuDef*
G36*
G01*
X99267500Y-76343500D02*
X99267500Y-76818500D01*
G75*
G02*
X99030000Y-77056000I-237500J0D01*
G01*
X98455000Y-77056000D01*
G75*
G02*
X98217500Y-76818500I0J237500D01*
G01*
X98217500Y-76343500D01*
G75*
G02*
X98455000Y-76106000I237500J0D01*
G01*
X99030000Y-76106000D01*
G75*
G02*
X99267500Y-76343500I0J-237500D01*
G01*
G37*
G04 #@! TD.AperFunction*
G04 #@! TA.AperFunction,SMDPad,CuDef*
G36*
G01*
X97517500Y-74438500D02*
X97517500Y-74913500D01*
G75*
G02*
X97280000Y-75151000I-237500J0D01*
G01*
X96705000Y-75151000D01*
G75*
G02*
X96467500Y-74913500I0J237500D01*
G01*
X96467500Y-74438500D01*
G75*
G02*
X96705000Y-74201000I237500J0D01*
G01*
X97280000Y-74201000D01*
G75*
G02*
X97517500Y-74438500I0J-237500D01*
G01*
G37*
G04 #@! TD.AperFunction*
G04 #@! TA.AperFunction,SMDPad,CuDef*
G36*
G01*
X99267500Y-74438500D02*
X99267500Y-74913500D01*
G75*
G02*
X99030000Y-75151000I-237500J0D01*
G01*
X98455000Y-75151000D01*
G75*
G02*
X98217500Y-74913500I0J237500D01*
G01*
X98217500Y-74438500D01*
G75*
G02*
X98455000Y-74201000I237500J0D01*
G01*
X99030000Y-74201000D01*
G75*
G02*
X99267500Y-74438500I0J-237500D01*
G01*
G37*
G04 #@! TD.AperFunction*
G04 #@! TA.AperFunction,SMDPad,CuDef*
G36*
G01*
X97517500Y-78248500D02*
X97517500Y-78723500D01*
G75*
G02*
X97280000Y-78961000I-237500J0D01*
G01*
X96705000Y-78961000D01*
G75*
G02*
X96467500Y-78723500I0J237500D01*
G01*
X96467500Y-78248500D01*
G75*
G02*
X96705000Y-78011000I237500J0D01*
G01*
X97280000Y-78011000D01*
G75*
G02*
X97517500Y-78248500I0J-237500D01*
G01*
G37*
G04 #@! TD.AperFunction*
G04 #@! TA.AperFunction,SMDPad,CuDef*
G36*
G01*
X99267500Y-78248500D02*
X99267500Y-78723500D01*
G75*
G02*
X99030000Y-78961000I-237500J0D01*
G01*
X98455000Y-78961000D01*
G75*
G02*
X98217500Y-78723500I0J237500D01*
G01*
X98217500Y-78248500D01*
G75*
G02*
X98455000Y-78011000I237500J0D01*
G01*
X99030000Y-78011000D01*
G75*
G02*
X99267500Y-78248500I0J-237500D01*
G01*
G37*
G04 #@! TD.AperFunction*
G04 #@! TA.AperFunction,SMDPad,CuDef*
G36*
G01*
X90819000Y-74962500D02*
X90819000Y-74412500D01*
G75*
G02*
X90881500Y-74350000I62500J0D01*
G01*
X91006500Y-74350000D01*
G75*
G02*
X91069000Y-74412500I0J-62500D01*
G01*
X91069000Y-74962500D01*
G75*
G02*
X91006500Y-75025000I-62500J0D01*
G01*
X90881500Y-75025000D01*
G75*
G02*
X90819000Y-74962500I0J62500D01*
G01*
G37*
G04 #@! TD.AperFunction*
G04 #@! TA.AperFunction,SMDPad,CuDef*
G36*
G01*
X91319000Y-74962500D02*
X91319000Y-74412500D01*
G75*
G02*
X91381500Y-74350000I62500J0D01*
G01*
X91506500Y-74350000D01*
G75*
G02*
X91569000Y-74412500I0J-62500D01*
G01*
X91569000Y-74962500D01*
G75*
G02*
X91506500Y-75025000I-62500J0D01*
G01*
X91381500Y-75025000D01*
G75*
G02*
X91319000Y-74962500I0J62500D01*
G01*
G37*
G04 #@! TD.AperFunction*
G04 #@! TA.AperFunction,SMDPad,CuDef*
G36*
G01*
X91819000Y-74962500D02*
X91819000Y-74412500D01*
G75*
G02*
X91881500Y-74350000I62500J0D01*
G01*
X92006500Y-74350000D01*
G75*
G02*
X92069000Y-74412500I0J-62500D01*
G01*
X92069000Y-74962500D01*
G75*
G02*
X92006500Y-75025000I-62500J0D01*
G01*
X91881500Y-75025000D01*
G75*
G02*
X91819000Y-74962500I0J62500D01*
G01*
G37*
G04 #@! TD.AperFunction*
G04 #@! TA.AperFunction,SMDPad,CuDef*
G36*
G01*
X92319000Y-74962500D02*
X92319000Y-74412500D01*
G75*
G02*
X92381500Y-74350000I62500J0D01*
G01*
X92506500Y-74350000D01*
G75*
G02*
X92569000Y-74412500I0J-62500D01*
G01*
X92569000Y-74962500D01*
G75*
G02*
X92506500Y-75025000I-62500J0D01*
G01*
X92381500Y-75025000D01*
G75*
G02*
X92319000Y-74962500I0J62500D01*
G01*
G37*
G04 #@! TD.AperFunction*
G04 #@! TA.AperFunction,SMDPad,CuDef*
G36*
G01*
X92869000Y-75512500D02*
X92869000Y-75387500D01*
G75*
G02*
X92931500Y-75325000I62500J0D01*
G01*
X93481500Y-75325000D01*
G75*
G02*
X93544000Y-75387500I0J-62500D01*
G01*
X93544000Y-75512500D01*
G75*
G02*
X93481500Y-75575000I-62500J0D01*
G01*
X92931500Y-75575000D01*
G75*
G02*
X92869000Y-75512500I0J62500D01*
G01*
G37*
G04 #@! TD.AperFunction*
G04 #@! TA.AperFunction,SMDPad,CuDef*
G36*
G01*
X92869000Y-76012500D02*
X92869000Y-75887500D01*
G75*
G02*
X92931500Y-75825000I62500J0D01*
G01*
X93481500Y-75825000D01*
G75*
G02*
X93544000Y-75887500I0J-62500D01*
G01*
X93544000Y-76012500D01*
G75*
G02*
X93481500Y-76075000I-62500J0D01*
G01*
X92931500Y-76075000D01*
G75*
G02*
X92869000Y-76012500I0J62500D01*
G01*
G37*
G04 #@! TD.AperFunction*
G04 #@! TA.AperFunction,SMDPad,CuDef*
G36*
G01*
X92869000Y-76512500D02*
X92869000Y-76387500D01*
G75*
G02*
X92931500Y-76325000I62500J0D01*
G01*
X93481500Y-76325000D01*
G75*
G02*
X93544000Y-76387500I0J-62500D01*
G01*
X93544000Y-76512500D01*
G75*
G02*
X93481500Y-76575000I-62500J0D01*
G01*
X92931500Y-76575000D01*
G75*
G02*
X92869000Y-76512500I0J62500D01*
G01*
G37*
G04 #@! TD.AperFunction*
G04 #@! TA.AperFunction,SMDPad,CuDef*
G36*
G01*
X92869000Y-77012500D02*
X92869000Y-76887500D01*
G75*
G02*
X92931500Y-76825000I62500J0D01*
G01*
X93481500Y-76825000D01*
G75*
G02*
X93544000Y-76887500I0J-62500D01*
G01*
X93544000Y-77012500D01*
G75*
G02*
X93481500Y-77075000I-62500J0D01*
G01*
X92931500Y-77075000D01*
G75*
G02*
X92869000Y-77012500I0J62500D01*
G01*
G37*
G04 #@! TD.AperFunction*
G04 #@! TA.AperFunction,SMDPad,CuDef*
G36*
G01*
X92319000Y-77987500D02*
X92319000Y-77437500D01*
G75*
G02*
X92381500Y-77375000I62500J0D01*
G01*
X92506500Y-77375000D01*
G75*
G02*
X92569000Y-77437500I0J-62500D01*
G01*
X92569000Y-77987500D01*
G75*
G02*
X92506500Y-78050000I-62500J0D01*
G01*
X92381500Y-78050000D01*
G75*
G02*
X92319000Y-77987500I0J62500D01*
G01*
G37*
G04 #@! TD.AperFunction*
G04 #@! TA.AperFunction,SMDPad,CuDef*
G36*
G01*
X91819000Y-77987500D02*
X91819000Y-77437500D01*
G75*
G02*
X91881500Y-77375000I62500J0D01*
G01*
X92006500Y-77375000D01*
G75*
G02*
X92069000Y-77437500I0J-62500D01*
G01*
X92069000Y-77987500D01*
G75*
G02*
X92006500Y-78050000I-62500J0D01*
G01*
X91881500Y-78050000D01*
G75*
G02*
X91819000Y-77987500I0J62500D01*
G01*
G37*
G04 #@! TD.AperFunction*
G04 #@! TA.AperFunction,SMDPad,CuDef*
G36*
G01*
X91319000Y-77987500D02*
X91319000Y-77437500D01*
G75*
G02*
X91381500Y-77375000I62500J0D01*
G01*
X91506500Y-77375000D01*
G75*
G02*
X91569000Y-77437500I0J-62500D01*
G01*
X91569000Y-77987500D01*
G75*
G02*
X91506500Y-78050000I-62500J0D01*
G01*
X91381500Y-78050000D01*
G75*
G02*
X91319000Y-77987500I0J62500D01*
G01*
G37*
G04 #@! TD.AperFunction*
G04 #@! TA.AperFunction,SMDPad,CuDef*
G36*
G01*
X90819000Y-77987500D02*
X90819000Y-77437500D01*
G75*
G02*
X90881500Y-77375000I62500J0D01*
G01*
X91006500Y-77375000D01*
G75*
G02*
X91069000Y-77437500I0J-62500D01*
G01*
X91069000Y-77987500D01*
G75*
G02*
X91006500Y-78050000I-62500J0D01*
G01*
X90881500Y-78050000D01*
G75*
G02*
X90819000Y-77987500I0J62500D01*
G01*
G37*
G04 #@! TD.AperFunction*
G04 #@! TA.AperFunction,SMDPad,CuDef*
G36*
G01*
X89844000Y-77012500D02*
X89844000Y-76887500D01*
G75*
G02*
X89906500Y-76825000I62500J0D01*
G01*
X90456500Y-76825000D01*
G75*
G02*
X90519000Y-76887500I0J-62500D01*
G01*
X90519000Y-77012500D01*
G75*
G02*
X90456500Y-77075000I-62500J0D01*
G01*
X89906500Y-77075000D01*
G75*
G02*
X89844000Y-77012500I0J62500D01*
G01*
G37*
G04 #@! TD.AperFunction*
G04 #@! TA.AperFunction,SMDPad,CuDef*
G36*
G01*
X89844000Y-76512500D02*
X89844000Y-76387500D01*
G75*
G02*
X89906500Y-76325000I62500J0D01*
G01*
X90456500Y-76325000D01*
G75*
G02*
X90519000Y-76387500I0J-62500D01*
G01*
X90519000Y-76512500D01*
G75*
G02*
X90456500Y-76575000I-62500J0D01*
G01*
X89906500Y-76575000D01*
G75*
G02*
X89844000Y-76512500I0J62500D01*
G01*
G37*
G04 #@! TD.AperFunction*
G04 #@! TA.AperFunction,SMDPad,CuDef*
G36*
G01*
X89844000Y-76012500D02*
X89844000Y-75887500D01*
G75*
G02*
X89906500Y-75825000I62500J0D01*
G01*
X90456500Y-75825000D01*
G75*
G02*
X90519000Y-75887500I0J-62500D01*
G01*
X90519000Y-76012500D01*
G75*
G02*
X90456500Y-76075000I-62500J0D01*
G01*
X89906500Y-76075000D01*
G75*
G02*
X89844000Y-76012500I0J62500D01*
G01*
G37*
G04 #@! TD.AperFunction*
G04 #@! TA.AperFunction,SMDPad,CuDef*
G36*
G01*
X89844000Y-75512500D02*
X89844000Y-75387500D01*
G75*
G02*
X89906500Y-75325000I62500J0D01*
G01*
X90456500Y-75325000D01*
G75*
G02*
X90519000Y-75387500I0J-62500D01*
G01*
X90519000Y-75512500D01*
G75*
G02*
X90456500Y-75575000I-62500J0D01*
G01*
X89906500Y-75575000D01*
G75*
G02*
X89844000Y-75512500I0J62500D01*
G01*
G37*
G04 #@! TD.AperFunction*
G04 #@! TA.AperFunction,SMDPad,CuDef*
G36*
G01*
X90744000Y-76900000D02*
X90744000Y-75500000D01*
G75*
G02*
X90994000Y-75250000I250000J0D01*
G01*
X92394000Y-75250000D01*
G75*
G02*
X92644000Y-75500000I0J-250000D01*
G01*
X92644000Y-76900000D01*
G75*
G02*
X92394000Y-77150000I-250000J0D01*
G01*
X90994000Y-77150000D01*
G75*
G02*
X90744000Y-76900000I0J250000D01*
G01*
G37*
G04 #@! TD.AperFunction*
D16*
X88900000Y-71628000D03*
X88900000Y-70104000D03*
X90703071Y-79023371D03*
D17*
X101346000Y-71882000D03*
D18*
X90518000Y-72616000D02*
X90043000Y-72616000D01*
X91444000Y-73542000D02*
X90518000Y-72616000D01*
X91444000Y-74687500D02*
X91444000Y-73542000D01*
D19*
X89888000Y-72616000D02*
X90043000Y-72616000D01*
X88900000Y-71628000D02*
X89888000Y-72616000D01*
D18*
X90518000Y-70866000D02*
X91849000Y-70866000D01*
X90043000Y-70866000D02*
X90518000Y-70866000D01*
X91849000Y-72169000D02*
X91849000Y-70866000D01*
X91849000Y-72644000D02*
X91849000Y-72169000D01*
D19*
X89662000Y-70866000D02*
X90043000Y-70866000D01*
X88900000Y-70104000D02*
X89662000Y-70866000D01*
D18*
X91444000Y-77712500D02*
X91444000Y-78282442D01*
D19*
X91444000Y-78282442D02*
X90703071Y-79023371D01*
X93206500Y-76950000D02*
X93206500Y-79513500D01*
X88099911Y-80479911D02*
X86360000Y-78740000D01*
X93206500Y-79513500D02*
X92240089Y-80479911D01*
X92240089Y-80479911D02*
X88099911Y-80479911D01*
X91944000Y-77712500D02*
X91944000Y-79244000D01*
X85057361Y-77502639D02*
X84669999Y-77890001D01*
X91944000Y-79244000D02*
X91432000Y-79756000D01*
X91432000Y-79756000D02*
X89916000Y-79756000D01*
X89916000Y-79756000D02*
X87662639Y-77502639D01*
X87662639Y-77502639D02*
X85057361Y-77502639D01*
X84669999Y-77890001D02*
X83820000Y-78740000D01*
X89844000Y-76950000D02*
X89602000Y-76708000D01*
X90181500Y-76950000D02*
X89844000Y-76950000D01*
X89602000Y-76708000D02*
X88900000Y-76708000D01*
X84841451Y-75178549D02*
X83820000Y-76200000D01*
X87370549Y-75178549D02*
X84841451Y-75178549D01*
X88900000Y-76708000D02*
X87370549Y-75178549D01*
X89844000Y-76450000D02*
X87054000Y-73660000D01*
X87054000Y-73660000D02*
X86360000Y-73660000D01*
X90181500Y-76450000D02*
X89844000Y-76450000D01*
X89844000Y-75950000D02*
X90181500Y-75950000D01*
X86850297Y-72638549D02*
X88379748Y-74168000D01*
X84841451Y-72638549D02*
X86850297Y-72638549D01*
X83820000Y-73660000D02*
X84841451Y-72638549D01*
X89497000Y-75603000D02*
X89497000Y-75273000D01*
X89497000Y-75603000D02*
X89844000Y-75950000D01*
X89497000Y-75273000D02*
X88392000Y-74168000D01*
X90181500Y-75450000D02*
X90181500Y-75144156D01*
X90181500Y-75144156D02*
X87459982Y-72422638D01*
X87459982Y-72422638D02*
X85122638Y-72422638D01*
X85122638Y-72422638D02*
X83820000Y-71120000D01*
X82804000Y-72136000D02*
X83820000Y-71120000D01*
X92444000Y-77712500D02*
X92444000Y-79260000D01*
X82798549Y-79242549D02*
X82798549Y-72649451D01*
X82798549Y-72649451D02*
X82804000Y-72644000D01*
X92444000Y-79260000D02*
X91440000Y-80264000D01*
X89395748Y-80264000D02*
X86850297Y-77718549D01*
X86850297Y-77718549D02*
X85857451Y-77718549D01*
X85857451Y-77718549D02*
X84841451Y-78734549D01*
X84841451Y-78734549D02*
X84841451Y-79230297D01*
X84841451Y-79230297D02*
X84310297Y-79761451D01*
X84310297Y-79761451D02*
X83317451Y-79761451D01*
X91440000Y-80264000D02*
X89395748Y-80264000D01*
X83317451Y-79761451D02*
X82798549Y-79242549D01*
X82804000Y-72644000D02*
X82804000Y-72136000D01*
D18*
X93599000Y-75057500D02*
X93206500Y-75450000D01*
X93599000Y-72644000D02*
X93599000Y-75057500D01*
D19*
X96193500Y-75950000D02*
X96992500Y-75151000D01*
X96992500Y-75151000D02*
X96992500Y-74676000D01*
X93206500Y-75950000D02*
X96193500Y-75950000D01*
X96861500Y-76450000D02*
X96992500Y-76581000D01*
X93206500Y-76450000D02*
X96861500Y-76450000D01*
D18*
X92564510Y-73729490D02*
X91944000Y-74350000D01*
X91944000Y-74350000D02*
X91944000Y-74687500D01*
X92564510Y-71375490D02*
X92564510Y-73729490D01*
X93074000Y-70866000D02*
X92564510Y-71375490D01*
X93599000Y-70866000D02*
X93074000Y-70866000D01*
D19*
X100158900Y-70866000D02*
X93599000Y-70866000D01*
X100330000Y-70866000D02*
X101346000Y-71882000D01*
X100158900Y-70866000D02*
X100330000Y-70866000D01*
X104492000Y-75028000D02*
X101346000Y-71882000D01*
X104492000Y-76002000D02*
X104492000Y-75028000D01*
X90944000Y-77712500D02*
X88888500Y-77712500D01*
X87376000Y-76200000D02*
X86360000Y-76200000D01*
X88888500Y-77712500D02*
X87376000Y-76200000D01*
X87298900Y-71120000D02*
X86360000Y-71120000D01*
X90944000Y-74687500D02*
X88605951Y-72349451D01*
X88605951Y-72349451D02*
X88528351Y-72349451D01*
X88528351Y-72349451D02*
X87298900Y-71120000D01*
X98742500Y-77056000D02*
X98742500Y-78486000D01*
X98742500Y-76581000D02*
X98742500Y-77056000D01*
X100584000Y-78486000D02*
X101346000Y-79248000D01*
X98742500Y-78486000D02*
X100584000Y-78486000D01*
X105606549Y-79387451D02*
X106492000Y-78502000D01*
X101485451Y-79387451D02*
X105606549Y-79387451D01*
X101346000Y-79248000D02*
X101485451Y-79387451D01*
X98742500Y-74676000D02*
X101346000Y-74676000D01*
X101346000Y-75356000D02*
X104492000Y-78502000D01*
X101346000Y-74676000D02*
X101346000Y-75356000D01*
D18*
X95473490Y-71978490D02*
X97708010Y-74213010D01*
X97517500Y-78486000D02*
X96992500Y-78486000D01*
X97708010Y-78295490D02*
X97517500Y-78486000D01*
X92883490Y-72229210D02*
X93134210Y-71978490D01*
X92883490Y-73058790D02*
X92883490Y-72229210D01*
X93344990Y-73520290D02*
X92883490Y-73058790D01*
X97708010Y-74213010D02*
X97708010Y-78295490D01*
X93134210Y-71978490D02*
X95473490Y-71978490D01*
X93344990Y-74687500D02*
X93344990Y-73520290D01*
X92444000Y-74687500D02*
X93344990Y-74687500D01*
M02*
