G04 #@! TF.GenerationSoftware,KiCad,Pcbnew,5.1.6-c6e7f7d~86~ubuntu18.04.1*
G04 #@! TF.CreationDate,2021-05-10T20:55:15-07:00*
G04 #@! TF.ProjectId,usb_pmod,7573625f-706d-46f6-942e-6b696361645f,rev?*
G04 #@! TF.SameCoordinates,Original*
G04 #@! TF.FileFunction,Legend,Bot*
G04 #@! TF.FilePolarity,Positive*
%FSLAX46Y46*%
G04 Gerber Fmt 4.6, Leading zero omitted, Abs format (unit mm)*
G04 Created by KiCad (PCBNEW 5.1.6-c6e7f7d~86~ubuntu18.04.1) date 2021-05-10 20:55:15*
%MOMM*%
%LPD*%
G01*
G04 APERTURE LIST*
%ADD10C,0.300000*%
G04 APERTURE END LIST*
D10*
X101270285Y-85772571D02*
X101270285Y-86986857D01*
X101198857Y-87129714D01*
X101127428Y-87201142D01*
X100984571Y-87272571D01*
X100698857Y-87272571D01*
X100556000Y-87201142D01*
X100484571Y-87129714D01*
X100413142Y-86986857D01*
X100413142Y-85772571D01*
X99770285Y-87201142D02*
X99556000Y-87272571D01*
X99198857Y-87272571D01*
X99056000Y-87201142D01*
X98984571Y-87129714D01*
X98913142Y-86986857D01*
X98913142Y-86844000D01*
X98984571Y-86701142D01*
X99056000Y-86629714D01*
X99198857Y-86558285D01*
X99484571Y-86486857D01*
X99627428Y-86415428D01*
X99698857Y-86344000D01*
X99770285Y-86201142D01*
X99770285Y-86058285D01*
X99698857Y-85915428D01*
X99627428Y-85844000D01*
X99484571Y-85772571D01*
X99127428Y-85772571D01*
X98913142Y-85844000D01*
X97770285Y-86486857D02*
X97556000Y-86558285D01*
X97484571Y-86629714D01*
X97413142Y-86772571D01*
X97413142Y-86986857D01*
X97484571Y-87129714D01*
X97556000Y-87201142D01*
X97698857Y-87272571D01*
X98270285Y-87272571D01*
X98270285Y-85772571D01*
X97770285Y-85772571D01*
X97627428Y-85844000D01*
X97556000Y-85915428D01*
X97484571Y-86058285D01*
X97484571Y-86201142D01*
X97556000Y-86344000D01*
X97627428Y-86415428D01*
X97770285Y-86486857D01*
X98270285Y-86486857D01*
X105341714Y-89822571D02*
X105341714Y-88322571D01*
X104984571Y-88322571D01*
X104770285Y-88394000D01*
X104627428Y-88536857D01*
X104556000Y-88679714D01*
X104484571Y-88965428D01*
X104484571Y-89179714D01*
X104556000Y-89465428D01*
X104627428Y-89608285D01*
X104770285Y-89751142D01*
X104984571Y-89822571D01*
X105341714Y-89822571D01*
X103270285Y-89751142D02*
X103413142Y-89822571D01*
X103698857Y-89822571D01*
X103841714Y-89751142D01*
X103913142Y-89608285D01*
X103913142Y-89036857D01*
X103841714Y-88894000D01*
X103698857Y-88822571D01*
X103413142Y-88822571D01*
X103270285Y-88894000D01*
X103198857Y-89036857D01*
X103198857Y-89179714D01*
X103913142Y-89322571D01*
X102698857Y-88822571D02*
X102341714Y-89822571D01*
X101984571Y-88822571D01*
X101413142Y-89822571D02*
X101413142Y-88822571D01*
X101413142Y-88322571D02*
X101484571Y-88394000D01*
X101413142Y-88465428D01*
X101341714Y-88394000D01*
X101413142Y-88322571D01*
X101413142Y-88465428D01*
X100056000Y-89751142D02*
X100198857Y-89822571D01*
X100484571Y-89822571D01*
X100627428Y-89751142D01*
X100698857Y-89679714D01*
X100770285Y-89536857D01*
X100770285Y-89108285D01*
X100698857Y-88965428D01*
X100627428Y-88894000D01*
X100484571Y-88822571D01*
X100198857Y-88822571D01*
X100056000Y-88894000D01*
X98841714Y-89751142D02*
X98984571Y-89822571D01*
X99270285Y-89822571D01*
X99413142Y-89751142D01*
X99484571Y-89608285D01*
X99484571Y-89036857D01*
X99413142Y-88894000D01*
X99270285Y-88822571D01*
X98984571Y-88822571D01*
X98841714Y-88894000D01*
X98770285Y-89036857D01*
X98770285Y-89179714D01*
X99484571Y-89322571D01*
X97056000Y-88251142D02*
X98341714Y-90179714D01*
X96556000Y-89822571D02*
X96556000Y-88322571D01*
X96556000Y-89036857D02*
X95698857Y-89036857D01*
X95698857Y-89822571D02*
X95698857Y-88322571D01*
X94770285Y-89822571D02*
X94913142Y-89751142D01*
X94984571Y-89679714D01*
X95056000Y-89536857D01*
X95056000Y-89108285D01*
X94984571Y-88965428D01*
X94913142Y-88894000D01*
X94770285Y-88822571D01*
X94556000Y-88822571D01*
X94413142Y-88894000D01*
X94341714Y-88965428D01*
X94270285Y-89108285D01*
X94270285Y-89536857D01*
X94341714Y-89679714D01*
X94413142Y-89751142D01*
X94556000Y-89822571D01*
X94770285Y-89822571D01*
X93698857Y-89751142D02*
X93556000Y-89822571D01*
X93270285Y-89822571D01*
X93127428Y-89751142D01*
X93056000Y-89608285D01*
X93056000Y-89536857D01*
X93127428Y-89394000D01*
X93270285Y-89322571D01*
X93484571Y-89322571D01*
X93627428Y-89251142D01*
X93698857Y-89108285D01*
X93698857Y-89036857D01*
X93627428Y-88894000D01*
X93484571Y-88822571D01*
X93270285Y-88822571D01*
X93127428Y-88894000D01*
X92627428Y-88822571D02*
X92056000Y-88822571D01*
X92413142Y-88322571D02*
X92413142Y-89608285D01*
X92341714Y-89751142D01*
X92198857Y-89822571D01*
X92056000Y-89822571D01*
X101020285Y-92372571D02*
X101020285Y-90872571D01*
X100448857Y-90872571D01*
X100306000Y-90944000D01*
X100234571Y-91015428D01*
X100163142Y-91158285D01*
X100163142Y-91372571D01*
X100234571Y-91515428D01*
X100306000Y-91586857D01*
X100448857Y-91658285D01*
X101020285Y-91658285D01*
X99520285Y-92372571D02*
X99520285Y-90872571D01*
X99020285Y-91944000D01*
X98520285Y-90872571D01*
X98520285Y-92372571D01*
X97520285Y-90872571D02*
X97234571Y-90872571D01*
X97091714Y-90944000D01*
X96948857Y-91086857D01*
X96877428Y-91372571D01*
X96877428Y-91872571D01*
X96948857Y-92158285D01*
X97091714Y-92301142D01*
X97234571Y-92372571D01*
X97520285Y-92372571D01*
X97663142Y-92301142D01*
X97806000Y-92158285D01*
X97877428Y-91872571D01*
X97877428Y-91372571D01*
X97806000Y-91086857D01*
X97663142Y-90944000D01*
X97520285Y-90872571D01*
X96234571Y-92372571D02*
X96234571Y-90872571D01*
X95877428Y-90872571D01*
X95663142Y-90944000D01*
X95520285Y-91086857D01*
X95448857Y-91229714D01*
X95377428Y-91515428D01*
X95377428Y-91729714D01*
X95448857Y-92015428D01*
X95520285Y-92158285D01*
X95663142Y-92301142D01*
X95877428Y-92372571D01*
X96234571Y-92372571D01*
X106341714Y-93422571D02*
X105484571Y-93422571D01*
X105913142Y-94922571D02*
X105913142Y-93422571D01*
X104770285Y-94922571D02*
X104913142Y-94851142D01*
X104984571Y-94779714D01*
X105056000Y-94636857D01*
X105056000Y-94208285D01*
X104984571Y-94065428D01*
X104913142Y-93994000D01*
X104770285Y-93922571D01*
X104556000Y-93922571D01*
X104413142Y-93994000D01*
X104341714Y-94065428D01*
X104270285Y-94208285D01*
X104270285Y-94636857D01*
X104341714Y-94779714D01*
X104413142Y-94851142D01*
X104556000Y-94922571D01*
X104770285Y-94922571D01*
X103627428Y-94922571D02*
X103627428Y-93922571D01*
X103627428Y-94065428D02*
X103556000Y-93994000D01*
X103413142Y-93922571D01*
X103198857Y-93922571D01*
X103056000Y-93994000D01*
X102984571Y-94136857D01*
X102984571Y-94922571D01*
X102984571Y-94136857D02*
X102913142Y-93994000D01*
X102770285Y-93922571D01*
X102556000Y-93922571D01*
X102413142Y-93994000D01*
X102341714Y-94136857D01*
X102341714Y-94922571D01*
X100698857Y-93422571D02*
X100198857Y-94922571D01*
X99698857Y-93422571D01*
X98627428Y-94851142D02*
X98770285Y-94922571D01*
X99056000Y-94922571D01*
X99198857Y-94851142D01*
X99270285Y-94708285D01*
X99270285Y-94136857D01*
X99198857Y-93994000D01*
X99056000Y-93922571D01*
X98770285Y-93922571D01*
X98627428Y-93994000D01*
X98556000Y-94136857D01*
X98556000Y-94279714D01*
X99270285Y-94422571D01*
X97913142Y-94922571D02*
X97913142Y-93922571D01*
X97913142Y-94208285D02*
X97841714Y-94065428D01*
X97770285Y-93994000D01*
X97627428Y-93922571D01*
X97484571Y-93922571D01*
X96984571Y-94922571D02*
X96984571Y-93422571D01*
X96984571Y-93994000D02*
X96841714Y-93922571D01*
X96556000Y-93922571D01*
X96413142Y-93994000D01*
X96341714Y-94065428D01*
X96270285Y-94208285D01*
X96270285Y-94636857D01*
X96341714Y-94779714D01*
X96413142Y-94851142D01*
X96556000Y-94922571D01*
X96841714Y-94922571D01*
X96984571Y-94851142D01*
X95056000Y-94851142D02*
X95198857Y-94922571D01*
X95484571Y-94922571D01*
X95627428Y-94851142D01*
X95698857Y-94708285D01*
X95698857Y-94136857D01*
X95627428Y-93994000D01*
X95484571Y-93922571D01*
X95198857Y-93922571D01*
X95056000Y-93994000D01*
X94984571Y-94136857D01*
X94984571Y-94279714D01*
X95698857Y-94422571D01*
X93698857Y-93922571D02*
X93698857Y-94922571D01*
X94341714Y-93922571D02*
X94341714Y-94708285D01*
X94270285Y-94851142D01*
X94127428Y-94922571D01*
X93913142Y-94922571D01*
X93770285Y-94851142D01*
X93698857Y-94779714D01*
X92984571Y-94922571D02*
X92984571Y-93922571D01*
X92984571Y-94208285D02*
X92913142Y-94065428D01*
X92841714Y-93994000D01*
X92698857Y-93922571D01*
X92556000Y-93922571D01*
X91484571Y-94851142D02*
X91627428Y-94922571D01*
X91913142Y-94922571D01*
X92056000Y-94851142D01*
X92127428Y-94708285D01*
X92127428Y-94136857D01*
X92056000Y-93994000D01*
X91913142Y-93922571D01*
X91627428Y-93922571D01*
X91484571Y-93994000D01*
X91413142Y-94136857D01*
X91413142Y-94279714D01*
X92127428Y-94422571D01*
X100841714Y-97472571D02*
X100841714Y-96472571D01*
X100841714Y-96758285D02*
X100770285Y-96615428D01*
X100698857Y-96544000D01*
X100556000Y-96472571D01*
X100413142Y-96472571D01*
X99341714Y-97401142D02*
X99484571Y-97472571D01*
X99770285Y-97472571D01*
X99913142Y-97401142D01*
X99984571Y-97258285D01*
X99984571Y-96686857D01*
X99913142Y-96544000D01*
X99770285Y-96472571D01*
X99484571Y-96472571D01*
X99341714Y-96544000D01*
X99270285Y-96686857D01*
X99270285Y-96829714D01*
X99984571Y-96972571D01*
X98770285Y-96472571D02*
X98413142Y-97472571D01*
X98056000Y-96472571D01*
X96698857Y-97472571D02*
X97556000Y-97472571D01*
X97127428Y-97472571D02*
X97127428Y-95972571D01*
X97270285Y-96186857D01*
X97413142Y-96329714D01*
X97556000Y-96401142D01*
M02*
