G04 #@! TF.GenerationSoftware,KiCad,Pcbnew,5.1.6-c6e7f7d~86~ubuntu18.04.1*
G04 #@! TF.CreationDate,2021-05-10T20:55:15-07:00*
G04 #@! TF.ProjectId,usb_pmod,7573625f-706d-46f6-942e-6b696361645f,rev?*
G04 #@! TF.SameCoordinates,Original*
G04 #@! TF.FileFunction,Copper,L3,Inr*
G04 #@! TF.FilePolarity,Positive*
%FSLAX46Y46*%
G04 Gerber Fmt 4.6, Leading zero omitted, Abs format (unit mm)*
G04 Created by KiCad (PCBNEW 5.1.6-c6e7f7d~86~ubuntu18.04.1) date 2021-05-10 20:55:15*
%MOMM*%
%LPD*%
G01*
G04 APERTURE LIST*
G04 #@! TA.AperFunction,ViaPad*
%ADD10R,1.000000X1.000000*%
G04 #@! TD*
G04 #@! TA.AperFunction,ViaPad*
%ADD11C,3.316000*%
G04 #@! TD*
G04 #@! TA.AperFunction,ViaPad*
%ADD12C,1.428000*%
G04 #@! TD*
G04 #@! TA.AperFunction,ViaPad*
%ADD13R,1.428000X1.428000*%
G04 #@! TD*
G04 #@! TA.AperFunction,ViaPad*
%ADD14C,1.600000*%
G04 #@! TD*
G04 #@! TA.AperFunction,ViaPad*
%ADD15R,1.600000X1.600000*%
G04 #@! TD*
G04 #@! TA.AperFunction,ViaPad*
%ADD16C,3.000000*%
G04 #@! TD*
G04 #@! TA.AperFunction,ViaPad*
%ADD17O,1.700000X1.700000*%
G04 #@! TD*
G04 #@! TA.AperFunction,ViaPad*
%ADD18R,1.700000X1.700000*%
G04 #@! TD*
G04 #@! TA.AperFunction,ViaPad*
%ADD19C,1.100000*%
G04 #@! TD*
G04 #@! TA.AperFunction,ViaPad*
%ADD20C,0.500000*%
G04 #@! TD*
G04 #@! TA.AperFunction,Conductor*
%ADD21C,0.088900*%
G04 #@! TD*
G04 #@! TA.AperFunction,Conductor*
%ADD22C,0.254000*%
G04 #@! TD*
G04 APERTURE END LIST*
D10*
X103124000Y-96520000D03*
X103124000Y-100330000D03*
X101346000Y-79248000D03*
X101346000Y-74676000D03*
D11*
X109202000Y-71272000D03*
X109202000Y-83312000D03*
D12*
X106492000Y-76002000D03*
X106492000Y-78502000D03*
X104492000Y-78502000D03*
D13*
X104492000Y-76002000D03*
D14*
X106426000Y-96542000D03*
X106426000Y-99042000D03*
X106426000Y-101042000D03*
D15*
X106426000Y-103542000D03*
D16*
X109136000Y-106612000D03*
X109136000Y-93472000D03*
D17*
X90424000Y-83820000D03*
X92964000Y-83820000D03*
X95504000Y-83820000D03*
X98044000Y-83820000D03*
D18*
X100584000Y-83820000D03*
D17*
X90424000Y-106680000D03*
X92964000Y-106680000D03*
X95504000Y-106680000D03*
X98044000Y-106680000D03*
D18*
X100584000Y-106680000D03*
D17*
X83820000Y-106680000D03*
X86360000Y-106680000D03*
X83820000Y-104140000D03*
X86360000Y-104140000D03*
X83820000Y-101600000D03*
X86360000Y-101600000D03*
X83820000Y-99060000D03*
X86360000Y-99060000D03*
X83820000Y-96520000D03*
X86360000Y-96520000D03*
X83820000Y-93980000D03*
D18*
X86360000Y-93980000D03*
D17*
X83820000Y-83820000D03*
X86360000Y-83820000D03*
X83820000Y-81280000D03*
X86360000Y-81280000D03*
X83820000Y-78740000D03*
X86360000Y-78740000D03*
X83820000Y-76200000D03*
X86360000Y-76200000D03*
X83820000Y-73660000D03*
X86360000Y-73660000D03*
X83820000Y-71120000D03*
D18*
X86360000Y-71120000D03*
D19*
X88900000Y-71628000D03*
X90678000Y-97028000D03*
X88392000Y-94996000D03*
X96774000Y-102108000D03*
X88900000Y-70104000D03*
X90703071Y-79023371D03*
X93512540Y-102044500D03*
X89154000Y-101600000D03*
D20*
X101346000Y-71882000D03*
D21*
X83820000Y-106680000D02*
X86360000Y-106680000D01*
X83820000Y-83820000D02*
X86360000Y-83820000D01*
X88900000Y-81280000D02*
X88900000Y-71628000D01*
X86360000Y-83820000D02*
X88900000Y-81280000D01*
X89916000Y-97282000D02*
X90424000Y-97282000D01*
X90424000Y-97282000D02*
X90678000Y-97028000D01*
X86360000Y-106680000D02*
X87884000Y-105156000D01*
X87884000Y-105156000D02*
X87884000Y-99314000D01*
X87884000Y-99314000D02*
X89916000Y-97282000D01*
D22*
G36*
X87979550Y-69348606D02*
G01*
X87849866Y-69542692D01*
X87760539Y-69758348D01*
X87731475Y-69904464D01*
X87661185Y-69818815D01*
X87564494Y-69739463D01*
X87454180Y-69680498D01*
X87334482Y-69644188D01*
X87210000Y-69631928D01*
X85510000Y-69631928D01*
X85385518Y-69644188D01*
X85265820Y-69680498D01*
X85155506Y-69739463D01*
X85058815Y-69818815D01*
X84979463Y-69915506D01*
X84920498Y-70025820D01*
X84898487Y-70098380D01*
X84766632Y-69966525D01*
X84523411Y-69804010D01*
X84253158Y-69692068D01*
X83966260Y-69635000D01*
X83673740Y-69635000D01*
X83386842Y-69692068D01*
X83116589Y-69804010D01*
X82873368Y-69966525D01*
X82666525Y-70173368D01*
X82504010Y-70416589D01*
X82392068Y-70686842D01*
X82335000Y-70973740D01*
X82335000Y-71266260D01*
X82392068Y-71553158D01*
X82504010Y-71823411D01*
X82666525Y-72066632D01*
X82873368Y-72273475D01*
X83047760Y-72390000D01*
X82873368Y-72506525D01*
X82666525Y-72713368D01*
X82504010Y-72956589D01*
X82392068Y-73226842D01*
X82335000Y-73513740D01*
X82335000Y-73806260D01*
X82392068Y-74093158D01*
X82504010Y-74363411D01*
X82666525Y-74606632D01*
X82873368Y-74813475D01*
X83047760Y-74930000D01*
X82873368Y-75046525D01*
X82666525Y-75253368D01*
X82504010Y-75496589D01*
X82392068Y-75766842D01*
X82335000Y-76053740D01*
X82335000Y-76346260D01*
X82392068Y-76633158D01*
X82504010Y-76903411D01*
X82666525Y-77146632D01*
X82873368Y-77353475D01*
X83047760Y-77470000D01*
X82873368Y-77586525D01*
X82666525Y-77793368D01*
X82504010Y-78036589D01*
X82392068Y-78306842D01*
X82335000Y-78593740D01*
X82335000Y-78886260D01*
X82392068Y-79173158D01*
X82504010Y-79443411D01*
X82666525Y-79686632D01*
X82873368Y-79893475D01*
X83047760Y-80010000D01*
X82873368Y-80126525D01*
X82666525Y-80333368D01*
X82504010Y-80576589D01*
X82392068Y-80846842D01*
X82335000Y-81133740D01*
X82335000Y-81426260D01*
X82392068Y-81713158D01*
X82504010Y-81983411D01*
X82666525Y-82226632D01*
X82873368Y-82433475D01*
X83055534Y-82555195D01*
X82938645Y-82624822D01*
X82722412Y-82819731D01*
X82548359Y-83053080D01*
X82423175Y-83315901D01*
X82378524Y-83463110D01*
X82499845Y-83693000D01*
X83693000Y-83693000D01*
X83693000Y-83673000D01*
X83947000Y-83673000D01*
X83947000Y-83693000D01*
X86233000Y-83693000D01*
X86233000Y-83673000D01*
X86487000Y-83673000D01*
X86487000Y-83693000D01*
X87680155Y-83693000D01*
X87690319Y-83673740D01*
X88939000Y-83673740D01*
X88939000Y-83966260D01*
X88996068Y-84253158D01*
X89108010Y-84523411D01*
X89270525Y-84766632D01*
X89477368Y-84973475D01*
X89720589Y-85135990D01*
X89990842Y-85247932D01*
X90277740Y-85305000D01*
X90570260Y-85305000D01*
X90857158Y-85247932D01*
X91127411Y-85135990D01*
X91370632Y-84973475D01*
X91577475Y-84766632D01*
X91694000Y-84592240D01*
X91810525Y-84766632D01*
X92017368Y-84973475D01*
X92260589Y-85135990D01*
X92530842Y-85247932D01*
X92817740Y-85305000D01*
X93110260Y-85305000D01*
X93397158Y-85247932D01*
X93667411Y-85135990D01*
X93910632Y-84973475D01*
X94117475Y-84766632D01*
X94234000Y-84592240D01*
X94350525Y-84766632D01*
X94557368Y-84973475D01*
X94800589Y-85135990D01*
X95070842Y-85247932D01*
X95357740Y-85305000D01*
X95650260Y-85305000D01*
X95937158Y-85247932D01*
X96207411Y-85135990D01*
X96450632Y-84973475D01*
X96657475Y-84766632D01*
X96774000Y-84592240D01*
X96890525Y-84766632D01*
X97097368Y-84973475D01*
X97340589Y-85135990D01*
X97610842Y-85247932D01*
X97897740Y-85305000D01*
X98190260Y-85305000D01*
X98477158Y-85247932D01*
X98747411Y-85135990D01*
X98990632Y-84973475D01*
X99122487Y-84841620D01*
X99144498Y-84914180D01*
X99203463Y-85024494D01*
X99282815Y-85121185D01*
X99379506Y-85200537D01*
X99489820Y-85259502D01*
X99609518Y-85295812D01*
X99734000Y-85308072D01*
X101434000Y-85308072D01*
X101558482Y-85295812D01*
X101678180Y-85259502D01*
X101788494Y-85200537D01*
X101885185Y-85121185D01*
X101964537Y-85024494D01*
X102023502Y-84914180D01*
X102059812Y-84794482D01*
X102072072Y-84670000D01*
X102072072Y-83086159D01*
X106909000Y-83086159D01*
X106909000Y-83537841D01*
X106997119Y-83980843D01*
X107169970Y-84398143D01*
X107420910Y-84773702D01*
X107740298Y-85093090D01*
X108115857Y-85344030D01*
X108533157Y-85516881D01*
X108976159Y-85605000D01*
X109427841Y-85605000D01*
X109870843Y-85516881D01*
X110288143Y-85344030D01*
X110663702Y-85093090D01*
X110983090Y-84773702D01*
X111234030Y-84398143D01*
X111406881Y-83980843D01*
X111495000Y-83537841D01*
X111495000Y-83086159D01*
X111406881Y-82643157D01*
X111234030Y-82225857D01*
X110983090Y-81850298D01*
X110663702Y-81530910D01*
X110288143Y-81279970D01*
X109870843Y-81107119D01*
X109427841Y-81019000D01*
X108976159Y-81019000D01*
X108533157Y-81107119D01*
X108115857Y-81279970D01*
X107740298Y-81530910D01*
X107420910Y-81850298D01*
X107169970Y-82225857D01*
X106997119Y-82643157D01*
X106909000Y-83086159D01*
X102072072Y-83086159D01*
X102072072Y-82970000D01*
X102059812Y-82845518D01*
X102023502Y-82725820D01*
X101964537Y-82615506D01*
X101885185Y-82518815D01*
X101788494Y-82439463D01*
X101678180Y-82380498D01*
X101558482Y-82344188D01*
X101434000Y-82331928D01*
X99734000Y-82331928D01*
X99609518Y-82344188D01*
X99489820Y-82380498D01*
X99379506Y-82439463D01*
X99282815Y-82518815D01*
X99203463Y-82615506D01*
X99144498Y-82725820D01*
X99122487Y-82798380D01*
X98990632Y-82666525D01*
X98747411Y-82504010D01*
X98477158Y-82392068D01*
X98190260Y-82335000D01*
X97897740Y-82335000D01*
X97610842Y-82392068D01*
X97340589Y-82504010D01*
X97097368Y-82666525D01*
X96890525Y-82873368D01*
X96774000Y-83047760D01*
X96657475Y-82873368D01*
X96450632Y-82666525D01*
X96207411Y-82504010D01*
X95937158Y-82392068D01*
X95650260Y-82335000D01*
X95357740Y-82335000D01*
X95070842Y-82392068D01*
X94800589Y-82504010D01*
X94557368Y-82666525D01*
X94350525Y-82873368D01*
X94234000Y-83047760D01*
X94117475Y-82873368D01*
X93910632Y-82666525D01*
X93667411Y-82504010D01*
X93397158Y-82392068D01*
X93110260Y-82335000D01*
X92817740Y-82335000D01*
X92530842Y-82392068D01*
X92260589Y-82504010D01*
X92017368Y-82666525D01*
X91810525Y-82873368D01*
X91694000Y-83047760D01*
X91577475Y-82873368D01*
X91370632Y-82666525D01*
X91127411Y-82504010D01*
X90857158Y-82392068D01*
X90570260Y-82335000D01*
X90277740Y-82335000D01*
X89990842Y-82392068D01*
X89720589Y-82504010D01*
X89477368Y-82666525D01*
X89270525Y-82873368D01*
X89108010Y-83116589D01*
X88996068Y-83386842D01*
X88939000Y-83673740D01*
X87690319Y-83673740D01*
X87801476Y-83463110D01*
X87756825Y-83315901D01*
X87631641Y-83053080D01*
X87457588Y-82819731D01*
X87241355Y-82624822D01*
X87124466Y-82555195D01*
X87306632Y-82433475D01*
X87513475Y-82226632D01*
X87675990Y-81983411D01*
X87787932Y-81713158D01*
X87845000Y-81426260D01*
X87845000Y-81133740D01*
X87787932Y-80846842D01*
X87675990Y-80576589D01*
X87513475Y-80333368D01*
X87306632Y-80126525D01*
X87132240Y-80010000D01*
X87306632Y-79893475D01*
X87513475Y-79686632D01*
X87675990Y-79443411D01*
X87787932Y-79173158D01*
X87840942Y-78906659D01*
X89518071Y-78906659D01*
X89518071Y-79140083D01*
X89563610Y-79369023D01*
X89652937Y-79584679D01*
X89782621Y-79778765D01*
X89947677Y-79943821D01*
X90141763Y-80073505D01*
X90357419Y-80162832D01*
X90586359Y-80208371D01*
X90819783Y-80208371D01*
X91048723Y-80162832D01*
X91264379Y-80073505D01*
X91458465Y-79943821D01*
X91623521Y-79778765D01*
X91753205Y-79584679D01*
X91842532Y-79369023D01*
X91888071Y-79140083D01*
X91888071Y-78906659D01*
X91856512Y-78748000D01*
X100207928Y-78748000D01*
X100207928Y-79748000D01*
X100220188Y-79872482D01*
X100256498Y-79992180D01*
X100315463Y-80102494D01*
X100394815Y-80199185D01*
X100491506Y-80278537D01*
X100601820Y-80337502D01*
X100721518Y-80373812D01*
X100846000Y-80386072D01*
X101846000Y-80386072D01*
X101970482Y-80373812D01*
X102090180Y-80337502D01*
X102200494Y-80278537D01*
X102297185Y-80199185D01*
X102376537Y-80102494D01*
X102435502Y-79992180D01*
X102471812Y-79872482D01*
X102484072Y-79748000D01*
X102484072Y-78748000D01*
X102471812Y-78623518D01*
X102435502Y-78503820D01*
X102376537Y-78393506D01*
X102297185Y-78296815D01*
X102200494Y-78217463D01*
X102090180Y-78158498D01*
X101970482Y-78122188D01*
X101846000Y-78109928D01*
X100846000Y-78109928D01*
X100721518Y-78122188D01*
X100601820Y-78158498D01*
X100491506Y-78217463D01*
X100394815Y-78296815D01*
X100315463Y-78393506D01*
X100256498Y-78503820D01*
X100220188Y-78623518D01*
X100207928Y-78748000D01*
X91856512Y-78748000D01*
X91842532Y-78677719D01*
X91753205Y-78462063D01*
X91623521Y-78267977D01*
X91458465Y-78102921D01*
X91264379Y-77973237D01*
X91048723Y-77883910D01*
X90819783Y-77838371D01*
X90586359Y-77838371D01*
X90357419Y-77883910D01*
X90141763Y-77973237D01*
X89947677Y-78102921D01*
X89782621Y-78267977D01*
X89652937Y-78462063D01*
X89563610Y-78677719D01*
X89518071Y-78906659D01*
X87840942Y-78906659D01*
X87845000Y-78886260D01*
X87845000Y-78593740D01*
X87787932Y-78306842D01*
X87675990Y-78036589D01*
X87513475Y-77793368D01*
X87306632Y-77586525D01*
X87132240Y-77470000D01*
X87306632Y-77353475D01*
X87513475Y-77146632D01*
X87675990Y-76903411D01*
X87787932Y-76633158D01*
X87845000Y-76346260D01*
X87845000Y-76053740D01*
X87787932Y-75766842D01*
X87675990Y-75496589D01*
X87513475Y-75253368D01*
X87306632Y-75046525D01*
X87132240Y-74930000D01*
X87306632Y-74813475D01*
X87513475Y-74606632D01*
X87675990Y-74363411D01*
X87753617Y-74176000D01*
X100207928Y-74176000D01*
X100207928Y-75176000D01*
X100220188Y-75300482D01*
X100256498Y-75420180D01*
X100315463Y-75530494D01*
X100394815Y-75627185D01*
X100491506Y-75706537D01*
X100601820Y-75765502D01*
X100721518Y-75801812D01*
X100846000Y-75814072D01*
X101846000Y-75814072D01*
X101970482Y-75801812D01*
X102090180Y-75765502D01*
X102200494Y-75706537D01*
X102297185Y-75627185D01*
X102376537Y-75530494D01*
X102435502Y-75420180D01*
X102471812Y-75300482D01*
X102473041Y-75288000D01*
X103139928Y-75288000D01*
X103139928Y-76716000D01*
X103152188Y-76840482D01*
X103188498Y-76960180D01*
X103247463Y-77070494D01*
X103326815Y-77167185D01*
X103423506Y-77246537D01*
X103533820Y-77305502D01*
X103653518Y-77341812D01*
X103778000Y-77354072D01*
X103781860Y-77354072D01*
X103632063Y-77454163D01*
X103444163Y-77642063D01*
X103296532Y-77863009D01*
X103194842Y-78108511D01*
X103143000Y-78369135D01*
X103143000Y-78634865D01*
X103194842Y-78895489D01*
X103296532Y-79140991D01*
X103444163Y-79361937D01*
X103632063Y-79549837D01*
X103853009Y-79697468D01*
X104098511Y-79799158D01*
X104359135Y-79851000D01*
X104624865Y-79851000D01*
X104885489Y-79799158D01*
X105130991Y-79697468D01*
X105351937Y-79549837D01*
X105492000Y-79409774D01*
X105632063Y-79549837D01*
X105853009Y-79697468D01*
X106098511Y-79799158D01*
X106359135Y-79851000D01*
X106624865Y-79851000D01*
X106885489Y-79799158D01*
X107130991Y-79697468D01*
X107351937Y-79549837D01*
X107539837Y-79361937D01*
X107687468Y-79140991D01*
X107789158Y-78895489D01*
X107841000Y-78634865D01*
X107841000Y-78369135D01*
X107789158Y-78108511D01*
X107687468Y-77863009D01*
X107539837Y-77642063D01*
X107351937Y-77454163D01*
X107130991Y-77306532D01*
X106999339Y-77252000D01*
X107130991Y-77197468D01*
X107351937Y-77049837D01*
X107539837Y-76861937D01*
X107687468Y-76640991D01*
X107789158Y-76395489D01*
X107841000Y-76134865D01*
X107841000Y-75869135D01*
X107789158Y-75608511D01*
X107687468Y-75363009D01*
X107539837Y-75142063D01*
X107351937Y-74954163D01*
X107130991Y-74806532D01*
X106885489Y-74704842D01*
X106624865Y-74653000D01*
X106359135Y-74653000D01*
X106098511Y-74704842D01*
X105853009Y-74806532D01*
X105710486Y-74901763D01*
X105657185Y-74836815D01*
X105560494Y-74757463D01*
X105450180Y-74698498D01*
X105330482Y-74662188D01*
X105206000Y-74649928D01*
X103778000Y-74649928D01*
X103653518Y-74662188D01*
X103533820Y-74698498D01*
X103423506Y-74757463D01*
X103326815Y-74836815D01*
X103247463Y-74933506D01*
X103188498Y-75043820D01*
X103152188Y-75163518D01*
X103139928Y-75288000D01*
X102473041Y-75288000D01*
X102484072Y-75176000D01*
X102484072Y-74176000D01*
X102471812Y-74051518D01*
X102435502Y-73931820D01*
X102376537Y-73821506D01*
X102297185Y-73724815D01*
X102200494Y-73645463D01*
X102090180Y-73586498D01*
X101970482Y-73550188D01*
X101846000Y-73537928D01*
X100846000Y-73537928D01*
X100721518Y-73550188D01*
X100601820Y-73586498D01*
X100491506Y-73645463D01*
X100394815Y-73724815D01*
X100315463Y-73821506D01*
X100256498Y-73931820D01*
X100220188Y-74051518D01*
X100207928Y-74176000D01*
X87753617Y-74176000D01*
X87787932Y-74093158D01*
X87845000Y-73806260D01*
X87845000Y-73513740D01*
X87787932Y-73226842D01*
X87675990Y-72956589D01*
X87513475Y-72713368D01*
X87381620Y-72581513D01*
X87454180Y-72559502D01*
X87564494Y-72500537D01*
X87661185Y-72421185D01*
X87740537Y-72324494D01*
X87799502Y-72214180D01*
X87835812Y-72094482D01*
X87848072Y-71970000D01*
X87848072Y-71794835D01*
X100461000Y-71794835D01*
X100461000Y-71969165D01*
X100495010Y-72140145D01*
X100561723Y-72301205D01*
X100658576Y-72446155D01*
X100781845Y-72569424D01*
X100926795Y-72666277D01*
X101087855Y-72732990D01*
X101258835Y-72767000D01*
X101433165Y-72767000D01*
X101604145Y-72732990D01*
X101765205Y-72666277D01*
X101910155Y-72569424D01*
X102033424Y-72446155D01*
X102130277Y-72301205D01*
X102196990Y-72140145D01*
X102231000Y-71969165D01*
X102231000Y-71794835D01*
X102196990Y-71623855D01*
X102130277Y-71462795D01*
X102033424Y-71317845D01*
X101910155Y-71194576D01*
X101765205Y-71097723D01*
X101604145Y-71031010D01*
X101433165Y-70997000D01*
X101258835Y-70997000D01*
X101087855Y-71031010D01*
X100926795Y-71097723D01*
X100781845Y-71194576D01*
X100658576Y-71317845D01*
X100561723Y-71462795D01*
X100495010Y-71623855D01*
X100461000Y-71794835D01*
X87848072Y-71794835D01*
X87848072Y-70660977D01*
X87849866Y-70665308D01*
X87979550Y-70859394D01*
X88144606Y-71024450D01*
X88338692Y-71154134D01*
X88554348Y-71243461D01*
X88783288Y-71289000D01*
X89016712Y-71289000D01*
X89245652Y-71243461D01*
X89461308Y-71154134D01*
X89655394Y-71024450D01*
X89820450Y-70859394D01*
X89950134Y-70665308D01*
X90039461Y-70449652D01*
X90085000Y-70220712D01*
X90085000Y-69987288D01*
X90039461Y-69758348D01*
X89950134Y-69542692D01*
X89820450Y-69348606D01*
X89711844Y-69240000D01*
X108115812Y-69240000D01*
X107740298Y-69490910D01*
X107420910Y-69810298D01*
X107169970Y-70185857D01*
X106997119Y-70603157D01*
X106909000Y-71046159D01*
X106909000Y-71497841D01*
X106997119Y-71940843D01*
X107169970Y-72358143D01*
X107420910Y-72733702D01*
X107740298Y-73053090D01*
X108115857Y-73304030D01*
X108533157Y-73476881D01*
X108976159Y-73565000D01*
X109427841Y-73565000D01*
X109870843Y-73476881D01*
X110288143Y-73304030D01*
X110663702Y-73053090D01*
X110983090Y-72733702D01*
X111234030Y-72358143D01*
X111406881Y-71940843D01*
X111495000Y-71497841D01*
X111495000Y-71046159D01*
X111406881Y-70603157D01*
X111234030Y-70185857D01*
X110983090Y-69810298D01*
X110663702Y-69490910D01*
X110288188Y-69240000D01*
X116299721Y-69240000D01*
X116647210Y-69274072D01*
X116950413Y-69365614D01*
X117230064Y-69514307D01*
X117475505Y-69714484D01*
X117677391Y-69958521D01*
X117828031Y-70237125D01*
X117921690Y-70539688D01*
X117958001Y-70885167D01*
X117958000Y-83787721D01*
X117923928Y-84135209D01*
X117832384Y-84438417D01*
X117683693Y-84718063D01*
X117483516Y-84963505D01*
X117239476Y-85165392D01*
X116960875Y-85316031D01*
X116658313Y-85409690D01*
X116312842Y-85446000D01*
X111473581Y-85446000D01*
X111444428Y-85448871D01*
X111430224Y-85448772D01*
X111421053Y-85449672D01*
X110977348Y-85496307D01*
X110918830Y-85508319D01*
X110859991Y-85519543D01*
X110851169Y-85522207D01*
X110424972Y-85654137D01*
X110369817Y-85677322D01*
X110314364Y-85699726D01*
X110306227Y-85704053D01*
X109913773Y-85916252D01*
X109864189Y-85949697D01*
X109814126Y-85982457D01*
X109806985Y-85988281D01*
X109463221Y-86272667D01*
X109421081Y-86315103D01*
X109378331Y-86356966D01*
X109372457Y-86364067D01*
X109090478Y-86709808D01*
X109057386Y-86759617D01*
X109023579Y-86808989D01*
X109019198Y-86817093D01*
X109019198Y-86817095D01*
X109019197Y-86817096D01*
X108809742Y-87211022D01*
X108786943Y-87266337D01*
X108763382Y-87321309D01*
X108760657Y-87330112D01*
X108631706Y-87757219D01*
X108620086Y-87815907D01*
X108607650Y-87874410D01*
X108606687Y-87883575D01*
X108563150Y-88327595D01*
X108560000Y-88359581D01*
X108560000Y-88932418D01*
X108562871Y-88961571D01*
X108562772Y-88975776D01*
X108563672Y-88984947D01*
X108610307Y-89428652D01*
X108622326Y-89487202D01*
X108633543Y-89546009D01*
X108636207Y-89554831D01*
X108768137Y-89981029D01*
X108791316Y-90036169D01*
X108813726Y-90091636D01*
X108818053Y-90099773D01*
X109030252Y-90492227D01*
X109063691Y-90541802D01*
X109096456Y-90591873D01*
X109102281Y-90599015D01*
X109386667Y-90942778D01*
X109429084Y-90984900D01*
X109470966Y-91027669D01*
X109478067Y-91033543D01*
X109823808Y-91315522D01*
X109873635Y-91348626D01*
X109922990Y-91382421D01*
X109931096Y-91386804D01*
X110325022Y-91596258D01*
X110380349Y-91619062D01*
X110435309Y-91642618D01*
X110444112Y-91645343D01*
X110871219Y-91774294D01*
X110929907Y-91785914D01*
X110988410Y-91798350D01*
X110997575Y-91799313D01*
X111441594Y-91842850D01*
X111441598Y-91842850D01*
X111473581Y-91846000D01*
X116299721Y-91846000D01*
X116647210Y-91880072D01*
X116950413Y-91971614D01*
X117230064Y-92120307D01*
X117475505Y-92320484D01*
X117677391Y-92564521D01*
X117828031Y-92843125D01*
X117921690Y-93145688D01*
X117958001Y-93491167D01*
X117958000Y-106647721D01*
X117923928Y-106995209D01*
X117832384Y-107298417D01*
X117683693Y-107578063D01*
X117483516Y-107823505D01*
X117239476Y-108025392D01*
X116960875Y-108176031D01*
X116658313Y-108269690D01*
X116312842Y-108306000D01*
X110443648Y-108306000D01*
X110496983Y-108270363D01*
X110794363Y-107972983D01*
X111028012Y-107623302D01*
X111188953Y-107234756D01*
X111271000Y-106822279D01*
X111271000Y-106401721D01*
X111188953Y-105989244D01*
X111028012Y-105600698D01*
X110794363Y-105251017D01*
X110496983Y-104953637D01*
X110147302Y-104719988D01*
X109758756Y-104559047D01*
X109346279Y-104477000D01*
X108925721Y-104477000D01*
X108513244Y-104559047D01*
X108124698Y-104719988D01*
X107775017Y-104953637D01*
X107477637Y-105251017D01*
X107243988Y-105600698D01*
X107083047Y-105989244D01*
X107001000Y-106401721D01*
X107001000Y-106822279D01*
X107083047Y-107234756D01*
X107243988Y-107623302D01*
X107477637Y-107972983D01*
X107775017Y-108270363D01*
X107828352Y-108306000D01*
X83598279Y-108306000D01*
X83250791Y-108271928D01*
X82947583Y-108180384D01*
X82667937Y-108031693D01*
X82422495Y-107831516D01*
X82220608Y-107587476D01*
X82069969Y-107308875D01*
X81985776Y-107036890D01*
X82378524Y-107036890D01*
X82423175Y-107184099D01*
X82548359Y-107446920D01*
X82722412Y-107680269D01*
X82938645Y-107875178D01*
X83188748Y-108024157D01*
X83463109Y-108121481D01*
X83693000Y-108000814D01*
X83693000Y-106807000D01*
X83947000Y-106807000D01*
X83947000Y-108000814D01*
X84176891Y-108121481D01*
X84451252Y-108024157D01*
X84701355Y-107875178D01*
X84917588Y-107680269D01*
X85090000Y-107449120D01*
X85262412Y-107680269D01*
X85478645Y-107875178D01*
X85728748Y-108024157D01*
X86003109Y-108121481D01*
X86233000Y-108000814D01*
X86233000Y-106807000D01*
X86487000Y-106807000D01*
X86487000Y-108000814D01*
X86716891Y-108121481D01*
X86991252Y-108024157D01*
X87241355Y-107875178D01*
X87457588Y-107680269D01*
X87631641Y-107446920D01*
X87756825Y-107184099D01*
X87801476Y-107036890D01*
X87680155Y-106807000D01*
X86487000Y-106807000D01*
X86233000Y-106807000D01*
X83947000Y-106807000D01*
X83693000Y-106807000D01*
X82499845Y-106807000D01*
X82378524Y-107036890D01*
X81985776Y-107036890D01*
X81976310Y-107006313D01*
X81940000Y-106660842D01*
X81940000Y-93833740D01*
X82335000Y-93833740D01*
X82335000Y-94126260D01*
X82392068Y-94413158D01*
X82504010Y-94683411D01*
X82666525Y-94926632D01*
X82873368Y-95133475D01*
X83047760Y-95250000D01*
X82873368Y-95366525D01*
X82666525Y-95573368D01*
X82504010Y-95816589D01*
X82392068Y-96086842D01*
X82335000Y-96373740D01*
X82335000Y-96666260D01*
X82392068Y-96953158D01*
X82504010Y-97223411D01*
X82666525Y-97466632D01*
X82873368Y-97673475D01*
X83047760Y-97790000D01*
X82873368Y-97906525D01*
X82666525Y-98113368D01*
X82504010Y-98356589D01*
X82392068Y-98626842D01*
X82335000Y-98913740D01*
X82335000Y-99206260D01*
X82392068Y-99493158D01*
X82504010Y-99763411D01*
X82666525Y-100006632D01*
X82873368Y-100213475D01*
X83047760Y-100330000D01*
X82873368Y-100446525D01*
X82666525Y-100653368D01*
X82504010Y-100896589D01*
X82392068Y-101166842D01*
X82335000Y-101453740D01*
X82335000Y-101746260D01*
X82392068Y-102033158D01*
X82504010Y-102303411D01*
X82666525Y-102546632D01*
X82873368Y-102753475D01*
X83047760Y-102870000D01*
X82873368Y-102986525D01*
X82666525Y-103193368D01*
X82504010Y-103436589D01*
X82392068Y-103706842D01*
X82335000Y-103993740D01*
X82335000Y-104286260D01*
X82392068Y-104573158D01*
X82504010Y-104843411D01*
X82666525Y-105086632D01*
X82873368Y-105293475D01*
X83055534Y-105415195D01*
X82938645Y-105484822D01*
X82722412Y-105679731D01*
X82548359Y-105913080D01*
X82423175Y-106175901D01*
X82378524Y-106323110D01*
X82499845Y-106553000D01*
X83693000Y-106553000D01*
X83693000Y-106533000D01*
X83947000Y-106533000D01*
X83947000Y-106553000D01*
X86233000Y-106553000D01*
X86233000Y-106533000D01*
X86487000Y-106533000D01*
X86487000Y-106553000D01*
X87680155Y-106553000D01*
X87690319Y-106533740D01*
X88939000Y-106533740D01*
X88939000Y-106826260D01*
X88996068Y-107113158D01*
X89108010Y-107383411D01*
X89270525Y-107626632D01*
X89477368Y-107833475D01*
X89720589Y-107995990D01*
X89990842Y-108107932D01*
X90277740Y-108165000D01*
X90570260Y-108165000D01*
X90857158Y-108107932D01*
X91127411Y-107995990D01*
X91370632Y-107833475D01*
X91577475Y-107626632D01*
X91694000Y-107452240D01*
X91810525Y-107626632D01*
X92017368Y-107833475D01*
X92260589Y-107995990D01*
X92530842Y-108107932D01*
X92817740Y-108165000D01*
X93110260Y-108165000D01*
X93397158Y-108107932D01*
X93667411Y-107995990D01*
X93910632Y-107833475D01*
X94117475Y-107626632D01*
X94234000Y-107452240D01*
X94350525Y-107626632D01*
X94557368Y-107833475D01*
X94800589Y-107995990D01*
X95070842Y-108107932D01*
X95357740Y-108165000D01*
X95650260Y-108165000D01*
X95937158Y-108107932D01*
X96207411Y-107995990D01*
X96450632Y-107833475D01*
X96657475Y-107626632D01*
X96774000Y-107452240D01*
X96890525Y-107626632D01*
X97097368Y-107833475D01*
X97340589Y-107995990D01*
X97610842Y-108107932D01*
X97897740Y-108165000D01*
X98190260Y-108165000D01*
X98477158Y-108107932D01*
X98747411Y-107995990D01*
X98990632Y-107833475D01*
X99122487Y-107701620D01*
X99144498Y-107774180D01*
X99203463Y-107884494D01*
X99282815Y-107981185D01*
X99379506Y-108060537D01*
X99489820Y-108119502D01*
X99609518Y-108155812D01*
X99734000Y-108168072D01*
X101434000Y-108168072D01*
X101558482Y-108155812D01*
X101678180Y-108119502D01*
X101788494Y-108060537D01*
X101885185Y-107981185D01*
X101964537Y-107884494D01*
X102023502Y-107774180D01*
X102059812Y-107654482D01*
X102072072Y-107530000D01*
X102072072Y-105830000D01*
X102059812Y-105705518D01*
X102023502Y-105585820D01*
X101964537Y-105475506D01*
X101885185Y-105378815D01*
X101788494Y-105299463D01*
X101678180Y-105240498D01*
X101558482Y-105204188D01*
X101434000Y-105191928D01*
X99734000Y-105191928D01*
X99609518Y-105204188D01*
X99489820Y-105240498D01*
X99379506Y-105299463D01*
X99282815Y-105378815D01*
X99203463Y-105475506D01*
X99144498Y-105585820D01*
X99122487Y-105658380D01*
X98990632Y-105526525D01*
X98747411Y-105364010D01*
X98477158Y-105252068D01*
X98190260Y-105195000D01*
X97897740Y-105195000D01*
X97610842Y-105252068D01*
X97340589Y-105364010D01*
X97097368Y-105526525D01*
X96890525Y-105733368D01*
X96774000Y-105907760D01*
X96657475Y-105733368D01*
X96450632Y-105526525D01*
X96207411Y-105364010D01*
X95937158Y-105252068D01*
X95650260Y-105195000D01*
X95357740Y-105195000D01*
X95070842Y-105252068D01*
X94800589Y-105364010D01*
X94557368Y-105526525D01*
X94350525Y-105733368D01*
X94234000Y-105907760D01*
X94117475Y-105733368D01*
X93910632Y-105526525D01*
X93667411Y-105364010D01*
X93397158Y-105252068D01*
X93110260Y-105195000D01*
X92817740Y-105195000D01*
X92530842Y-105252068D01*
X92260589Y-105364010D01*
X92017368Y-105526525D01*
X91810525Y-105733368D01*
X91694000Y-105907760D01*
X91577475Y-105733368D01*
X91370632Y-105526525D01*
X91127411Y-105364010D01*
X90857158Y-105252068D01*
X90570260Y-105195000D01*
X90277740Y-105195000D01*
X89990842Y-105252068D01*
X89720589Y-105364010D01*
X89477368Y-105526525D01*
X89270525Y-105733368D01*
X89108010Y-105976589D01*
X88996068Y-106246842D01*
X88939000Y-106533740D01*
X87690319Y-106533740D01*
X87801476Y-106323110D01*
X87756825Y-106175901D01*
X87631641Y-105913080D01*
X87457588Y-105679731D01*
X87241355Y-105484822D01*
X87124466Y-105415195D01*
X87306632Y-105293475D01*
X87513475Y-105086632D01*
X87675990Y-104843411D01*
X87787932Y-104573158D01*
X87845000Y-104286260D01*
X87845000Y-103993740D01*
X87787932Y-103706842D01*
X87675990Y-103436589D01*
X87513475Y-103193368D01*
X87306632Y-102986525D01*
X87132240Y-102870000D01*
X87306632Y-102753475D01*
X87513475Y-102546632D01*
X87675990Y-102303411D01*
X87787932Y-102033158D01*
X87845000Y-101746260D01*
X87845000Y-101483288D01*
X87969000Y-101483288D01*
X87969000Y-101716712D01*
X88014539Y-101945652D01*
X88103866Y-102161308D01*
X88233550Y-102355394D01*
X88398606Y-102520450D01*
X88592692Y-102650134D01*
X88808348Y-102739461D01*
X89037288Y-102785000D01*
X89270712Y-102785000D01*
X89499652Y-102739461D01*
X89715308Y-102650134D01*
X89909394Y-102520450D01*
X90074450Y-102355394D01*
X90204134Y-102161308D01*
X90293461Y-101945652D01*
X90297014Y-101927788D01*
X92327540Y-101927788D01*
X92327540Y-102161212D01*
X92373079Y-102390152D01*
X92462406Y-102605808D01*
X92592090Y-102799894D01*
X92757146Y-102964950D01*
X92951232Y-103094634D01*
X93166888Y-103183961D01*
X93395828Y-103229500D01*
X93629252Y-103229500D01*
X93858192Y-103183961D01*
X94073848Y-103094634D01*
X94267934Y-102964950D01*
X94432990Y-102799894D01*
X94562674Y-102605808D01*
X94652001Y-102390152D01*
X94697540Y-102161212D01*
X94697540Y-101991288D01*
X95589000Y-101991288D01*
X95589000Y-102224712D01*
X95634539Y-102453652D01*
X95723866Y-102669308D01*
X95853550Y-102863394D01*
X96018606Y-103028450D01*
X96212692Y-103158134D01*
X96428348Y-103247461D01*
X96657288Y-103293000D01*
X96890712Y-103293000D01*
X97119652Y-103247461D01*
X97335308Y-103158134D01*
X97529394Y-103028450D01*
X97694450Y-102863394D01*
X97775562Y-102742000D01*
X104987928Y-102742000D01*
X104987928Y-104342000D01*
X105000188Y-104466482D01*
X105036498Y-104586180D01*
X105095463Y-104696494D01*
X105174815Y-104793185D01*
X105271506Y-104872537D01*
X105381820Y-104931502D01*
X105501518Y-104967812D01*
X105626000Y-104980072D01*
X107226000Y-104980072D01*
X107350482Y-104967812D01*
X107470180Y-104931502D01*
X107580494Y-104872537D01*
X107677185Y-104793185D01*
X107756537Y-104696494D01*
X107815502Y-104586180D01*
X107851812Y-104466482D01*
X107864072Y-104342000D01*
X107864072Y-102742000D01*
X107851812Y-102617518D01*
X107815502Y-102497820D01*
X107756537Y-102387506D01*
X107677185Y-102290815D01*
X107580494Y-102211463D01*
X107470180Y-102152498D01*
X107374057Y-102123339D01*
X107540637Y-101956759D01*
X107697680Y-101721727D01*
X107805853Y-101460574D01*
X107861000Y-101183335D01*
X107861000Y-100900665D01*
X107805853Y-100623426D01*
X107697680Y-100362273D01*
X107540637Y-100127241D01*
X107455396Y-100042000D01*
X107540637Y-99956759D01*
X107697680Y-99721727D01*
X107805853Y-99460574D01*
X107861000Y-99183335D01*
X107861000Y-98900665D01*
X107805853Y-98623426D01*
X107697680Y-98362273D01*
X107540637Y-98127241D01*
X107340759Y-97927363D01*
X107138173Y-97792000D01*
X107340759Y-97656637D01*
X107540637Y-97456759D01*
X107697680Y-97221727D01*
X107805853Y-96960574D01*
X107861000Y-96683335D01*
X107861000Y-96400665D01*
X107805853Y-96123426D01*
X107697680Y-95862273D01*
X107540637Y-95627241D01*
X107340759Y-95427363D01*
X107105727Y-95270320D01*
X106844574Y-95162147D01*
X106567335Y-95107000D01*
X106284665Y-95107000D01*
X106007426Y-95162147D01*
X105746273Y-95270320D01*
X105511241Y-95427363D01*
X105311363Y-95627241D01*
X105154320Y-95862273D01*
X105046147Y-96123426D01*
X104991000Y-96400665D01*
X104991000Y-96683335D01*
X105046147Y-96960574D01*
X105154320Y-97221727D01*
X105311363Y-97456759D01*
X105511241Y-97656637D01*
X105713827Y-97792000D01*
X105511241Y-97927363D01*
X105311363Y-98127241D01*
X105154320Y-98362273D01*
X105046147Y-98623426D01*
X104991000Y-98900665D01*
X104991000Y-99183335D01*
X105046147Y-99460574D01*
X105154320Y-99721727D01*
X105311363Y-99956759D01*
X105396604Y-100042000D01*
X105311363Y-100127241D01*
X105154320Y-100362273D01*
X105046147Y-100623426D01*
X104991000Y-100900665D01*
X104991000Y-101183335D01*
X105046147Y-101460574D01*
X105154320Y-101721727D01*
X105311363Y-101956759D01*
X105477943Y-102123339D01*
X105381820Y-102152498D01*
X105271506Y-102211463D01*
X105174815Y-102290815D01*
X105095463Y-102387506D01*
X105036498Y-102497820D01*
X105000188Y-102617518D01*
X104987928Y-102742000D01*
X97775562Y-102742000D01*
X97824134Y-102669308D01*
X97913461Y-102453652D01*
X97959000Y-102224712D01*
X97959000Y-101991288D01*
X97913461Y-101762348D01*
X97824134Y-101546692D01*
X97694450Y-101352606D01*
X97529394Y-101187550D01*
X97335308Y-101057866D01*
X97119652Y-100968539D01*
X96890712Y-100923000D01*
X96657288Y-100923000D01*
X96428348Y-100968539D01*
X96212692Y-101057866D01*
X96018606Y-101187550D01*
X95853550Y-101352606D01*
X95723866Y-101546692D01*
X95634539Y-101762348D01*
X95589000Y-101991288D01*
X94697540Y-101991288D01*
X94697540Y-101927788D01*
X94652001Y-101698848D01*
X94562674Y-101483192D01*
X94432990Y-101289106D01*
X94267934Y-101124050D01*
X94073848Y-100994366D01*
X93858192Y-100905039D01*
X93629252Y-100859500D01*
X93395828Y-100859500D01*
X93166888Y-100905039D01*
X92951232Y-100994366D01*
X92757146Y-101124050D01*
X92592090Y-101289106D01*
X92462406Y-101483192D01*
X92373079Y-101698848D01*
X92327540Y-101927788D01*
X90297014Y-101927788D01*
X90339000Y-101716712D01*
X90339000Y-101483288D01*
X90293461Y-101254348D01*
X90204134Y-101038692D01*
X90074450Y-100844606D01*
X89909394Y-100679550D01*
X89715308Y-100549866D01*
X89499652Y-100460539D01*
X89270712Y-100415000D01*
X89037288Y-100415000D01*
X88808348Y-100460539D01*
X88592692Y-100549866D01*
X88398606Y-100679550D01*
X88233550Y-100844606D01*
X88103866Y-101038692D01*
X88014539Y-101254348D01*
X87969000Y-101483288D01*
X87845000Y-101483288D01*
X87845000Y-101453740D01*
X87787932Y-101166842D01*
X87675990Y-100896589D01*
X87513475Y-100653368D01*
X87306632Y-100446525D01*
X87132240Y-100330000D01*
X87306632Y-100213475D01*
X87513475Y-100006632D01*
X87631496Y-99830000D01*
X101985928Y-99830000D01*
X101985928Y-100830000D01*
X101998188Y-100954482D01*
X102034498Y-101074180D01*
X102093463Y-101184494D01*
X102172815Y-101281185D01*
X102269506Y-101360537D01*
X102379820Y-101419502D01*
X102499518Y-101455812D01*
X102624000Y-101468072D01*
X103624000Y-101468072D01*
X103748482Y-101455812D01*
X103868180Y-101419502D01*
X103978494Y-101360537D01*
X104075185Y-101281185D01*
X104154537Y-101184494D01*
X104213502Y-101074180D01*
X104249812Y-100954482D01*
X104262072Y-100830000D01*
X104262072Y-99830000D01*
X104249812Y-99705518D01*
X104213502Y-99585820D01*
X104154537Y-99475506D01*
X104075185Y-99378815D01*
X103978494Y-99299463D01*
X103868180Y-99240498D01*
X103748482Y-99204188D01*
X103624000Y-99191928D01*
X102624000Y-99191928D01*
X102499518Y-99204188D01*
X102379820Y-99240498D01*
X102269506Y-99299463D01*
X102172815Y-99378815D01*
X102093463Y-99475506D01*
X102034498Y-99585820D01*
X101998188Y-99705518D01*
X101985928Y-99830000D01*
X87631496Y-99830000D01*
X87675990Y-99763411D01*
X87787932Y-99493158D01*
X87845000Y-99206260D01*
X87845000Y-98913740D01*
X87787932Y-98626842D01*
X87675990Y-98356589D01*
X87513475Y-98113368D01*
X87306632Y-97906525D01*
X87132240Y-97790000D01*
X87306632Y-97673475D01*
X87513475Y-97466632D01*
X87675990Y-97223411D01*
X87787932Y-96953158D01*
X87845000Y-96666260D01*
X87845000Y-96373740D01*
X87787932Y-96086842D01*
X87748254Y-95991051D01*
X87830692Y-96046134D01*
X88046348Y-96135461D01*
X88275288Y-96181000D01*
X88508712Y-96181000D01*
X88737652Y-96135461D01*
X88953308Y-96046134D01*
X88992420Y-96020000D01*
X101985928Y-96020000D01*
X101985928Y-97020000D01*
X101998188Y-97144482D01*
X102034498Y-97264180D01*
X102093463Y-97374494D01*
X102172815Y-97471185D01*
X102269506Y-97550537D01*
X102379820Y-97609502D01*
X102499518Y-97645812D01*
X102624000Y-97658072D01*
X103624000Y-97658072D01*
X103748482Y-97645812D01*
X103868180Y-97609502D01*
X103978494Y-97550537D01*
X104075185Y-97471185D01*
X104154537Y-97374494D01*
X104213502Y-97264180D01*
X104249812Y-97144482D01*
X104262072Y-97020000D01*
X104262072Y-96020000D01*
X104249812Y-95895518D01*
X104213502Y-95775820D01*
X104154537Y-95665506D01*
X104075185Y-95568815D01*
X103978494Y-95489463D01*
X103868180Y-95430498D01*
X103748482Y-95394188D01*
X103624000Y-95381928D01*
X102624000Y-95381928D01*
X102499518Y-95394188D01*
X102379820Y-95430498D01*
X102269506Y-95489463D01*
X102172815Y-95568815D01*
X102093463Y-95665506D01*
X102034498Y-95775820D01*
X101998188Y-95895518D01*
X101985928Y-96020000D01*
X88992420Y-96020000D01*
X89147394Y-95916450D01*
X89312450Y-95751394D01*
X89442134Y-95557308D01*
X89531461Y-95341652D01*
X89577000Y-95112712D01*
X89577000Y-94879288D01*
X89531461Y-94650348D01*
X89442134Y-94434692D01*
X89312450Y-94240606D01*
X89147394Y-94075550D01*
X88953308Y-93945866D01*
X88737652Y-93856539D01*
X88508712Y-93811000D01*
X88275288Y-93811000D01*
X88046348Y-93856539D01*
X87848072Y-93938667D01*
X87848072Y-93261721D01*
X107001000Y-93261721D01*
X107001000Y-93682279D01*
X107083047Y-94094756D01*
X107243988Y-94483302D01*
X107477637Y-94832983D01*
X107775017Y-95130363D01*
X108124698Y-95364012D01*
X108513244Y-95524953D01*
X108925721Y-95607000D01*
X109346279Y-95607000D01*
X109758756Y-95524953D01*
X110147302Y-95364012D01*
X110496983Y-95130363D01*
X110794363Y-94832983D01*
X111028012Y-94483302D01*
X111188953Y-94094756D01*
X111271000Y-93682279D01*
X111271000Y-93261721D01*
X111188953Y-92849244D01*
X111028012Y-92460698D01*
X110794363Y-92111017D01*
X110496983Y-91813637D01*
X110147302Y-91579988D01*
X109758756Y-91419047D01*
X109346279Y-91337000D01*
X108925721Y-91337000D01*
X108513244Y-91419047D01*
X108124698Y-91579988D01*
X107775017Y-91813637D01*
X107477637Y-92111017D01*
X107243988Y-92460698D01*
X107083047Y-92849244D01*
X107001000Y-93261721D01*
X87848072Y-93261721D01*
X87848072Y-93130000D01*
X87835812Y-93005518D01*
X87799502Y-92885820D01*
X87740537Y-92775506D01*
X87661185Y-92678815D01*
X87564494Y-92599463D01*
X87454180Y-92540498D01*
X87334482Y-92504188D01*
X87210000Y-92491928D01*
X85510000Y-92491928D01*
X85385518Y-92504188D01*
X85265820Y-92540498D01*
X85155506Y-92599463D01*
X85058815Y-92678815D01*
X84979463Y-92775506D01*
X84920498Y-92885820D01*
X84898487Y-92958380D01*
X84766632Y-92826525D01*
X84523411Y-92664010D01*
X84253158Y-92552068D01*
X83966260Y-92495000D01*
X83673740Y-92495000D01*
X83386842Y-92552068D01*
X83116589Y-92664010D01*
X82873368Y-92826525D01*
X82666525Y-93033368D01*
X82504010Y-93276589D01*
X82392068Y-93546842D01*
X82335000Y-93833740D01*
X81940000Y-93833740D01*
X81940000Y-93504279D01*
X81974072Y-93156790D01*
X82065614Y-92853587D01*
X82214307Y-92573936D01*
X82414484Y-92328495D01*
X82658521Y-92126609D01*
X82937125Y-91975969D01*
X83239688Y-91882310D01*
X83585158Y-91846000D01*
X88424419Y-91846000D01*
X88453572Y-91843129D01*
X88467776Y-91843228D01*
X88476947Y-91842328D01*
X88920652Y-91795693D01*
X88979202Y-91783674D01*
X89038009Y-91772457D01*
X89046831Y-91769793D01*
X89473029Y-91637863D01*
X89528169Y-91614684D01*
X89583636Y-91592274D01*
X89591773Y-91587947D01*
X89984227Y-91375748D01*
X90033802Y-91342309D01*
X90083873Y-91309544D01*
X90091015Y-91303719D01*
X90434778Y-91019333D01*
X90476900Y-90976916D01*
X90519669Y-90935034D01*
X90525543Y-90927933D01*
X90807522Y-90582192D01*
X90840626Y-90532365D01*
X90874421Y-90483010D01*
X90878804Y-90474904D01*
X91088258Y-90080978D01*
X91111062Y-90025651D01*
X91134618Y-89970691D01*
X91137343Y-89961888D01*
X91266294Y-89534781D01*
X91277914Y-89476093D01*
X91290350Y-89417590D01*
X91291313Y-89408425D01*
X91334850Y-88964406D01*
X91334850Y-88964402D01*
X91338000Y-88932419D01*
X91338000Y-88359581D01*
X91335129Y-88330428D01*
X91335228Y-88316224D01*
X91334328Y-88307053D01*
X91287693Y-87863348D01*
X91275681Y-87804830D01*
X91264457Y-87745991D01*
X91261793Y-87737169D01*
X91129863Y-87310972D01*
X91106678Y-87255817D01*
X91084274Y-87200364D01*
X91079947Y-87192227D01*
X90867748Y-86799773D01*
X90834303Y-86750189D01*
X90801543Y-86700126D01*
X90795719Y-86692985D01*
X90511333Y-86349221D01*
X90468897Y-86307081D01*
X90427034Y-86264331D01*
X90419933Y-86258457D01*
X90074192Y-85976478D01*
X90024383Y-85943386D01*
X89975011Y-85909579D01*
X89966907Y-85905198D01*
X89966899Y-85905194D01*
X89572978Y-85695742D01*
X89517663Y-85672943D01*
X89462691Y-85649382D01*
X89453888Y-85646657D01*
X89026781Y-85517706D01*
X88968093Y-85506086D01*
X88909590Y-85493650D01*
X88900425Y-85492687D01*
X88456405Y-85449150D01*
X88456402Y-85449150D01*
X88424419Y-85446000D01*
X83598279Y-85446000D01*
X83250791Y-85411928D01*
X82947583Y-85320384D01*
X82667937Y-85171693D01*
X82422495Y-84971516D01*
X82220608Y-84727476D01*
X82069969Y-84448875D01*
X81985776Y-84176890D01*
X82378524Y-84176890D01*
X82423175Y-84324099D01*
X82548359Y-84586920D01*
X82722412Y-84820269D01*
X82938645Y-85015178D01*
X83188748Y-85164157D01*
X83463109Y-85261481D01*
X83693000Y-85140814D01*
X83693000Y-83947000D01*
X83947000Y-83947000D01*
X83947000Y-85140814D01*
X84176891Y-85261481D01*
X84451252Y-85164157D01*
X84701355Y-85015178D01*
X84917588Y-84820269D01*
X85090000Y-84589120D01*
X85262412Y-84820269D01*
X85478645Y-85015178D01*
X85728748Y-85164157D01*
X86003109Y-85261481D01*
X86233000Y-85140814D01*
X86233000Y-83947000D01*
X86487000Y-83947000D01*
X86487000Y-85140814D01*
X86716891Y-85261481D01*
X86991252Y-85164157D01*
X87241355Y-85015178D01*
X87457588Y-84820269D01*
X87631641Y-84586920D01*
X87756825Y-84324099D01*
X87801476Y-84176890D01*
X87680155Y-83947000D01*
X86487000Y-83947000D01*
X86233000Y-83947000D01*
X83947000Y-83947000D01*
X83693000Y-83947000D01*
X82499845Y-83947000D01*
X82378524Y-84176890D01*
X81985776Y-84176890D01*
X81976310Y-84146313D01*
X81940000Y-83800842D01*
X81940000Y-70898279D01*
X81974072Y-70550790D01*
X82065614Y-70247587D01*
X82214307Y-69967936D01*
X82414484Y-69722495D01*
X82658521Y-69520609D01*
X82937125Y-69369969D01*
X83239688Y-69276310D01*
X83585158Y-69240000D01*
X88088156Y-69240000D01*
X87979550Y-69348606D01*
G37*
X87979550Y-69348606D02*
X87849866Y-69542692D01*
X87760539Y-69758348D01*
X87731475Y-69904464D01*
X87661185Y-69818815D01*
X87564494Y-69739463D01*
X87454180Y-69680498D01*
X87334482Y-69644188D01*
X87210000Y-69631928D01*
X85510000Y-69631928D01*
X85385518Y-69644188D01*
X85265820Y-69680498D01*
X85155506Y-69739463D01*
X85058815Y-69818815D01*
X84979463Y-69915506D01*
X84920498Y-70025820D01*
X84898487Y-70098380D01*
X84766632Y-69966525D01*
X84523411Y-69804010D01*
X84253158Y-69692068D01*
X83966260Y-69635000D01*
X83673740Y-69635000D01*
X83386842Y-69692068D01*
X83116589Y-69804010D01*
X82873368Y-69966525D01*
X82666525Y-70173368D01*
X82504010Y-70416589D01*
X82392068Y-70686842D01*
X82335000Y-70973740D01*
X82335000Y-71266260D01*
X82392068Y-71553158D01*
X82504010Y-71823411D01*
X82666525Y-72066632D01*
X82873368Y-72273475D01*
X83047760Y-72390000D01*
X82873368Y-72506525D01*
X82666525Y-72713368D01*
X82504010Y-72956589D01*
X82392068Y-73226842D01*
X82335000Y-73513740D01*
X82335000Y-73806260D01*
X82392068Y-74093158D01*
X82504010Y-74363411D01*
X82666525Y-74606632D01*
X82873368Y-74813475D01*
X83047760Y-74930000D01*
X82873368Y-75046525D01*
X82666525Y-75253368D01*
X82504010Y-75496589D01*
X82392068Y-75766842D01*
X82335000Y-76053740D01*
X82335000Y-76346260D01*
X82392068Y-76633158D01*
X82504010Y-76903411D01*
X82666525Y-77146632D01*
X82873368Y-77353475D01*
X83047760Y-77470000D01*
X82873368Y-77586525D01*
X82666525Y-77793368D01*
X82504010Y-78036589D01*
X82392068Y-78306842D01*
X82335000Y-78593740D01*
X82335000Y-78886260D01*
X82392068Y-79173158D01*
X82504010Y-79443411D01*
X82666525Y-79686632D01*
X82873368Y-79893475D01*
X83047760Y-80010000D01*
X82873368Y-80126525D01*
X82666525Y-80333368D01*
X82504010Y-80576589D01*
X82392068Y-80846842D01*
X82335000Y-81133740D01*
X82335000Y-81426260D01*
X82392068Y-81713158D01*
X82504010Y-81983411D01*
X82666525Y-82226632D01*
X82873368Y-82433475D01*
X83055534Y-82555195D01*
X82938645Y-82624822D01*
X82722412Y-82819731D01*
X82548359Y-83053080D01*
X82423175Y-83315901D01*
X82378524Y-83463110D01*
X82499845Y-83693000D01*
X83693000Y-83693000D01*
X83693000Y-83673000D01*
X83947000Y-83673000D01*
X83947000Y-83693000D01*
X86233000Y-83693000D01*
X86233000Y-83673000D01*
X86487000Y-83673000D01*
X86487000Y-83693000D01*
X87680155Y-83693000D01*
X87690319Y-83673740D01*
X88939000Y-83673740D01*
X88939000Y-83966260D01*
X88996068Y-84253158D01*
X89108010Y-84523411D01*
X89270525Y-84766632D01*
X89477368Y-84973475D01*
X89720589Y-85135990D01*
X89990842Y-85247932D01*
X90277740Y-85305000D01*
X90570260Y-85305000D01*
X90857158Y-85247932D01*
X91127411Y-85135990D01*
X91370632Y-84973475D01*
X91577475Y-84766632D01*
X91694000Y-84592240D01*
X91810525Y-84766632D01*
X92017368Y-84973475D01*
X92260589Y-85135990D01*
X92530842Y-85247932D01*
X92817740Y-85305000D01*
X93110260Y-85305000D01*
X93397158Y-85247932D01*
X93667411Y-85135990D01*
X93910632Y-84973475D01*
X94117475Y-84766632D01*
X94234000Y-84592240D01*
X94350525Y-84766632D01*
X94557368Y-84973475D01*
X94800589Y-85135990D01*
X95070842Y-85247932D01*
X95357740Y-85305000D01*
X95650260Y-85305000D01*
X95937158Y-85247932D01*
X96207411Y-85135990D01*
X96450632Y-84973475D01*
X96657475Y-84766632D01*
X96774000Y-84592240D01*
X96890525Y-84766632D01*
X97097368Y-84973475D01*
X97340589Y-85135990D01*
X97610842Y-85247932D01*
X97897740Y-85305000D01*
X98190260Y-85305000D01*
X98477158Y-85247932D01*
X98747411Y-85135990D01*
X98990632Y-84973475D01*
X99122487Y-84841620D01*
X99144498Y-84914180D01*
X99203463Y-85024494D01*
X99282815Y-85121185D01*
X99379506Y-85200537D01*
X99489820Y-85259502D01*
X99609518Y-85295812D01*
X99734000Y-85308072D01*
X101434000Y-85308072D01*
X101558482Y-85295812D01*
X101678180Y-85259502D01*
X101788494Y-85200537D01*
X101885185Y-85121185D01*
X101964537Y-85024494D01*
X102023502Y-84914180D01*
X102059812Y-84794482D01*
X102072072Y-84670000D01*
X102072072Y-83086159D01*
X106909000Y-83086159D01*
X106909000Y-83537841D01*
X106997119Y-83980843D01*
X107169970Y-84398143D01*
X107420910Y-84773702D01*
X107740298Y-85093090D01*
X108115857Y-85344030D01*
X108533157Y-85516881D01*
X108976159Y-85605000D01*
X109427841Y-85605000D01*
X109870843Y-85516881D01*
X110288143Y-85344030D01*
X110663702Y-85093090D01*
X110983090Y-84773702D01*
X111234030Y-84398143D01*
X111406881Y-83980843D01*
X111495000Y-83537841D01*
X111495000Y-83086159D01*
X111406881Y-82643157D01*
X111234030Y-82225857D01*
X110983090Y-81850298D01*
X110663702Y-81530910D01*
X110288143Y-81279970D01*
X109870843Y-81107119D01*
X109427841Y-81019000D01*
X108976159Y-81019000D01*
X108533157Y-81107119D01*
X108115857Y-81279970D01*
X107740298Y-81530910D01*
X107420910Y-81850298D01*
X107169970Y-82225857D01*
X106997119Y-82643157D01*
X106909000Y-83086159D01*
X102072072Y-83086159D01*
X102072072Y-82970000D01*
X102059812Y-82845518D01*
X102023502Y-82725820D01*
X101964537Y-82615506D01*
X101885185Y-82518815D01*
X101788494Y-82439463D01*
X101678180Y-82380498D01*
X101558482Y-82344188D01*
X101434000Y-82331928D01*
X99734000Y-82331928D01*
X99609518Y-82344188D01*
X99489820Y-82380498D01*
X99379506Y-82439463D01*
X99282815Y-82518815D01*
X99203463Y-82615506D01*
X99144498Y-82725820D01*
X99122487Y-82798380D01*
X98990632Y-82666525D01*
X98747411Y-82504010D01*
X98477158Y-82392068D01*
X98190260Y-82335000D01*
X97897740Y-82335000D01*
X97610842Y-82392068D01*
X97340589Y-82504010D01*
X97097368Y-82666525D01*
X96890525Y-82873368D01*
X96774000Y-83047760D01*
X96657475Y-82873368D01*
X96450632Y-82666525D01*
X96207411Y-82504010D01*
X95937158Y-82392068D01*
X95650260Y-82335000D01*
X95357740Y-82335000D01*
X95070842Y-82392068D01*
X94800589Y-82504010D01*
X94557368Y-82666525D01*
X94350525Y-82873368D01*
X94234000Y-83047760D01*
X94117475Y-82873368D01*
X93910632Y-82666525D01*
X93667411Y-82504010D01*
X93397158Y-82392068D01*
X93110260Y-82335000D01*
X92817740Y-82335000D01*
X92530842Y-82392068D01*
X92260589Y-82504010D01*
X92017368Y-82666525D01*
X91810525Y-82873368D01*
X91694000Y-83047760D01*
X91577475Y-82873368D01*
X91370632Y-82666525D01*
X91127411Y-82504010D01*
X90857158Y-82392068D01*
X90570260Y-82335000D01*
X90277740Y-82335000D01*
X89990842Y-82392068D01*
X89720589Y-82504010D01*
X89477368Y-82666525D01*
X89270525Y-82873368D01*
X89108010Y-83116589D01*
X88996068Y-83386842D01*
X88939000Y-83673740D01*
X87690319Y-83673740D01*
X87801476Y-83463110D01*
X87756825Y-83315901D01*
X87631641Y-83053080D01*
X87457588Y-82819731D01*
X87241355Y-82624822D01*
X87124466Y-82555195D01*
X87306632Y-82433475D01*
X87513475Y-82226632D01*
X87675990Y-81983411D01*
X87787932Y-81713158D01*
X87845000Y-81426260D01*
X87845000Y-81133740D01*
X87787932Y-80846842D01*
X87675990Y-80576589D01*
X87513475Y-80333368D01*
X87306632Y-80126525D01*
X87132240Y-80010000D01*
X87306632Y-79893475D01*
X87513475Y-79686632D01*
X87675990Y-79443411D01*
X87787932Y-79173158D01*
X87840942Y-78906659D01*
X89518071Y-78906659D01*
X89518071Y-79140083D01*
X89563610Y-79369023D01*
X89652937Y-79584679D01*
X89782621Y-79778765D01*
X89947677Y-79943821D01*
X90141763Y-80073505D01*
X90357419Y-80162832D01*
X90586359Y-80208371D01*
X90819783Y-80208371D01*
X91048723Y-80162832D01*
X91264379Y-80073505D01*
X91458465Y-79943821D01*
X91623521Y-79778765D01*
X91753205Y-79584679D01*
X91842532Y-79369023D01*
X91888071Y-79140083D01*
X91888071Y-78906659D01*
X91856512Y-78748000D01*
X100207928Y-78748000D01*
X100207928Y-79748000D01*
X100220188Y-79872482D01*
X100256498Y-79992180D01*
X100315463Y-80102494D01*
X100394815Y-80199185D01*
X100491506Y-80278537D01*
X100601820Y-80337502D01*
X100721518Y-80373812D01*
X100846000Y-80386072D01*
X101846000Y-80386072D01*
X101970482Y-80373812D01*
X102090180Y-80337502D01*
X102200494Y-80278537D01*
X102297185Y-80199185D01*
X102376537Y-80102494D01*
X102435502Y-79992180D01*
X102471812Y-79872482D01*
X102484072Y-79748000D01*
X102484072Y-78748000D01*
X102471812Y-78623518D01*
X102435502Y-78503820D01*
X102376537Y-78393506D01*
X102297185Y-78296815D01*
X102200494Y-78217463D01*
X102090180Y-78158498D01*
X101970482Y-78122188D01*
X101846000Y-78109928D01*
X100846000Y-78109928D01*
X100721518Y-78122188D01*
X100601820Y-78158498D01*
X100491506Y-78217463D01*
X100394815Y-78296815D01*
X100315463Y-78393506D01*
X100256498Y-78503820D01*
X100220188Y-78623518D01*
X100207928Y-78748000D01*
X91856512Y-78748000D01*
X91842532Y-78677719D01*
X91753205Y-78462063D01*
X91623521Y-78267977D01*
X91458465Y-78102921D01*
X91264379Y-77973237D01*
X91048723Y-77883910D01*
X90819783Y-77838371D01*
X90586359Y-77838371D01*
X90357419Y-77883910D01*
X90141763Y-77973237D01*
X89947677Y-78102921D01*
X89782621Y-78267977D01*
X89652937Y-78462063D01*
X89563610Y-78677719D01*
X89518071Y-78906659D01*
X87840942Y-78906659D01*
X87845000Y-78886260D01*
X87845000Y-78593740D01*
X87787932Y-78306842D01*
X87675990Y-78036589D01*
X87513475Y-77793368D01*
X87306632Y-77586525D01*
X87132240Y-77470000D01*
X87306632Y-77353475D01*
X87513475Y-77146632D01*
X87675990Y-76903411D01*
X87787932Y-76633158D01*
X87845000Y-76346260D01*
X87845000Y-76053740D01*
X87787932Y-75766842D01*
X87675990Y-75496589D01*
X87513475Y-75253368D01*
X87306632Y-75046525D01*
X87132240Y-74930000D01*
X87306632Y-74813475D01*
X87513475Y-74606632D01*
X87675990Y-74363411D01*
X87753617Y-74176000D01*
X100207928Y-74176000D01*
X100207928Y-75176000D01*
X100220188Y-75300482D01*
X100256498Y-75420180D01*
X100315463Y-75530494D01*
X100394815Y-75627185D01*
X100491506Y-75706537D01*
X100601820Y-75765502D01*
X100721518Y-75801812D01*
X100846000Y-75814072D01*
X101846000Y-75814072D01*
X101970482Y-75801812D01*
X102090180Y-75765502D01*
X102200494Y-75706537D01*
X102297185Y-75627185D01*
X102376537Y-75530494D01*
X102435502Y-75420180D01*
X102471812Y-75300482D01*
X102473041Y-75288000D01*
X103139928Y-75288000D01*
X103139928Y-76716000D01*
X103152188Y-76840482D01*
X103188498Y-76960180D01*
X103247463Y-77070494D01*
X103326815Y-77167185D01*
X103423506Y-77246537D01*
X103533820Y-77305502D01*
X103653518Y-77341812D01*
X103778000Y-77354072D01*
X103781860Y-77354072D01*
X103632063Y-77454163D01*
X103444163Y-77642063D01*
X103296532Y-77863009D01*
X103194842Y-78108511D01*
X103143000Y-78369135D01*
X103143000Y-78634865D01*
X103194842Y-78895489D01*
X103296532Y-79140991D01*
X103444163Y-79361937D01*
X103632063Y-79549837D01*
X103853009Y-79697468D01*
X104098511Y-79799158D01*
X104359135Y-79851000D01*
X104624865Y-79851000D01*
X104885489Y-79799158D01*
X105130991Y-79697468D01*
X105351937Y-79549837D01*
X105492000Y-79409774D01*
X105632063Y-79549837D01*
X105853009Y-79697468D01*
X106098511Y-79799158D01*
X106359135Y-79851000D01*
X106624865Y-79851000D01*
X106885489Y-79799158D01*
X107130991Y-79697468D01*
X107351937Y-79549837D01*
X107539837Y-79361937D01*
X107687468Y-79140991D01*
X107789158Y-78895489D01*
X107841000Y-78634865D01*
X107841000Y-78369135D01*
X107789158Y-78108511D01*
X107687468Y-77863009D01*
X107539837Y-77642063D01*
X107351937Y-77454163D01*
X107130991Y-77306532D01*
X106999339Y-77252000D01*
X107130991Y-77197468D01*
X107351937Y-77049837D01*
X107539837Y-76861937D01*
X107687468Y-76640991D01*
X107789158Y-76395489D01*
X107841000Y-76134865D01*
X107841000Y-75869135D01*
X107789158Y-75608511D01*
X107687468Y-75363009D01*
X107539837Y-75142063D01*
X107351937Y-74954163D01*
X107130991Y-74806532D01*
X106885489Y-74704842D01*
X106624865Y-74653000D01*
X106359135Y-74653000D01*
X106098511Y-74704842D01*
X105853009Y-74806532D01*
X105710486Y-74901763D01*
X105657185Y-74836815D01*
X105560494Y-74757463D01*
X105450180Y-74698498D01*
X105330482Y-74662188D01*
X105206000Y-74649928D01*
X103778000Y-74649928D01*
X103653518Y-74662188D01*
X103533820Y-74698498D01*
X103423506Y-74757463D01*
X103326815Y-74836815D01*
X103247463Y-74933506D01*
X103188498Y-75043820D01*
X103152188Y-75163518D01*
X103139928Y-75288000D01*
X102473041Y-75288000D01*
X102484072Y-75176000D01*
X102484072Y-74176000D01*
X102471812Y-74051518D01*
X102435502Y-73931820D01*
X102376537Y-73821506D01*
X102297185Y-73724815D01*
X102200494Y-73645463D01*
X102090180Y-73586498D01*
X101970482Y-73550188D01*
X101846000Y-73537928D01*
X100846000Y-73537928D01*
X100721518Y-73550188D01*
X100601820Y-73586498D01*
X100491506Y-73645463D01*
X100394815Y-73724815D01*
X100315463Y-73821506D01*
X100256498Y-73931820D01*
X100220188Y-74051518D01*
X100207928Y-74176000D01*
X87753617Y-74176000D01*
X87787932Y-74093158D01*
X87845000Y-73806260D01*
X87845000Y-73513740D01*
X87787932Y-73226842D01*
X87675990Y-72956589D01*
X87513475Y-72713368D01*
X87381620Y-72581513D01*
X87454180Y-72559502D01*
X87564494Y-72500537D01*
X87661185Y-72421185D01*
X87740537Y-72324494D01*
X87799502Y-72214180D01*
X87835812Y-72094482D01*
X87848072Y-71970000D01*
X87848072Y-71794835D01*
X100461000Y-71794835D01*
X100461000Y-71969165D01*
X100495010Y-72140145D01*
X100561723Y-72301205D01*
X100658576Y-72446155D01*
X100781845Y-72569424D01*
X100926795Y-72666277D01*
X101087855Y-72732990D01*
X101258835Y-72767000D01*
X101433165Y-72767000D01*
X101604145Y-72732990D01*
X101765205Y-72666277D01*
X101910155Y-72569424D01*
X102033424Y-72446155D01*
X102130277Y-72301205D01*
X102196990Y-72140145D01*
X102231000Y-71969165D01*
X102231000Y-71794835D01*
X102196990Y-71623855D01*
X102130277Y-71462795D01*
X102033424Y-71317845D01*
X101910155Y-71194576D01*
X101765205Y-71097723D01*
X101604145Y-71031010D01*
X101433165Y-70997000D01*
X101258835Y-70997000D01*
X101087855Y-71031010D01*
X100926795Y-71097723D01*
X100781845Y-71194576D01*
X100658576Y-71317845D01*
X100561723Y-71462795D01*
X100495010Y-71623855D01*
X100461000Y-71794835D01*
X87848072Y-71794835D01*
X87848072Y-70660977D01*
X87849866Y-70665308D01*
X87979550Y-70859394D01*
X88144606Y-71024450D01*
X88338692Y-71154134D01*
X88554348Y-71243461D01*
X88783288Y-71289000D01*
X89016712Y-71289000D01*
X89245652Y-71243461D01*
X89461308Y-71154134D01*
X89655394Y-71024450D01*
X89820450Y-70859394D01*
X89950134Y-70665308D01*
X90039461Y-70449652D01*
X90085000Y-70220712D01*
X90085000Y-69987288D01*
X90039461Y-69758348D01*
X89950134Y-69542692D01*
X89820450Y-69348606D01*
X89711844Y-69240000D01*
X108115812Y-69240000D01*
X107740298Y-69490910D01*
X107420910Y-69810298D01*
X107169970Y-70185857D01*
X106997119Y-70603157D01*
X106909000Y-71046159D01*
X106909000Y-71497841D01*
X106997119Y-71940843D01*
X107169970Y-72358143D01*
X107420910Y-72733702D01*
X107740298Y-73053090D01*
X108115857Y-73304030D01*
X108533157Y-73476881D01*
X108976159Y-73565000D01*
X109427841Y-73565000D01*
X109870843Y-73476881D01*
X110288143Y-73304030D01*
X110663702Y-73053090D01*
X110983090Y-72733702D01*
X111234030Y-72358143D01*
X111406881Y-71940843D01*
X111495000Y-71497841D01*
X111495000Y-71046159D01*
X111406881Y-70603157D01*
X111234030Y-70185857D01*
X110983090Y-69810298D01*
X110663702Y-69490910D01*
X110288188Y-69240000D01*
X116299721Y-69240000D01*
X116647210Y-69274072D01*
X116950413Y-69365614D01*
X117230064Y-69514307D01*
X117475505Y-69714484D01*
X117677391Y-69958521D01*
X117828031Y-70237125D01*
X117921690Y-70539688D01*
X117958001Y-70885167D01*
X117958000Y-83787721D01*
X117923928Y-84135209D01*
X117832384Y-84438417D01*
X117683693Y-84718063D01*
X117483516Y-84963505D01*
X117239476Y-85165392D01*
X116960875Y-85316031D01*
X116658313Y-85409690D01*
X116312842Y-85446000D01*
X111473581Y-85446000D01*
X111444428Y-85448871D01*
X111430224Y-85448772D01*
X111421053Y-85449672D01*
X110977348Y-85496307D01*
X110918830Y-85508319D01*
X110859991Y-85519543D01*
X110851169Y-85522207D01*
X110424972Y-85654137D01*
X110369817Y-85677322D01*
X110314364Y-85699726D01*
X110306227Y-85704053D01*
X109913773Y-85916252D01*
X109864189Y-85949697D01*
X109814126Y-85982457D01*
X109806985Y-85988281D01*
X109463221Y-86272667D01*
X109421081Y-86315103D01*
X109378331Y-86356966D01*
X109372457Y-86364067D01*
X109090478Y-86709808D01*
X109057386Y-86759617D01*
X109023579Y-86808989D01*
X109019198Y-86817093D01*
X109019198Y-86817095D01*
X109019197Y-86817096D01*
X108809742Y-87211022D01*
X108786943Y-87266337D01*
X108763382Y-87321309D01*
X108760657Y-87330112D01*
X108631706Y-87757219D01*
X108620086Y-87815907D01*
X108607650Y-87874410D01*
X108606687Y-87883575D01*
X108563150Y-88327595D01*
X108560000Y-88359581D01*
X108560000Y-88932418D01*
X108562871Y-88961571D01*
X108562772Y-88975776D01*
X108563672Y-88984947D01*
X108610307Y-89428652D01*
X108622326Y-89487202D01*
X108633543Y-89546009D01*
X108636207Y-89554831D01*
X108768137Y-89981029D01*
X108791316Y-90036169D01*
X108813726Y-90091636D01*
X108818053Y-90099773D01*
X109030252Y-90492227D01*
X109063691Y-90541802D01*
X109096456Y-90591873D01*
X109102281Y-90599015D01*
X109386667Y-90942778D01*
X109429084Y-90984900D01*
X109470966Y-91027669D01*
X109478067Y-91033543D01*
X109823808Y-91315522D01*
X109873635Y-91348626D01*
X109922990Y-91382421D01*
X109931096Y-91386804D01*
X110325022Y-91596258D01*
X110380349Y-91619062D01*
X110435309Y-91642618D01*
X110444112Y-91645343D01*
X110871219Y-91774294D01*
X110929907Y-91785914D01*
X110988410Y-91798350D01*
X110997575Y-91799313D01*
X111441594Y-91842850D01*
X111441598Y-91842850D01*
X111473581Y-91846000D01*
X116299721Y-91846000D01*
X116647210Y-91880072D01*
X116950413Y-91971614D01*
X117230064Y-92120307D01*
X117475505Y-92320484D01*
X117677391Y-92564521D01*
X117828031Y-92843125D01*
X117921690Y-93145688D01*
X117958001Y-93491167D01*
X117958000Y-106647721D01*
X117923928Y-106995209D01*
X117832384Y-107298417D01*
X117683693Y-107578063D01*
X117483516Y-107823505D01*
X117239476Y-108025392D01*
X116960875Y-108176031D01*
X116658313Y-108269690D01*
X116312842Y-108306000D01*
X110443648Y-108306000D01*
X110496983Y-108270363D01*
X110794363Y-107972983D01*
X111028012Y-107623302D01*
X111188953Y-107234756D01*
X111271000Y-106822279D01*
X111271000Y-106401721D01*
X111188953Y-105989244D01*
X111028012Y-105600698D01*
X110794363Y-105251017D01*
X110496983Y-104953637D01*
X110147302Y-104719988D01*
X109758756Y-104559047D01*
X109346279Y-104477000D01*
X108925721Y-104477000D01*
X108513244Y-104559047D01*
X108124698Y-104719988D01*
X107775017Y-104953637D01*
X107477637Y-105251017D01*
X107243988Y-105600698D01*
X107083047Y-105989244D01*
X107001000Y-106401721D01*
X107001000Y-106822279D01*
X107083047Y-107234756D01*
X107243988Y-107623302D01*
X107477637Y-107972983D01*
X107775017Y-108270363D01*
X107828352Y-108306000D01*
X83598279Y-108306000D01*
X83250791Y-108271928D01*
X82947583Y-108180384D01*
X82667937Y-108031693D01*
X82422495Y-107831516D01*
X82220608Y-107587476D01*
X82069969Y-107308875D01*
X81985776Y-107036890D01*
X82378524Y-107036890D01*
X82423175Y-107184099D01*
X82548359Y-107446920D01*
X82722412Y-107680269D01*
X82938645Y-107875178D01*
X83188748Y-108024157D01*
X83463109Y-108121481D01*
X83693000Y-108000814D01*
X83693000Y-106807000D01*
X83947000Y-106807000D01*
X83947000Y-108000814D01*
X84176891Y-108121481D01*
X84451252Y-108024157D01*
X84701355Y-107875178D01*
X84917588Y-107680269D01*
X85090000Y-107449120D01*
X85262412Y-107680269D01*
X85478645Y-107875178D01*
X85728748Y-108024157D01*
X86003109Y-108121481D01*
X86233000Y-108000814D01*
X86233000Y-106807000D01*
X86487000Y-106807000D01*
X86487000Y-108000814D01*
X86716891Y-108121481D01*
X86991252Y-108024157D01*
X87241355Y-107875178D01*
X87457588Y-107680269D01*
X87631641Y-107446920D01*
X87756825Y-107184099D01*
X87801476Y-107036890D01*
X87680155Y-106807000D01*
X86487000Y-106807000D01*
X86233000Y-106807000D01*
X83947000Y-106807000D01*
X83693000Y-106807000D01*
X82499845Y-106807000D01*
X82378524Y-107036890D01*
X81985776Y-107036890D01*
X81976310Y-107006313D01*
X81940000Y-106660842D01*
X81940000Y-93833740D01*
X82335000Y-93833740D01*
X82335000Y-94126260D01*
X82392068Y-94413158D01*
X82504010Y-94683411D01*
X82666525Y-94926632D01*
X82873368Y-95133475D01*
X83047760Y-95250000D01*
X82873368Y-95366525D01*
X82666525Y-95573368D01*
X82504010Y-95816589D01*
X82392068Y-96086842D01*
X82335000Y-96373740D01*
X82335000Y-96666260D01*
X82392068Y-96953158D01*
X82504010Y-97223411D01*
X82666525Y-97466632D01*
X82873368Y-97673475D01*
X83047760Y-97790000D01*
X82873368Y-97906525D01*
X82666525Y-98113368D01*
X82504010Y-98356589D01*
X82392068Y-98626842D01*
X82335000Y-98913740D01*
X82335000Y-99206260D01*
X82392068Y-99493158D01*
X82504010Y-99763411D01*
X82666525Y-100006632D01*
X82873368Y-100213475D01*
X83047760Y-100330000D01*
X82873368Y-100446525D01*
X82666525Y-100653368D01*
X82504010Y-100896589D01*
X82392068Y-101166842D01*
X82335000Y-101453740D01*
X82335000Y-101746260D01*
X82392068Y-102033158D01*
X82504010Y-102303411D01*
X82666525Y-102546632D01*
X82873368Y-102753475D01*
X83047760Y-102870000D01*
X82873368Y-102986525D01*
X82666525Y-103193368D01*
X82504010Y-103436589D01*
X82392068Y-103706842D01*
X82335000Y-103993740D01*
X82335000Y-104286260D01*
X82392068Y-104573158D01*
X82504010Y-104843411D01*
X82666525Y-105086632D01*
X82873368Y-105293475D01*
X83055534Y-105415195D01*
X82938645Y-105484822D01*
X82722412Y-105679731D01*
X82548359Y-105913080D01*
X82423175Y-106175901D01*
X82378524Y-106323110D01*
X82499845Y-106553000D01*
X83693000Y-106553000D01*
X83693000Y-106533000D01*
X83947000Y-106533000D01*
X83947000Y-106553000D01*
X86233000Y-106553000D01*
X86233000Y-106533000D01*
X86487000Y-106533000D01*
X86487000Y-106553000D01*
X87680155Y-106553000D01*
X87690319Y-106533740D01*
X88939000Y-106533740D01*
X88939000Y-106826260D01*
X88996068Y-107113158D01*
X89108010Y-107383411D01*
X89270525Y-107626632D01*
X89477368Y-107833475D01*
X89720589Y-107995990D01*
X89990842Y-108107932D01*
X90277740Y-108165000D01*
X90570260Y-108165000D01*
X90857158Y-108107932D01*
X91127411Y-107995990D01*
X91370632Y-107833475D01*
X91577475Y-107626632D01*
X91694000Y-107452240D01*
X91810525Y-107626632D01*
X92017368Y-107833475D01*
X92260589Y-107995990D01*
X92530842Y-108107932D01*
X92817740Y-108165000D01*
X93110260Y-108165000D01*
X93397158Y-108107932D01*
X93667411Y-107995990D01*
X93910632Y-107833475D01*
X94117475Y-107626632D01*
X94234000Y-107452240D01*
X94350525Y-107626632D01*
X94557368Y-107833475D01*
X94800589Y-107995990D01*
X95070842Y-108107932D01*
X95357740Y-108165000D01*
X95650260Y-108165000D01*
X95937158Y-108107932D01*
X96207411Y-107995990D01*
X96450632Y-107833475D01*
X96657475Y-107626632D01*
X96774000Y-107452240D01*
X96890525Y-107626632D01*
X97097368Y-107833475D01*
X97340589Y-107995990D01*
X97610842Y-108107932D01*
X97897740Y-108165000D01*
X98190260Y-108165000D01*
X98477158Y-108107932D01*
X98747411Y-107995990D01*
X98990632Y-107833475D01*
X99122487Y-107701620D01*
X99144498Y-107774180D01*
X99203463Y-107884494D01*
X99282815Y-107981185D01*
X99379506Y-108060537D01*
X99489820Y-108119502D01*
X99609518Y-108155812D01*
X99734000Y-108168072D01*
X101434000Y-108168072D01*
X101558482Y-108155812D01*
X101678180Y-108119502D01*
X101788494Y-108060537D01*
X101885185Y-107981185D01*
X101964537Y-107884494D01*
X102023502Y-107774180D01*
X102059812Y-107654482D01*
X102072072Y-107530000D01*
X102072072Y-105830000D01*
X102059812Y-105705518D01*
X102023502Y-105585820D01*
X101964537Y-105475506D01*
X101885185Y-105378815D01*
X101788494Y-105299463D01*
X101678180Y-105240498D01*
X101558482Y-105204188D01*
X101434000Y-105191928D01*
X99734000Y-105191928D01*
X99609518Y-105204188D01*
X99489820Y-105240498D01*
X99379506Y-105299463D01*
X99282815Y-105378815D01*
X99203463Y-105475506D01*
X99144498Y-105585820D01*
X99122487Y-105658380D01*
X98990632Y-105526525D01*
X98747411Y-105364010D01*
X98477158Y-105252068D01*
X98190260Y-105195000D01*
X97897740Y-105195000D01*
X97610842Y-105252068D01*
X97340589Y-105364010D01*
X97097368Y-105526525D01*
X96890525Y-105733368D01*
X96774000Y-105907760D01*
X96657475Y-105733368D01*
X96450632Y-105526525D01*
X96207411Y-105364010D01*
X95937158Y-105252068D01*
X95650260Y-105195000D01*
X95357740Y-105195000D01*
X95070842Y-105252068D01*
X94800589Y-105364010D01*
X94557368Y-105526525D01*
X94350525Y-105733368D01*
X94234000Y-105907760D01*
X94117475Y-105733368D01*
X93910632Y-105526525D01*
X93667411Y-105364010D01*
X93397158Y-105252068D01*
X93110260Y-105195000D01*
X92817740Y-105195000D01*
X92530842Y-105252068D01*
X92260589Y-105364010D01*
X92017368Y-105526525D01*
X91810525Y-105733368D01*
X91694000Y-105907760D01*
X91577475Y-105733368D01*
X91370632Y-105526525D01*
X91127411Y-105364010D01*
X90857158Y-105252068D01*
X90570260Y-105195000D01*
X90277740Y-105195000D01*
X89990842Y-105252068D01*
X89720589Y-105364010D01*
X89477368Y-105526525D01*
X89270525Y-105733368D01*
X89108010Y-105976589D01*
X88996068Y-106246842D01*
X88939000Y-106533740D01*
X87690319Y-106533740D01*
X87801476Y-106323110D01*
X87756825Y-106175901D01*
X87631641Y-105913080D01*
X87457588Y-105679731D01*
X87241355Y-105484822D01*
X87124466Y-105415195D01*
X87306632Y-105293475D01*
X87513475Y-105086632D01*
X87675990Y-104843411D01*
X87787932Y-104573158D01*
X87845000Y-104286260D01*
X87845000Y-103993740D01*
X87787932Y-103706842D01*
X87675990Y-103436589D01*
X87513475Y-103193368D01*
X87306632Y-102986525D01*
X87132240Y-102870000D01*
X87306632Y-102753475D01*
X87513475Y-102546632D01*
X87675990Y-102303411D01*
X87787932Y-102033158D01*
X87845000Y-101746260D01*
X87845000Y-101483288D01*
X87969000Y-101483288D01*
X87969000Y-101716712D01*
X88014539Y-101945652D01*
X88103866Y-102161308D01*
X88233550Y-102355394D01*
X88398606Y-102520450D01*
X88592692Y-102650134D01*
X88808348Y-102739461D01*
X89037288Y-102785000D01*
X89270712Y-102785000D01*
X89499652Y-102739461D01*
X89715308Y-102650134D01*
X89909394Y-102520450D01*
X90074450Y-102355394D01*
X90204134Y-102161308D01*
X90293461Y-101945652D01*
X90297014Y-101927788D01*
X92327540Y-101927788D01*
X92327540Y-102161212D01*
X92373079Y-102390152D01*
X92462406Y-102605808D01*
X92592090Y-102799894D01*
X92757146Y-102964950D01*
X92951232Y-103094634D01*
X93166888Y-103183961D01*
X93395828Y-103229500D01*
X93629252Y-103229500D01*
X93858192Y-103183961D01*
X94073848Y-103094634D01*
X94267934Y-102964950D01*
X94432990Y-102799894D01*
X94562674Y-102605808D01*
X94652001Y-102390152D01*
X94697540Y-102161212D01*
X94697540Y-101991288D01*
X95589000Y-101991288D01*
X95589000Y-102224712D01*
X95634539Y-102453652D01*
X95723866Y-102669308D01*
X95853550Y-102863394D01*
X96018606Y-103028450D01*
X96212692Y-103158134D01*
X96428348Y-103247461D01*
X96657288Y-103293000D01*
X96890712Y-103293000D01*
X97119652Y-103247461D01*
X97335308Y-103158134D01*
X97529394Y-103028450D01*
X97694450Y-102863394D01*
X97775562Y-102742000D01*
X104987928Y-102742000D01*
X104987928Y-104342000D01*
X105000188Y-104466482D01*
X105036498Y-104586180D01*
X105095463Y-104696494D01*
X105174815Y-104793185D01*
X105271506Y-104872537D01*
X105381820Y-104931502D01*
X105501518Y-104967812D01*
X105626000Y-104980072D01*
X107226000Y-104980072D01*
X107350482Y-104967812D01*
X107470180Y-104931502D01*
X107580494Y-104872537D01*
X107677185Y-104793185D01*
X107756537Y-104696494D01*
X107815502Y-104586180D01*
X107851812Y-104466482D01*
X107864072Y-104342000D01*
X107864072Y-102742000D01*
X107851812Y-102617518D01*
X107815502Y-102497820D01*
X107756537Y-102387506D01*
X107677185Y-102290815D01*
X107580494Y-102211463D01*
X107470180Y-102152498D01*
X107374057Y-102123339D01*
X107540637Y-101956759D01*
X107697680Y-101721727D01*
X107805853Y-101460574D01*
X107861000Y-101183335D01*
X107861000Y-100900665D01*
X107805853Y-100623426D01*
X107697680Y-100362273D01*
X107540637Y-100127241D01*
X107455396Y-100042000D01*
X107540637Y-99956759D01*
X107697680Y-99721727D01*
X107805853Y-99460574D01*
X107861000Y-99183335D01*
X107861000Y-98900665D01*
X107805853Y-98623426D01*
X107697680Y-98362273D01*
X107540637Y-98127241D01*
X107340759Y-97927363D01*
X107138173Y-97792000D01*
X107340759Y-97656637D01*
X107540637Y-97456759D01*
X107697680Y-97221727D01*
X107805853Y-96960574D01*
X107861000Y-96683335D01*
X107861000Y-96400665D01*
X107805853Y-96123426D01*
X107697680Y-95862273D01*
X107540637Y-95627241D01*
X107340759Y-95427363D01*
X107105727Y-95270320D01*
X106844574Y-95162147D01*
X106567335Y-95107000D01*
X106284665Y-95107000D01*
X106007426Y-95162147D01*
X105746273Y-95270320D01*
X105511241Y-95427363D01*
X105311363Y-95627241D01*
X105154320Y-95862273D01*
X105046147Y-96123426D01*
X104991000Y-96400665D01*
X104991000Y-96683335D01*
X105046147Y-96960574D01*
X105154320Y-97221727D01*
X105311363Y-97456759D01*
X105511241Y-97656637D01*
X105713827Y-97792000D01*
X105511241Y-97927363D01*
X105311363Y-98127241D01*
X105154320Y-98362273D01*
X105046147Y-98623426D01*
X104991000Y-98900665D01*
X104991000Y-99183335D01*
X105046147Y-99460574D01*
X105154320Y-99721727D01*
X105311363Y-99956759D01*
X105396604Y-100042000D01*
X105311363Y-100127241D01*
X105154320Y-100362273D01*
X105046147Y-100623426D01*
X104991000Y-100900665D01*
X104991000Y-101183335D01*
X105046147Y-101460574D01*
X105154320Y-101721727D01*
X105311363Y-101956759D01*
X105477943Y-102123339D01*
X105381820Y-102152498D01*
X105271506Y-102211463D01*
X105174815Y-102290815D01*
X105095463Y-102387506D01*
X105036498Y-102497820D01*
X105000188Y-102617518D01*
X104987928Y-102742000D01*
X97775562Y-102742000D01*
X97824134Y-102669308D01*
X97913461Y-102453652D01*
X97959000Y-102224712D01*
X97959000Y-101991288D01*
X97913461Y-101762348D01*
X97824134Y-101546692D01*
X97694450Y-101352606D01*
X97529394Y-101187550D01*
X97335308Y-101057866D01*
X97119652Y-100968539D01*
X96890712Y-100923000D01*
X96657288Y-100923000D01*
X96428348Y-100968539D01*
X96212692Y-101057866D01*
X96018606Y-101187550D01*
X95853550Y-101352606D01*
X95723866Y-101546692D01*
X95634539Y-101762348D01*
X95589000Y-101991288D01*
X94697540Y-101991288D01*
X94697540Y-101927788D01*
X94652001Y-101698848D01*
X94562674Y-101483192D01*
X94432990Y-101289106D01*
X94267934Y-101124050D01*
X94073848Y-100994366D01*
X93858192Y-100905039D01*
X93629252Y-100859500D01*
X93395828Y-100859500D01*
X93166888Y-100905039D01*
X92951232Y-100994366D01*
X92757146Y-101124050D01*
X92592090Y-101289106D01*
X92462406Y-101483192D01*
X92373079Y-101698848D01*
X92327540Y-101927788D01*
X90297014Y-101927788D01*
X90339000Y-101716712D01*
X90339000Y-101483288D01*
X90293461Y-101254348D01*
X90204134Y-101038692D01*
X90074450Y-100844606D01*
X89909394Y-100679550D01*
X89715308Y-100549866D01*
X89499652Y-100460539D01*
X89270712Y-100415000D01*
X89037288Y-100415000D01*
X88808348Y-100460539D01*
X88592692Y-100549866D01*
X88398606Y-100679550D01*
X88233550Y-100844606D01*
X88103866Y-101038692D01*
X88014539Y-101254348D01*
X87969000Y-101483288D01*
X87845000Y-101483288D01*
X87845000Y-101453740D01*
X87787932Y-101166842D01*
X87675990Y-100896589D01*
X87513475Y-100653368D01*
X87306632Y-100446525D01*
X87132240Y-100330000D01*
X87306632Y-100213475D01*
X87513475Y-100006632D01*
X87631496Y-99830000D01*
X101985928Y-99830000D01*
X101985928Y-100830000D01*
X101998188Y-100954482D01*
X102034498Y-101074180D01*
X102093463Y-101184494D01*
X102172815Y-101281185D01*
X102269506Y-101360537D01*
X102379820Y-101419502D01*
X102499518Y-101455812D01*
X102624000Y-101468072D01*
X103624000Y-101468072D01*
X103748482Y-101455812D01*
X103868180Y-101419502D01*
X103978494Y-101360537D01*
X104075185Y-101281185D01*
X104154537Y-101184494D01*
X104213502Y-101074180D01*
X104249812Y-100954482D01*
X104262072Y-100830000D01*
X104262072Y-99830000D01*
X104249812Y-99705518D01*
X104213502Y-99585820D01*
X104154537Y-99475506D01*
X104075185Y-99378815D01*
X103978494Y-99299463D01*
X103868180Y-99240498D01*
X103748482Y-99204188D01*
X103624000Y-99191928D01*
X102624000Y-99191928D01*
X102499518Y-99204188D01*
X102379820Y-99240498D01*
X102269506Y-99299463D01*
X102172815Y-99378815D01*
X102093463Y-99475506D01*
X102034498Y-99585820D01*
X101998188Y-99705518D01*
X101985928Y-99830000D01*
X87631496Y-99830000D01*
X87675990Y-99763411D01*
X87787932Y-99493158D01*
X87845000Y-99206260D01*
X87845000Y-98913740D01*
X87787932Y-98626842D01*
X87675990Y-98356589D01*
X87513475Y-98113368D01*
X87306632Y-97906525D01*
X87132240Y-97790000D01*
X87306632Y-97673475D01*
X87513475Y-97466632D01*
X87675990Y-97223411D01*
X87787932Y-96953158D01*
X87845000Y-96666260D01*
X87845000Y-96373740D01*
X87787932Y-96086842D01*
X87748254Y-95991051D01*
X87830692Y-96046134D01*
X88046348Y-96135461D01*
X88275288Y-96181000D01*
X88508712Y-96181000D01*
X88737652Y-96135461D01*
X88953308Y-96046134D01*
X88992420Y-96020000D01*
X101985928Y-96020000D01*
X101985928Y-97020000D01*
X101998188Y-97144482D01*
X102034498Y-97264180D01*
X102093463Y-97374494D01*
X102172815Y-97471185D01*
X102269506Y-97550537D01*
X102379820Y-97609502D01*
X102499518Y-97645812D01*
X102624000Y-97658072D01*
X103624000Y-97658072D01*
X103748482Y-97645812D01*
X103868180Y-97609502D01*
X103978494Y-97550537D01*
X104075185Y-97471185D01*
X104154537Y-97374494D01*
X104213502Y-97264180D01*
X104249812Y-97144482D01*
X104262072Y-97020000D01*
X104262072Y-96020000D01*
X104249812Y-95895518D01*
X104213502Y-95775820D01*
X104154537Y-95665506D01*
X104075185Y-95568815D01*
X103978494Y-95489463D01*
X103868180Y-95430498D01*
X103748482Y-95394188D01*
X103624000Y-95381928D01*
X102624000Y-95381928D01*
X102499518Y-95394188D01*
X102379820Y-95430498D01*
X102269506Y-95489463D01*
X102172815Y-95568815D01*
X102093463Y-95665506D01*
X102034498Y-95775820D01*
X101998188Y-95895518D01*
X101985928Y-96020000D01*
X88992420Y-96020000D01*
X89147394Y-95916450D01*
X89312450Y-95751394D01*
X89442134Y-95557308D01*
X89531461Y-95341652D01*
X89577000Y-95112712D01*
X89577000Y-94879288D01*
X89531461Y-94650348D01*
X89442134Y-94434692D01*
X89312450Y-94240606D01*
X89147394Y-94075550D01*
X88953308Y-93945866D01*
X88737652Y-93856539D01*
X88508712Y-93811000D01*
X88275288Y-93811000D01*
X88046348Y-93856539D01*
X87848072Y-93938667D01*
X87848072Y-93261721D01*
X107001000Y-93261721D01*
X107001000Y-93682279D01*
X107083047Y-94094756D01*
X107243988Y-94483302D01*
X107477637Y-94832983D01*
X107775017Y-95130363D01*
X108124698Y-95364012D01*
X108513244Y-95524953D01*
X108925721Y-95607000D01*
X109346279Y-95607000D01*
X109758756Y-95524953D01*
X110147302Y-95364012D01*
X110496983Y-95130363D01*
X110794363Y-94832983D01*
X111028012Y-94483302D01*
X111188953Y-94094756D01*
X111271000Y-93682279D01*
X111271000Y-93261721D01*
X111188953Y-92849244D01*
X111028012Y-92460698D01*
X110794363Y-92111017D01*
X110496983Y-91813637D01*
X110147302Y-91579988D01*
X109758756Y-91419047D01*
X109346279Y-91337000D01*
X108925721Y-91337000D01*
X108513244Y-91419047D01*
X108124698Y-91579988D01*
X107775017Y-91813637D01*
X107477637Y-92111017D01*
X107243988Y-92460698D01*
X107083047Y-92849244D01*
X107001000Y-93261721D01*
X87848072Y-93261721D01*
X87848072Y-93130000D01*
X87835812Y-93005518D01*
X87799502Y-92885820D01*
X87740537Y-92775506D01*
X87661185Y-92678815D01*
X87564494Y-92599463D01*
X87454180Y-92540498D01*
X87334482Y-92504188D01*
X87210000Y-92491928D01*
X85510000Y-92491928D01*
X85385518Y-92504188D01*
X85265820Y-92540498D01*
X85155506Y-92599463D01*
X85058815Y-92678815D01*
X84979463Y-92775506D01*
X84920498Y-92885820D01*
X84898487Y-92958380D01*
X84766632Y-92826525D01*
X84523411Y-92664010D01*
X84253158Y-92552068D01*
X83966260Y-92495000D01*
X83673740Y-92495000D01*
X83386842Y-92552068D01*
X83116589Y-92664010D01*
X82873368Y-92826525D01*
X82666525Y-93033368D01*
X82504010Y-93276589D01*
X82392068Y-93546842D01*
X82335000Y-93833740D01*
X81940000Y-93833740D01*
X81940000Y-93504279D01*
X81974072Y-93156790D01*
X82065614Y-92853587D01*
X82214307Y-92573936D01*
X82414484Y-92328495D01*
X82658521Y-92126609D01*
X82937125Y-91975969D01*
X83239688Y-91882310D01*
X83585158Y-91846000D01*
X88424419Y-91846000D01*
X88453572Y-91843129D01*
X88467776Y-91843228D01*
X88476947Y-91842328D01*
X88920652Y-91795693D01*
X88979202Y-91783674D01*
X89038009Y-91772457D01*
X89046831Y-91769793D01*
X89473029Y-91637863D01*
X89528169Y-91614684D01*
X89583636Y-91592274D01*
X89591773Y-91587947D01*
X89984227Y-91375748D01*
X90033802Y-91342309D01*
X90083873Y-91309544D01*
X90091015Y-91303719D01*
X90434778Y-91019333D01*
X90476900Y-90976916D01*
X90519669Y-90935034D01*
X90525543Y-90927933D01*
X90807522Y-90582192D01*
X90840626Y-90532365D01*
X90874421Y-90483010D01*
X90878804Y-90474904D01*
X91088258Y-90080978D01*
X91111062Y-90025651D01*
X91134618Y-89970691D01*
X91137343Y-89961888D01*
X91266294Y-89534781D01*
X91277914Y-89476093D01*
X91290350Y-89417590D01*
X91291313Y-89408425D01*
X91334850Y-88964406D01*
X91334850Y-88964402D01*
X91338000Y-88932419D01*
X91338000Y-88359581D01*
X91335129Y-88330428D01*
X91335228Y-88316224D01*
X91334328Y-88307053D01*
X91287693Y-87863348D01*
X91275681Y-87804830D01*
X91264457Y-87745991D01*
X91261793Y-87737169D01*
X91129863Y-87310972D01*
X91106678Y-87255817D01*
X91084274Y-87200364D01*
X91079947Y-87192227D01*
X90867748Y-86799773D01*
X90834303Y-86750189D01*
X90801543Y-86700126D01*
X90795719Y-86692985D01*
X90511333Y-86349221D01*
X90468897Y-86307081D01*
X90427034Y-86264331D01*
X90419933Y-86258457D01*
X90074192Y-85976478D01*
X90024383Y-85943386D01*
X89975011Y-85909579D01*
X89966907Y-85905198D01*
X89966899Y-85905194D01*
X89572978Y-85695742D01*
X89517663Y-85672943D01*
X89462691Y-85649382D01*
X89453888Y-85646657D01*
X89026781Y-85517706D01*
X88968093Y-85506086D01*
X88909590Y-85493650D01*
X88900425Y-85492687D01*
X88456405Y-85449150D01*
X88456402Y-85449150D01*
X88424419Y-85446000D01*
X83598279Y-85446000D01*
X83250791Y-85411928D01*
X82947583Y-85320384D01*
X82667937Y-85171693D01*
X82422495Y-84971516D01*
X82220608Y-84727476D01*
X82069969Y-84448875D01*
X81985776Y-84176890D01*
X82378524Y-84176890D01*
X82423175Y-84324099D01*
X82548359Y-84586920D01*
X82722412Y-84820269D01*
X82938645Y-85015178D01*
X83188748Y-85164157D01*
X83463109Y-85261481D01*
X83693000Y-85140814D01*
X83693000Y-83947000D01*
X83947000Y-83947000D01*
X83947000Y-85140814D01*
X84176891Y-85261481D01*
X84451252Y-85164157D01*
X84701355Y-85015178D01*
X84917588Y-84820269D01*
X85090000Y-84589120D01*
X85262412Y-84820269D01*
X85478645Y-85015178D01*
X85728748Y-85164157D01*
X86003109Y-85261481D01*
X86233000Y-85140814D01*
X86233000Y-83947000D01*
X86487000Y-83947000D01*
X86487000Y-85140814D01*
X86716891Y-85261481D01*
X86991252Y-85164157D01*
X87241355Y-85015178D01*
X87457588Y-84820269D01*
X87631641Y-84586920D01*
X87756825Y-84324099D01*
X87801476Y-84176890D01*
X87680155Y-83947000D01*
X86487000Y-83947000D01*
X86233000Y-83947000D01*
X83947000Y-83947000D01*
X83693000Y-83947000D01*
X82499845Y-83947000D01*
X82378524Y-84176890D01*
X81985776Y-84176890D01*
X81976310Y-84146313D01*
X81940000Y-83800842D01*
X81940000Y-70898279D01*
X81974072Y-70550790D01*
X82065614Y-70247587D01*
X82214307Y-69967936D01*
X82414484Y-69722495D01*
X82658521Y-69520609D01*
X82937125Y-69369969D01*
X83239688Y-69276310D01*
X83585158Y-69240000D01*
X88088156Y-69240000D01*
X87979550Y-69348606D01*
M02*
