G04 #@! TF.GenerationSoftware,KiCad,Pcbnew,5.1.6-c6e7f7d~86~ubuntu18.04.1*
G04 #@! TF.CreationDate,2021-05-10T20:55:15-07:00*
G04 #@! TF.ProjectId,usb_pmod,7573625f-706d-46f6-942e-6b696361645f,rev?*
G04 #@! TF.SameCoordinates,Original*
G04 #@! TF.FileFunction,Copper,L4,Bot*
G04 #@! TF.FilePolarity,Positive*
%FSLAX46Y46*%
G04 Gerber Fmt 4.6, Leading zero omitted, Abs format (unit mm)*
G04 Created by KiCad (PCBNEW 5.1.6-c6e7f7d~86~ubuntu18.04.1) date 2021-05-10 20:55:15*
%MOMM*%
%LPD*%
G01*
G04 APERTURE LIST*
G04 #@! TA.AperFunction,ComponentPad*
%ADD10R,1.000000X1.000000*%
G04 #@! TD*
G04 #@! TA.AperFunction,ComponentPad*
%ADD11C,3.316000*%
G04 #@! TD*
G04 #@! TA.AperFunction,ComponentPad*
%ADD12C,1.428000*%
G04 #@! TD*
G04 #@! TA.AperFunction,ComponentPad*
%ADD13R,1.428000X1.428000*%
G04 #@! TD*
G04 #@! TA.AperFunction,ComponentPad*
%ADD14C,1.600000*%
G04 #@! TD*
G04 #@! TA.AperFunction,ComponentPad*
%ADD15R,1.600000X1.600000*%
G04 #@! TD*
G04 #@! TA.AperFunction,ComponentPad*
%ADD16C,3.000000*%
G04 #@! TD*
G04 #@! TA.AperFunction,ComponentPad*
%ADD17O,1.700000X1.700000*%
G04 #@! TD*
G04 #@! TA.AperFunction,ComponentPad*
%ADD18R,1.700000X1.700000*%
G04 #@! TD*
G04 #@! TA.AperFunction,ViaPad*
%ADD19C,1.100000*%
G04 #@! TD*
G04 #@! TA.AperFunction,ViaPad*
%ADD20C,0.500000*%
G04 #@! TD*
G04 #@! TA.AperFunction,Conductor*
%ADD21C,0.088900*%
G04 #@! TD*
G04 APERTURE END LIST*
D10*
X103124000Y-96520000D03*
X103124000Y-100330000D03*
X101346000Y-79248000D03*
X101346000Y-74676000D03*
D11*
X109202000Y-71272000D03*
X109202000Y-83312000D03*
D12*
X106492000Y-76002000D03*
X106492000Y-78502000D03*
X104492000Y-78502000D03*
D13*
X104492000Y-76002000D03*
D14*
X106426000Y-96542000D03*
X106426000Y-99042000D03*
X106426000Y-101042000D03*
D15*
X106426000Y-103542000D03*
D16*
X109136000Y-106612000D03*
X109136000Y-93472000D03*
D17*
X90424000Y-83820000D03*
X92964000Y-83820000D03*
X95504000Y-83820000D03*
X98044000Y-83820000D03*
D18*
X100584000Y-83820000D03*
D17*
X90424000Y-106680000D03*
X92964000Y-106680000D03*
X95504000Y-106680000D03*
X98044000Y-106680000D03*
D18*
X100584000Y-106680000D03*
D17*
X83820000Y-106680000D03*
X86360000Y-106680000D03*
X83820000Y-104140000D03*
X86360000Y-104140000D03*
X83820000Y-101600000D03*
X86360000Y-101600000D03*
X83820000Y-99060000D03*
X86360000Y-99060000D03*
X83820000Y-96520000D03*
X86360000Y-96520000D03*
X83820000Y-93980000D03*
D18*
X86360000Y-93980000D03*
D17*
X83820000Y-83820000D03*
X86360000Y-83820000D03*
X83820000Y-81280000D03*
X86360000Y-81280000D03*
X83820000Y-78740000D03*
X86360000Y-78740000D03*
X83820000Y-76200000D03*
X86360000Y-76200000D03*
X83820000Y-73660000D03*
X86360000Y-73660000D03*
X83820000Y-71120000D03*
D18*
X86360000Y-71120000D03*
D19*
X88900000Y-71628000D03*
X90678000Y-97028000D03*
X88392000Y-94996000D03*
X96774000Y-102108000D03*
X88900000Y-70104000D03*
X90703071Y-79023371D03*
X93512540Y-102044500D03*
X89154000Y-101600000D03*
D20*
X101346000Y-71882000D03*
D21*
X89933703Y-107701451D02*
X87381451Y-105149199D01*
X97022549Y-107701451D02*
X89933703Y-107701451D01*
X98044000Y-106680000D02*
X97022549Y-107701451D01*
X87381451Y-102621451D02*
X86360000Y-101600000D01*
X87381451Y-105149199D02*
X87381451Y-102621451D01*
X86850297Y-100578549D02*
X85338549Y-100578549D01*
X90424000Y-106680000D02*
X90424000Y-105358656D01*
X90424000Y-105358656D02*
X87381451Y-102316107D01*
X87381451Y-102316107D02*
X87381451Y-101109703D01*
X87381451Y-101109703D02*
X86850297Y-100578549D01*
X85338549Y-100578549D02*
X83820000Y-99060000D01*
X92114001Y-105830001D02*
X91300657Y-105830001D01*
X87668089Y-102197433D02*
X87668089Y-97828089D01*
X92964000Y-106680000D02*
X92114001Y-105830001D01*
X91300657Y-105830001D02*
X87668089Y-102197433D01*
X87668089Y-97828089D02*
X86360000Y-96520000D01*
X95504000Y-106680000D02*
X92964000Y-104140000D01*
X92964000Y-104140000D02*
X89916000Y-104140000D01*
X89916000Y-104140000D02*
X87884000Y-102108000D01*
X84841451Y-95498549D02*
X83820000Y-96520000D01*
X86850297Y-95498549D02*
X84841451Y-95498549D01*
X87884000Y-96532252D02*
X86850297Y-95498549D01*
X87884000Y-102108000D02*
X87884000Y-96532252D01*
X88905451Y-81285451D02*
X86360000Y-78740000D01*
X97022549Y-84841451D02*
X88905451Y-84841451D01*
X88905451Y-84841451D02*
X88905451Y-81285451D01*
X98044000Y-83820000D02*
X97022549Y-84841451D01*
X89402549Y-82798549D02*
X89402549Y-79750549D01*
X90424000Y-83820000D02*
X89402549Y-82798549D01*
X84841451Y-77221451D02*
X83820000Y-76200000D01*
X86873451Y-77221451D02*
X84841451Y-77221451D01*
X89402549Y-79750549D02*
X86873451Y-77221451D01*
X92964000Y-80264000D02*
X86360000Y-73660000D01*
X92964000Y-83820000D02*
X92964000Y-80264000D01*
X95504000Y-83820000D02*
X95504000Y-80772000D01*
X84841451Y-72638549D02*
X83820000Y-73660000D01*
X87370549Y-72638549D02*
X84841451Y-72638549D01*
X95504000Y-80772000D02*
X87370549Y-72638549D01*
M02*
