G04 #@! TF.GenerationSoftware,KiCad,Pcbnew,5.1.6-c6e7f7d~86~ubuntu18.04.1*
G04 #@! TF.CreationDate,2021-05-10T20:55:15-07:00*
G04 #@! TF.ProjectId,usb_pmod,7573625f-706d-46f6-942e-6b696361645f,rev?*
G04 #@! TF.SameCoordinates,Original*
G04 #@! TF.FileFunction,Legend,Top*
G04 #@! TF.FilePolarity,Positive*
%FSLAX46Y46*%
G04 Gerber Fmt 4.6, Leading zero omitted, Abs format (unit mm)*
G04 Created by KiCad (PCBNEW 5.1.6-c6e7f7d~86~ubuntu18.04.1) date 2021-05-10 20:55:15*
%MOMM*%
%LPD*%
G01*
G04 APERTURE LIST*
%ADD10C,0.100000*%
%ADD11C,0.120000*%
%ADD12C,0.240000*%
%ADD13C,0.127000*%
%ADD14C,0.150000*%
G04 APERTURE END LIST*
D10*
X95775428Y-104874857D02*
X95175428Y-104874857D01*
X95175428Y-104732000D01*
X95204000Y-104646285D01*
X95261142Y-104589142D01*
X95318285Y-104560571D01*
X95432571Y-104532000D01*
X95518285Y-104532000D01*
X95632571Y-104560571D01*
X95689714Y-104589142D01*
X95746857Y-104646285D01*
X95775428Y-104732000D01*
X95775428Y-104874857D01*
X95832571Y-104417714D02*
X95832571Y-103960571D01*
X95775428Y-103474857D02*
X95489714Y-103674857D01*
X95775428Y-103817714D02*
X95175428Y-103817714D01*
X95175428Y-103589142D01*
X95204000Y-103532000D01*
X95232571Y-103503428D01*
X95289714Y-103474857D01*
X95375428Y-103474857D01*
X95432571Y-103503428D01*
X95461142Y-103532000D01*
X95489714Y-103589142D01*
X95489714Y-103817714D01*
X95718285Y-102874857D02*
X95746857Y-102903428D01*
X95775428Y-102989142D01*
X95775428Y-103046285D01*
X95746857Y-103132000D01*
X95689714Y-103189142D01*
X95632571Y-103217714D01*
X95518285Y-103246285D01*
X95432571Y-103246285D01*
X95318285Y-103217714D01*
X95261142Y-103189142D01*
X95204000Y-103132000D01*
X95175428Y-103046285D01*
X95175428Y-102989142D01*
X95204000Y-102903428D01*
X95232571Y-102874857D01*
X95175428Y-102703428D02*
X95775428Y-102503428D01*
X95175428Y-102303428D01*
X97772571Y-79684714D02*
X98372571Y-79684714D01*
X98086857Y-79684714D02*
X98086857Y-80027571D01*
X97772571Y-80027571D02*
X98372571Y-80027571D01*
X97715428Y-80170428D02*
X97715428Y-80627571D01*
X98372571Y-80884714D02*
X98372571Y-80999000D01*
X98344000Y-81056142D01*
X98286857Y-81113285D01*
X98172571Y-81141857D01*
X97972571Y-81141857D01*
X97858285Y-81113285D01*
X97801142Y-81056142D01*
X97772571Y-80999000D01*
X97772571Y-80884714D01*
X97801142Y-80827571D01*
X97858285Y-80770428D01*
X97972571Y-80741857D01*
X98172571Y-80741857D01*
X98286857Y-80770428D01*
X98344000Y-80827571D01*
X98372571Y-80884714D01*
X98086857Y-81399000D02*
X98086857Y-81599000D01*
X97772571Y-81684714D02*
X97772571Y-81399000D01*
X98372571Y-81399000D01*
X98372571Y-81684714D01*
X97715428Y-81799000D02*
X97715428Y-82256142D01*
X92819571Y-79687857D02*
X93419571Y-79687857D01*
X93133857Y-79687857D02*
X93133857Y-80030714D01*
X92819571Y-80030714D02*
X93419571Y-80030714D01*
X92762428Y-80173571D02*
X92762428Y-80630714D01*
X93419571Y-80687857D02*
X92819571Y-80887857D01*
X93419571Y-81087857D01*
X92819571Y-81287857D02*
X93419571Y-81287857D01*
X93419571Y-81516428D01*
X93391000Y-81573571D01*
X93362428Y-81602142D01*
X93305285Y-81630714D01*
X93219571Y-81630714D01*
X93162428Y-81602142D01*
X93133857Y-81573571D01*
X93105285Y-81516428D01*
X93105285Y-81287857D01*
X101138000Y-80822857D02*
X101166571Y-80765714D01*
X101166571Y-80680000D01*
X101138000Y-80594285D01*
X101080857Y-80537142D01*
X101023714Y-80508571D01*
X100909428Y-80480000D01*
X100823714Y-80480000D01*
X100709428Y-80508571D01*
X100652285Y-80537142D01*
X100595142Y-80594285D01*
X100566571Y-80680000D01*
X100566571Y-80737142D01*
X100595142Y-80822857D01*
X100623714Y-80851428D01*
X100823714Y-80851428D01*
X100823714Y-80737142D01*
X100566571Y-81108571D02*
X101166571Y-81108571D01*
X100566571Y-81451428D01*
X101166571Y-81451428D01*
X100566571Y-81737142D02*
X101166571Y-81737142D01*
X101166571Y-81880000D01*
X101138000Y-81965714D01*
X101080857Y-82022857D01*
X101023714Y-82051428D01*
X100909428Y-82080000D01*
X100823714Y-82080000D01*
X100709428Y-82051428D01*
X100652285Y-82022857D01*
X100595142Y-81965714D01*
X100566571Y-81880000D01*
X100566571Y-81737142D01*
X95232571Y-79641857D02*
X95832571Y-79641857D01*
X95546857Y-79641857D02*
X95546857Y-79984714D01*
X95232571Y-79984714D02*
X95832571Y-79984714D01*
X95175428Y-80127571D02*
X95175428Y-80584714D01*
X95232571Y-81070428D02*
X95518285Y-80870428D01*
X95232571Y-80727571D02*
X95832571Y-80727571D01*
X95832571Y-80956142D01*
X95804000Y-81013285D01*
X95775428Y-81041857D01*
X95718285Y-81070428D01*
X95632571Y-81070428D01*
X95575428Y-81041857D01*
X95546857Y-81013285D01*
X95518285Y-80956142D01*
X95518285Y-80727571D01*
X95289714Y-81670428D02*
X95261142Y-81641857D01*
X95232571Y-81556142D01*
X95232571Y-81499000D01*
X95261142Y-81413285D01*
X95318285Y-81356142D01*
X95375428Y-81327571D01*
X95489714Y-81299000D01*
X95575428Y-81299000D01*
X95689714Y-81327571D01*
X95746857Y-81356142D01*
X95804000Y-81413285D01*
X95832571Y-81499000D01*
X95832571Y-81556142D01*
X95804000Y-81641857D01*
X95775428Y-81670428D01*
X95832571Y-81841857D02*
X95232571Y-82041857D01*
X95832571Y-82241857D01*
X90279571Y-79645000D02*
X90879571Y-79645000D01*
X90593857Y-79645000D02*
X90593857Y-79987857D01*
X90279571Y-79987857D02*
X90879571Y-79987857D01*
X90222428Y-80130714D02*
X90222428Y-80587857D01*
X90879571Y-80645000D02*
X90279571Y-80845000D01*
X90879571Y-81045000D01*
X90279571Y-81245000D02*
X90879571Y-81245000D01*
X90451000Y-81445000D01*
X90879571Y-81645000D01*
X90279571Y-81645000D01*
X90695428Y-104871714D02*
X90095428Y-104871714D01*
X90095428Y-104728857D01*
X90124000Y-104643142D01*
X90181142Y-104586000D01*
X90238285Y-104557428D01*
X90352571Y-104528857D01*
X90438285Y-104528857D01*
X90552571Y-104557428D01*
X90609714Y-104586000D01*
X90666857Y-104643142D01*
X90695428Y-104728857D01*
X90695428Y-104871714D01*
X90752571Y-104414571D02*
X90752571Y-103957428D01*
X90095428Y-103900285D02*
X90695428Y-103700285D01*
X90095428Y-103500285D01*
X90695428Y-103300285D02*
X90095428Y-103300285D01*
X90524000Y-103100285D01*
X90095428Y-102900285D01*
X90695428Y-102900285D01*
X93235428Y-104828857D02*
X92635428Y-104828857D01*
X92635428Y-104686000D01*
X92664000Y-104600285D01*
X92721142Y-104543142D01*
X92778285Y-104514571D01*
X92892571Y-104486000D01*
X92978285Y-104486000D01*
X93092571Y-104514571D01*
X93149714Y-104543142D01*
X93206857Y-104600285D01*
X93235428Y-104686000D01*
X93235428Y-104828857D01*
X93292571Y-104371714D02*
X93292571Y-103914571D01*
X92635428Y-103857428D02*
X93235428Y-103657428D01*
X92635428Y-103457428D01*
X93235428Y-103257428D02*
X92635428Y-103257428D01*
X92635428Y-103028857D01*
X92664000Y-102971714D01*
X92692571Y-102943142D01*
X92749714Y-102914571D01*
X92835428Y-102914571D01*
X92892571Y-102943142D01*
X92921142Y-102971714D01*
X92949714Y-103028857D01*
X92949714Y-103257428D01*
X98315428Y-104832000D02*
X97715428Y-104832000D01*
X97715428Y-104689142D01*
X97744000Y-104603428D01*
X97801142Y-104546285D01*
X97858285Y-104517714D01*
X97972571Y-104489142D01*
X98058285Y-104489142D01*
X98172571Y-104517714D01*
X98229714Y-104546285D01*
X98286857Y-104603428D01*
X98315428Y-104689142D01*
X98315428Y-104832000D01*
X98372571Y-104374857D02*
X98372571Y-103917714D01*
X97715428Y-103660571D02*
X97715428Y-103546285D01*
X97744000Y-103489142D01*
X97801142Y-103432000D01*
X97915428Y-103403428D01*
X98115428Y-103403428D01*
X98229714Y-103432000D01*
X98286857Y-103489142D01*
X98315428Y-103546285D01*
X98315428Y-103660571D01*
X98286857Y-103717714D01*
X98229714Y-103774857D01*
X98115428Y-103803428D01*
X97915428Y-103803428D01*
X97801142Y-103774857D01*
X97744000Y-103717714D01*
X97715428Y-103660571D01*
X98001142Y-103146285D02*
X98001142Y-102946285D01*
X98315428Y-102860571D02*
X98315428Y-103146285D01*
X97715428Y-103146285D01*
X97715428Y-102860571D01*
X98372571Y-102746285D02*
X98372571Y-102289142D01*
D11*
X102424000Y-97220000D02*
X102424000Y-95820000D01*
X103824000Y-97220000D02*
X102424000Y-97220000D01*
X103824000Y-95820000D02*
X103824000Y-97220000D01*
X102424000Y-95820000D02*
X103824000Y-95820000D01*
X102424000Y-101030000D02*
X102424000Y-99630000D01*
X103824000Y-101030000D02*
X102424000Y-101030000D01*
X103824000Y-99630000D02*
X103824000Y-101030000D01*
X102424000Y-99630000D02*
X103824000Y-99630000D01*
X100646000Y-79948000D02*
X100646000Y-78548000D01*
X102046000Y-79948000D02*
X100646000Y-79948000D01*
X102046000Y-78548000D02*
X102046000Y-79948000D01*
X100646000Y-78548000D02*
X102046000Y-78548000D01*
X100646000Y-75376000D02*
X100646000Y-73976000D01*
X102046000Y-75376000D02*
X100646000Y-75376000D01*
X102046000Y-73976000D02*
X102046000Y-75376000D01*
X100646000Y-73976000D02*
X102046000Y-73976000D01*
D12*
X102672000Y-75592000D02*
G75*
G03*
X102672000Y-75592000I-120000J0D01*
G01*
D13*
X107202000Y-83292000D02*
X103402000Y-83292000D01*
X119502000Y-83292000D02*
X111202000Y-83292000D01*
X119502000Y-71292000D02*
X119502000Y-83292000D01*
X111202000Y-71292000D02*
X119502000Y-71292000D01*
X103402000Y-71292000D02*
X107202000Y-71292000D01*
X103402000Y-72942000D02*
X103402000Y-71292000D01*
X103002000Y-73142000D02*
X103402000Y-72942000D01*
X103002000Y-81442000D02*
X103002000Y-73142000D01*
X103402000Y-81642000D02*
X103002000Y-81442000D01*
X103402000Y-83292000D02*
X103402000Y-81642000D01*
D11*
X119416000Y-107292000D02*
X119416000Y-92792000D01*
X119416000Y-92792000D02*
X118916000Y-92792000D01*
X118916000Y-92792000D02*
X118916000Y-93792000D01*
X118916000Y-93792000D02*
X110916000Y-93792000D01*
X107416000Y-93792000D02*
X105416000Y-93792000D01*
X105416000Y-93792000D02*
X105416000Y-106292000D01*
X105416000Y-106292000D02*
X107416000Y-106292000D01*
X110916000Y-106292000D02*
X118916000Y-106292000D01*
X118916000Y-106292000D02*
X118916000Y-107292000D01*
X118916000Y-107292000D02*
X119416000Y-107292000D01*
X105166000Y-104042000D02*
X105166000Y-103042000D01*
X90365733Y-96268000D02*
X90708267Y-96268000D01*
X90365733Y-95248000D02*
X90708267Y-95248000D01*
X89533000Y-71569733D02*
X89533000Y-71912267D01*
X90553000Y-71569733D02*
X90553000Y-71912267D01*
X90736267Y-92200000D02*
X90393733Y-92200000D01*
X90736267Y-93220000D02*
X90393733Y-93220000D01*
X92895267Y-72134000D02*
X92552733Y-72134000D01*
X92895267Y-73154000D02*
X92552733Y-73154000D01*
X90736267Y-93724000D02*
X90393733Y-93724000D01*
X90736267Y-94744000D02*
X90393733Y-94744000D01*
X92895267Y-70356000D02*
X92552733Y-70356000D01*
X92895267Y-71376000D02*
X92552733Y-71376000D01*
X101914000Y-82490000D02*
X101914000Y-83820000D01*
X100584000Y-82490000D02*
X101914000Y-82490000D01*
X99314000Y-82490000D02*
X99314000Y-85150000D01*
X99314000Y-85150000D02*
X89094000Y-85150000D01*
X99314000Y-82490000D02*
X89094000Y-82490000D01*
X89094000Y-82490000D02*
X89094000Y-85150000D01*
X101914000Y-105350000D02*
X101914000Y-106680000D01*
X100584000Y-105350000D02*
X101914000Y-105350000D01*
X99314000Y-105350000D02*
X99314000Y-108010000D01*
X99314000Y-108010000D02*
X89094000Y-108010000D01*
X99314000Y-105350000D02*
X89094000Y-105350000D01*
X89094000Y-105350000D02*
X89094000Y-108010000D01*
X87690000Y-92523000D02*
X86360000Y-92523000D01*
X87690000Y-93853000D02*
X87690000Y-92523000D01*
X85090000Y-92523000D02*
X82490000Y-92523000D01*
X85090000Y-95123000D02*
X85090000Y-92523000D01*
X87690000Y-95123000D02*
X85090000Y-95123000D01*
X82490000Y-92523000D02*
X82490000Y-107883000D01*
X87690000Y-95123000D02*
X87690000Y-107883000D01*
X87690000Y-107883000D02*
X82490000Y-107883000D01*
X87690000Y-69663000D02*
X86360000Y-69663000D01*
X87690000Y-70993000D02*
X87690000Y-69663000D01*
X85090000Y-69663000D02*
X82490000Y-69663000D01*
X85090000Y-72263000D02*
X85090000Y-69663000D01*
X87690000Y-72263000D02*
X85090000Y-72263000D01*
X82490000Y-69663000D02*
X82490000Y-85023000D01*
X87690000Y-72263000D02*
X87690000Y-85023000D01*
X87690000Y-85023000D02*
X82490000Y-85023000D01*
X99090267Y-94105000D02*
X98747733Y-94105000D01*
X99090267Y-95125000D02*
X98747733Y-95125000D01*
X99090267Y-99820000D02*
X98747733Y-99820000D01*
X99090267Y-100840000D02*
X98747733Y-100840000D01*
X99090267Y-97915000D02*
X98747733Y-97915000D01*
X99090267Y-98935000D02*
X98747733Y-98935000D01*
X99090267Y-96010000D02*
X98747733Y-96010000D01*
X99090267Y-97030000D02*
X98747733Y-97030000D01*
X98038767Y-76071000D02*
X97696233Y-76071000D01*
X98038767Y-77091000D02*
X97696233Y-77091000D01*
X98038767Y-74166000D02*
X97696233Y-74166000D01*
X98038767Y-75186000D02*
X97696233Y-75186000D01*
X98038767Y-77976000D02*
X97696233Y-77976000D01*
X98038767Y-78996000D02*
X97696233Y-78996000D01*
X90813000Y-98085000D02*
X90338000Y-98085000D01*
X93558000Y-101305000D02*
X93558000Y-100830000D01*
X93083000Y-101305000D02*
X93558000Y-101305000D01*
X90338000Y-101305000D02*
X90338000Y-100830000D01*
X90813000Y-101305000D02*
X90338000Y-101305000D01*
X93558000Y-98085000D02*
X93558000Y-98560000D01*
X93083000Y-98085000D02*
X93558000Y-98085000D01*
X90559000Y-74590000D02*
X90084000Y-74590000D01*
X93304000Y-77810000D02*
X93304000Y-77335000D01*
X92829000Y-77810000D02*
X93304000Y-77810000D01*
X90084000Y-77810000D02*
X90084000Y-77335000D01*
X90559000Y-77810000D02*
X90084000Y-77810000D01*
X93304000Y-74590000D02*
X93304000Y-75065000D01*
X92829000Y-74590000D02*
X93304000Y-74590000D01*
D14*
X101885904Y-95524380D02*
X101885904Y-94524380D01*
X102124000Y-94524380D01*
X102266857Y-94572000D01*
X102362095Y-94667238D01*
X102409714Y-94762476D01*
X102457333Y-94952952D01*
X102457333Y-95095809D01*
X102409714Y-95286285D01*
X102362095Y-95381523D01*
X102266857Y-95476761D01*
X102124000Y-95524380D01*
X101885904Y-95524380D01*
X102885904Y-95524380D02*
X102885904Y-94524380D01*
X103266857Y-94524380D01*
X103362095Y-94572000D01*
X103409714Y-94619619D01*
X103457333Y-94714857D01*
X103457333Y-94857714D01*
X103409714Y-94952952D01*
X103362095Y-95000571D01*
X103266857Y-95048190D01*
X102885904Y-95048190D01*
X103838285Y-94619619D02*
X103885904Y-94572000D01*
X103981142Y-94524380D01*
X104219238Y-94524380D01*
X104314476Y-94572000D01*
X104362095Y-94619619D01*
X104409714Y-94714857D01*
X104409714Y-94810095D01*
X104362095Y-94952952D01*
X103790666Y-95524380D01*
X104409714Y-95524380D01*
X101862095Y-99334380D02*
X101862095Y-98334380D01*
X102100190Y-98334380D01*
X102243047Y-98382000D01*
X102338285Y-98477238D01*
X102385904Y-98572476D01*
X102433523Y-98762952D01*
X102433523Y-98905809D01*
X102385904Y-99096285D01*
X102338285Y-99191523D01*
X102243047Y-99286761D01*
X102100190Y-99334380D01*
X101862095Y-99334380D01*
X102862095Y-99334380D02*
X102862095Y-98334380D01*
X103433523Y-99334380D01*
X103433523Y-98334380D01*
X103862095Y-98429619D02*
X103909714Y-98382000D01*
X104004952Y-98334380D01*
X104243047Y-98334380D01*
X104338285Y-98382000D01*
X104385904Y-98429619D01*
X104433523Y-98524857D01*
X104433523Y-98620095D01*
X104385904Y-98762952D01*
X103814476Y-99334380D01*
X104433523Y-99334380D01*
X100084095Y-77922380D02*
X100084095Y-76922380D01*
X100322190Y-76922380D01*
X100465047Y-76970000D01*
X100560285Y-77065238D01*
X100607904Y-77160476D01*
X100655523Y-77350952D01*
X100655523Y-77493809D01*
X100607904Y-77684285D01*
X100560285Y-77779523D01*
X100465047Y-77874761D01*
X100322190Y-77922380D01*
X100084095Y-77922380D01*
X101084095Y-77922380D02*
X101084095Y-76922380D01*
X101655523Y-77922380D01*
X101655523Y-76922380D01*
X102655523Y-77922380D02*
X102084095Y-77922380D01*
X102369809Y-77922380D02*
X102369809Y-76922380D01*
X102274571Y-77065238D01*
X102179333Y-77160476D01*
X102084095Y-77208095D01*
X100107904Y-73350380D02*
X100107904Y-72350380D01*
X100346000Y-72350380D01*
X100488857Y-72398000D01*
X100584095Y-72493238D01*
X100631714Y-72588476D01*
X100679333Y-72778952D01*
X100679333Y-72921809D01*
X100631714Y-73112285D01*
X100584095Y-73207523D01*
X100488857Y-73302761D01*
X100346000Y-73350380D01*
X100107904Y-73350380D01*
X101107904Y-73350380D02*
X101107904Y-72350380D01*
X101488857Y-72350380D01*
X101584095Y-72398000D01*
X101631714Y-72445619D01*
X101679333Y-72540857D01*
X101679333Y-72683714D01*
X101631714Y-72778952D01*
X101584095Y-72826571D01*
X101488857Y-72874190D01*
X101107904Y-72874190D01*
X102631714Y-73350380D02*
X102060285Y-73350380D01*
X102346000Y-73350380D02*
X102346000Y-72350380D01*
X102250761Y-72493238D01*
X102155523Y-72588476D01*
X102060285Y-72636095D01*
X103298666Y-69810380D02*
X103298666Y-70524666D01*
X103251047Y-70667523D01*
X103155809Y-70762761D01*
X103012952Y-70810380D01*
X102917714Y-70810380D01*
X104203428Y-69810380D02*
X104012952Y-69810380D01*
X103917714Y-69858000D01*
X103870095Y-69905619D01*
X103774857Y-70048476D01*
X103727238Y-70238952D01*
X103727238Y-70619904D01*
X103774857Y-70715142D01*
X103822476Y-70762761D01*
X103917714Y-70810380D01*
X104108190Y-70810380D01*
X104203428Y-70762761D01*
X104251047Y-70715142D01*
X104298666Y-70619904D01*
X104298666Y-70381809D01*
X104251047Y-70286571D01*
X104203428Y-70238952D01*
X104108190Y-70191333D01*
X103917714Y-70191333D01*
X103822476Y-70238952D01*
X103774857Y-70286571D01*
X103727238Y-70381809D01*
X112206266Y-107118480D02*
X112206266Y-107832766D01*
X112158647Y-107975623D01*
X112063409Y-108070861D01*
X111920552Y-108118480D01*
X111825314Y-108118480D01*
X113111028Y-107451814D02*
X113111028Y-108118480D01*
X112872933Y-107070861D02*
X112634838Y-107785147D01*
X113253885Y-107785147D01*
X93051333Y-96242142D02*
X93003714Y-96289761D01*
X92860857Y-96337380D01*
X92765619Y-96337380D01*
X92622761Y-96289761D01*
X92527523Y-96194523D01*
X92479904Y-96099285D01*
X92432285Y-95908809D01*
X92432285Y-95765952D01*
X92479904Y-95575476D01*
X92527523Y-95480238D01*
X92622761Y-95385000D01*
X92765619Y-95337380D01*
X92860857Y-95337380D01*
X93003714Y-95385000D01*
X93051333Y-95432619D01*
X94003714Y-96337380D02*
X93432285Y-96337380D01*
X93718000Y-96337380D02*
X93718000Y-95337380D01*
X93622761Y-95480238D01*
X93527523Y-95575476D01*
X93432285Y-95623095D01*
X90003333Y-69699142D02*
X89955714Y-69746761D01*
X89812857Y-69794380D01*
X89717619Y-69794380D01*
X89574761Y-69746761D01*
X89479523Y-69651523D01*
X89431904Y-69556285D01*
X89384285Y-69365809D01*
X89384285Y-69222952D01*
X89431904Y-69032476D01*
X89479523Y-68937238D01*
X89574761Y-68842000D01*
X89717619Y-68794380D01*
X89812857Y-68794380D01*
X89955714Y-68842000D01*
X90003333Y-68889619D01*
X90384285Y-68889619D02*
X90431904Y-68842000D01*
X90527142Y-68794380D01*
X90765238Y-68794380D01*
X90860476Y-68842000D01*
X90908095Y-68889619D01*
X90955714Y-68984857D01*
X90955714Y-69080095D01*
X90908095Y-69222952D01*
X90336666Y-69794380D01*
X90955714Y-69794380D01*
X93051333Y-93194142D02*
X93003714Y-93241761D01*
X92860857Y-93289380D01*
X92765619Y-93289380D01*
X92622761Y-93241761D01*
X92527523Y-93146523D01*
X92479904Y-93051285D01*
X92432285Y-92860809D01*
X92432285Y-92717952D01*
X92479904Y-92527476D01*
X92527523Y-92432238D01*
X92622761Y-92337000D01*
X92765619Y-92289380D01*
X92860857Y-92289380D01*
X93003714Y-92337000D01*
X93051333Y-92384619D01*
X93956095Y-92289380D02*
X93479904Y-92289380D01*
X93432285Y-92765571D01*
X93479904Y-92717952D01*
X93575142Y-92670333D01*
X93813238Y-92670333D01*
X93908476Y-92717952D01*
X93956095Y-92765571D01*
X94003714Y-92860809D01*
X94003714Y-93098904D01*
X93956095Y-93194142D01*
X93908476Y-93241761D01*
X93813238Y-93289380D01*
X93575142Y-93289380D01*
X93479904Y-93241761D01*
X93432285Y-93194142D01*
X95337333Y-73001142D02*
X95289714Y-73048761D01*
X95146857Y-73096380D01*
X95051619Y-73096380D01*
X94908761Y-73048761D01*
X94813523Y-72953523D01*
X94765904Y-72858285D01*
X94718285Y-72667809D01*
X94718285Y-72524952D01*
X94765904Y-72334476D01*
X94813523Y-72239238D01*
X94908761Y-72144000D01*
X95051619Y-72096380D01*
X95146857Y-72096380D01*
X95289714Y-72144000D01*
X95337333Y-72191619D01*
X96194476Y-72096380D02*
X96004000Y-72096380D01*
X95908761Y-72144000D01*
X95861142Y-72191619D01*
X95765904Y-72334476D01*
X95718285Y-72524952D01*
X95718285Y-72905904D01*
X95765904Y-73001142D01*
X95813523Y-73048761D01*
X95908761Y-73096380D01*
X96099238Y-73096380D01*
X96194476Y-73048761D01*
X96242095Y-73001142D01*
X96289714Y-72905904D01*
X96289714Y-72667809D01*
X96242095Y-72572571D01*
X96194476Y-72524952D01*
X96099238Y-72477333D01*
X95908761Y-72477333D01*
X95813523Y-72524952D01*
X95765904Y-72572571D01*
X95718285Y-72667809D01*
X93051333Y-94718142D02*
X93003714Y-94765761D01*
X92860857Y-94813380D01*
X92765619Y-94813380D01*
X92622761Y-94765761D01*
X92527523Y-94670523D01*
X92479904Y-94575285D01*
X92432285Y-94384809D01*
X92432285Y-94241952D01*
X92479904Y-94051476D01*
X92527523Y-93956238D01*
X92622761Y-93861000D01*
X92765619Y-93813380D01*
X92860857Y-93813380D01*
X93003714Y-93861000D01*
X93051333Y-93908619D01*
X93384666Y-93813380D02*
X94003714Y-93813380D01*
X93670380Y-94194333D01*
X93813238Y-94194333D01*
X93908476Y-94241952D01*
X93956095Y-94289571D01*
X94003714Y-94384809D01*
X94003714Y-94622904D01*
X93956095Y-94718142D01*
X93908476Y-94765761D01*
X93813238Y-94813380D01*
X93527523Y-94813380D01*
X93432285Y-94765761D01*
X93384666Y-94718142D01*
X95337333Y-71477142D02*
X95289714Y-71524761D01*
X95146857Y-71572380D01*
X95051619Y-71572380D01*
X94908761Y-71524761D01*
X94813523Y-71429523D01*
X94765904Y-71334285D01*
X94718285Y-71143809D01*
X94718285Y-71000952D01*
X94765904Y-70810476D01*
X94813523Y-70715238D01*
X94908761Y-70620000D01*
X95051619Y-70572380D01*
X95146857Y-70572380D01*
X95289714Y-70620000D01*
X95337333Y-70667619D01*
X96194476Y-70905714D02*
X96194476Y-71572380D01*
X95956380Y-70524761D02*
X95718285Y-71239047D01*
X96337333Y-71239047D01*
X103044666Y-83780380D02*
X103044666Y-84494666D01*
X102997047Y-84637523D01*
X102901809Y-84732761D01*
X102758952Y-84780380D01*
X102663714Y-84780380D01*
X103997047Y-83780380D02*
X103520857Y-83780380D01*
X103473238Y-84256571D01*
X103520857Y-84208952D01*
X103616095Y-84161333D01*
X103854190Y-84161333D01*
X103949428Y-84208952D01*
X103997047Y-84256571D01*
X104044666Y-84351809D01*
X104044666Y-84589904D01*
X103997047Y-84685142D01*
X103949428Y-84732761D01*
X103854190Y-84780380D01*
X103616095Y-84780380D01*
X103520857Y-84732761D01*
X103473238Y-84685142D01*
X102366380Y-107013333D02*
X103080666Y-107013333D01*
X103223523Y-107060952D01*
X103318761Y-107156190D01*
X103366380Y-107299047D01*
X103366380Y-107394285D01*
X102461619Y-106584761D02*
X102414000Y-106537142D01*
X102366380Y-106441904D01*
X102366380Y-106203809D01*
X102414000Y-106108571D01*
X102461619Y-106060952D01*
X102556857Y-106013333D01*
X102652095Y-106013333D01*
X102794952Y-106060952D01*
X103366380Y-106632380D01*
X103366380Y-106013333D01*
X84756666Y-91102380D02*
X84756666Y-91816666D01*
X84709047Y-91959523D01*
X84613809Y-92054761D01*
X84470952Y-92102380D01*
X84375714Y-92102380D01*
X85756666Y-92102380D02*
X85185238Y-92102380D01*
X85470952Y-92102380D02*
X85470952Y-91102380D01*
X85375714Y-91245238D01*
X85280476Y-91340476D01*
X85185238Y-91388095D01*
X87296666Y-68794380D02*
X87296666Y-69508666D01*
X87249047Y-69651523D01*
X87153809Y-69746761D01*
X87010952Y-69794380D01*
X86915714Y-69794380D01*
X87677619Y-68794380D02*
X88296666Y-68794380D01*
X87963333Y-69175333D01*
X88106190Y-69175333D01*
X88201428Y-69222952D01*
X88249047Y-69270571D01*
X88296666Y-69365809D01*
X88296666Y-69603904D01*
X88249047Y-69699142D01*
X88201428Y-69746761D01*
X88106190Y-69794380D01*
X87820476Y-69794380D01*
X87725238Y-69746761D01*
X87677619Y-69699142D01*
X95845333Y-95194380D02*
X95512000Y-94718190D01*
X95273904Y-95194380D02*
X95273904Y-94194380D01*
X95654857Y-94194380D01*
X95750095Y-94242000D01*
X95797714Y-94289619D01*
X95845333Y-94384857D01*
X95845333Y-94527714D01*
X95797714Y-94622952D01*
X95750095Y-94670571D01*
X95654857Y-94718190D01*
X95273904Y-94718190D01*
X96178666Y-94194380D02*
X96845333Y-94194380D01*
X96416761Y-95194380D01*
X95845333Y-100782380D02*
X95512000Y-100306190D01*
X95273904Y-100782380D02*
X95273904Y-99782380D01*
X95654857Y-99782380D01*
X95750095Y-99830000D01*
X95797714Y-99877619D01*
X95845333Y-99972857D01*
X95845333Y-100115714D01*
X95797714Y-100210952D01*
X95750095Y-100258571D01*
X95654857Y-100306190D01*
X95273904Y-100306190D01*
X96702476Y-99782380D02*
X96512000Y-99782380D01*
X96416761Y-99830000D01*
X96369142Y-99877619D01*
X96273904Y-100020476D01*
X96226285Y-100210952D01*
X96226285Y-100591904D01*
X96273904Y-100687142D01*
X96321523Y-100734761D01*
X96416761Y-100782380D01*
X96607238Y-100782380D01*
X96702476Y-100734761D01*
X96750095Y-100687142D01*
X96797714Y-100591904D01*
X96797714Y-100353809D01*
X96750095Y-100258571D01*
X96702476Y-100210952D01*
X96607238Y-100163333D01*
X96416761Y-100163333D01*
X96321523Y-100210952D01*
X96273904Y-100258571D01*
X96226285Y-100353809D01*
X95845333Y-98877380D02*
X95512000Y-98401190D01*
X95273904Y-98877380D02*
X95273904Y-97877380D01*
X95654857Y-97877380D01*
X95750095Y-97925000D01*
X95797714Y-97972619D01*
X95845333Y-98067857D01*
X95845333Y-98210714D01*
X95797714Y-98305952D01*
X95750095Y-98353571D01*
X95654857Y-98401190D01*
X95273904Y-98401190D01*
X96226285Y-97972619D02*
X96273904Y-97925000D01*
X96369142Y-97877380D01*
X96607238Y-97877380D01*
X96702476Y-97925000D01*
X96750095Y-97972619D01*
X96797714Y-98067857D01*
X96797714Y-98163095D01*
X96750095Y-98305952D01*
X96178666Y-98877380D01*
X96797714Y-98877380D01*
X95845333Y-96972380D02*
X95512000Y-96496190D01*
X95273904Y-96972380D02*
X95273904Y-95972380D01*
X95654857Y-95972380D01*
X95750095Y-96020000D01*
X95797714Y-96067619D01*
X95845333Y-96162857D01*
X95845333Y-96305714D01*
X95797714Y-96400952D01*
X95750095Y-96448571D01*
X95654857Y-96496190D01*
X95273904Y-96496190D01*
X96797714Y-96972380D02*
X96226285Y-96972380D01*
X96512000Y-96972380D02*
X96512000Y-95972380D01*
X96416761Y-96115238D01*
X96321523Y-96210476D01*
X96226285Y-96258095D01*
X95083333Y-77033380D02*
X94750000Y-76557190D01*
X94511904Y-77033380D02*
X94511904Y-76033380D01*
X94892857Y-76033380D01*
X94988095Y-76081000D01*
X95035714Y-76128619D01*
X95083333Y-76223857D01*
X95083333Y-76366714D01*
X95035714Y-76461952D01*
X94988095Y-76509571D01*
X94892857Y-76557190D01*
X94511904Y-76557190D01*
X95940476Y-76366714D02*
X95940476Y-77033380D01*
X95702380Y-75985761D02*
X95464285Y-76700047D01*
X96083333Y-76700047D01*
X95083333Y-75128380D02*
X94750000Y-74652190D01*
X94511904Y-75128380D02*
X94511904Y-74128380D01*
X94892857Y-74128380D01*
X94988095Y-74176000D01*
X95035714Y-74223619D01*
X95083333Y-74318857D01*
X95083333Y-74461714D01*
X95035714Y-74556952D01*
X94988095Y-74604571D01*
X94892857Y-74652190D01*
X94511904Y-74652190D01*
X95416666Y-74128380D02*
X96035714Y-74128380D01*
X95702380Y-74509333D01*
X95845238Y-74509333D01*
X95940476Y-74556952D01*
X95988095Y-74604571D01*
X96035714Y-74699809D01*
X96035714Y-74937904D01*
X95988095Y-75033142D01*
X95940476Y-75080761D01*
X95845238Y-75128380D01*
X95559523Y-75128380D01*
X95464285Y-75080761D01*
X95416666Y-75033142D01*
X95083333Y-78938380D02*
X94750000Y-78462190D01*
X94511904Y-78938380D02*
X94511904Y-77938380D01*
X94892857Y-77938380D01*
X94988095Y-77986000D01*
X95035714Y-78033619D01*
X95083333Y-78128857D01*
X95083333Y-78271714D01*
X95035714Y-78366952D01*
X94988095Y-78414571D01*
X94892857Y-78462190D01*
X94511904Y-78462190D01*
X95988095Y-77938380D02*
X95511904Y-77938380D01*
X95464285Y-78414571D01*
X95511904Y-78366952D01*
X95607142Y-78319333D01*
X95845238Y-78319333D01*
X95940476Y-78366952D01*
X95988095Y-78414571D01*
X96035714Y-78509809D01*
X96035714Y-78747904D01*
X95988095Y-78843142D01*
X95940476Y-78890761D01*
X95845238Y-78938380D01*
X95607142Y-78938380D01*
X95511904Y-78890761D01*
X95464285Y-78843142D01*
X88606380Y-100075904D02*
X89415904Y-100075904D01*
X89511142Y-100028285D01*
X89558761Y-99980666D01*
X89606380Y-99885428D01*
X89606380Y-99694952D01*
X89558761Y-99599714D01*
X89511142Y-99552095D01*
X89415904Y-99504476D01*
X88606380Y-99504476D01*
X89606380Y-98504476D02*
X89606380Y-99075904D01*
X89606380Y-98790190D02*
X88606380Y-98790190D01*
X88749238Y-98885428D01*
X88844476Y-98980666D01*
X88892095Y-99075904D01*
X88415880Y-77787404D02*
X89225404Y-77787404D01*
X89320642Y-77739785D01*
X89368261Y-77692166D01*
X89415880Y-77596928D01*
X89415880Y-77406452D01*
X89368261Y-77311214D01*
X89320642Y-77263595D01*
X89225404Y-77215976D01*
X88415880Y-77215976D01*
X88511119Y-76787404D02*
X88463500Y-76739785D01*
X88415880Y-76644547D01*
X88415880Y-76406452D01*
X88463500Y-76311214D01*
X88511119Y-76263595D01*
X88606357Y-76215976D01*
X88701595Y-76215976D01*
X88844452Y-76263595D01*
X89415880Y-76835023D01*
X89415880Y-76215976D01*
M02*
