G04 #@! TF.GenerationSoftware,KiCad,Pcbnew,5.1.6-c6e7f7d~86~ubuntu18.04.1*
G04 #@! TF.CreationDate,2021-05-10T20:55:15-07:00*
G04 #@! TF.ProjectId,usb_pmod,7573625f-706d-46f6-942e-6b696361645f,rev?*
G04 #@! TF.SameCoordinates,Original*
G04 #@! TF.FileFunction,Copper,L1,Top*
G04 #@! TF.FilePolarity,Positive*
%FSLAX46Y46*%
G04 Gerber Fmt 4.6, Leading zero omitted, Abs format (unit mm)*
G04 Created by KiCad (PCBNEW 5.1.6-c6e7f7d~86~ubuntu18.04.1) date 2021-05-10 20:55:15*
%MOMM*%
%LPD*%
G01*
G04 APERTURE LIST*
G04 #@! TA.AperFunction,ComponentPad*
%ADD10R,1.000000X1.000000*%
G04 #@! TD*
G04 #@! TA.AperFunction,ComponentPad*
%ADD11C,3.316000*%
G04 #@! TD*
G04 #@! TA.AperFunction,ComponentPad*
%ADD12C,1.428000*%
G04 #@! TD*
G04 #@! TA.AperFunction,ComponentPad*
%ADD13R,1.428000X1.428000*%
G04 #@! TD*
G04 #@! TA.AperFunction,ComponentPad*
%ADD14C,1.600000*%
G04 #@! TD*
G04 #@! TA.AperFunction,ComponentPad*
%ADD15R,1.600000X1.600000*%
G04 #@! TD*
G04 #@! TA.AperFunction,ComponentPad*
%ADD16C,3.000000*%
G04 #@! TD*
G04 #@! TA.AperFunction,ComponentPad*
%ADD17O,1.700000X1.700000*%
G04 #@! TD*
G04 #@! TA.AperFunction,ComponentPad*
%ADD18R,1.700000X1.700000*%
G04 #@! TD*
G04 #@! TA.AperFunction,ViaPad*
%ADD19C,1.100000*%
G04 #@! TD*
G04 #@! TA.AperFunction,ViaPad*
%ADD20C,0.500000*%
G04 #@! TD*
G04 #@! TA.AperFunction,Conductor*
%ADD21C,0.127000*%
G04 #@! TD*
G04 #@! TA.AperFunction,Conductor*
%ADD22C,0.088900*%
G04 #@! TD*
G04 APERTURE END LIST*
D10*
X103124000Y-96520000D03*
X103124000Y-100330000D03*
X101346000Y-79248000D03*
X101346000Y-74676000D03*
D11*
X109202000Y-71272000D03*
X109202000Y-83312000D03*
D12*
X106492000Y-76002000D03*
X106492000Y-78502000D03*
X104492000Y-78502000D03*
D13*
X104492000Y-76002000D03*
D14*
X106426000Y-96542000D03*
X106426000Y-99042000D03*
X106426000Y-101042000D03*
D15*
X106426000Y-103542000D03*
D16*
X109136000Y-106612000D03*
X109136000Y-93472000D03*
G04 #@! TA.AperFunction,SMDPad,CuDef*
G36*
G01*
X90887000Y-95995500D02*
X90887000Y-95520500D01*
G75*
G02*
X91124500Y-95283000I237500J0D01*
G01*
X91699500Y-95283000D01*
G75*
G02*
X91937000Y-95520500I0J-237500D01*
G01*
X91937000Y-95995500D01*
G75*
G02*
X91699500Y-96233000I-237500J0D01*
G01*
X91124500Y-96233000D01*
G75*
G02*
X90887000Y-95995500I0J237500D01*
G01*
G37*
G04 #@! TD.AperFunction*
G04 #@! TA.AperFunction,SMDPad,CuDef*
G36*
G01*
X89137000Y-95995500D02*
X89137000Y-95520500D01*
G75*
G02*
X89374500Y-95283000I237500J0D01*
G01*
X89949500Y-95283000D01*
G75*
G02*
X90187000Y-95520500I0J-237500D01*
G01*
X90187000Y-95995500D01*
G75*
G02*
X89949500Y-96233000I-237500J0D01*
G01*
X89374500Y-96233000D01*
G75*
G02*
X89137000Y-95995500I0J237500D01*
G01*
G37*
G04 #@! TD.AperFunction*
G04 #@! TA.AperFunction,SMDPad,CuDef*
G36*
G01*
X89805500Y-72091000D02*
X90280500Y-72091000D01*
G75*
G02*
X90518000Y-72328500I0J-237500D01*
G01*
X90518000Y-72903500D01*
G75*
G02*
X90280500Y-73141000I-237500J0D01*
G01*
X89805500Y-73141000D01*
G75*
G02*
X89568000Y-72903500I0J237500D01*
G01*
X89568000Y-72328500D01*
G75*
G02*
X89805500Y-72091000I237500J0D01*
G01*
G37*
G04 #@! TD.AperFunction*
G04 #@! TA.AperFunction,SMDPad,CuDef*
G36*
G01*
X89805500Y-70341000D02*
X90280500Y-70341000D01*
G75*
G02*
X90518000Y-70578500I0J-237500D01*
G01*
X90518000Y-71153500D01*
G75*
G02*
X90280500Y-71391000I-237500J0D01*
G01*
X89805500Y-71391000D01*
G75*
G02*
X89568000Y-71153500I0J237500D01*
G01*
X89568000Y-70578500D01*
G75*
G02*
X89805500Y-70341000I237500J0D01*
G01*
G37*
G04 #@! TD.AperFunction*
G04 #@! TA.AperFunction,SMDPad,CuDef*
G36*
G01*
X90215000Y-92472500D02*
X90215000Y-92947500D01*
G75*
G02*
X89977500Y-93185000I-237500J0D01*
G01*
X89402500Y-93185000D01*
G75*
G02*
X89165000Y-92947500I0J237500D01*
G01*
X89165000Y-92472500D01*
G75*
G02*
X89402500Y-92235000I237500J0D01*
G01*
X89977500Y-92235000D01*
G75*
G02*
X90215000Y-92472500I0J-237500D01*
G01*
G37*
G04 #@! TD.AperFunction*
G04 #@! TA.AperFunction,SMDPad,CuDef*
G36*
G01*
X91965000Y-92472500D02*
X91965000Y-92947500D01*
G75*
G02*
X91727500Y-93185000I-237500J0D01*
G01*
X91152500Y-93185000D01*
G75*
G02*
X90915000Y-92947500I0J237500D01*
G01*
X90915000Y-92472500D01*
G75*
G02*
X91152500Y-92235000I237500J0D01*
G01*
X91727500Y-92235000D01*
G75*
G02*
X91965000Y-92472500I0J-237500D01*
G01*
G37*
G04 #@! TD.AperFunction*
G04 #@! TA.AperFunction,SMDPad,CuDef*
G36*
G01*
X92374000Y-72406500D02*
X92374000Y-72881500D01*
G75*
G02*
X92136500Y-73119000I-237500J0D01*
G01*
X91561500Y-73119000D01*
G75*
G02*
X91324000Y-72881500I0J237500D01*
G01*
X91324000Y-72406500D01*
G75*
G02*
X91561500Y-72169000I237500J0D01*
G01*
X92136500Y-72169000D01*
G75*
G02*
X92374000Y-72406500I0J-237500D01*
G01*
G37*
G04 #@! TD.AperFunction*
G04 #@! TA.AperFunction,SMDPad,CuDef*
G36*
G01*
X94124000Y-72406500D02*
X94124000Y-72881500D01*
G75*
G02*
X93886500Y-73119000I-237500J0D01*
G01*
X93311500Y-73119000D01*
G75*
G02*
X93074000Y-72881500I0J237500D01*
G01*
X93074000Y-72406500D01*
G75*
G02*
X93311500Y-72169000I237500J0D01*
G01*
X93886500Y-72169000D01*
G75*
G02*
X94124000Y-72406500I0J-237500D01*
G01*
G37*
G04 #@! TD.AperFunction*
G04 #@! TA.AperFunction,SMDPad,CuDef*
G36*
G01*
X90215000Y-93996500D02*
X90215000Y-94471500D01*
G75*
G02*
X89977500Y-94709000I-237500J0D01*
G01*
X89402500Y-94709000D01*
G75*
G02*
X89165000Y-94471500I0J237500D01*
G01*
X89165000Y-93996500D01*
G75*
G02*
X89402500Y-93759000I237500J0D01*
G01*
X89977500Y-93759000D01*
G75*
G02*
X90215000Y-93996500I0J-237500D01*
G01*
G37*
G04 #@! TD.AperFunction*
G04 #@! TA.AperFunction,SMDPad,CuDef*
G36*
G01*
X91965000Y-93996500D02*
X91965000Y-94471500D01*
G75*
G02*
X91727500Y-94709000I-237500J0D01*
G01*
X91152500Y-94709000D01*
G75*
G02*
X90915000Y-94471500I0J237500D01*
G01*
X90915000Y-93996500D01*
G75*
G02*
X91152500Y-93759000I237500J0D01*
G01*
X91727500Y-93759000D01*
G75*
G02*
X91965000Y-93996500I0J-237500D01*
G01*
G37*
G04 #@! TD.AperFunction*
G04 #@! TA.AperFunction,SMDPad,CuDef*
G36*
G01*
X92374000Y-70628500D02*
X92374000Y-71103500D01*
G75*
G02*
X92136500Y-71341000I-237500J0D01*
G01*
X91561500Y-71341000D01*
G75*
G02*
X91324000Y-71103500I0J237500D01*
G01*
X91324000Y-70628500D01*
G75*
G02*
X91561500Y-70391000I237500J0D01*
G01*
X92136500Y-70391000D01*
G75*
G02*
X92374000Y-70628500I0J-237500D01*
G01*
G37*
G04 #@! TD.AperFunction*
G04 #@! TA.AperFunction,SMDPad,CuDef*
G36*
G01*
X94124000Y-70628500D02*
X94124000Y-71103500D01*
G75*
G02*
X93886500Y-71341000I-237500J0D01*
G01*
X93311500Y-71341000D01*
G75*
G02*
X93074000Y-71103500I0J237500D01*
G01*
X93074000Y-70628500D01*
G75*
G02*
X93311500Y-70391000I237500J0D01*
G01*
X93886500Y-70391000D01*
G75*
G02*
X94124000Y-70628500I0J-237500D01*
G01*
G37*
G04 #@! TD.AperFunction*
D17*
X90424000Y-83820000D03*
X92964000Y-83820000D03*
X95504000Y-83820000D03*
X98044000Y-83820000D03*
D18*
X100584000Y-83820000D03*
D17*
X90424000Y-106680000D03*
X92964000Y-106680000D03*
X95504000Y-106680000D03*
X98044000Y-106680000D03*
D18*
X100584000Y-106680000D03*
D17*
X83820000Y-106680000D03*
X86360000Y-106680000D03*
X83820000Y-104140000D03*
X86360000Y-104140000D03*
X83820000Y-101600000D03*
X86360000Y-101600000D03*
X83820000Y-99060000D03*
X86360000Y-99060000D03*
X83820000Y-96520000D03*
X86360000Y-96520000D03*
X83820000Y-93980000D03*
D18*
X86360000Y-93980000D03*
D17*
X83820000Y-83820000D03*
X86360000Y-83820000D03*
X83820000Y-81280000D03*
X86360000Y-81280000D03*
X83820000Y-78740000D03*
X86360000Y-78740000D03*
X83820000Y-76200000D03*
X86360000Y-76200000D03*
X83820000Y-73660000D03*
X86360000Y-73660000D03*
X83820000Y-71120000D03*
D18*
X86360000Y-71120000D03*
G04 #@! TA.AperFunction,SMDPad,CuDef*
G36*
G01*
X98569000Y-94377500D02*
X98569000Y-94852500D01*
G75*
G02*
X98331500Y-95090000I-237500J0D01*
G01*
X97756500Y-95090000D01*
G75*
G02*
X97519000Y-94852500I0J237500D01*
G01*
X97519000Y-94377500D01*
G75*
G02*
X97756500Y-94140000I237500J0D01*
G01*
X98331500Y-94140000D01*
G75*
G02*
X98569000Y-94377500I0J-237500D01*
G01*
G37*
G04 #@! TD.AperFunction*
G04 #@! TA.AperFunction,SMDPad,CuDef*
G36*
G01*
X100319000Y-94377500D02*
X100319000Y-94852500D01*
G75*
G02*
X100081500Y-95090000I-237500J0D01*
G01*
X99506500Y-95090000D01*
G75*
G02*
X99269000Y-94852500I0J237500D01*
G01*
X99269000Y-94377500D01*
G75*
G02*
X99506500Y-94140000I237500J0D01*
G01*
X100081500Y-94140000D01*
G75*
G02*
X100319000Y-94377500I0J-237500D01*
G01*
G37*
G04 #@! TD.AperFunction*
G04 #@! TA.AperFunction,SMDPad,CuDef*
G36*
G01*
X98569000Y-100092500D02*
X98569000Y-100567500D01*
G75*
G02*
X98331500Y-100805000I-237500J0D01*
G01*
X97756500Y-100805000D01*
G75*
G02*
X97519000Y-100567500I0J237500D01*
G01*
X97519000Y-100092500D01*
G75*
G02*
X97756500Y-99855000I237500J0D01*
G01*
X98331500Y-99855000D01*
G75*
G02*
X98569000Y-100092500I0J-237500D01*
G01*
G37*
G04 #@! TD.AperFunction*
G04 #@! TA.AperFunction,SMDPad,CuDef*
G36*
G01*
X100319000Y-100092500D02*
X100319000Y-100567500D01*
G75*
G02*
X100081500Y-100805000I-237500J0D01*
G01*
X99506500Y-100805000D01*
G75*
G02*
X99269000Y-100567500I0J237500D01*
G01*
X99269000Y-100092500D01*
G75*
G02*
X99506500Y-99855000I237500J0D01*
G01*
X100081500Y-99855000D01*
G75*
G02*
X100319000Y-100092500I0J-237500D01*
G01*
G37*
G04 #@! TD.AperFunction*
G04 #@! TA.AperFunction,SMDPad,CuDef*
G36*
G01*
X98569000Y-98187500D02*
X98569000Y-98662500D01*
G75*
G02*
X98331500Y-98900000I-237500J0D01*
G01*
X97756500Y-98900000D01*
G75*
G02*
X97519000Y-98662500I0J237500D01*
G01*
X97519000Y-98187500D01*
G75*
G02*
X97756500Y-97950000I237500J0D01*
G01*
X98331500Y-97950000D01*
G75*
G02*
X98569000Y-98187500I0J-237500D01*
G01*
G37*
G04 #@! TD.AperFunction*
G04 #@! TA.AperFunction,SMDPad,CuDef*
G36*
G01*
X100319000Y-98187500D02*
X100319000Y-98662500D01*
G75*
G02*
X100081500Y-98900000I-237500J0D01*
G01*
X99506500Y-98900000D01*
G75*
G02*
X99269000Y-98662500I0J237500D01*
G01*
X99269000Y-98187500D01*
G75*
G02*
X99506500Y-97950000I237500J0D01*
G01*
X100081500Y-97950000D01*
G75*
G02*
X100319000Y-98187500I0J-237500D01*
G01*
G37*
G04 #@! TD.AperFunction*
G04 #@! TA.AperFunction,SMDPad,CuDef*
G36*
G01*
X98569000Y-96282500D02*
X98569000Y-96757500D01*
G75*
G02*
X98331500Y-96995000I-237500J0D01*
G01*
X97756500Y-96995000D01*
G75*
G02*
X97519000Y-96757500I0J237500D01*
G01*
X97519000Y-96282500D01*
G75*
G02*
X97756500Y-96045000I237500J0D01*
G01*
X98331500Y-96045000D01*
G75*
G02*
X98569000Y-96282500I0J-237500D01*
G01*
G37*
G04 #@! TD.AperFunction*
G04 #@! TA.AperFunction,SMDPad,CuDef*
G36*
G01*
X100319000Y-96282500D02*
X100319000Y-96757500D01*
G75*
G02*
X100081500Y-96995000I-237500J0D01*
G01*
X99506500Y-96995000D01*
G75*
G02*
X99269000Y-96757500I0J237500D01*
G01*
X99269000Y-96282500D01*
G75*
G02*
X99506500Y-96045000I237500J0D01*
G01*
X100081500Y-96045000D01*
G75*
G02*
X100319000Y-96282500I0J-237500D01*
G01*
G37*
G04 #@! TD.AperFunction*
G04 #@! TA.AperFunction,SMDPad,CuDef*
G36*
G01*
X97517500Y-76343500D02*
X97517500Y-76818500D01*
G75*
G02*
X97280000Y-77056000I-237500J0D01*
G01*
X96705000Y-77056000D01*
G75*
G02*
X96467500Y-76818500I0J237500D01*
G01*
X96467500Y-76343500D01*
G75*
G02*
X96705000Y-76106000I237500J0D01*
G01*
X97280000Y-76106000D01*
G75*
G02*
X97517500Y-76343500I0J-237500D01*
G01*
G37*
G04 #@! TD.AperFunction*
G04 #@! TA.AperFunction,SMDPad,CuDef*
G36*
G01*
X99267500Y-76343500D02*
X99267500Y-76818500D01*
G75*
G02*
X99030000Y-77056000I-237500J0D01*
G01*
X98455000Y-77056000D01*
G75*
G02*
X98217500Y-76818500I0J237500D01*
G01*
X98217500Y-76343500D01*
G75*
G02*
X98455000Y-76106000I237500J0D01*
G01*
X99030000Y-76106000D01*
G75*
G02*
X99267500Y-76343500I0J-237500D01*
G01*
G37*
G04 #@! TD.AperFunction*
G04 #@! TA.AperFunction,SMDPad,CuDef*
G36*
G01*
X97517500Y-74438500D02*
X97517500Y-74913500D01*
G75*
G02*
X97280000Y-75151000I-237500J0D01*
G01*
X96705000Y-75151000D01*
G75*
G02*
X96467500Y-74913500I0J237500D01*
G01*
X96467500Y-74438500D01*
G75*
G02*
X96705000Y-74201000I237500J0D01*
G01*
X97280000Y-74201000D01*
G75*
G02*
X97517500Y-74438500I0J-237500D01*
G01*
G37*
G04 #@! TD.AperFunction*
G04 #@! TA.AperFunction,SMDPad,CuDef*
G36*
G01*
X99267500Y-74438500D02*
X99267500Y-74913500D01*
G75*
G02*
X99030000Y-75151000I-237500J0D01*
G01*
X98455000Y-75151000D01*
G75*
G02*
X98217500Y-74913500I0J237500D01*
G01*
X98217500Y-74438500D01*
G75*
G02*
X98455000Y-74201000I237500J0D01*
G01*
X99030000Y-74201000D01*
G75*
G02*
X99267500Y-74438500I0J-237500D01*
G01*
G37*
G04 #@! TD.AperFunction*
G04 #@! TA.AperFunction,SMDPad,CuDef*
G36*
G01*
X97517500Y-78248500D02*
X97517500Y-78723500D01*
G75*
G02*
X97280000Y-78961000I-237500J0D01*
G01*
X96705000Y-78961000D01*
G75*
G02*
X96467500Y-78723500I0J237500D01*
G01*
X96467500Y-78248500D01*
G75*
G02*
X96705000Y-78011000I237500J0D01*
G01*
X97280000Y-78011000D01*
G75*
G02*
X97517500Y-78248500I0J-237500D01*
G01*
G37*
G04 #@! TD.AperFunction*
G04 #@! TA.AperFunction,SMDPad,CuDef*
G36*
G01*
X99267500Y-78248500D02*
X99267500Y-78723500D01*
G75*
G02*
X99030000Y-78961000I-237500J0D01*
G01*
X98455000Y-78961000D01*
G75*
G02*
X98217500Y-78723500I0J237500D01*
G01*
X98217500Y-78248500D01*
G75*
G02*
X98455000Y-78011000I237500J0D01*
G01*
X99030000Y-78011000D01*
G75*
G02*
X99267500Y-78248500I0J-237500D01*
G01*
G37*
G04 #@! TD.AperFunction*
G04 #@! TA.AperFunction,SMDPad,CuDef*
G36*
G01*
X91073000Y-98457500D02*
X91073000Y-97907500D01*
G75*
G02*
X91135500Y-97845000I62500J0D01*
G01*
X91260500Y-97845000D01*
G75*
G02*
X91323000Y-97907500I0J-62500D01*
G01*
X91323000Y-98457500D01*
G75*
G02*
X91260500Y-98520000I-62500J0D01*
G01*
X91135500Y-98520000D01*
G75*
G02*
X91073000Y-98457500I0J62500D01*
G01*
G37*
G04 #@! TD.AperFunction*
G04 #@! TA.AperFunction,SMDPad,CuDef*
G36*
G01*
X91573000Y-98457500D02*
X91573000Y-97907500D01*
G75*
G02*
X91635500Y-97845000I62500J0D01*
G01*
X91760500Y-97845000D01*
G75*
G02*
X91823000Y-97907500I0J-62500D01*
G01*
X91823000Y-98457500D01*
G75*
G02*
X91760500Y-98520000I-62500J0D01*
G01*
X91635500Y-98520000D01*
G75*
G02*
X91573000Y-98457500I0J62500D01*
G01*
G37*
G04 #@! TD.AperFunction*
G04 #@! TA.AperFunction,SMDPad,CuDef*
G36*
G01*
X92073000Y-98457500D02*
X92073000Y-97907500D01*
G75*
G02*
X92135500Y-97845000I62500J0D01*
G01*
X92260500Y-97845000D01*
G75*
G02*
X92323000Y-97907500I0J-62500D01*
G01*
X92323000Y-98457500D01*
G75*
G02*
X92260500Y-98520000I-62500J0D01*
G01*
X92135500Y-98520000D01*
G75*
G02*
X92073000Y-98457500I0J62500D01*
G01*
G37*
G04 #@! TD.AperFunction*
G04 #@! TA.AperFunction,SMDPad,CuDef*
G36*
G01*
X92573000Y-98457500D02*
X92573000Y-97907500D01*
G75*
G02*
X92635500Y-97845000I62500J0D01*
G01*
X92760500Y-97845000D01*
G75*
G02*
X92823000Y-97907500I0J-62500D01*
G01*
X92823000Y-98457500D01*
G75*
G02*
X92760500Y-98520000I-62500J0D01*
G01*
X92635500Y-98520000D01*
G75*
G02*
X92573000Y-98457500I0J62500D01*
G01*
G37*
G04 #@! TD.AperFunction*
G04 #@! TA.AperFunction,SMDPad,CuDef*
G36*
G01*
X93123000Y-99007500D02*
X93123000Y-98882500D01*
G75*
G02*
X93185500Y-98820000I62500J0D01*
G01*
X93735500Y-98820000D01*
G75*
G02*
X93798000Y-98882500I0J-62500D01*
G01*
X93798000Y-99007500D01*
G75*
G02*
X93735500Y-99070000I-62500J0D01*
G01*
X93185500Y-99070000D01*
G75*
G02*
X93123000Y-99007500I0J62500D01*
G01*
G37*
G04 #@! TD.AperFunction*
G04 #@! TA.AperFunction,SMDPad,CuDef*
G36*
G01*
X93123000Y-99507500D02*
X93123000Y-99382500D01*
G75*
G02*
X93185500Y-99320000I62500J0D01*
G01*
X93735500Y-99320000D01*
G75*
G02*
X93798000Y-99382500I0J-62500D01*
G01*
X93798000Y-99507500D01*
G75*
G02*
X93735500Y-99570000I-62500J0D01*
G01*
X93185500Y-99570000D01*
G75*
G02*
X93123000Y-99507500I0J62500D01*
G01*
G37*
G04 #@! TD.AperFunction*
G04 #@! TA.AperFunction,SMDPad,CuDef*
G36*
G01*
X93123000Y-100007500D02*
X93123000Y-99882500D01*
G75*
G02*
X93185500Y-99820000I62500J0D01*
G01*
X93735500Y-99820000D01*
G75*
G02*
X93798000Y-99882500I0J-62500D01*
G01*
X93798000Y-100007500D01*
G75*
G02*
X93735500Y-100070000I-62500J0D01*
G01*
X93185500Y-100070000D01*
G75*
G02*
X93123000Y-100007500I0J62500D01*
G01*
G37*
G04 #@! TD.AperFunction*
G04 #@! TA.AperFunction,SMDPad,CuDef*
G36*
G01*
X93123000Y-100507500D02*
X93123000Y-100382500D01*
G75*
G02*
X93185500Y-100320000I62500J0D01*
G01*
X93735500Y-100320000D01*
G75*
G02*
X93798000Y-100382500I0J-62500D01*
G01*
X93798000Y-100507500D01*
G75*
G02*
X93735500Y-100570000I-62500J0D01*
G01*
X93185500Y-100570000D01*
G75*
G02*
X93123000Y-100507500I0J62500D01*
G01*
G37*
G04 #@! TD.AperFunction*
G04 #@! TA.AperFunction,SMDPad,CuDef*
G36*
G01*
X92573000Y-101482500D02*
X92573000Y-100932500D01*
G75*
G02*
X92635500Y-100870000I62500J0D01*
G01*
X92760500Y-100870000D01*
G75*
G02*
X92823000Y-100932500I0J-62500D01*
G01*
X92823000Y-101482500D01*
G75*
G02*
X92760500Y-101545000I-62500J0D01*
G01*
X92635500Y-101545000D01*
G75*
G02*
X92573000Y-101482500I0J62500D01*
G01*
G37*
G04 #@! TD.AperFunction*
G04 #@! TA.AperFunction,SMDPad,CuDef*
G36*
G01*
X92073000Y-101482500D02*
X92073000Y-100932500D01*
G75*
G02*
X92135500Y-100870000I62500J0D01*
G01*
X92260500Y-100870000D01*
G75*
G02*
X92323000Y-100932500I0J-62500D01*
G01*
X92323000Y-101482500D01*
G75*
G02*
X92260500Y-101545000I-62500J0D01*
G01*
X92135500Y-101545000D01*
G75*
G02*
X92073000Y-101482500I0J62500D01*
G01*
G37*
G04 #@! TD.AperFunction*
G04 #@! TA.AperFunction,SMDPad,CuDef*
G36*
G01*
X91573000Y-101482500D02*
X91573000Y-100932500D01*
G75*
G02*
X91635500Y-100870000I62500J0D01*
G01*
X91760500Y-100870000D01*
G75*
G02*
X91823000Y-100932500I0J-62500D01*
G01*
X91823000Y-101482500D01*
G75*
G02*
X91760500Y-101545000I-62500J0D01*
G01*
X91635500Y-101545000D01*
G75*
G02*
X91573000Y-101482500I0J62500D01*
G01*
G37*
G04 #@! TD.AperFunction*
G04 #@! TA.AperFunction,SMDPad,CuDef*
G36*
G01*
X91073000Y-101482500D02*
X91073000Y-100932500D01*
G75*
G02*
X91135500Y-100870000I62500J0D01*
G01*
X91260500Y-100870000D01*
G75*
G02*
X91323000Y-100932500I0J-62500D01*
G01*
X91323000Y-101482500D01*
G75*
G02*
X91260500Y-101545000I-62500J0D01*
G01*
X91135500Y-101545000D01*
G75*
G02*
X91073000Y-101482500I0J62500D01*
G01*
G37*
G04 #@! TD.AperFunction*
G04 #@! TA.AperFunction,SMDPad,CuDef*
G36*
G01*
X90098000Y-100507500D02*
X90098000Y-100382500D01*
G75*
G02*
X90160500Y-100320000I62500J0D01*
G01*
X90710500Y-100320000D01*
G75*
G02*
X90773000Y-100382500I0J-62500D01*
G01*
X90773000Y-100507500D01*
G75*
G02*
X90710500Y-100570000I-62500J0D01*
G01*
X90160500Y-100570000D01*
G75*
G02*
X90098000Y-100507500I0J62500D01*
G01*
G37*
G04 #@! TD.AperFunction*
G04 #@! TA.AperFunction,SMDPad,CuDef*
G36*
G01*
X90098000Y-100007500D02*
X90098000Y-99882500D01*
G75*
G02*
X90160500Y-99820000I62500J0D01*
G01*
X90710500Y-99820000D01*
G75*
G02*
X90773000Y-99882500I0J-62500D01*
G01*
X90773000Y-100007500D01*
G75*
G02*
X90710500Y-100070000I-62500J0D01*
G01*
X90160500Y-100070000D01*
G75*
G02*
X90098000Y-100007500I0J62500D01*
G01*
G37*
G04 #@! TD.AperFunction*
G04 #@! TA.AperFunction,SMDPad,CuDef*
G36*
G01*
X90098000Y-99507500D02*
X90098000Y-99382500D01*
G75*
G02*
X90160500Y-99320000I62500J0D01*
G01*
X90710500Y-99320000D01*
G75*
G02*
X90773000Y-99382500I0J-62500D01*
G01*
X90773000Y-99507500D01*
G75*
G02*
X90710500Y-99570000I-62500J0D01*
G01*
X90160500Y-99570000D01*
G75*
G02*
X90098000Y-99507500I0J62500D01*
G01*
G37*
G04 #@! TD.AperFunction*
G04 #@! TA.AperFunction,SMDPad,CuDef*
G36*
G01*
X90098000Y-99007500D02*
X90098000Y-98882500D01*
G75*
G02*
X90160500Y-98820000I62500J0D01*
G01*
X90710500Y-98820000D01*
G75*
G02*
X90773000Y-98882500I0J-62500D01*
G01*
X90773000Y-99007500D01*
G75*
G02*
X90710500Y-99070000I-62500J0D01*
G01*
X90160500Y-99070000D01*
G75*
G02*
X90098000Y-99007500I0J62500D01*
G01*
G37*
G04 #@! TD.AperFunction*
G04 #@! TA.AperFunction,SMDPad,CuDef*
G36*
G01*
X90998000Y-100395000D02*
X90998000Y-98995000D01*
G75*
G02*
X91248000Y-98745000I250000J0D01*
G01*
X92648000Y-98745000D01*
G75*
G02*
X92898000Y-98995000I0J-250000D01*
G01*
X92898000Y-100395000D01*
G75*
G02*
X92648000Y-100645000I-250000J0D01*
G01*
X91248000Y-100645000D01*
G75*
G02*
X90998000Y-100395000I0J250000D01*
G01*
G37*
G04 #@! TD.AperFunction*
G04 #@! TA.AperFunction,SMDPad,CuDef*
G36*
G01*
X90819000Y-74962500D02*
X90819000Y-74412500D01*
G75*
G02*
X90881500Y-74350000I62500J0D01*
G01*
X91006500Y-74350000D01*
G75*
G02*
X91069000Y-74412500I0J-62500D01*
G01*
X91069000Y-74962500D01*
G75*
G02*
X91006500Y-75025000I-62500J0D01*
G01*
X90881500Y-75025000D01*
G75*
G02*
X90819000Y-74962500I0J62500D01*
G01*
G37*
G04 #@! TD.AperFunction*
G04 #@! TA.AperFunction,SMDPad,CuDef*
G36*
G01*
X91319000Y-74962500D02*
X91319000Y-74412500D01*
G75*
G02*
X91381500Y-74350000I62500J0D01*
G01*
X91506500Y-74350000D01*
G75*
G02*
X91569000Y-74412500I0J-62500D01*
G01*
X91569000Y-74962500D01*
G75*
G02*
X91506500Y-75025000I-62500J0D01*
G01*
X91381500Y-75025000D01*
G75*
G02*
X91319000Y-74962500I0J62500D01*
G01*
G37*
G04 #@! TD.AperFunction*
G04 #@! TA.AperFunction,SMDPad,CuDef*
G36*
G01*
X91819000Y-74962500D02*
X91819000Y-74412500D01*
G75*
G02*
X91881500Y-74350000I62500J0D01*
G01*
X92006500Y-74350000D01*
G75*
G02*
X92069000Y-74412500I0J-62500D01*
G01*
X92069000Y-74962500D01*
G75*
G02*
X92006500Y-75025000I-62500J0D01*
G01*
X91881500Y-75025000D01*
G75*
G02*
X91819000Y-74962500I0J62500D01*
G01*
G37*
G04 #@! TD.AperFunction*
G04 #@! TA.AperFunction,SMDPad,CuDef*
G36*
G01*
X92319000Y-74962500D02*
X92319000Y-74412500D01*
G75*
G02*
X92381500Y-74350000I62500J0D01*
G01*
X92506500Y-74350000D01*
G75*
G02*
X92569000Y-74412500I0J-62500D01*
G01*
X92569000Y-74962500D01*
G75*
G02*
X92506500Y-75025000I-62500J0D01*
G01*
X92381500Y-75025000D01*
G75*
G02*
X92319000Y-74962500I0J62500D01*
G01*
G37*
G04 #@! TD.AperFunction*
G04 #@! TA.AperFunction,SMDPad,CuDef*
G36*
G01*
X92869000Y-75512500D02*
X92869000Y-75387500D01*
G75*
G02*
X92931500Y-75325000I62500J0D01*
G01*
X93481500Y-75325000D01*
G75*
G02*
X93544000Y-75387500I0J-62500D01*
G01*
X93544000Y-75512500D01*
G75*
G02*
X93481500Y-75575000I-62500J0D01*
G01*
X92931500Y-75575000D01*
G75*
G02*
X92869000Y-75512500I0J62500D01*
G01*
G37*
G04 #@! TD.AperFunction*
G04 #@! TA.AperFunction,SMDPad,CuDef*
G36*
G01*
X92869000Y-76012500D02*
X92869000Y-75887500D01*
G75*
G02*
X92931500Y-75825000I62500J0D01*
G01*
X93481500Y-75825000D01*
G75*
G02*
X93544000Y-75887500I0J-62500D01*
G01*
X93544000Y-76012500D01*
G75*
G02*
X93481500Y-76075000I-62500J0D01*
G01*
X92931500Y-76075000D01*
G75*
G02*
X92869000Y-76012500I0J62500D01*
G01*
G37*
G04 #@! TD.AperFunction*
G04 #@! TA.AperFunction,SMDPad,CuDef*
G36*
G01*
X92869000Y-76512500D02*
X92869000Y-76387500D01*
G75*
G02*
X92931500Y-76325000I62500J0D01*
G01*
X93481500Y-76325000D01*
G75*
G02*
X93544000Y-76387500I0J-62500D01*
G01*
X93544000Y-76512500D01*
G75*
G02*
X93481500Y-76575000I-62500J0D01*
G01*
X92931500Y-76575000D01*
G75*
G02*
X92869000Y-76512500I0J62500D01*
G01*
G37*
G04 #@! TD.AperFunction*
G04 #@! TA.AperFunction,SMDPad,CuDef*
G36*
G01*
X92869000Y-77012500D02*
X92869000Y-76887500D01*
G75*
G02*
X92931500Y-76825000I62500J0D01*
G01*
X93481500Y-76825000D01*
G75*
G02*
X93544000Y-76887500I0J-62500D01*
G01*
X93544000Y-77012500D01*
G75*
G02*
X93481500Y-77075000I-62500J0D01*
G01*
X92931500Y-77075000D01*
G75*
G02*
X92869000Y-77012500I0J62500D01*
G01*
G37*
G04 #@! TD.AperFunction*
G04 #@! TA.AperFunction,SMDPad,CuDef*
G36*
G01*
X92319000Y-77987500D02*
X92319000Y-77437500D01*
G75*
G02*
X92381500Y-77375000I62500J0D01*
G01*
X92506500Y-77375000D01*
G75*
G02*
X92569000Y-77437500I0J-62500D01*
G01*
X92569000Y-77987500D01*
G75*
G02*
X92506500Y-78050000I-62500J0D01*
G01*
X92381500Y-78050000D01*
G75*
G02*
X92319000Y-77987500I0J62500D01*
G01*
G37*
G04 #@! TD.AperFunction*
G04 #@! TA.AperFunction,SMDPad,CuDef*
G36*
G01*
X91819000Y-77987500D02*
X91819000Y-77437500D01*
G75*
G02*
X91881500Y-77375000I62500J0D01*
G01*
X92006500Y-77375000D01*
G75*
G02*
X92069000Y-77437500I0J-62500D01*
G01*
X92069000Y-77987500D01*
G75*
G02*
X92006500Y-78050000I-62500J0D01*
G01*
X91881500Y-78050000D01*
G75*
G02*
X91819000Y-77987500I0J62500D01*
G01*
G37*
G04 #@! TD.AperFunction*
G04 #@! TA.AperFunction,SMDPad,CuDef*
G36*
G01*
X91319000Y-77987500D02*
X91319000Y-77437500D01*
G75*
G02*
X91381500Y-77375000I62500J0D01*
G01*
X91506500Y-77375000D01*
G75*
G02*
X91569000Y-77437500I0J-62500D01*
G01*
X91569000Y-77987500D01*
G75*
G02*
X91506500Y-78050000I-62500J0D01*
G01*
X91381500Y-78050000D01*
G75*
G02*
X91319000Y-77987500I0J62500D01*
G01*
G37*
G04 #@! TD.AperFunction*
G04 #@! TA.AperFunction,SMDPad,CuDef*
G36*
G01*
X90819000Y-77987500D02*
X90819000Y-77437500D01*
G75*
G02*
X90881500Y-77375000I62500J0D01*
G01*
X91006500Y-77375000D01*
G75*
G02*
X91069000Y-77437500I0J-62500D01*
G01*
X91069000Y-77987500D01*
G75*
G02*
X91006500Y-78050000I-62500J0D01*
G01*
X90881500Y-78050000D01*
G75*
G02*
X90819000Y-77987500I0J62500D01*
G01*
G37*
G04 #@! TD.AperFunction*
G04 #@! TA.AperFunction,SMDPad,CuDef*
G36*
G01*
X89844000Y-77012500D02*
X89844000Y-76887500D01*
G75*
G02*
X89906500Y-76825000I62500J0D01*
G01*
X90456500Y-76825000D01*
G75*
G02*
X90519000Y-76887500I0J-62500D01*
G01*
X90519000Y-77012500D01*
G75*
G02*
X90456500Y-77075000I-62500J0D01*
G01*
X89906500Y-77075000D01*
G75*
G02*
X89844000Y-77012500I0J62500D01*
G01*
G37*
G04 #@! TD.AperFunction*
G04 #@! TA.AperFunction,SMDPad,CuDef*
G36*
G01*
X89844000Y-76512500D02*
X89844000Y-76387500D01*
G75*
G02*
X89906500Y-76325000I62500J0D01*
G01*
X90456500Y-76325000D01*
G75*
G02*
X90519000Y-76387500I0J-62500D01*
G01*
X90519000Y-76512500D01*
G75*
G02*
X90456500Y-76575000I-62500J0D01*
G01*
X89906500Y-76575000D01*
G75*
G02*
X89844000Y-76512500I0J62500D01*
G01*
G37*
G04 #@! TD.AperFunction*
G04 #@! TA.AperFunction,SMDPad,CuDef*
G36*
G01*
X89844000Y-76012500D02*
X89844000Y-75887500D01*
G75*
G02*
X89906500Y-75825000I62500J0D01*
G01*
X90456500Y-75825000D01*
G75*
G02*
X90519000Y-75887500I0J-62500D01*
G01*
X90519000Y-76012500D01*
G75*
G02*
X90456500Y-76075000I-62500J0D01*
G01*
X89906500Y-76075000D01*
G75*
G02*
X89844000Y-76012500I0J62500D01*
G01*
G37*
G04 #@! TD.AperFunction*
G04 #@! TA.AperFunction,SMDPad,CuDef*
G36*
G01*
X89844000Y-75512500D02*
X89844000Y-75387500D01*
G75*
G02*
X89906500Y-75325000I62500J0D01*
G01*
X90456500Y-75325000D01*
G75*
G02*
X90519000Y-75387500I0J-62500D01*
G01*
X90519000Y-75512500D01*
G75*
G02*
X90456500Y-75575000I-62500J0D01*
G01*
X89906500Y-75575000D01*
G75*
G02*
X89844000Y-75512500I0J62500D01*
G01*
G37*
G04 #@! TD.AperFunction*
G04 #@! TA.AperFunction,SMDPad,CuDef*
G36*
G01*
X90744000Y-76900000D02*
X90744000Y-75500000D01*
G75*
G02*
X90994000Y-75250000I250000J0D01*
G01*
X92394000Y-75250000D01*
G75*
G02*
X92644000Y-75500000I0J-250000D01*
G01*
X92644000Y-76900000D01*
G75*
G02*
X92394000Y-77150000I-250000J0D01*
G01*
X90994000Y-77150000D01*
G75*
G02*
X90744000Y-76900000I0J250000D01*
G01*
G37*
G04 #@! TD.AperFunction*
D19*
X88900000Y-71628000D03*
X90678000Y-97028000D03*
X88392000Y-94996000D03*
X96774000Y-102108000D03*
X88900000Y-70104000D03*
X90703071Y-79023371D03*
X93512540Y-102044500D03*
X89154000Y-101600000D03*
D20*
X101346000Y-71882000D03*
D21*
X91412000Y-95758000D02*
X90887000Y-95758000D01*
X90518000Y-72616000D02*
X90043000Y-72616000D01*
X91444000Y-73542000D02*
X90518000Y-72616000D01*
X91444000Y-74687500D02*
X91444000Y-73542000D01*
D22*
X89888000Y-72616000D02*
X90043000Y-72616000D01*
X88900000Y-71628000D02*
X89888000Y-72616000D01*
X91412000Y-97559000D02*
X91412000Y-95758000D01*
X91698000Y-97845000D02*
X91412000Y-97559000D01*
X91698000Y-98182500D02*
X91698000Y-97845000D01*
X90678000Y-97028000D02*
X91412000Y-96294000D01*
X91412000Y-96294000D02*
X91412000Y-95758000D01*
X93460500Y-100445000D02*
X93460500Y-100572500D01*
X93460500Y-100572500D02*
X94234000Y-101346000D01*
X94234000Y-101346000D02*
X94234000Y-102362000D01*
X94234000Y-102362000D02*
X93726000Y-102870000D01*
X87630000Y-102870000D02*
X86360000Y-101600000D01*
X93726000Y-102870000D02*
X87630000Y-102870000D01*
X98044000Y-106680000D02*
X94234000Y-102870000D01*
X94234000Y-102870000D02*
X93726000Y-102870000D01*
X90435500Y-98512156D02*
X86924795Y-95001451D01*
X90435500Y-98945000D02*
X90435500Y-98512156D01*
X86924795Y-95001451D02*
X84841451Y-95001451D01*
X84841451Y-95001451D02*
X83820000Y-93980000D01*
X90994384Y-101716460D02*
X90389393Y-102321451D01*
X90389393Y-102321451D02*
X88807703Y-102321451D01*
X92198000Y-101207500D02*
X92198000Y-101545000D01*
X88432549Y-101946297D02*
X88432549Y-101692297D01*
X92026540Y-101716460D02*
X90994384Y-101716460D01*
X88807703Y-102321451D02*
X88432549Y-101946297D01*
X87318801Y-100578549D02*
X84841451Y-100578549D01*
X92198000Y-101545000D02*
X92026540Y-101716460D01*
X88432549Y-101692297D02*
X87318801Y-100578549D01*
X84841451Y-100578549D02*
X83820000Y-101600000D01*
X98569000Y-94615000D02*
X98044000Y-94615000D01*
X98740460Y-99158540D02*
X98740460Y-94786460D01*
X98044000Y-99855000D02*
X98740460Y-99158540D01*
X98740460Y-94786460D02*
X98569000Y-94615000D01*
X98044000Y-100330000D02*
X98044000Y-99855000D01*
X89662000Y-94262000D02*
X89690000Y-94234000D01*
X89662000Y-95758000D02*
X89662000Y-94262000D01*
X89690000Y-94234000D02*
X89690000Y-92710000D01*
D21*
X90518000Y-70866000D02*
X91849000Y-70866000D01*
X90043000Y-70866000D02*
X90518000Y-70866000D01*
X91849000Y-72169000D02*
X91849000Y-70866000D01*
X91849000Y-72644000D02*
X91849000Y-72169000D01*
X97663000Y-100711000D02*
X98044000Y-100330000D01*
D22*
X89662000Y-70866000D02*
X90043000Y-70866000D01*
X88900000Y-70104000D02*
X89662000Y-70866000D01*
D21*
X91444000Y-77712500D02*
X91444000Y-78282442D01*
D22*
X91198000Y-101207500D02*
X91323000Y-101207500D01*
X91323000Y-101207500D02*
X91698000Y-101207500D01*
D21*
X92698000Y-101207500D02*
X93512540Y-102022040D01*
X93512540Y-102022040D02*
X93512540Y-102044500D01*
D22*
X90805500Y-101600000D02*
X91198000Y-101207500D01*
X89154000Y-101600000D02*
X90805500Y-101600000D01*
X91444000Y-78282442D02*
X90703071Y-79023371D01*
X98044000Y-100838000D02*
X96774000Y-102108000D01*
X98044000Y-100330000D02*
X98044000Y-100838000D01*
X89154000Y-94234000D02*
X88392000Y-94996000D01*
X89690000Y-94234000D02*
X89154000Y-94234000D01*
X90435500Y-100445000D02*
X89777000Y-100445000D01*
X89777000Y-100445000D02*
X87122000Y-97790000D01*
X85090000Y-97790000D02*
X83820000Y-99060000D01*
X87122000Y-97790000D02*
X85090000Y-97790000D01*
X89785000Y-99945000D02*
X86360000Y-96520000D01*
X90435500Y-99945000D02*
X89785000Y-99945000D01*
X90435500Y-99445000D02*
X90034748Y-99445000D01*
X90435500Y-99445000D02*
X90098000Y-99445000D01*
X90098000Y-99445000D02*
X87381451Y-96728451D01*
X87381451Y-96728451D02*
X87381451Y-95763451D01*
X84841451Y-95498549D02*
X83820000Y-96520000D01*
X87116549Y-95498549D02*
X84841451Y-95498549D01*
X87381451Y-95763451D02*
X87116549Y-95498549D01*
X93206500Y-76950000D02*
X93206500Y-79513500D01*
X88099911Y-80479911D02*
X86360000Y-78740000D01*
X93206500Y-79513500D02*
X92240089Y-80479911D01*
X92240089Y-80479911D02*
X88099911Y-80479911D01*
X91944000Y-77712500D02*
X91944000Y-79244000D01*
X85057361Y-77502639D02*
X84669999Y-77890001D01*
X91944000Y-79244000D02*
X91432000Y-79756000D01*
X91432000Y-79756000D02*
X89916000Y-79756000D01*
X89916000Y-79756000D02*
X87662639Y-77502639D01*
X87662639Y-77502639D02*
X85057361Y-77502639D01*
X84669999Y-77890001D02*
X83820000Y-78740000D01*
X89844000Y-76950000D02*
X89602000Y-76708000D01*
X90181500Y-76950000D02*
X89844000Y-76950000D01*
X89602000Y-76708000D02*
X88900000Y-76708000D01*
X84841451Y-75178549D02*
X83820000Y-76200000D01*
X87370549Y-75178549D02*
X84841451Y-75178549D01*
X88900000Y-76708000D02*
X87370549Y-75178549D01*
X89844000Y-76450000D02*
X87054000Y-73660000D01*
X87054000Y-73660000D02*
X86360000Y-73660000D01*
X90181500Y-76450000D02*
X89844000Y-76450000D01*
X89844000Y-75950000D02*
X90181500Y-75950000D01*
X86850297Y-72638549D02*
X88379748Y-74168000D01*
X84841451Y-72638549D02*
X86850297Y-72638549D01*
X83820000Y-73660000D02*
X84841451Y-72638549D01*
X89497000Y-75603000D02*
X89497000Y-75273000D01*
X89497000Y-75603000D02*
X89844000Y-75950000D01*
X89497000Y-75273000D02*
X88392000Y-74168000D01*
X90181500Y-75450000D02*
X90181500Y-75144156D01*
X90181500Y-75144156D02*
X87459982Y-72422638D01*
X87459982Y-72422638D02*
X85122638Y-72422638D01*
X85122638Y-72422638D02*
X83820000Y-71120000D01*
X82804000Y-72136000D02*
X83820000Y-71120000D01*
X92444000Y-77712500D02*
X92444000Y-79260000D01*
X82798549Y-79242549D02*
X82798549Y-72649451D01*
X82798549Y-72649451D02*
X82804000Y-72644000D01*
X92444000Y-79260000D02*
X91440000Y-80264000D01*
X89395748Y-80264000D02*
X86850297Y-77718549D01*
X86850297Y-77718549D02*
X85857451Y-77718549D01*
X85857451Y-77718549D02*
X84841451Y-78734549D01*
X84841451Y-78734549D02*
X84841451Y-79230297D01*
X84841451Y-79230297D02*
X84310297Y-79761451D01*
X84310297Y-79761451D02*
X83317451Y-79761451D01*
X91440000Y-80264000D02*
X89395748Y-80264000D01*
X83317451Y-79761451D02*
X82798549Y-79242549D01*
X82804000Y-72644000D02*
X82804000Y-72136000D01*
X92698248Y-92710000D02*
X91965000Y-92710000D01*
X93812451Y-93824203D02*
X92698248Y-92710000D01*
X91965000Y-92710000D02*
X91440000Y-92710000D01*
X93460500Y-98945000D02*
X93812451Y-98593049D01*
X93812451Y-98593049D02*
X93812451Y-93824203D01*
X98044000Y-96995000D02*
X98044000Y-96520000D01*
X95594000Y-99445000D02*
X98044000Y-96995000D01*
X93460500Y-99445000D02*
X95594000Y-99445000D01*
X95999000Y-99945000D02*
X93798000Y-99945000D01*
X97519000Y-98425000D02*
X95999000Y-99945000D01*
X93798000Y-99945000D02*
X93460500Y-99945000D01*
X98044000Y-98425000D02*
X97519000Y-98425000D01*
D21*
X93599000Y-75057500D02*
X93206500Y-75450000D01*
X93599000Y-72644000D02*
X93599000Y-75057500D01*
D22*
X96193500Y-75950000D02*
X96992500Y-75151000D01*
X96992500Y-75151000D02*
X96992500Y-74676000D01*
X93206500Y-75950000D02*
X96193500Y-75950000D01*
X96861500Y-76450000D02*
X96992500Y-76581000D01*
X93206500Y-76450000D02*
X96861500Y-76450000D01*
D21*
X92564510Y-73729490D02*
X91944000Y-74350000D01*
X91944000Y-74350000D02*
X91944000Y-74687500D01*
X92564510Y-71375490D02*
X92564510Y-73729490D01*
X93074000Y-70866000D02*
X92564510Y-71375490D01*
X93599000Y-70866000D02*
X93074000Y-70866000D01*
D22*
X100158900Y-70866000D02*
X93599000Y-70866000D01*
X100330000Y-70866000D02*
X101346000Y-71882000D01*
X100158900Y-70866000D02*
X100330000Y-70866000D01*
X104492000Y-75028000D02*
X101346000Y-71882000D01*
X104492000Y-76002000D02*
X104492000Y-75028000D01*
X91965000Y-94234000D02*
X92790500Y-95059500D01*
X91440000Y-94234000D02*
X91965000Y-94234000D01*
X92790500Y-95059500D02*
X92790500Y-96283000D01*
X92198000Y-96875500D02*
X92198000Y-98182500D01*
X92790500Y-96283000D02*
X92198000Y-96875500D01*
X90944000Y-77712500D02*
X88888500Y-77712500D01*
X87376000Y-76200000D02*
X86360000Y-76200000D01*
X88888500Y-77712500D02*
X87376000Y-76200000D01*
X87298900Y-71120000D02*
X86360000Y-71120000D01*
X90944000Y-74687500D02*
X88605951Y-72349451D01*
X88605951Y-72349451D02*
X88528351Y-72349451D01*
X88528351Y-72349451D02*
X87298900Y-71120000D01*
X98742500Y-77056000D02*
X98742500Y-78486000D01*
X98742500Y-76581000D02*
X98742500Y-77056000D01*
X100584000Y-78486000D02*
X101346000Y-79248000D01*
X98742500Y-78486000D02*
X100584000Y-78486000D01*
X105606549Y-79387451D02*
X106492000Y-78502000D01*
X101485451Y-79387451D02*
X105606549Y-79387451D01*
X101346000Y-79248000D02*
X101485451Y-79387451D01*
X98742500Y-74676000D02*
X101346000Y-74676000D01*
X101346000Y-75356000D02*
X104492000Y-78502000D01*
X101346000Y-74676000D02*
X101346000Y-75356000D01*
X99794000Y-96520000D02*
X99794000Y-94615000D01*
X103904000Y-96520000D02*
X103124000Y-96520000D01*
X106426000Y-99042000D02*
X103904000Y-96520000D01*
X103124000Y-96520000D02*
X99794000Y-96520000D01*
X99794000Y-98425000D02*
X99794000Y-100330000D01*
X99794000Y-100330000D02*
X103124000Y-100330000D01*
X105714000Y-100330000D02*
X106426000Y-101042000D01*
X103124000Y-100330000D02*
X105714000Y-100330000D01*
D21*
X95473490Y-71978490D02*
X97708010Y-74213010D01*
X97517500Y-78486000D02*
X96992500Y-78486000D01*
X97708010Y-78295490D02*
X97517500Y-78486000D01*
X92883490Y-72229210D02*
X93134210Y-71978490D01*
X92883490Y-73058790D02*
X92883490Y-72229210D01*
X93344990Y-73520290D02*
X92883490Y-73058790D01*
X97708010Y-74213010D02*
X97708010Y-78295490D01*
X93134210Y-71978490D02*
X95473490Y-71978490D01*
X93344990Y-74687500D02*
X93344990Y-73520290D01*
X92444000Y-74687500D02*
X93344990Y-74687500D01*
M02*
