G04 #@! TF.GenerationSoftware,KiCad,Pcbnew,5.1.6-c6e7f7d~86~ubuntu18.04.1*
G04 #@! TF.CreationDate,2021-05-10T20:55:15-07:00*
G04 #@! TF.ProjectId,usb_pmod,7573625f-706d-46f6-942e-6b696361645f,rev?*
G04 #@! TF.SameCoordinates,Original*
G04 #@! TF.FileFunction,Soldermask,Bot*
G04 #@! TF.FilePolarity,Negative*
%FSLAX46Y46*%
G04 Gerber Fmt 4.6, Leading zero omitted, Abs format (unit mm)*
G04 Created by KiCad (PCBNEW 5.1.6-c6e7f7d~86~ubuntu18.04.1) date 2021-05-10 20:55:15*
%MOMM*%
%LPD*%
G01*
G04 APERTURE LIST*
%ADD10C,0.100000*%
G04 APERTURE END LIST*
D10*
G36*
X109438585Y-105090802D02*
G01*
X109588410Y-105120604D01*
X109870674Y-105237521D01*
X110124705Y-105407259D01*
X110340741Y-105623295D01*
X110510479Y-105877326D01*
X110627396Y-106159590D01*
X110687000Y-106459240D01*
X110687000Y-106764760D01*
X110627396Y-107064410D01*
X110510479Y-107346674D01*
X110340741Y-107600705D01*
X110124705Y-107816741D01*
X109870674Y-107986479D01*
X109588410Y-108103396D01*
X109438585Y-108133198D01*
X109288761Y-108163000D01*
X108983239Y-108163000D01*
X108833415Y-108133198D01*
X108683590Y-108103396D01*
X108401326Y-107986479D01*
X108147295Y-107816741D01*
X107931259Y-107600705D01*
X107761521Y-107346674D01*
X107644604Y-107064410D01*
X107585000Y-106764760D01*
X107585000Y-106459240D01*
X107644604Y-106159590D01*
X107761521Y-105877326D01*
X107931259Y-105623295D01*
X108147295Y-105407259D01*
X108401326Y-105237521D01*
X108683590Y-105120604D01*
X108833415Y-105090802D01*
X108983239Y-105061000D01*
X109288761Y-105061000D01*
X109438585Y-105090802D01*
G37*
G36*
X101485000Y-107581000D02*
G01*
X99683000Y-107581000D01*
X99683000Y-105779000D01*
X101485000Y-105779000D01*
X101485000Y-107581000D01*
G37*
G36*
X86473512Y-105783927D02*
G01*
X86622812Y-105813624D01*
X86786784Y-105881544D01*
X86934354Y-105980147D01*
X87059853Y-106105646D01*
X87158456Y-106253216D01*
X87226376Y-106417188D01*
X87261000Y-106591259D01*
X87261000Y-106768741D01*
X87226376Y-106942812D01*
X87158456Y-107106784D01*
X87059853Y-107254354D01*
X86934354Y-107379853D01*
X86786784Y-107478456D01*
X86622812Y-107546376D01*
X86473512Y-107576073D01*
X86448742Y-107581000D01*
X86271258Y-107581000D01*
X86246488Y-107576073D01*
X86097188Y-107546376D01*
X85933216Y-107478456D01*
X85785646Y-107379853D01*
X85660147Y-107254354D01*
X85561544Y-107106784D01*
X85493624Y-106942812D01*
X85459000Y-106768741D01*
X85459000Y-106591259D01*
X85493624Y-106417188D01*
X85561544Y-106253216D01*
X85660147Y-106105646D01*
X85785646Y-105980147D01*
X85933216Y-105881544D01*
X86097188Y-105813624D01*
X86246488Y-105783927D01*
X86271258Y-105779000D01*
X86448742Y-105779000D01*
X86473512Y-105783927D01*
G37*
G36*
X83933512Y-105783927D02*
G01*
X84082812Y-105813624D01*
X84246784Y-105881544D01*
X84394354Y-105980147D01*
X84519853Y-106105646D01*
X84618456Y-106253216D01*
X84686376Y-106417188D01*
X84721000Y-106591259D01*
X84721000Y-106768741D01*
X84686376Y-106942812D01*
X84618456Y-107106784D01*
X84519853Y-107254354D01*
X84394354Y-107379853D01*
X84246784Y-107478456D01*
X84082812Y-107546376D01*
X83933512Y-107576073D01*
X83908742Y-107581000D01*
X83731258Y-107581000D01*
X83706488Y-107576073D01*
X83557188Y-107546376D01*
X83393216Y-107478456D01*
X83245646Y-107379853D01*
X83120147Y-107254354D01*
X83021544Y-107106784D01*
X82953624Y-106942812D01*
X82919000Y-106768741D01*
X82919000Y-106591259D01*
X82953624Y-106417188D01*
X83021544Y-106253216D01*
X83120147Y-106105646D01*
X83245646Y-105980147D01*
X83393216Y-105881544D01*
X83557188Y-105813624D01*
X83706488Y-105783927D01*
X83731258Y-105779000D01*
X83908742Y-105779000D01*
X83933512Y-105783927D01*
G37*
G36*
X98157512Y-105783927D02*
G01*
X98306812Y-105813624D01*
X98470784Y-105881544D01*
X98618354Y-105980147D01*
X98743853Y-106105646D01*
X98842456Y-106253216D01*
X98910376Y-106417188D01*
X98945000Y-106591259D01*
X98945000Y-106768741D01*
X98910376Y-106942812D01*
X98842456Y-107106784D01*
X98743853Y-107254354D01*
X98618354Y-107379853D01*
X98470784Y-107478456D01*
X98306812Y-107546376D01*
X98157512Y-107576073D01*
X98132742Y-107581000D01*
X97955258Y-107581000D01*
X97930488Y-107576073D01*
X97781188Y-107546376D01*
X97617216Y-107478456D01*
X97469646Y-107379853D01*
X97344147Y-107254354D01*
X97245544Y-107106784D01*
X97177624Y-106942812D01*
X97143000Y-106768741D01*
X97143000Y-106591259D01*
X97177624Y-106417188D01*
X97245544Y-106253216D01*
X97344147Y-106105646D01*
X97469646Y-105980147D01*
X97617216Y-105881544D01*
X97781188Y-105813624D01*
X97930488Y-105783927D01*
X97955258Y-105779000D01*
X98132742Y-105779000D01*
X98157512Y-105783927D01*
G37*
G36*
X93077512Y-105783927D02*
G01*
X93226812Y-105813624D01*
X93390784Y-105881544D01*
X93538354Y-105980147D01*
X93663853Y-106105646D01*
X93762456Y-106253216D01*
X93830376Y-106417188D01*
X93865000Y-106591259D01*
X93865000Y-106768741D01*
X93830376Y-106942812D01*
X93762456Y-107106784D01*
X93663853Y-107254354D01*
X93538354Y-107379853D01*
X93390784Y-107478456D01*
X93226812Y-107546376D01*
X93077512Y-107576073D01*
X93052742Y-107581000D01*
X92875258Y-107581000D01*
X92850488Y-107576073D01*
X92701188Y-107546376D01*
X92537216Y-107478456D01*
X92389646Y-107379853D01*
X92264147Y-107254354D01*
X92165544Y-107106784D01*
X92097624Y-106942812D01*
X92063000Y-106768741D01*
X92063000Y-106591259D01*
X92097624Y-106417188D01*
X92165544Y-106253216D01*
X92264147Y-106105646D01*
X92389646Y-105980147D01*
X92537216Y-105881544D01*
X92701188Y-105813624D01*
X92850488Y-105783927D01*
X92875258Y-105779000D01*
X93052742Y-105779000D01*
X93077512Y-105783927D01*
G37*
G36*
X90537512Y-105783927D02*
G01*
X90686812Y-105813624D01*
X90850784Y-105881544D01*
X90998354Y-105980147D01*
X91123853Y-106105646D01*
X91222456Y-106253216D01*
X91290376Y-106417188D01*
X91325000Y-106591259D01*
X91325000Y-106768741D01*
X91290376Y-106942812D01*
X91222456Y-107106784D01*
X91123853Y-107254354D01*
X90998354Y-107379853D01*
X90850784Y-107478456D01*
X90686812Y-107546376D01*
X90537512Y-107576073D01*
X90512742Y-107581000D01*
X90335258Y-107581000D01*
X90310488Y-107576073D01*
X90161188Y-107546376D01*
X89997216Y-107478456D01*
X89849646Y-107379853D01*
X89724147Y-107254354D01*
X89625544Y-107106784D01*
X89557624Y-106942812D01*
X89523000Y-106768741D01*
X89523000Y-106591259D01*
X89557624Y-106417188D01*
X89625544Y-106253216D01*
X89724147Y-106105646D01*
X89849646Y-105980147D01*
X89997216Y-105881544D01*
X90161188Y-105813624D01*
X90310488Y-105783927D01*
X90335258Y-105779000D01*
X90512742Y-105779000D01*
X90537512Y-105783927D01*
G37*
G36*
X95617512Y-105783927D02*
G01*
X95766812Y-105813624D01*
X95930784Y-105881544D01*
X96078354Y-105980147D01*
X96203853Y-106105646D01*
X96302456Y-106253216D01*
X96370376Y-106417188D01*
X96405000Y-106591259D01*
X96405000Y-106768741D01*
X96370376Y-106942812D01*
X96302456Y-107106784D01*
X96203853Y-107254354D01*
X96078354Y-107379853D01*
X95930784Y-107478456D01*
X95766812Y-107546376D01*
X95617512Y-107576073D01*
X95592742Y-107581000D01*
X95415258Y-107581000D01*
X95390488Y-107576073D01*
X95241188Y-107546376D01*
X95077216Y-107478456D01*
X94929646Y-107379853D01*
X94804147Y-107254354D01*
X94705544Y-107106784D01*
X94637624Y-106942812D01*
X94603000Y-106768741D01*
X94603000Y-106591259D01*
X94637624Y-106417188D01*
X94705544Y-106253216D01*
X94804147Y-106105646D01*
X94929646Y-105980147D01*
X95077216Y-105881544D01*
X95241188Y-105813624D01*
X95390488Y-105783927D01*
X95415258Y-105779000D01*
X95592742Y-105779000D01*
X95617512Y-105783927D01*
G37*
G36*
X86473512Y-103243927D02*
G01*
X86622812Y-103273624D01*
X86786784Y-103341544D01*
X86934354Y-103440147D01*
X87059853Y-103565646D01*
X87158456Y-103713216D01*
X87226376Y-103877188D01*
X87261000Y-104051259D01*
X87261000Y-104228741D01*
X87226376Y-104402812D01*
X87158456Y-104566784D01*
X87059853Y-104714354D01*
X86934354Y-104839853D01*
X86786784Y-104938456D01*
X86622812Y-105006376D01*
X86473512Y-105036073D01*
X86448742Y-105041000D01*
X86271258Y-105041000D01*
X86246488Y-105036073D01*
X86097188Y-105006376D01*
X85933216Y-104938456D01*
X85785646Y-104839853D01*
X85660147Y-104714354D01*
X85561544Y-104566784D01*
X85493624Y-104402812D01*
X85459000Y-104228741D01*
X85459000Y-104051259D01*
X85493624Y-103877188D01*
X85561544Y-103713216D01*
X85660147Y-103565646D01*
X85785646Y-103440147D01*
X85933216Y-103341544D01*
X86097188Y-103273624D01*
X86246488Y-103243927D01*
X86271258Y-103239000D01*
X86448742Y-103239000D01*
X86473512Y-103243927D01*
G37*
G36*
X83933512Y-103243927D02*
G01*
X84082812Y-103273624D01*
X84246784Y-103341544D01*
X84394354Y-103440147D01*
X84519853Y-103565646D01*
X84618456Y-103713216D01*
X84686376Y-103877188D01*
X84721000Y-104051259D01*
X84721000Y-104228741D01*
X84686376Y-104402812D01*
X84618456Y-104566784D01*
X84519853Y-104714354D01*
X84394354Y-104839853D01*
X84246784Y-104938456D01*
X84082812Y-105006376D01*
X83933512Y-105036073D01*
X83908742Y-105041000D01*
X83731258Y-105041000D01*
X83706488Y-105036073D01*
X83557188Y-105006376D01*
X83393216Y-104938456D01*
X83245646Y-104839853D01*
X83120147Y-104714354D01*
X83021544Y-104566784D01*
X82953624Y-104402812D01*
X82919000Y-104228741D01*
X82919000Y-104051259D01*
X82953624Y-103877188D01*
X83021544Y-103713216D01*
X83120147Y-103565646D01*
X83245646Y-103440147D01*
X83393216Y-103341544D01*
X83557188Y-103273624D01*
X83706488Y-103243927D01*
X83731258Y-103239000D01*
X83908742Y-103239000D01*
X83933512Y-103243927D01*
G37*
G36*
X107277000Y-104393000D02*
G01*
X105575000Y-104393000D01*
X105575000Y-102691000D01*
X107277000Y-102691000D01*
X107277000Y-104393000D01*
G37*
G36*
X86473512Y-100703927D02*
G01*
X86622812Y-100733624D01*
X86786784Y-100801544D01*
X86934354Y-100900147D01*
X87059853Y-101025646D01*
X87158456Y-101173216D01*
X87226376Y-101337188D01*
X87261000Y-101511259D01*
X87261000Y-101688741D01*
X87226376Y-101862812D01*
X87158456Y-102026784D01*
X87059853Y-102174354D01*
X86934354Y-102299853D01*
X86786784Y-102398456D01*
X86622812Y-102466376D01*
X86473512Y-102496073D01*
X86448742Y-102501000D01*
X86271258Y-102501000D01*
X86246488Y-102496073D01*
X86097188Y-102466376D01*
X85933216Y-102398456D01*
X85785646Y-102299853D01*
X85660147Y-102174354D01*
X85561544Y-102026784D01*
X85493624Y-101862812D01*
X85459000Y-101688741D01*
X85459000Y-101511259D01*
X85493624Y-101337188D01*
X85561544Y-101173216D01*
X85660147Y-101025646D01*
X85785646Y-100900147D01*
X85933216Y-100801544D01*
X86097188Y-100733624D01*
X86246488Y-100703927D01*
X86271258Y-100699000D01*
X86448742Y-100699000D01*
X86473512Y-100703927D01*
G37*
G36*
X83933512Y-100703927D02*
G01*
X84082812Y-100733624D01*
X84246784Y-100801544D01*
X84394354Y-100900147D01*
X84519853Y-101025646D01*
X84618456Y-101173216D01*
X84686376Y-101337188D01*
X84721000Y-101511259D01*
X84721000Y-101688741D01*
X84686376Y-101862812D01*
X84618456Y-102026784D01*
X84519853Y-102174354D01*
X84394354Y-102299853D01*
X84246784Y-102398456D01*
X84082812Y-102466376D01*
X83933512Y-102496073D01*
X83908742Y-102501000D01*
X83731258Y-102501000D01*
X83706488Y-102496073D01*
X83557188Y-102466376D01*
X83393216Y-102398456D01*
X83245646Y-102299853D01*
X83120147Y-102174354D01*
X83021544Y-102026784D01*
X82953624Y-101862812D01*
X82919000Y-101688741D01*
X82919000Y-101511259D01*
X82953624Y-101337188D01*
X83021544Y-101173216D01*
X83120147Y-101025646D01*
X83245646Y-100900147D01*
X83393216Y-100801544D01*
X83557188Y-100733624D01*
X83706488Y-100703927D01*
X83731258Y-100699000D01*
X83908742Y-100699000D01*
X83933512Y-100703927D01*
G37*
G36*
X106674228Y-100223703D02*
G01*
X106829100Y-100287853D01*
X106968481Y-100380985D01*
X107087015Y-100499519D01*
X107180147Y-100638900D01*
X107244297Y-100793772D01*
X107277000Y-100958184D01*
X107277000Y-101125816D01*
X107244297Y-101290228D01*
X107180147Y-101445100D01*
X107087015Y-101584481D01*
X106968481Y-101703015D01*
X106829100Y-101796147D01*
X106674228Y-101860297D01*
X106509816Y-101893000D01*
X106342184Y-101893000D01*
X106177772Y-101860297D01*
X106022900Y-101796147D01*
X105883519Y-101703015D01*
X105764985Y-101584481D01*
X105671853Y-101445100D01*
X105607703Y-101290228D01*
X105575000Y-101125816D01*
X105575000Y-100958184D01*
X105607703Y-100793772D01*
X105671853Y-100638900D01*
X105764985Y-100499519D01*
X105883519Y-100380985D01*
X106022900Y-100287853D01*
X106177772Y-100223703D01*
X106342184Y-100191000D01*
X106509816Y-100191000D01*
X106674228Y-100223703D01*
G37*
G36*
X103675000Y-100881000D02*
G01*
X102573000Y-100881000D01*
X102573000Y-99779000D01*
X103675000Y-99779000D01*
X103675000Y-100881000D01*
G37*
G36*
X86473512Y-98163927D02*
G01*
X86622812Y-98193624D01*
X86786784Y-98261544D01*
X86934354Y-98360147D01*
X87059853Y-98485646D01*
X87158456Y-98633216D01*
X87226376Y-98797188D01*
X87256073Y-98946488D01*
X87258400Y-98958185D01*
X87261000Y-98971259D01*
X87261000Y-99148741D01*
X87226376Y-99322812D01*
X87158456Y-99486784D01*
X87059853Y-99634354D01*
X86934354Y-99759853D01*
X86786784Y-99858456D01*
X86622812Y-99926376D01*
X86473512Y-99956073D01*
X86448742Y-99961000D01*
X86271258Y-99961000D01*
X86246488Y-99956073D01*
X86097188Y-99926376D01*
X85933216Y-99858456D01*
X85785646Y-99759853D01*
X85660147Y-99634354D01*
X85561544Y-99486784D01*
X85493624Y-99322812D01*
X85459000Y-99148741D01*
X85459000Y-98971259D01*
X85461601Y-98958185D01*
X85463927Y-98946488D01*
X85493624Y-98797188D01*
X85561544Y-98633216D01*
X85660147Y-98485646D01*
X85785646Y-98360147D01*
X85933216Y-98261544D01*
X86097188Y-98193624D01*
X86246488Y-98163927D01*
X86271258Y-98159000D01*
X86448742Y-98159000D01*
X86473512Y-98163927D01*
G37*
G36*
X83933512Y-98163927D02*
G01*
X84082812Y-98193624D01*
X84246784Y-98261544D01*
X84394354Y-98360147D01*
X84519853Y-98485646D01*
X84618456Y-98633216D01*
X84686376Y-98797188D01*
X84716073Y-98946488D01*
X84718400Y-98958185D01*
X84721000Y-98971259D01*
X84721000Y-99148741D01*
X84686376Y-99322812D01*
X84618456Y-99486784D01*
X84519853Y-99634354D01*
X84394354Y-99759853D01*
X84246784Y-99858456D01*
X84082812Y-99926376D01*
X83933512Y-99956073D01*
X83908742Y-99961000D01*
X83731258Y-99961000D01*
X83706488Y-99956073D01*
X83557188Y-99926376D01*
X83393216Y-99858456D01*
X83245646Y-99759853D01*
X83120147Y-99634354D01*
X83021544Y-99486784D01*
X82953624Y-99322812D01*
X82919000Y-99148741D01*
X82919000Y-98971259D01*
X82921601Y-98958185D01*
X82923927Y-98946488D01*
X82953624Y-98797188D01*
X83021544Y-98633216D01*
X83120147Y-98485646D01*
X83245646Y-98360147D01*
X83393216Y-98261544D01*
X83557188Y-98193624D01*
X83706488Y-98163927D01*
X83731258Y-98159000D01*
X83908742Y-98159000D01*
X83933512Y-98163927D01*
G37*
G36*
X106674228Y-98223703D02*
G01*
X106829100Y-98287853D01*
X106968481Y-98380985D01*
X107087015Y-98499519D01*
X107180147Y-98638900D01*
X107244297Y-98793772D01*
X107277000Y-98958184D01*
X107277000Y-99125816D01*
X107244297Y-99290228D01*
X107180147Y-99445100D01*
X107087015Y-99584481D01*
X106968481Y-99703015D01*
X106829100Y-99796147D01*
X106674228Y-99860297D01*
X106509816Y-99893000D01*
X106342184Y-99893000D01*
X106177772Y-99860297D01*
X106022900Y-99796147D01*
X105883519Y-99703015D01*
X105764985Y-99584481D01*
X105671853Y-99445100D01*
X105607703Y-99290228D01*
X105575000Y-99125816D01*
X105575000Y-98958184D01*
X105607703Y-98793772D01*
X105671853Y-98638900D01*
X105764985Y-98499519D01*
X105883519Y-98380985D01*
X106022900Y-98287853D01*
X106177772Y-98223703D01*
X106342184Y-98191000D01*
X106509816Y-98191000D01*
X106674228Y-98223703D01*
G37*
G36*
X86473512Y-95623927D02*
G01*
X86622812Y-95653624D01*
X86786784Y-95721544D01*
X86934354Y-95820147D01*
X87059853Y-95945646D01*
X87158456Y-96093216D01*
X87226376Y-96257188D01*
X87261000Y-96431259D01*
X87261000Y-96608741D01*
X87226376Y-96782812D01*
X87158456Y-96946784D01*
X87059853Y-97094354D01*
X86934354Y-97219853D01*
X86786784Y-97318456D01*
X86622812Y-97386376D01*
X86473512Y-97416073D01*
X86448742Y-97421000D01*
X86271258Y-97421000D01*
X86246488Y-97416073D01*
X86097188Y-97386376D01*
X85933216Y-97318456D01*
X85785646Y-97219853D01*
X85660147Y-97094354D01*
X85561544Y-96946784D01*
X85493624Y-96782812D01*
X85459000Y-96608741D01*
X85459000Y-96431259D01*
X85493624Y-96257188D01*
X85561544Y-96093216D01*
X85660147Y-95945646D01*
X85785646Y-95820147D01*
X85933216Y-95721544D01*
X86097188Y-95653624D01*
X86246488Y-95623927D01*
X86271258Y-95619000D01*
X86448742Y-95619000D01*
X86473512Y-95623927D01*
G37*
G36*
X83933512Y-95623927D02*
G01*
X84082812Y-95653624D01*
X84246784Y-95721544D01*
X84394354Y-95820147D01*
X84519853Y-95945646D01*
X84618456Y-96093216D01*
X84686376Y-96257188D01*
X84721000Y-96431259D01*
X84721000Y-96608741D01*
X84686376Y-96782812D01*
X84618456Y-96946784D01*
X84519853Y-97094354D01*
X84394354Y-97219853D01*
X84246784Y-97318456D01*
X84082812Y-97386376D01*
X83933512Y-97416073D01*
X83908742Y-97421000D01*
X83731258Y-97421000D01*
X83706488Y-97416073D01*
X83557188Y-97386376D01*
X83393216Y-97318456D01*
X83245646Y-97219853D01*
X83120147Y-97094354D01*
X83021544Y-96946784D01*
X82953624Y-96782812D01*
X82919000Y-96608741D01*
X82919000Y-96431259D01*
X82953624Y-96257188D01*
X83021544Y-96093216D01*
X83120147Y-95945646D01*
X83245646Y-95820147D01*
X83393216Y-95721544D01*
X83557188Y-95653624D01*
X83706488Y-95623927D01*
X83731258Y-95619000D01*
X83908742Y-95619000D01*
X83933512Y-95623927D01*
G37*
G36*
X106674228Y-95723703D02*
G01*
X106829100Y-95787853D01*
X106968481Y-95880985D01*
X107087015Y-95999519D01*
X107180147Y-96138900D01*
X107244297Y-96293772D01*
X107277000Y-96458184D01*
X107277000Y-96625816D01*
X107244297Y-96790228D01*
X107180147Y-96945100D01*
X107087015Y-97084481D01*
X106968481Y-97203015D01*
X106829100Y-97296147D01*
X106674228Y-97360297D01*
X106509816Y-97393000D01*
X106342184Y-97393000D01*
X106177772Y-97360297D01*
X106022900Y-97296147D01*
X105883519Y-97203015D01*
X105764985Y-97084481D01*
X105671853Y-96945100D01*
X105607703Y-96790228D01*
X105575000Y-96625816D01*
X105575000Y-96458184D01*
X105607703Y-96293772D01*
X105671853Y-96138900D01*
X105764985Y-95999519D01*
X105883519Y-95880985D01*
X106022900Y-95787853D01*
X106177772Y-95723703D01*
X106342184Y-95691000D01*
X106509816Y-95691000D01*
X106674228Y-95723703D01*
G37*
G36*
X103675000Y-97071000D02*
G01*
X102573000Y-97071000D01*
X102573000Y-95969000D01*
X103675000Y-95969000D01*
X103675000Y-97071000D01*
G37*
G36*
X109438585Y-91950802D02*
G01*
X109588410Y-91980604D01*
X109870674Y-92097521D01*
X110124705Y-92267259D01*
X110340741Y-92483295D01*
X110510479Y-92737326D01*
X110627396Y-93019590D01*
X110687000Y-93319240D01*
X110687000Y-93624760D01*
X110627396Y-93924410D01*
X110510479Y-94206674D01*
X110340741Y-94460705D01*
X110124705Y-94676741D01*
X109870674Y-94846479D01*
X109588410Y-94963396D01*
X109438585Y-94993198D01*
X109288761Y-95023000D01*
X108983239Y-95023000D01*
X108833415Y-94993198D01*
X108683590Y-94963396D01*
X108401326Y-94846479D01*
X108147295Y-94676741D01*
X107931259Y-94460705D01*
X107761521Y-94206674D01*
X107644604Y-93924410D01*
X107585000Y-93624760D01*
X107585000Y-93319240D01*
X107644604Y-93019590D01*
X107761521Y-92737326D01*
X107931259Y-92483295D01*
X108147295Y-92267259D01*
X108401326Y-92097521D01*
X108683590Y-91980604D01*
X108833415Y-91950802D01*
X108983239Y-91921000D01*
X109288761Y-91921000D01*
X109438585Y-91950802D01*
G37*
G36*
X87261000Y-94881000D02*
G01*
X85459000Y-94881000D01*
X85459000Y-93079000D01*
X87261000Y-93079000D01*
X87261000Y-94881000D01*
G37*
G36*
X83933512Y-93083927D02*
G01*
X84082812Y-93113624D01*
X84246784Y-93181544D01*
X84394354Y-93280147D01*
X84519853Y-93405646D01*
X84618456Y-93553216D01*
X84686376Y-93717188D01*
X84721000Y-93891259D01*
X84721000Y-94068741D01*
X84686376Y-94242812D01*
X84618456Y-94406784D01*
X84519853Y-94554354D01*
X84394354Y-94679853D01*
X84246784Y-94778456D01*
X84082812Y-94846376D01*
X83933512Y-94876073D01*
X83908742Y-94881000D01*
X83731258Y-94881000D01*
X83706488Y-94876073D01*
X83557188Y-94846376D01*
X83393216Y-94778456D01*
X83245646Y-94679853D01*
X83120147Y-94554354D01*
X83021544Y-94406784D01*
X82953624Y-94242812D01*
X82919000Y-94068741D01*
X82919000Y-93891259D01*
X82953624Y-93717188D01*
X83021544Y-93553216D01*
X83120147Y-93405646D01*
X83245646Y-93280147D01*
X83393216Y-93181544D01*
X83557188Y-93113624D01*
X83706488Y-93083927D01*
X83731258Y-93079000D01*
X83908742Y-93079000D01*
X83933512Y-93083927D01*
G37*
G36*
X109700496Y-81668675D02*
G01*
X110011513Y-81797503D01*
X110011515Y-81797504D01*
X110291424Y-81984533D01*
X110529467Y-82222576D01*
X110716496Y-82502485D01*
X110716497Y-82502487D01*
X110845325Y-82813504D01*
X110911000Y-83143677D01*
X110911000Y-83480323D01*
X110845325Y-83810496D01*
X110716497Y-84121513D01*
X110716496Y-84121515D01*
X110529467Y-84401424D01*
X110291424Y-84639467D01*
X110011515Y-84826496D01*
X110011514Y-84826497D01*
X110011513Y-84826497D01*
X109700496Y-84955325D01*
X109370323Y-85021000D01*
X109033677Y-85021000D01*
X108703504Y-84955325D01*
X108392487Y-84826497D01*
X108392486Y-84826497D01*
X108392485Y-84826496D01*
X108112576Y-84639467D01*
X107874533Y-84401424D01*
X107687504Y-84121515D01*
X107687503Y-84121513D01*
X107558675Y-83810496D01*
X107493000Y-83480323D01*
X107493000Y-83143677D01*
X107558675Y-82813504D01*
X107687503Y-82502487D01*
X107687504Y-82502485D01*
X107874533Y-82222576D01*
X108112576Y-81984533D01*
X108392485Y-81797504D01*
X108392487Y-81797503D01*
X108703504Y-81668675D01*
X109033677Y-81603000D01*
X109370323Y-81603000D01*
X109700496Y-81668675D01*
G37*
G36*
X93077512Y-82923927D02*
G01*
X93226812Y-82953624D01*
X93390784Y-83021544D01*
X93538354Y-83120147D01*
X93663853Y-83245646D01*
X93762456Y-83393216D01*
X93830376Y-83557188D01*
X93865000Y-83731259D01*
X93865000Y-83908741D01*
X93830376Y-84082812D01*
X93762456Y-84246784D01*
X93663853Y-84394354D01*
X93538354Y-84519853D01*
X93390784Y-84618456D01*
X93226812Y-84686376D01*
X93077512Y-84716073D01*
X93052742Y-84721000D01*
X92875258Y-84721000D01*
X92850488Y-84716073D01*
X92701188Y-84686376D01*
X92537216Y-84618456D01*
X92389646Y-84519853D01*
X92264147Y-84394354D01*
X92165544Y-84246784D01*
X92097624Y-84082812D01*
X92063000Y-83908741D01*
X92063000Y-83731259D01*
X92097624Y-83557188D01*
X92165544Y-83393216D01*
X92264147Y-83245646D01*
X92389646Y-83120147D01*
X92537216Y-83021544D01*
X92701188Y-82953624D01*
X92850488Y-82923927D01*
X92875258Y-82919000D01*
X93052742Y-82919000D01*
X93077512Y-82923927D01*
G37*
G36*
X98157512Y-82923927D02*
G01*
X98306812Y-82953624D01*
X98470784Y-83021544D01*
X98618354Y-83120147D01*
X98743853Y-83245646D01*
X98842456Y-83393216D01*
X98910376Y-83557188D01*
X98945000Y-83731259D01*
X98945000Y-83908741D01*
X98910376Y-84082812D01*
X98842456Y-84246784D01*
X98743853Y-84394354D01*
X98618354Y-84519853D01*
X98470784Y-84618456D01*
X98306812Y-84686376D01*
X98157512Y-84716073D01*
X98132742Y-84721000D01*
X97955258Y-84721000D01*
X97930488Y-84716073D01*
X97781188Y-84686376D01*
X97617216Y-84618456D01*
X97469646Y-84519853D01*
X97344147Y-84394354D01*
X97245544Y-84246784D01*
X97177624Y-84082812D01*
X97143000Y-83908741D01*
X97143000Y-83731259D01*
X97177624Y-83557188D01*
X97245544Y-83393216D01*
X97344147Y-83245646D01*
X97469646Y-83120147D01*
X97617216Y-83021544D01*
X97781188Y-82953624D01*
X97930488Y-82923927D01*
X97955258Y-82919000D01*
X98132742Y-82919000D01*
X98157512Y-82923927D01*
G37*
G36*
X101485000Y-84721000D02*
G01*
X99683000Y-84721000D01*
X99683000Y-82919000D01*
X101485000Y-82919000D01*
X101485000Y-84721000D01*
G37*
G36*
X83933512Y-82923927D02*
G01*
X84082812Y-82953624D01*
X84246784Y-83021544D01*
X84394354Y-83120147D01*
X84519853Y-83245646D01*
X84618456Y-83393216D01*
X84686376Y-83557188D01*
X84721000Y-83731259D01*
X84721000Y-83908741D01*
X84686376Y-84082812D01*
X84618456Y-84246784D01*
X84519853Y-84394354D01*
X84394354Y-84519853D01*
X84246784Y-84618456D01*
X84082812Y-84686376D01*
X83933512Y-84716073D01*
X83908742Y-84721000D01*
X83731258Y-84721000D01*
X83706488Y-84716073D01*
X83557188Y-84686376D01*
X83393216Y-84618456D01*
X83245646Y-84519853D01*
X83120147Y-84394354D01*
X83021544Y-84246784D01*
X82953624Y-84082812D01*
X82919000Y-83908741D01*
X82919000Y-83731259D01*
X82953624Y-83557188D01*
X83021544Y-83393216D01*
X83120147Y-83245646D01*
X83245646Y-83120147D01*
X83393216Y-83021544D01*
X83557188Y-82953624D01*
X83706488Y-82923927D01*
X83731258Y-82919000D01*
X83908742Y-82919000D01*
X83933512Y-82923927D01*
G37*
G36*
X86473512Y-82923927D02*
G01*
X86622812Y-82953624D01*
X86786784Y-83021544D01*
X86934354Y-83120147D01*
X87059853Y-83245646D01*
X87158456Y-83393216D01*
X87226376Y-83557188D01*
X87261000Y-83731259D01*
X87261000Y-83908741D01*
X87226376Y-84082812D01*
X87158456Y-84246784D01*
X87059853Y-84394354D01*
X86934354Y-84519853D01*
X86786784Y-84618456D01*
X86622812Y-84686376D01*
X86473512Y-84716073D01*
X86448742Y-84721000D01*
X86271258Y-84721000D01*
X86246488Y-84716073D01*
X86097188Y-84686376D01*
X85933216Y-84618456D01*
X85785646Y-84519853D01*
X85660147Y-84394354D01*
X85561544Y-84246784D01*
X85493624Y-84082812D01*
X85459000Y-83908741D01*
X85459000Y-83731259D01*
X85493624Y-83557188D01*
X85561544Y-83393216D01*
X85660147Y-83245646D01*
X85785646Y-83120147D01*
X85933216Y-83021544D01*
X86097188Y-82953624D01*
X86246488Y-82923927D01*
X86271258Y-82919000D01*
X86448742Y-82919000D01*
X86473512Y-82923927D01*
G37*
G36*
X90537512Y-82923927D02*
G01*
X90686812Y-82953624D01*
X90850784Y-83021544D01*
X90998354Y-83120147D01*
X91123853Y-83245646D01*
X91222456Y-83393216D01*
X91290376Y-83557188D01*
X91325000Y-83731259D01*
X91325000Y-83908741D01*
X91290376Y-84082812D01*
X91222456Y-84246784D01*
X91123853Y-84394354D01*
X90998354Y-84519853D01*
X90850784Y-84618456D01*
X90686812Y-84686376D01*
X90537512Y-84716073D01*
X90512742Y-84721000D01*
X90335258Y-84721000D01*
X90310488Y-84716073D01*
X90161188Y-84686376D01*
X89997216Y-84618456D01*
X89849646Y-84519853D01*
X89724147Y-84394354D01*
X89625544Y-84246784D01*
X89557624Y-84082812D01*
X89523000Y-83908741D01*
X89523000Y-83731259D01*
X89557624Y-83557188D01*
X89625544Y-83393216D01*
X89724147Y-83245646D01*
X89849646Y-83120147D01*
X89997216Y-83021544D01*
X90161188Y-82953624D01*
X90310488Y-82923927D01*
X90335258Y-82919000D01*
X90512742Y-82919000D01*
X90537512Y-82923927D01*
G37*
G36*
X95617512Y-82923927D02*
G01*
X95766812Y-82953624D01*
X95930784Y-83021544D01*
X96078354Y-83120147D01*
X96203853Y-83245646D01*
X96302456Y-83393216D01*
X96370376Y-83557188D01*
X96405000Y-83731259D01*
X96405000Y-83908741D01*
X96370376Y-84082812D01*
X96302456Y-84246784D01*
X96203853Y-84394354D01*
X96078354Y-84519853D01*
X95930784Y-84618456D01*
X95766812Y-84686376D01*
X95617512Y-84716073D01*
X95592742Y-84721000D01*
X95415258Y-84721000D01*
X95390488Y-84716073D01*
X95241188Y-84686376D01*
X95077216Y-84618456D01*
X94929646Y-84519853D01*
X94804147Y-84394354D01*
X94705544Y-84246784D01*
X94637624Y-84082812D01*
X94603000Y-83908741D01*
X94603000Y-83731259D01*
X94637624Y-83557188D01*
X94705544Y-83393216D01*
X94804147Y-83245646D01*
X94929646Y-83120147D01*
X95077216Y-83021544D01*
X95241188Y-82953624D01*
X95390488Y-82923927D01*
X95415258Y-82919000D01*
X95592742Y-82919000D01*
X95617512Y-82923927D01*
G37*
G36*
X86473512Y-80383927D02*
G01*
X86622812Y-80413624D01*
X86786784Y-80481544D01*
X86934354Y-80580147D01*
X87059853Y-80705646D01*
X87158456Y-80853216D01*
X87226376Y-81017188D01*
X87261000Y-81191259D01*
X87261000Y-81368741D01*
X87226376Y-81542812D01*
X87158456Y-81706784D01*
X87059853Y-81854354D01*
X86934354Y-81979853D01*
X86786784Y-82078456D01*
X86622812Y-82146376D01*
X86473512Y-82176073D01*
X86448742Y-82181000D01*
X86271258Y-82181000D01*
X86246488Y-82176073D01*
X86097188Y-82146376D01*
X85933216Y-82078456D01*
X85785646Y-81979853D01*
X85660147Y-81854354D01*
X85561544Y-81706784D01*
X85493624Y-81542812D01*
X85459000Y-81368741D01*
X85459000Y-81191259D01*
X85493624Y-81017188D01*
X85561544Y-80853216D01*
X85660147Y-80705646D01*
X85785646Y-80580147D01*
X85933216Y-80481544D01*
X86097188Y-80413624D01*
X86246488Y-80383927D01*
X86271258Y-80379000D01*
X86448742Y-80379000D01*
X86473512Y-80383927D01*
G37*
G36*
X83933512Y-80383927D02*
G01*
X84082812Y-80413624D01*
X84246784Y-80481544D01*
X84394354Y-80580147D01*
X84519853Y-80705646D01*
X84618456Y-80853216D01*
X84686376Y-81017188D01*
X84721000Y-81191259D01*
X84721000Y-81368741D01*
X84686376Y-81542812D01*
X84618456Y-81706784D01*
X84519853Y-81854354D01*
X84394354Y-81979853D01*
X84246784Y-82078456D01*
X84082812Y-82146376D01*
X83933512Y-82176073D01*
X83908742Y-82181000D01*
X83731258Y-82181000D01*
X83706488Y-82176073D01*
X83557188Y-82146376D01*
X83393216Y-82078456D01*
X83245646Y-81979853D01*
X83120147Y-81854354D01*
X83021544Y-81706784D01*
X82953624Y-81542812D01*
X82919000Y-81368741D01*
X82919000Y-81191259D01*
X82953624Y-81017188D01*
X83021544Y-80853216D01*
X83120147Y-80705646D01*
X83245646Y-80580147D01*
X83393216Y-80481544D01*
X83557188Y-80413624D01*
X83706488Y-80383927D01*
X83731258Y-80379000D01*
X83908742Y-80379000D01*
X83933512Y-80383927D01*
G37*
G36*
X101897000Y-79799000D02*
G01*
X100795000Y-79799000D01*
X100795000Y-78697000D01*
X101897000Y-78697000D01*
X101897000Y-79799000D01*
G37*
G36*
X86473512Y-77843927D02*
G01*
X86622812Y-77873624D01*
X86786784Y-77941544D01*
X86934354Y-78040147D01*
X87059853Y-78165646D01*
X87158456Y-78313216D01*
X87226376Y-78477188D01*
X87261000Y-78651259D01*
X87261000Y-78828741D01*
X87226376Y-79002812D01*
X87158456Y-79166784D01*
X87059853Y-79314354D01*
X86934354Y-79439853D01*
X86786784Y-79538456D01*
X86622812Y-79606376D01*
X86473512Y-79636073D01*
X86448742Y-79641000D01*
X86271258Y-79641000D01*
X86246488Y-79636073D01*
X86097188Y-79606376D01*
X85933216Y-79538456D01*
X85785646Y-79439853D01*
X85660147Y-79314354D01*
X85561544Y-79166784D01*
X85493624Y-79002812D01*
X85459000Y-78828741D01*
X85459000Y-78651259D01*
X85493624Y-78477188D01*
X85561544Y-78313216D01*
X85660147Y-78165646D01*
X85785646Y-78040147D01*
X85933216Y-77941544D01*
X86097188Y-77873624D01*
X86246488Y-77843927D01*
X86271258Y-77839000D01*
X86448742Y-77839000D01*
X86473512Y-77843927D01*
G37*
G36*
X83933512Y-77843927D02*
G01*
X84082812Y-77873624D01*
X84246784Y-77941544D01*
X84394354Y-78040147D01*
X84519853Y-78165646D01*
X84618456Y-78313216D01*
X84686376Y-78477188D01*
X84721000Y-78651259D01*
X84721000Y-78828741D01*
X84686376Y-79002812D01*
X84618456Y-79166784D01*
X84519853Y-79314354D01*
X84394354Y-79439853D01*
X84246784Y-79538456D01*
X84082812Y-79606376D01*
X83933512Y-79636073D01*
X83908742Y-79641000D01*
X83731258Y-79641000D01*
X83706488Y-79636073D01*
X83557188Y-79606376D01*
X83393216Y-79538456D01*
X83245646Y-79439853D01*
X83120147Y-79314354D01*
X83021544Y-79166784D01*
X82953624Y-79002812D01*
X82919000Y-78828741D01*
X82919000Y-78651259D01*
X82953624Y-78477188D01*
X83021544Y-78313216D01*
X83120147Y-78165646D01*
X83245646Y-78040147D01*
X83393216Y-77941544D01*
X83557188Y-77873624D01*
X83706488Y-77843927D01*
X83731258Y-77839000D01*
X83908742Y-77839000D01*
X83933512Y-77843927D01*
G37*
G36*
X104641244Y-77751699D02*
G01*
X104715142Y-77766398D01*
X104854364Y-77824065D01*
X104979659Y-77907785D01*
X105086215Y-78014341D01*
X105169935Y-78139636D01*
X105227602Y-78278858D01*
X105257000Y-78426654D01*
X105257000Y-78577346D01*
X105227602Y-78725142D01*
X105169935Y-78864364D01*
X105086215Y-78989659D01*
X104979659Y-79096215D01*
X104854364Y-79179935D01*
X104715142Y-79237602D01*
X104641244Y-79252301D01*
X104567347Y-79267000D01*
X104416653Y-79267000D01*
X104342756Y-79252301D01*
X104268858Y-79237602D01*
X104129636Y-79179935D01*
X104004341Y-79096215D01*
X103897785Y-78989659D01*
X103814065Y-78864364D01*
X103756398Y-78725142D01*
X103727000Y-78577346D01*
X103727000Y-78426654D01*
X103756398Y-78278858D01*
X103814065Y-78139636D01*
X103897785Y-78014341D01*
X104004341Y-77907785D01*
X104129636Y-77824065D01*
X104268858Y-77766398D01*
X104342756Y-77751699D01*
X104416653Y-77737000D01*
X104567347Y-77737000D01*
X104641244Y-77751699D01*
G37*
G36*
X106641244Y-77751699D02*
G01*
X106715142Y-77766398D01*
X106854364Y-77824065D01*
X106979659Y-77907785D01*
X107086215Y-78014341D01*
X107169935Y-78139636D01*
X107227602Y-78278858D01*
X107257000Y-78426654D01*
X107257000Y-78577346D01*
X107227602Y-78725142D01*
X107169935Y-78864364D01*
X107086215Y-78989659D01*
X106979659Y-79096215D01*
X106854364Y-79179935D01*
X106715142Y-79237602D01*
X106641244Y-79252301D01*
X106567347Y-79267000D01*
X106416653Y-79267000D01*
X106342756Y-79252301D01*
X106268858Y-79237602D01*
X106129636Y-79179935D01*
X106004341Y-79096215D01*
X105897785Y-78989659D01*
X105814065Y-78864364D01*
X105756398Y-78725142D01*
X105727000Y-78577346D01*
X105727000Y-78426654D01*
X105756398Y-78278858D01*
X105814065Y-78139636D01*
X105897785Y-78014341D01*
X106004341Y-77907785D01*
X106129636Y-77824065D01*
X106268858Y-77766398D01*
X106342756Y-77751699D01*
X106416653Y-77737000D01*
X106567347Y-77737000D01*
X106641244Y-77751699D01*
G37*
G36*
X86473512Y-75303927D02*
G01*
X86622812Y-75333624D01*
X86786784Y-75401544D01*
X86934354Y-75500147D01*
X87059853Y-75625646D01*
X87158456Y-75773216D01*
X87226376Y-75937188D01*
X87261000Y-76111259D01*
X87261000Y-76288741D01*
X87226376Y-76462812D01*
X87158456Y-76626784D01*
X87059853Y-76774354D01*
X86934354Y-76899853D01*
X86786784Y-76998456D01*
X86622812Y-77066376D01*
X86473512Y-77096073D01*
X86448742Y-77101000D01*
X86271258Y-77101000D01*
X86246488Y-77096073D01*
X86097188Y-77066376D01*
X85933216Y-76998456D01*
X85785646Y-76899853D01*
X85660147Y-76774354D01*
X85561544Y-76626784D01*
X85493624Y-76462812D01*
X85459000Y-76288741D01*
X85459000Y-76111259D01*
X85493624Y-75937188D01*
X85561544Y-75773216D01*
X85660147Y-75625646D01*
X85785646Y-75500147D01*
X85933216Y-75401544D01*
X86097188Y-75333624D01*
X86246488Y-75303927D01*
X86271258Y-75299000D01*
X86448742Y-75299000D01*
X86473512Y-75303927D01*
G37*
G36*
X83933512Y-75303927D02*
G01*
X84082812Y-75333624D01*
X84246784Y-75401544D01*
X84394354Y-75500147D01*
X84519853Y-75625646D01*
X84618456Y-75773216D01*
X84686376Y-75937188D01*
X84721000Y-76111259D01*
X84721000Y-76288741D01*
X84686376Y-76462812D01*
X84618456Y-76626784D01*
X84519853Y-76774354D01*
X84394354Y-76899853D01*
X84246784Y-76998456D01*
X84082812Y-77066376D01*
X83933512Y-77096073D01*
X83908742Y-77101000D01*
X83731258Y-77101000D01*
X83706488Y-77096073D01*
X83557188Y-77066376D01*
X83393216Y-76998456D01*
X83245646Y-76899853D01*
X83120147Y-76774354D01*
X83021544Y-76626784D01*
X82953624Y-76462812D01*
X82919000Y-76288741D01*
X82919000Y-76111259D01*
X82953624Y-75937188D01*
X83021544Y-75773216D01*
X83120147Y-75625646D01*
X83245646Y-75500147D01*
X83393216Y-75401544D01*
X83557188Y-75333624D01*
X83706488Y-75303927D01*
X83731258Y-75299000D01*
X83908742Y-75299000D01*
X83933512Y-75303927D01*
G37*
G36*
X106641244Y-75251699D02*
G01*
X106715142Y-75266398D01*
X106854364Y-75324065D01*
X106979659Y-75407785D01*
X107086215Y-75514341D01*
X107169935Y-75639636D01*
X107227602Y-75778858D01*
X107257000Y-75926654D01*
X107257000Y-76077346D01*
X107227602Y-76225142D01*
X107169935Y-76364364D01*
X107086215Y-76489659D01*
X106979659Y-76596215D01*
X106854364Y-76679935D01*
X106715142Y-76737602D01*
X106641244Y-76752301D01*
X106567347Y-76767000D01*
X106416653Y-76767000D01*
X106342756Y-76752301D01*
X106268858Y-76737602D01*
X106129636Y-76679935D01*
X106004341Y-76596215D01*
X105897785Y-76489659D01*
X105814065Y-76364364D01*
X105756398Y-76225142D01*
X105727000Y-76077346D01*
X105727000Y-75926654D01*
X105756398Y-75778858D01*
X105814065Y-75639636D01*
X105897785Y-75514341D01*
X106004341Y-75407785D01*
X106129636Y-75324065D01*
X106268858Y-75266398D01*
X106342756Y-75251699D01*
X106416653Y-75237000D01*
X106567347Y-75237000D01*
X106641244Y-75251699D01*
G37*
G36*
X105257000Y-76767000D02*
G01*
X103727000Y-76767000D01*
X103727000Y-75237000D01*
X105257000Y-75237000D01*
X105257000Y-76767000D01*
G37*
G36*
X101897000Y-75227000D02*
G01*
X100795000Y-75227000D01*
X100795000Y-74125000D01*
X101897000Y-74125000D01*
X101897000Y-75227000D01*
G37*
G36*
X83933512Y-72763927D02*
G01*
X84082812Y-72793624D01*
X84246784Y-72861544D01*
X84394354Y-72960147D01*
X84519853Y-73085646D01*
X84618456Y-73233216D01*
X84686376Y-73397188D01*
X84721000Y-73571259D01*
X84721000Y-73748741D01*
X84686376Y-73922812D01*
X84618456Y-74086784D01*
X84519853Y-74234354D01*
X84394354Y-74359853D01*
X84246784Y-74458456D01*
X84082812Y-74526376D01*
X83933512Y-74556073D01*
X83908742Y-74561000D01*
X83731258Y-74561000D01*
X83706488Y-74556073D01*
X83557188Y-74526376D01*
X83393216Y-74458456D01*
X83245646Y-74359853D01*
X83120147Y-74234354D01*
X83021544Y-74086784D01*
X82953624Y-73922812D01*
X82919000Y-73748741D01*
X82919000Y-73571259D01*
X82953624Y-73397188D01*
X83021544Y-73233216D01*
X83120147Y-73085646D01*
X83245646Y-72960147D01*
X83393216Y-72861544D01*
X83557188Y-72793624D01*
X83706488Y-72763927D01*
X83731258Y-72759000D01*
X83908742Y-72759000D01*
X83933512Y-72763927D01*
G37*
G36*
X86473512Y-72763927D02*
G01*
X86622812Y-72793624D01*
X86786784Y-72861544D01*
X86934354Y-72960147D01*
X87059853Y-73085646D01*
X87158456Y-73233216D01*
X87226376Y-73397188D01*
X87261000Y-73571259D01*
X87261000Y-73748741D01*
X87226376Y-73922812D01*
X87158456Y-74086784D01*
X87059853Y-74234354D01*
X86934354Y-74359853D01*
X86786784Y-74458456D01*
X86622812Y-74526376D01*
X86473512Y-74556073D01*
X86448742Y-74561000D01*
X86271258Y-74561000D01*
X86246488Y-74556073D01*
X86097188Y-74526376D01*
X85933216Y-74458456D01*
X85785646Y-74359853D01*
X85660147Y-74234354D01*
X85561544Y-74086784D01*
X85493624Y-73922812D01*
X85459000Y-73748741D01*
X85459000Y-73571259D01*
X85493624Y-73397188D01*
X85561544Y-73233216D01*
X85660147Y-73085646D01*
X85785646Y-72960147D01*
X85933216Y-72861544D01*
X86097188Y-72793624D01*
X86246488Y-72763927D01*
X86271258Y-72759000D01*
X86448742Y-72759000D01*
X86473512Y-72763927D01*
G37*
G36*
X109700496Y-69628675D02*
G01*
X110011513Y-69757503D01*
X110011515Y-69757504D01*
X110291424Y-69944533D01*
X110529467Y-70182576D01*
X110688207Y-70420148D01*
X110716497Y-70462487D01*
X110845325Y-70773504D01*
X110911000Y-71103677D01*
X110911000Y-71440323D01*
X110845325Y-71770496D01*
X110755904Y-71986376D01*
X110716496Y-72081515D01*
X110529467Y-72361424D01*
X110291424Y-72599467D01*
X110011515Y-72786496D01*
X110011514Y-72786497D01*
X110011513Y-72786497D01*
X109700496Y-72915325D01*
X109370323Y-72981000D01*
X109033677Y-72981000D01*
X108703504Y-72915325D01*
X108392487Y-72786497D01*
X108392486Y-72786497D01*
X108392485Y-72786496D01*
X108112576Y-72599467D01*
X107874533Y-72361424D01*
X107687504Y-72081515D01*
X107648096Y-71986376D01*
X107558675Y-71770496D01*
X107493000Y-71440323D01*
X107493000Y-71103677D01*
X107558675Y-70773504D01*
X107687503Y-70462487D01*
X107715793Y-70420148D01*
X107874533Y-70182576D01*
X108112576Y-69944533D01*
X108392485Y-69757504D01*
X108392487Y-69757503D01*
X108703504Y-69628675D01*
X109033677Y-69563000D01*
X109370323Y-69563000D01*
X109700496Y-69628675D01*
G37*
G36*
X83933512Y-70223927D02*
G01*
X84082812Y-70253624D01*
X84246784Y-70321544D01*
X84394354Y-70420147D01*
X84519853Y-70545646D01*
X84618456Y-70693216D01*
X84686376Y-70857188D01*
X84721000Y-71031259D01*
X84721000Y-71208741D01*
X84686376Y-71382812D01*
X84618456Y-71546784D01*
X84519853Y-71694354D01*
X84394354Y-71819853D01*
X84246784Y-71918456D01*
X84082812Y-71986376D01*
X83933512Y-72016073D01*
X83908742Y-72021000D01*
X83731258Y-72021000D01*
X83706488Y-72016073D01*
X83557188Y-71986376D01*
X83393216Y-71918456D01*
X83245646Y-71819853D01*
X83120147Y-71694354D01*
X83021544Y-71546784D01*
X82953624Y-71382812D01*
X82919000Y-71208741D01*
X82919000Y-71031259D01*
X82953624Y-70857188D01*
X83021544Y-70693216D01*
X83120147Y-70545646D01*
X83245646Y-70420147D01*
X83393216Y-70321544D01*
X83557188Y-70253624D01*
X83706488Y-70223927D01*
X83731258Y-70219000D01*
X83908742Y-70219000D01*
X83933512Y-70223927D01*
G37*
G36*
X87261000Y-72021000D02*
G01*
X85459000Y-72021000D01*
X85459000Y-70219000D01*
X87261000Y-70219000D01*
X87261000Y-72021000D01*
G37*
M02*
