G04 #@! TF.GenerationSoftware,KiCad,Pcbnew,5.1.6-c6e7f7d~86~ubuntu18.04.1*
G04 #@! TF.CreationDate,2021-05-10T20:55:15-07:00*
G04 #@! TF.ProjectId,usb_pmod,7573625f-706d-46f6-942e-6b696361645f,rev?*
G04 #@! TF.SameCoordinates,Original*
G04 #@! TF.FileFunction,Profile,NP*
%FSLAX46Y46*%
G04 Gerber Fmt 4.6, Leading zero omitted, Abs format (unit mm)*
G04 Created by KiCad (PCBNEW 5.1.6-c6e7f7d~86~ubuntu18.04.1) date 2021-05-10 20:55:15*
%MOMM*%
%LPD*%
G01*
G04 APERTURE LIST*
G04 #@! TA.AperFunction,Profile*
%ADD10C,0.050000*%
G04 #@! TD*
G04 APERTURE END LIST*
D10*
X83566000Y-108966000D02*
G75*
G02*
X81280000Y-106680000I0J2286000D01*
G01*
X81280000Y-93472000D02*
G75*
G02*
X83566000Y-91186000I2286000J0D01*
G01*
X83566000Y-86106000D02*
G75*
G02*
X81280000Y-83820000I0J2286000D01*
G01*
X81280000Y-70866000D02*
G75*
G02*
X83566000Y-68580000I2286000J0D01*
G01*
X116332000Y-91186000D02*
G75*
G02*
X118618000Y-93472000I0J-2286000D01*
G01*
X116332000Y-68580000D02*
G75*
G02*
X118618000Y-70866000I0J-2286000D01*
G01*
X118618000Y-106680000D02*
G75*
G02*
X116332000Y-108966000I-2286000J0D01*
G01*
X118618000Y-83820000D02*
G75*
G02*
X116332000Y-86106000I-2286000J0D01*
G01*
X109220000Y-88900000D02*
X109220000Y-88392000D01*
X109220000Y-88392000D02*
G75*
G02*
X111506000Y-86106000I2286000J0D01*
G01*
X111506000Y-91186000D02*
G75*
G02*
X109220000Y-88900000I0J2286000D01*
G01*
X90678000Y-88900000D02*
X90678000Y-88392000D01*
X116332000Y-91186000D02*
X111506000Y-91186000D01*
X88392000Y-91186000D02*
X83566000Y-91186000D01*
X90678000Y-88900000D02*
G75*
G02*
X88392000Y-91186000I-2286000J0D01*
G01*
X88392000Y-86106000D02*
G75*
G02*
X90678000Y-88392000I0J-2286000D01*
G01*
X116332000Y-86106000D02*
X111506000Y-86106000D01*
X118618000Y-106680000D02*
X118618000Y-93472000D01*
X81280000Y-106680000D02*
X81280000Y-93472000D01*
X88392000Y-86106000D02*
X83566000Y-86106000D01*
X118618000Y-83820000D02*
X118618000Y-70866000D01*
X81280000Y-83820000D02*
X81280000Y-70866000D01*
X116332000Y-108966000D02*
X83566000Y-108966000D01*
X83566000Y-68580000D02*
X116332000Y-68580000D01*
M02*
