G04 #@! TF.GenerationSoftware,KiCad,Pcbnew,5.1.6-c6e7f7d~86~ubuntu18.04.1*
G04 #@! TF.CreationDate,2021-05-10T21:06:11-07:00*
G04 #@! TF.ProjectId,usb_host_pmod,7573625f-686f-4737-945f-706d6f642e6b,rev?*
G04 #@! TF.SameCoordinates,Original*
G04 #@! TF.FileFunction,Soldermask,Bot*
G04 #@! TF.FilePolarity,Negative*
%FSLAX46Y46*%
G04 Gerber Fmt 4.6, Leading zero omitted, Abs format (unit mm)*
G04 Created by KiCad (PCBNEW 5.1.6-c6e7f7d~86~ubuntu18.04.1) date 2021-05-10 21:06:11*
%MOMM*%
%LPD*%
G01*
G04 APERTURE LIST*
%ADD10C,0.100000*%
G04 APERTURE END LIST*
D10*
G36*
X109438585Y-105090802D02*
G01*
X109588410Y-105120604D01*
X109870674Y-105237521D01*
X110124705Y-105407259D01*
X110340741Y-105623295D01*
X110510479Y-105877326D01*
X110627396Y-106159590D01*
X110687000Y-106459240D01*
X110687000Y-106764760D01*
X110627396Y-107064410D01*
X110510479Y-107346674D01*
X110340741Y-107600705D01*
X110124705Y-107816741D01*
X109870674Y-107986479D01*
X109588410Y-108103396D01*
X109438585Y-108133198D01*
X109288761Y-108163000D01*
X108983239Y-108163000D01*
X108833415Y-108133198D01*
X108683590Y-108103396D01*
X108401326Y-107986479D01*
X108147295Y-107816741D01*
X107931259Y-107600705D01*
X107761521Y-107346674D01*
X107644604Y-107064410D01*
X107585000Y-106764760D01*
X107585000Y-106459240D01*
X107644604Y-106159590D01*
X107761521Y-105877326D01*
X107931259Y-105623295D01*
X108147295Y-105407259D01*
X108401326Y-105237521D01*
X108683590Y-105120604D01*
X108833415Y-105090802D01*
X108983239Y-105061000D01*
X109288761Y-105061000D01*
X109438585Y-105090802D01*
G37*
G36*
X101485000Y-107581000D02*
G01*
X99683000Y-107581000D01*
X99683000Y-105779000D01*
X101485000Y-105779000D01*
X101485000Y-107581000D01*
G37*
G36*
X90537512Y-105783927D02*
G01*
X90686812Y-105813624D01*
X90850784Y-105881544D01*
X90998354Y-105980147D01*
X91123853Y-106105646D01*
X91222456Y-106253216D01*
X91290376Y-106417188D01*
X91325000Y-106591259D01*
X91325000Y-106768741D01*
X91290376Y-106942812D01*
X91222456Y-107106784D01*
X91123853Y-107254354D01*
X90998354Y-107379853D01*
X90850784Y-107478456D01*
X90686812Y-107546376D01*
X90537512Y-107576073D01*
X90512742Y-107581000D01*
X90335258Y-107581000D01*
X90310488Y-107576073D01*
X90161188Y-107546376D01*
X89997216Y-107478456D01*
X89849646Y-107379853D01*
X89724147Y-107254354D01*
X89625544Y-107106784D01*
X89557624Y-106942812D01*
X89523000Y-106768741D01*
X89523000Y-106591259D01*
X89557624Y-106417188D01*
X89625544Y-106253216D01*
X89724147Y-106105646D01*
X89849646Y-105980147D01*
X89997216Y-105881544D01*
X90161188Y-105813624D01*
X90310488Y-105783927D01*
X90335258Y-105779000D01*
X90512742Y-105779000D01*
X90537512Y-105783927D01*
G37*
G36*
X93077512Y-105783927D02*
G01*
X93226812Y-105813624D01*
X93390784Y-105881544D01*
X93538354Y-105980147D01*
X93663853Y-106105646D01*
X93762456Y-106253216D01*
X93830376Y-106417188D01*
X93865000Y-106591259D01*
X93865000Y-106768741D01*
X93830376Y-106942812D01*
X93762456Y-107106784D01*
X93663853Y-107254354D01*
X93538354Y-107379853D01*
X93390784Y-107478456D01*
X93226812Y-107546376D01*
X93077512Y-107576073D01*
X93052742Y-107581000D01*
X92875258Y-107581000D01*
X92850488Y-107576073D01*
X92701188Y-107546376D01*
X92537216Y-107478456D01*
X92389646Y-107379853D01*
X92264147Y-107254354D01*
X92165544Y-107106784D01*
X92097624Y-106942812D01*
X92063000Y-106768741D01*
X92063000Y-106591259D01*
X92097624Y-106417188D01*
X92165544Y-106253216D01*
X92264147Y-106105646D01*
X92389646Y-105980147D01*
X92537216Y-105881544D01*
X92701188Y-105813624D01*
X92850488Y-105783927D01*
X92875258Y-105779000D01*
X93052742Y-105779000D01*
X93077512Y-105783927D01*
G37*
G36*
X95617512Y-105783927D02*
G01*
X95766812Y-105813624D01*
X95930784Y-105881544D01*
X96078354Y-105980147D01*
X96203853Y-106105646D01*
X96302456Y-106253216D01*
X96370376Y-106417188D01*
X96405000Y-106591259D01*
X96405000Y-106768741D01*
X96370376Y-106942812D01*
X96302456Y-107106784D01*
X96203853Y-107254354D01*
X96078354Y-107379853D01*
X95930784Y-107478456D01*
X95766812Y-107546376D01*
X95617512Y-107576073D01*
X95592742Y-107581000D01*
X95415258Y-107581000D01*
X95390488Y-107576073D01*
X95241188Y-107546376D01*
X95077216Y-107478456D01*
X94929646Y-107379853D01*
X94804147Y-107254354D01*
X94705544Y-107106784D01*
X94637624Y-106942812D01*
X94603000Y-106768741D01*
X94603000Y-106591259D01*
X94637624Y-106417188D01*
X94705544Y-106253216D01*
X94804147Y-106105646D01*
X94929646Y-105980147D01*
X95077216Y-105881544D01*
X95241188Y-105813624D01*
X95390488Y-105783927D01*
X95415258Y-105779000D01*
X95592742Y-105779000D01*
X95617512Y-105783927D01*
G37*
G36*
X98157512Y-105783927D02*
G01*
X98306812Y-105813624D01*
X98470784Y-105881544D01*
X98618354Y-105980147D01*
X98743853Y-106105646D01*
X98842456Y-106253216D01*
X98910376Y-106417188D01*
X98945000Y-106591259D01*
X98945000Y-106768741D01*
X98910376Y-106942812D01*
X98842456Y-107106784D01*
X98743853Y-107254354D01*
X98618354Y-107379853D01*
X98470784Y-107478456D01*
X98306812Y-107546376D01*
X98157512Y-107576073D01*
X98132742Y-107581000D01*
X97955258Y-107581000D01*
X97930488Y-107576073D01*
X97781188Y-107546376D01*
X97617216Y-107478456D01*
X97469646Y-107379853D01*
X97344147Y-107254354D01*
X97245544Y-107106784D01*
X97177624Y-106942812D01*
X97143000Y-106768741D01*
X97143000Y-106591259D01*
X97177624Y-106417188D01*
X97245544Y-106253216D01*
X97344147Y-106105646D01*
X97469646Y-105980147D01*
X97617216Y-105881544D01*
X97781188Y-105813624D01*
X97930488Y-105783927D01*
X97955258Y-105779000D01*
X98132742Y-105779000D01*
X98157512Y-105783927D01*
G37*
G36*
X83933512Y-105783927D02*
G01*
X84082812Y-105813624D01*
X84246784Y-105881544D01*
X84394354Y-105980147D01*
X84519853Y-106105646D01*
X84618456Y-106253216D01*
X84686376Y-106417188D01*
X84721000Y-106591259D01*
X84721000Y-106768741D01*
X84686376Y-106942812D01*
X84618456Y-107106784D01*
X84519853Y-107254354D01*
X84394354Y-107379853D01*
X84246784Y-107478456D01*
X84082812Y-107546376D01*
X83933512Y-107576073D01*
X83908742Y-107581000D01*
X83731258Y-107581000D01*
X83706488Y-107576073D01*
X83557188Y-107546376D01*
X83393216Y-107478456D01*
X83245646Y-107379853D01*
X83120147Y-107254354D01*
X83021544Y-107106784D01*
X82953624Y-106942812D01*
X82919000Y-106768741D01*
X82919000Y-106591259D01*
X82953624Y-106417188D01*
X83021544Y-106253216D01*
X83120147Y-106105646D01*
X83245646Y-105980147D01*
X83393216Y-105881544D01*
X83557188Y-105813624D01*
X83706488Y-105783927D01*
X83731258Y-105779000D01*
X83908742Y-105779000D01*
X83933512Y-105783927D01*
G37*
G36*
X86473512Y-105783927D02*
G01*
X86622812Y-105813624D01*
X86786784Y-105881544D01*
X86934354Y-105980147D01*
X87059853Y-106105646D01*
X87158456Y-106253216D01*
X87226376Y-106417188D01*
X87261000Y-106591259D01*
X87261000Y-106768741D01*
X87226376Y-106942812D01*
X87158456Y-107106784D01*
X87059853Y-107254354D01*
X86934354Y-107379853D01*
X86786784Y-107478456D01*
X86622812Y-107546376D01*
X86473512Y-107576073D01*
X86448742Y-107581000D01*
X86271258Y-107581000D01*
X86246488Y-107576073D01*
X86097188Y-107546376D01*
X85933216Y-107478456D01*
X85785646Y-107379853D01*
X85660147Y-107254354D01*
X85561544Y-107106784D01*
X85493624Y-106942812D01*
X85459000Y-106768741D01*
X85459000Y-106591259D01*
X85493624Y-106417188D01*
X85561544Y-106253216D01*
X85660147Y-106105646D01*
X85785646Y-105980147D01*
X85933216Y-105881544D01*
X86097188Y-105813624D01*
X86246488Y-105783927D01*
X86271258Y-105779000D01*
X86448742Y-105779000D01*
X86473512Y-105783927D01*
G37*
G36*
X86473512Y-103243927D02*
G01*
X86622812Y-103273624D01*
X86786784Y-103341544D01*
X86934354Y-103440147D01*
X87059853Y-103565646D01*
X87158456Y-103713216D01*
X87226376Y-103877188D01*
X87261000Y-104051259D01*
X87261000Y-104228741D01*
X87226376Y-104402812D01*
X87158456Y-104566784D01*
X87059853Y-104714354D01*
X86934354Y-104839853D01*
X86786784Y-104938456D01*
X86622812Y-105006376D01*
X86473512Y-105036073D01*
X86448742Y-105041000D01*
X86271258Y-105041000D01*
X86246488Y-105036073D01*
X86097188Y-105006376D01*
X85933216Y-104938456D01*
X85785646Y-104839853D01*
X85660147Y-104714354D01*
X85561544Y-104566784D01*
X85493624Y-104402812D01*
X85459000Y-104228741D01*
X85459000Y-104051259D01*
X85493624Y-103877188D01*
X85561544Y-103713216D01*
X85660147Y-103565646D01*
X85785646Y-103440147D01*
X85933216Y-103341544D01*
X86097188Y-103273624D01*
X86246488Y-103243927D01*
X86271258Y-103239000D01*
X86448742Y-103239000D01*
X86473512Y-103243927D01*
G37*
G36*
X83933512Y-103243927D02*
G01*
X84082812Y-103273624D01*
X84246784Y-103341544D01*
X84394354Y-103440147D01*
X84519853Y-103565646D01*
X84618456Y-103713216D01*
X84686376Y-103877188D01*
X84721000Y-104051259D01*
X84721000Y-104228741D01*
X84686376Y-104402812D01*
X84618456Y-104566784D01*
X84519853Y-104714354D01*
X84394354Y-104839853D01*
X84246784Y-104938456D01*
X84082812Y-105006376D01*
X83933512Y-105036073D01*
X83908742Y-105041000D01*
X83731258Y-105041000D01*
X83706488Y-105036073D01*
X83557188Y-105006376D01*
X83393216Y-104938456D01*
X83245646Y-104839853D01*
X83120147Y-104714354D01*
X83021544Y-104566784D01*
X82953624Y-104402812D01*
X82919000Y-104228741D01*
X82919000Y-104051259D01*
X82953624Y-103877188D01*
X83021544Y-103713216D01*
X83120147Y-103565646D01*
X83245646Y-103440147D01*
X83393216Y-103341544D01*
X83557188Y-103273624D01*
X83706488Y-103243927D01*
X83731258Y-103239000D01*
X83908742Y-103239000D01*
X83933512Y-103243927D01*
G37*
G36*
X107277000Y-104393000D02*
G01*
X105575000Y-104393000D01*
X105575000Y-102691000D01*
X107277000Y-102691000D01*
X107277000Y-104393000D01*
G37*
G36*
X83933512Y-100703927D02*
G01*
X84082812Y-100733624D01*
X84246784Y-100801544D01*
X84394354Y-100900147D01*
X84519853Y-101025646D01*
X84618456Y-101173216D01*
X84686376Y-101337188D01*
X84721000Y-101511259D01*
X84721000Y-101688741D01*
X84686376Y-101862812D01*
X84618456Y-102026784D01*
X84519853Y-102174354D01*
X84394354Y-102299853D01*
X84246784Y-102398456D01*
X84082812Y-102466376D01*
X83933512Y-102496073D01*
X83908742Y-102501000D01*
X83731258Y-102501000D01*
X83706488Y-102496073D01*
X83557188Y-102466376D01*
X83393216Y-102398456D01*
X83245646Y-102299853D01*
X83120147Y-102174354D01*
X83021544Y-102026784D01*
X82953624Y-101862812D01*
X82919000Y-101688741D01*
X82919000Y-101511259D01*
X82953624Y-101337188D01*
X83021544Y-101173216D01*
X83120147Y-101025646D01*
X83245646Y-100900147D01*
X83393216Y-100801544D01*
X83557188Y-100733624D01*
X83706488Y-100703927D01*
X83731258Y-100699000D01*
X83908742Y-100699000D01*
X83933512Y-100703927D01*
G37*
G36*
X86473512Y-100703927D02*
G01*
X86622812Y-100733624D01*
X86786784Y-100801544D01*
X86934354Y-100900147D01*
X87059853Y-101025646D01*
X87158456Y-101173216D01*
X87226376Y-101337188D01*
X87261000Y-101511259D01*
X87261000Y-101688741D01*
X87226376Y-101862812D01*
X87158456Y-102026784D01*
X87059853Y-102174354D01*
X86934354Y-102299853D01*
X86786784Y-102398456D01*
X86622812Y-102466376D01*
X86473512Y-102496073D01*
X86448742Y-102501000D01*
X86271258Y-102501000D01*
X86246488Y-102496073D01*
X86097188Y-102466376D01*
X85933216Y-102398456D01*
X85785646Y-102299853D01*
X85660147Y-102174354D01*
X85561544Y-102026784D01*
X85493624Y-101862812D01*
X85459000Y-101688741D01*
X85459000Y-101511259D01*
X85493624Y-101337188D01*
X85561544Y-101173216D01*
X85660147Y-101025646D01*
X85785646Y-100900147D01*
X85933216Y-100801544D01*
X86097188Y-100733624D01*
X86246488Y-100703927D01*
X86271258Y-100699000D01*
X86448742Y-100699000D01*
X86473512Y-100703927D01*
G37*
G36*
X106674228Y-100223703D02*
G01*
X106829100Y-100287853D01*
X106968481Y-100380985D01*
X107087015Y-100499519D01*
X107180147Y-100638900D01*
X107244297Y-100793772D01*
X107277000Y-100958184D01*
X107277000Y-101125816D01*
X107244297Y-101290228D01*
X107180147Y-101445100D01*
X107087015Y-101584481D01*
X106968481Y-101703015D01*
X106829100Y-101796147D01*
X106674228Y-101860297D01*
X106509816Y-101893000D01*
X106342184Y-101893000D01*
X106177772Y-101860297D01*
X106022900Y-101796147D01*
X105883519Y-101703015D01*
X105764985Y-101584481D01*
X105671853Y-101445100D01*
X105607703Y-101290228D01*
X105575000Y-101125816D01*
X105575000Y-100958184D01*
X105607703Y-100793772D01*
X105671853Y-100638900D01*
X105764985Y-100499519D01*
X105883519Y-100380985D01*
X106022900Y-100287853D01*
X106177772Y-100223703D01*
X106342184Y-100191000D01*
X106509816Y-100191000D01*
X106674228Y-100223703D01*
G37*
G36*
X103675000Y-100881000D02*
G01*
X102573000Y-100881000D01*
X102573000Y-99779000D01*
X103675000Y-99779000D01*
X103675000Y-100881000D01*
G37*
G36*
X86473512Y-98163927D02*
G01*
X86622812Y-98193624D01*
X86786784Y-98261544D01*
X86934354Y-98360147D01*
X87059853Y-98485646D01*
X87158456Y-98633216D01*
X87226376Y-98797188D01*
X87256073Y-98946488D01*
X87258400Y-98958185D01*
X87261000Y-98971259D01*
X87261000Y-99148741D01*
X87226376Y-99322812D01*
X87158456Y-99486784D01*
X87059853Y-99634354D01*
X86934354Y-99759853D01*
X86786784Y-99858456D01*
X86622812Y-99926376D01*
X86473512Y-99956073D01*
X86448742Y-99961000D01*
X86271258Y-99961000D01*
X86246488Y-99956073D01*
X86097188Y-99926376D01*
X85933216Y-99858456D01*
X85785646Y-99759853D01*
X85660147Y-99634354D01*
X85561544Y-99486784D01*
X85493624Y-99322812D01*
X85459000Y-99148741D01*
X85459000Y-98971259D01*
X85461601Y-98958185D01*
X85463927Y-98946488D01*
X85493624Y-98797188D01*
X85561544Y-98633216D01*
X85660147Y-98485646D01*
X85785646Y-98360147D01*
X85933216Y-98261544D01*
X86097188Y-98193624D01*
X86246488Y-98163927D01*
X86271258Y-98159000D01*
X86448742Y-98159000D01*
X86473512Y-98163927D01*
G37*
G36*
X83933512Y-98163927D02*
G01*
X84082812Y-98193624D01*
X84246784Y-98261544D01*
X84394354Y-98360147D01*
X84519853Y-98485646D01*
X84618456Y-98633216D01*
X84686376Y-98797188D01*
X84716073Y-98946488D01*
X84718400Y-98958185D01*
X84721000Y-98971259D01*
X84721000Y-99148741D01*
X84686376Y-99322812D01*
X84618456Y-99486784D01*
X84519853Y-99634354D01*
X84394354Y-99759853D01*
X84246784Y-99858456D01*
X84082812Y-99926376D01*
X83933512Y-99956073D01*
X83908742Y-99961000D01*
X83731258Y-99961000D01*
X83706488Y-99956073D01*
X83557188Y-99926376D01*
X83393216Y-99858456D01*
X83245646Y-99759853D01*
X83120147Y-99634354D01*
X83021544Y-99486784D01*
X82953624Y-99322812D01*
X82919000Y-99148741D01*
X82919000Y-98971259D01*
X82921601Y-98958185D01*
X82923927Y-98946488D01*
X82953624Y-98797188D01*
X83021544Y-98633216D01*
X83120147Y-98485646D01*
X83245646Y-98360147D01*
X83393216Y-98261544D01*
X83557188Y-98193624D01*
X83706488Y-98163927D01*
X83731258Y-98159000D01*
X83908742Y-98159000D01*
X83933512Y-98163927D01*
G37*
G36*
X106674228Y-98223703D02*
G01*
X106829100Y-98287853D01*
X106968481Y-98380985D01*
X107087015Y-98499519D01*
X107180147Y-98638900D01*
X107244297Y-98793772D01*
X107277000Y-98958184D01*
X107277000Y-99125816D01*
X107244297Y-99290228D01*
X107180147Y-99445100D01*
X107087015Y-99584481D01*
X106968481Y-99703015D01*
X106829100Y-99796147D01*
X106674228Y-99860297D01*
X106509816Y-99893000D01*
X106342184Y-99893000D01*
X106177772Y-99860297D01*
X106022900Y-99796147D01*
X105883519Y-99703015D01*
X105764985Y-99584481D01*
X105671853Y-99445100D01*
X105607703Y-99290228D01*
X105575000Y-99125816D01*
X105575000Y-98958184D01*
X105607703Y-98793772D01*
X105671853Y-98638900D01*
X105764985Y-98499519D01*
X105883519Y-98380985D01*
X106022900Y-98287853D01*
X106177772Y-98223703D01*
X106342184Y-98191000D01*
X106509816Y-98191000D01*
X106674228Y-98223703D01*
G37*
G36*
X83933512Y-95623927D02*
G01*
X84082812Y-95653624D01*
X84246784Y-95721544D01*
X84394354Y-95820147D01*
X84519853Y-95945646D01*
X84618456Y-96093216D01*
X84686376Y-96257188D01*
X84721000Y-96431259D01*
X84721000Y-96608741D01*
X84686376Y-96782812D01*
X84618456Y-96946784D01*
X84519853Y-97094354D01*
X84394354Y-97219853D01*
X84246784Y-97318456D01*
X84082812Y-97386376D01*
X83933512Y-97416073D01*
X83908742Y-97421000D01*
X83731258Y-97421000D01*
X83706488Y-97416073D01*
X83557188Y-97386376D01*
X83393216Y-97318456D01*
X83245646Y-97219853D01*
X83120147Y-97094354D01*
X83021544Y-96946784D01*
X82953624Y-96782812D01*
X82919000Y-96608741D01*
X82919000Y-96431259D01*
X82953624Y-96257188D01*
X83021544Y-96093216D01*
X83120147Y-95945646D01*
X83245646Y-95820147D01*
X83393216Y-95721544D01*
X83557188Y-95653624D01*
X83706488Y-95623927D01*
X83731258Y-95619000D01*
X83908742Y-95619000D01*
X83933512Y-95623927D01*
G37*
G36*
X86473512Y-95623927D02*
G01*
X86622812Y-95653624D01*
X86786784Y-95721544D01*
X86934354Y-95820147D01*
X87059853Y-95945646D01*
X87158456Y-96093216D01*
X87226376Y-96257188D01*
X87261000Y-96431259D01*
X87261000Y-96608741D01*
X87226376Y-96782812D01*
X87158456Y-96946784D01*
X87059853Y-97094354D01*
X86934354Y-97219853D01*
X86786784Y-97318456D01*
X86622812Y-97386376D01*
X86473512Y-97416073D01*
X86448742Y-97421000D01*
X86271258Y-97421000D01*
X86246488Y-97416073D01*
X86097188Y-97386376D01*
X85933216Y-97318456D01*
X85785646Y-97219853D01*
X85660147Y-97094354D01*
X85561544Y-96946784D01*
X85493624Y-96782812D01*
X85459000Y-96608741D01*
X85459000Y-96431259D01*
X85493624Y-96257188D01*
X85561544Y-96093216D01*
X85660147Y-95945646D01*
X85785646Y-95820147D01*
X85933216Y-95721544D01*
X86097188Y-95653624D01*
X86246488Y-95623927D01*
X86271258Y-95619000D01*
X86448742Y-95619000D01*
X86473512Y-95623927D01*
G37*
G36*
X106674228Y-95723703D02*
G01*
X106829100Y-95787853D01*
X106968481Y-95880985D01*
X107087015Y-95999519D01*
X107180147Y-96138900D01*
X107244297Y-96293772D01*
X107277000Y-96458184D01*
X107277000Y-96625816D01*
X107244297Y-96790228D01*
X107180147Y-96945100D01*
X107087015Y-97084481D01*
X106968481Y-97203015D01*
X106829100Y-97296147D01*
X106674228Y-97360297D01*
X106509816Y-97393000D01*
X106342184Y-97393000D01*
X106177772Y-97360297D01*
X106022900Y-97296147D01*
X105883519Y-97203015D01*
X105764985Y-97084481D01*
X105671853Y-96945100D01*
X105607703Y-96790228D01*
X105575000Y-96625816D01*
X105575000Y-96458184D01*
X105607703Y-96293772D01*
X105671853Y-96138900D01*
X105764985Y-95999519D01*
X105883519Y-95880985D01*
X106022900Y-95787853D01*
X106177772Y-95723703D01*
X106342184Y-95691000D01*
X106509816Y-95691000D01*
X106674228Y-95723703D01*
G37*
G36*
X103675000Y-97071000D02*
G01*
X102573000Y-97071000D01*
X102573000Y-95969000D01*
X103675000Y-95969000D01*
X103675000Y-97071000D01*
G37*
G36*
X109438585Y-91950802D02*
G01*
X109588410Y-91980604D01*
X109870674Y-92097521D01*
X110124705Y-92267259D01*
X110340741Y-92483295D01*
X110510479Y-92737326D01*
X110627396Y-93019590D01*
X110687000Y-93319240D01*
X110687000Y-93624760D01*
X110627396Y-93924410D01*
X110510479Y-94206674D01*
X110340741Y-94460705D01*
X110124705Y-94676741D01*
X109870674Y-94846479D01*
X109588410Y-94963396D01*
X109438585Y-94993198D01*
X109288761Y-95023000D01*
X108983239Y-95023000D01*
X108833415Y-94993198D01*
X108683590Y-94963396D01*
X108401326Y-94846479D01*
X108147295Y-94676741D01*
X107931259Y-94460705D01*
X107761521Y-94206674D01*
X107644604Y-93924410D01*
X107585000Y-93624760D01*
X107585000Y-93319240D01*
X107644604Y-93019590D01*
X107761521Y-92737326D01*
X107931259Y-92483295D01*
X108147295Y-92267259D01*
X108401326Y-92097521D01*
X108683590Y-91980604D01*
X108833415Y-91950802D01*
X108983239Y-91921000D01*
X109288761Y-91921000D01*
X109438585Y-91950802D01*
G37*
G36*
X83933512Y-93083927D02*
G01*
X84082812Y-93113624D01*
X84246784Y-93181544D01*
X84394354Y-93280147D01*
X84519853Y-93405646D01*
X84618456Y-93553216D01*
X84686376Y-93717188D01*
X84721000Y-93891259D01*
X84721000Y-94068741D01*
X84686376Y-94242812D01*
X84618456Y-94406784D01*
X84519853Y-94554354D01*
X84394354Y-94679853D01*
X84246784Y-94778456D01*
X84082812Y-94846376D01*
X83933512Y-94876073D01*
X83908742Y-94881000D01*
X83731258Y-94881000D01*
X83706488Y-94876073D01*
X83557188Y-94846376D01*
X83393216Y-94778456D01*
X83245646Y-94679853D01*
X83120147Y-94554354D01*
X83021544Y-94406784D01*
X82953624Y-94242812D01*
X82919000Y-94068741D01*
X82919000Y-93891259D01*
X82953624Y-93717188D01*
X83021544Y-93553216D01*
X83120147Y-93405646D01*
X83245646Y-93280147D01*
X83393216Y-93181544D01*
X83557188Y-93113624D01*
X83706488Y-93083927D01*
X83731258Y-93079000D01*
X83908742Y-93079000D01*
X83933512Y-93083927D01*
G37*
G36*
X87261000Y-94881000D02*
G01*
X85459000Y-94881000D01*
X85459000Y-93079000D01*
X87261000Y-93079000D01*
X87261000Y-94881000D01*
G37*
M02*
