G04 #@! TF.GenerationSoftware,KiCad,Pcbnew,5.1.6-c6e7f7d~86~ubuntu18.04.1*
G04 #@! TF.CreationDate,2021-05-10T21:06:11-07:00*
G04 #@! TF.ProjectId,usb_host_pmod,7573625f-686f-4737-945f-706d6f642e6b,rev?*
G04 #@! TF.SameCoordinates,Original*
G04 #@! TF.FileFunction,Paste,Top*
G04 #@! TF.FilePolarity,Positive*
%FSLAX46Y46*%
G04 Gerber Fmt 4.6, Leading zero omitted, Abs format (unit mm)*
G04 Created by KiCad (PCBNEW 5.1.6-c6e7f7d~86~ubuntu18.04.1) date 2021-05-10 21:06:11*
%MOMM*%
%LPD*%
G01*
G04 APERTURE LIST*
G04 APERTURE END LIST*
G36*
G01*
X90887000Y-95995500D02*
X90887000Y-95520500D01*
G75*
G02*
X91124500Y-95283000I237500J0D01*
G01*
X91699500Y-95283000D01*
G75*
G02*
X91937000Y-95520500I0J-237500D01*
G01*
X91937000Y-95995500D01*
G75*
G02*
X91699500Y-96233000I-237500J0D01*
G01*
X91124500Y-96233000D01*
G75*
G02*
X90887000Y-95995500I0J237500D01*
G01*
G37*
G36*
G01*
X89137000Y-95995500D02*
X89137000Y-95520500D01*
G75*
G02*
X89374500Y-95283000I237500J0D01*
G01*
X89949500Y-95283000D01*
G75*
G02*
X90187000Y-95520500I0J-237500D01*
G01*
X90187000Y-95995500D01*
G75*
G02*
X89949500Y-96233000I-237500J0D01*
G01*
X89374500Y-96233000D01*
G75*
G02*
X89137000Y-95995500I0J237500D01*
G01*
G37*
G36*
G01*
X90215000Y-92472500D02*
X90215000Y-92947500D01*
G75*
G02*
X89977500Y-93185000I-237500J0D01*
G01*
X89402500Y-93185000D01*
G75*
G02*
X89165000Y-92947500I0J237500D01*
G01*
X89165000Y-92472500D01*
G75*
G02*
X89402500Y-92235000I237500J0D01*
G01*
X89977500Y-92235000D01*
G75*
G02*
X90215000Y-92472500I0J-237500D01*
G01*
G37*
G36*
G01*
X91965000Y-92472500D02*
X91965000Y-92947500D01*
G75*
G02*
X91727500Y-93185000I-237500J0D01*
G01*
X91152500Y-93185000D01*
G75*
G02*
X90915000Y-92947500I0J237500D01*
G01*
X90915000Y-92472500D01*
G75*
G02*
X91152500Y-92235000I237500J0D01*
G01*
X91727500Y-92235000D01*
G75*
G02*
X91965000Y-92472500I0J-237500D01*
G01*
G37*
G36*
G01*
X90215000Y-93996500D02*
X90215000Y-94471500D01*
G75*
G02*
X89977500Y-94709000I-237500J0D01*
G01*
X89402500Y-94709000D01*
G75*
G02*
X89165000Y-94471500I0J237500D01*
G01*
X89165000Y-93996500D01*
G75*
G02*
X89402500Y-93759000I237500J0D01*
G01*
X89977500Y-93759000D01*
G75*
G02*
X90215000Y-93996500I0J-237500D01*
G01*
G37*
G36*
G01*
X91965000Y-93996500D02*
X91965000Y-94471500D01*
G75*
G02*
X91727500Y-94709000I-237500J0D01*
G01*
X91152500Y-94709000D01*
G75*
G02*
X90915000Y-94471500I0J237500D01*
G01*
X90915000Y-93996500D01*
G75*
G02*
X91152500Y-93759000I237500J0D01*
G01*
X91727500Y-93759000D01*
G75*
G02*
X91965000Y-93996500I0J-237500D01*
G01*
G37*
G36*
G01*
X98569000Y-94377500D02*
X98569000Y-94852500D01*
G75*
G02*
X98331500Y-95090000I-237500J0D01*
G01*
X97756500Y-95090000D01*
G75*
G02*
X97519000Y-94852500I0J237500D01*
G01*
X97519000Y-94377500D01*
G75*
G02*
X97756500Y-94140000I237500J0D01*
G01*
X98331500Y-94140000D01*
G75*
G02*
X98569000Y-94377500I0J-237500D01*
G01*
G37*
G36*
G01*
X100319000Y-94377500D02*
X100319000Y-94852500D01*
G75*
G02*
X100081500Y-95090000I-237500J0D01*
G01*
X99506500Y-95090000D01*
G75*
G02*
X99269000Y-94852500I0J237500D01*
G01*
X99269000Y-94377500D01*
G75*
G02*
X99506500Y-94140000I237500J0D01*
G01*
X100081500Y-94140000D01*
G75*
G02*
X100319000Y-94377500I0J-237500D01*
G01*
G37*
G36*
G01*
X98569000Y-100092500D02*
X98569000Y-100567500D01*
G75*
G02*
X98331500Y-100805000I-237500J0D01*
G01*
X97756500Y-100805000D01*
G75*
G02*
X97519000Y-100567500I0J237500D01*
G01*
X97519000Y-100092500D01*
G75*
G02*
X97756500Y-99855000I237500J0D01*
G01*
X98331500Y-99855000D01*
G75*
G02*
X98569000Y-100092500I0J-237500D01*
G01*
G37*
G36*
G01*
X100319000Y-100092500D02*
X100319000Y-100567500D01*
G75*
G02*
X100081500Y-100805000I-237500J0D01*
G01*
X99506500Y-100805000D01*
G75*
G02*
X99269000Y-100567500I0J237500D01*
G01*
X99269000Y-100092500D01*
G75*
G02*
X99506500Y-99855000I237500J0D01*
G01*
X100081500Y-99855000D01*
G75*
G02*
X100319000Y-100092500I0J-237500D01*
G01*
G37*
G36*
G01*
X98569000Y-98187500D02*
X98569000Y-98662500D01*
G75*
G02*
X98331500Y-98900000I-237500J0D01*
G01*
X97756500Y-98900000D01*
G75*
G02*
X97519000Y-98662500I0J237500D01*
G01*
X97519000Y-98187500D01*
G75*
G02*
X97756500Y-97950000I237500J0D01*
G01*
X98331500Y-97950000D01*
G75*
G02*
X98569000Y-98187500I0J-237500D01*
G01*
G37*
G36*
G01*
X100319000Y-98187500D02*
X100319000Y-98662500D01*
G75*
G02*
X100081500Y-98900000I-237500J0D01*
G01*
X99506500Y-98900000D01*
G75*
G02*
X99269000Y-98662500I0J237500D01*
G01*
X99269000Y-98187500D01*
G75*
G02*
X99506500Y-97950000I237500J0D01*
G01*
X100081500Y-97950000D01*
G75*
G02*
X100319000Y-98187500I0J-237500D01*
G01*
G37*
G36*
G01*
X98569000Y-96282500D02*
X98569000Y-96757500D01*
G75*
G02*
X98331500Y-96995000I-237500J0D01*
G01*
X97756500Y-96995000D01*
G75*
G02*
X97519000Y-96757500I0J237500D01*
G01*
X97519000Y-96282500D01*
G75*
G02*
X97756500Y-96045000I237500J0D01*
G01*
X98331500Y-96045000D01*
G75*
G02*
X98569000Y-96282500I0J-237500D01*
G01*
G37*
G36*
G01*
X100319000Y-96282500D02*
X100319000Y-96757500D01*
G75*
G02*
X100081500Y-96995000I-237500J0D01*
G01*
X99506500Y-96995000D01*
G75*
G02*
X99269000Y-96757500I0J237500D01*
G01*
X99269000Y-96282500D01*
G75*
G02*
X99506500Y-96045000I237500J0D01*
G01*
X100081500Y-96045000D01*
G75*
G02*
X100319000Y-96282500I0J-237500D01*
G01*
G37*
G36*
G01*
X91073000Y-98457500D02*
X91073000Y-97907500D01*
G75*
G02*
X91135500Y-97845000I62500J0D01*
G01*
X91260500Y-97845000D01*
G75*
G02*
X91323000Y-97907500I0J-62500D01*
G01*
X91323000Y-98457500D01*
G75*
G02*
X91260500Y-98520000I-62500J0D01*
G01*
X91135500Y-98520000D01*
G75*
G02*
X91073000Y-98457500I0J62500D01*
G01*
G37*
G36*
G01*
X91573000Y-98457500D02*
X91573000Y-97907500D01*
G75*
G02*
X91635500Y-97845000I62500J0D01*
G01*
X91760500Y-97845000D01*
G75*
G02*
X91823000Y-97907500I0J-62500D01*
G01*
X91823000Y-98457500D01*
G75*
G02*
X91760500Y-98520000I-62500J0D01*
G01*
X91635500Y-98520000D01*
G75*
G02*
X91573000Y-98457500I0J62500D01*
G01*
G37*
G36*
G01*
X92073000Y-98457500D02*
X92073000Y-97907500D01*
G75*
G02*
X92135500Y-97845000I62500J0D01*
G01*
X92260500Y-97845000D01*
G75*
G02*
X92323000Y-97907500I0J-62500D01*
G01*
X92323000Y-98457500D01*
G75*
G02*
X92260500Y-98520000I-62500J0D01*
G01*
X92135500Y-98520000D01*
G75*
G02*
X92073000Y-98457500I0J62500D01*
G01*
G37*
G36*
G01*
X92573000Y-98457500D02*
X92573000Y-97907500D01*
G75*
G02*
X92635500Y-97845000I62500J0D01*
G01*
X92760500Y-97845000D01*
G75*
G02*
X92823000Y-97907500I0J-62500D01*
G01*
X92823000Y-98457500D01*
G75*
G02*
X92760500Y-98520000I-62500J0D01*
G01*
X92635500Y-98520000D01*
G75*
G02*
X92573000Y-98457500I0J62500D01*
G01*
G37*
G36*
G01*
X93123000Y-99007500D02*
X93123000Y-98882500D01*
G75*
G02*
X93185500Y-98820000I62500J0D01*
G01*
X93735500Y-98820000D01*
G75*
G02*
X93798000Y-98882500I0J-62500D01*
G01*
X93798000Y-99007500D01*
G75*
G02*
X93735500Y-99070000I-62500J0D01*
G01*
X93185500Y-99070000D01*
G75*
G02*
X93123000Y-99007500I0J62500D01*
G01*
G37*
G36*
G01*
X93123000Y-99507500D02*
X93123000Y-99382500D01*
G75*
G02*
X93185500Y-99320000I62500J0D01*
G01*
X93735500Y-99320000D01*
G75*
G02*
X93798000Y-99382500I0J-62500D01*
G01*
X93798000Y-99507500D01*
G75*
G02*
X93735500Y-99570000I-62500J0D01*
G01*
X93185500Y-99570000D01*
G75*
G02*
X93123000Y-99507500I0J62500D01*
G01*
G37*
G36*
G01*
X93123000Y-100007500D02*
X93123000Y-99882500D01*
G75*
G02*
X93185500Y-99820000I62500J0D01*
G01*
X93735500Y-99820000D01*
G75*
G02*
X93798000Y-99882500I0J-62500D01*
G01*
X93798000Y-100007500D01*
G75*
G02*
X93735500Y-100070000I-62500J0D01*
G01*
X93185500Y-100070000D01*
G75*
G02*
X93123000Y-100007500I0J62500D01*
G01*
G37*
G36*
G01*
X93123000Y-100507500D02*
X93123000Y-100382500D01*
G75*
G02*
X93185500Y-100320000I62500J0D01*
G01*
X93735500Y-100320000D01*
G75*
G02*
X93798000Y-100382500I0J-62500D01*
G01*
X93798000Y-100507500D01*
G75*
G02*
X93735500Y-100570000I-62500J0D01*
G01*
X93185500Y-100570000D01*
G75*
G02*
X93123000Y-100507500I0J62500D01*
G01*
G37*
G36*
G01*
X92573000Y-101482500D02*
X92573000Y-100932500D01*
G75*
G02*
X92635500Y-100870000I62500J0D01*
G01*
X92760500Y-100870000D01*
G75*
G02*
X92823000Y-100932500I0J-62500D01*
G01*
X92823000Y-101482500D01*
G75*
G02*
X92760500Y-101545000I-62500J0D01*
G01*
X92635500Y-101545000D01*
G75*
G02*
X92573000Y-101482500I0J62500D01*
G01*
G37*
G36*
G01*
X92073000Y-101482500D02*
X92073000Y-100932500D01*
G75*
G02*
X92135500Y-100870000I62500J0D01*
G01*
X92260500Y-100870000D01*
G75*
G02*
X92323000Y-100932500I0J-62500D01*
G01*
X92323000Y-101482500D01*
G75*
G02*
X92260500Y-101545000I-62500J0D01*
G01*
X92135500Y-101545000D01*
G75*
G02*
X92073000Y-101482500I0J62500D01*
G01*
G37*
G36*
G01*
X91573000Y-101482500D02*
X91573000Y-100932500D01*
G75*
G02*
X91635500Y-100870000I62500J0D01*
G01*
X91760500Y-100870000D01*
G75*
G02*
X91823000Y-100932500I0J-62500D01*
G01*
X91823000Y-101482500D01*
G75*
G02*
X91760500Y-101545000I-62500J0D01*
G01*
X91635500Y-101545000D01*
G75*
G02*
X91573000Y-101482500I0J62500D01*
G01*
G37*
G36*
G01*
X91073000Y-101482500D02*
X91073000Y-100932500D01*
G75*
G02*
X91135500Y-100870000I62500J0D01*
G01*
X91260500Y-100870000D01*
G75*
G02*
X91323000Y-100932500I0J-62500D01*
G01*
X91323000Y-101482500D01*
G75*
G02*
X91260500Y-101545000I-62500J0D01*
G01*
X91135500Y-101545000D01*
G75*
G02*
X91073000Y-101482500I0J62500D01*
G01*
G37*
G36*
G01*
X90098000Y-100507500D02*
X90098000Y-100382500D01*
G75*
G02*
X90160500Y-100320000I62500J0D01*
G01*
X90710500Y-100320000D01*
G75*
G02*
X90773000Y-100382500I0J-62500D01*
G01*
X90773000Y-100507500D01*
G75*
G02*
X90710500Y-100570000I-62500J0D01*
G01*
X90160500Y-100570000D01*
G75*
G02*
X90098000Y-100507500I0J62500D01*
G01*
G37*
G36*
G01*
X90098000Y-100007500D02*
X90098000Y-99882500D01*
G75*
G02*
X90160500Y-99820000I62500J0D01*
G01*
X90710500Y-99820000D01*
G75*
G02*
X90773000Y-99882500I0J-62500D01*
G01*
X90773000Y-100007500D01*
G75*
G02*
X90710500Y-100070000I-62500J0D01*
G01*
X90160500Y-100070000D01*
G75*
G02*
X90098000Y-100007500I0J62500D01*
G01*
G37*
G36*
G01*
X90098000Y-99507500D02*
X90098000Y-99382500D01*
G75*
G02*
X90160500Y-99320000I62500J0D01*
G01*
X90710500Y-99320000D01*
G75*
G02*
X90773000Y-99382500I0J-62500D01*
G01*
X90773000Y-99507500D01*
G75*
G02*
X90710500Y-99570000I-62500J0D01*
G01*
X90160500Y-99570000D01*
G75*
G02*
X90098000Y-99507500I0J62500D01*
G01*
G37*
G36*
G01*
X90098000Y-99007500D02*
X90098000Y-98882500D01*
G75*
G02*
X90160500Y-98820000I62500J0D01*
G01*
X90710500Y-98820000D01*
G75*
G02*
X90773000Y-98882500I0J-62500D01*
G01*
X90773000Y-99007500D01*
G75*
G02*
X90710500Y-99070000I-62500J0D01*
G01*
X90160500Y-99070000D01*
G75*
G02*
X90098000Y-99007500I0J62500D01*
G01*
G37*
G36*
G01*
X92038000Y-100362500D02*
X92038000Y-99977500D01*
G75*
G02*
X92230500Y-99785000I192500J0D01*
G01*
X92615500Y-99785000D01*
G75*
G02*
X92808000Y-99977500I0J-192500D01*
G01*
X92808000Y-100362500D01*
G75*
G02*
X92615500Y-100555000I-192500J0D01*
G01*
X92230500Y-100555000D01*
G75*
G02*
X92038000Y-100362500I0J192500D01*
G01*
G37*
G36*
G01*
X92038000Y-99412500D02*
X92038000Y-99027500D01*
G75*
G02*
X92230500Y-98835000I192500J0D01*
G01*
X92615500Y-98835000D01*
G75*
G02*
X92808000Y-99027500I0J-192500D01*
G01*
X92808000Y-99412500D01*
G75*
G02*
X92615500Y-99605000I-192500J0D01*
G01*
X92230500Y-99605000D01*
G75*
G02*
X92038000Y-99412500I0J192500D01*
G01*
G37*
G36*
G01*
X91088000Y-100362500D02*
X91088000Y-99977500D01*
G75*
G02*
X91280500Y-99785000I192500J0D01*
G01*
X91665500Y-99785000D01*
G75*
G02*
X91858000Y-99977500I0J-192500D01*
G01*
X91858000Y-100362500D01*
G75*
G02*
X91665500Y-100555000I-192500J0D01*
G01*
X91280500Y-100555000D01*
G75*
G02*
X91088000Y-100362500I0J192500D01*
G01*
G37*
G36*
G01*
X91088000Y-99412500D02*
X91088000Y-99027500D01*
G75*
G02*
X91280500Y-98835000I192500J0D01*
G01*
X91665500Y-98835000D01*
G75*
G02*
X91858000Y-99027500I0J-192500D01*
G01*
X91858000Y-99412500D01*
G75*
G02*
X91665500Y-99605000I-192500J0D01*
G01*
X91280500Y-99605000D01*
G75*
G02*
X91088000Y-99412500I0J192500D01*
G01*
G37*
M02*
