G04 #@! TF.GenerationSoftware,KiCad,Pcbnew,5.1.6-c6e7f7d~86~ubuntu18.04.1*
G04 #@! TF.CreationDate,2021-05-10T21:06:11-07:00*
G04 #@! TF.ProjectId,usb_host_pmod,7573625f-686f-4737-945f-706d6f642e6b,rev?*
G04 #@! TF.SameCoordinates,Original*
G04 #@! TF.FileFunction,Copper,L1,Top*
G04 #@! TF.FilePolarity,Positive*
%FSLAX46Y46*%
G04 Gerber Fmt 4.6, Leading zero omitted, Abs format (unit mm)*
G04 Created by KiCad (PCBNEW 5.1.6-c6e7f7d~86~ubuntu18.04.1) date 2021-05-10 21:06:11*
%MOMM*%
%LPD*%
G01*
G04 APERTURE LIST*
G04 #@! TA.AperFunction,ComponentPad*
%ADD10R,1.000000X1.000000*%
G04 #@! TD*
G04 #@! TA.AperFunction,ComponentPad*
%ADD11C,1.600000*%
G04 #@! TD*
G04 #@! TA.AperFunction,ComponentPad*
%ADD12R,1.600000X1.600000*%
G04 #@! TD*
G04 #@! TA.AperFunction,ComponentPad*
%ADD13C,3.000000*%
G04 #@! TD*
G04 #@! TA.AperFunction,ComponentPad*
%ADD14O,1.700000X1.700000*%
G04 #@! TD*
G04 #@! TA.AperFunction,ComponentPad*
%ADD15R,1.700000X1.700000*%
G04 #@! TD*
G04 #@! TA.AperFunction,ViaPad*
%ADD16C,1.100000*%
G04 #@! TD*
G04 #@! TA.AperFunction,Conductor*
%ADD17C,0.127000*%
G04 #@! TD*
G04 #@! TA.AperFunction,Conductor*
%ADD18C,0.088900*%
G04 #@! TD*
G04 APERTURE END LIST*
D10*
X103124000Y-96520000D03*
X103124000Y-100330000D03*
D11*
X106426000Y-96542000D03*
X106426000Y-99042000D03*
X106426000Y-101042000D03*
D12*
X106426000Y-103542000D03*
D13*
X109136000Y-106612000D03*
X109136000Y-93472000D03*
G04 #@! TA.AperFunction,SMDPad,CuDef*
G36*
G01*
X90887000Y-95995500D02*
X90887000Y-95520500D01*
G75*
G02*
X91124500Y-95283000I237500J0D01*
G01*
X91699500Y-95283000D01*
G75*
G02*
X91937000Y-95520500I0J-237500D01*
G01*
X91937000Y-95995500D01*
G75*
G02*
X91699500Y-96233000I-237500J0D01*
G01*
X91124500Y-96233000D01*
G75*
G02*
X90887000Y-95995500I0J237500D01*
G01*
G37*
G04 #@! TD.AperFunction*
G04 #@! TA.AperFunction,SMDPad,CuDef*
G36*
G01*
X89137000Y-95995500D02*
X89137000Y-95520500D01*
G75*
G02*
X89374500Y-95283000I237500J0D01*
G01*
X89949500Y-95283000D01*
G75*
G02*
X90187000Y-95520500I0J-237500D01*
G01*
X90187000Y-95995500D01*
G75*
G02*
X89949500Y-96233000I-237500J0D01*
G01*
X89374500Y-96233000D01*
G75*
G02*
X89137000Y-95995500I0J237500D01*
G01*
G37*
G04 #@! TD.AperFunction*
G04 #@! TA.AperFunction,SMDPad,CuDef*
G36*
G01*
X90215000Y-92472500D02*
X90215000Y-92947500D01*
G75*
G02*
X89977500Y-93185000I-237500J0D01*
G01*
X89402500Y-93185000D01*
G75*
G02*
X89165000Y-92947500I0J237500D01*
G01*
X89165000Y-92472500D01*
G75*
G02*
X89402500Y-92235000I237500J0D01*
G01*
X89977500Y-92235000D01*
G75*
G02*
X90215000Y-92472500I0J-237500D01*
G01*
G37*
G04 #@! TD.AperFunction*
G04 #@! TA.AperFunction,SMDPad,CuDef*
G36*
G01*
X91965000Y-92472500D02*
X91965000Y-92947500D01*
G75*
G02*
X91727500Y-93185000I-237500J0D01*
G01*
X91152500Y-93185000D01*
G75*
G02*
X90915000Y-92947500I0J237500D01*
G01*
X90915000Y-92472500D01*
G75*
G02*
X91152500Y-92235000I237500J0D01*
G01*
X91727500Y-92235000D01*
G75*
G02*
X91965000Y-92472500I0J-237500D01*
G01*
G37*
G04 #@! TD.AperFunction*
G04 #@! TA.AperFunction,SMDPad,CuDef*
G36*
G01*
X90215000Y-93996500D02*
X90215000Y-94471500D01*
G75*
G02*
X89977500Y-94709000I-237500J0D01*
G01*
X89402500Y-94709000D01*
G75*
G02*
X89165000Y-94471500I0J237500D01*
G01*
X89165000Y-93996500D01*
G75*
G02*
X89402500Y-93759000I237500J0D01*
G01*
X89977500Y-93759000D01*
G75*
G02*
X90215000Y-93996500I0J-237500D01*
G01*
G37*
G04 #@! TD.AperFunction*
G04 #@! TA.AperFunction,SMDPad,CuDef*
G36*
G01*
X91965000Y-93996500D02*
X91965000Y-94471500D01*
G75*
G02*
X91727500Y-94709000I-237500J0D01*
G01*
X91152500Y-94709000D01*
G75*
G02*
X90915000Y-94471500I0J237500D01*
G01*
X90915000Y-93996500D01*
G75*
G02*
X91152500Y-93759000I237500J0D01*
G01*
X91727500Y-93759000D01*
G75*
G02*
X91965000Y-93996500I0J-237500D01*
G01*
G37*
G04 #@! TD.AperFunction*
D14*
X90424000Y-106680000D03*
X92964000Y-106680000D03*
X95504000Y-106680000D03*
X98044000Y-106680000D03*
D15*
X100584000Y-106680000D03*
D14*
X83820000Y-106680000D03*
X86360000Y-106680000D03*
X83820000Y-104140000D03*
X86360000Y-104140000D03*
X83820000Y-101600000D03*
X86360000Y-101600000D03*
X83820000Y-99060000D03*
X86360000Y-99060000D03*
X83820000Y-96520000D03*
X86360000Y-96520000D03*
X83820000Y-93980000D03*
D15*
X86360000Y-93980000D03*
G04 #@! TA.AperFunction,SMDPad,CuDef*
G36*
G01*
X98569000Y-94377500D02*
X98569000Y-94852500D01*
G75*
G02*
X98331500Y-95090000I-237500J0D01*
G01*
X97756500Y-95090000D01*
G75*
G02*
X97519000Y-94852500I0J237500D01*
G01*
X97519000Y-94377500D01*
G75*
G02*
X97756500Y-94140000I237500J0D01*
G01*
X98331500Y-94140000D01*
G75*
G02*
X98569000Y-94377500I0J-237500D01*
G01*
G37*
G04 #@! TD.AperFunction*
G04 #@! TA.AperFunction,SMDPad,CuDef*
G36*
G01*
X100319000Y-94377500D02*
X100319000Y-94852500D01*
G75*
G02*
X100081500Y-95090000I-237500J0D01*
G01*
X99506500Y-95090000D01*
G75*
G02*
X99269000Y-94852500I0J237500D01*
G01*
X99269000Y-94377500D01*
G75*
G02*
X99506500Y-94140000I237500J0D01*
G01*
X100081500Y-94140000D01*
G75*
G02*
X100319000Y-94377500I0J-237500D01*
G01*
G37*
G04 #@! TD.AperFunction*
G04 #@! TA.AperFunction,SMDPad,CuDef*
G36*
G01*
X98569000Y-100092500D02*
X98569000Y-100567500D01*
G75*
G02*
X98331500Y-100805000I-237500J0D01*
G01*
X97756500Y-100805000D01*
G75*
G02*
X97519000Y-100567500I0J237500D01*
G01*
X97519000Y-100092500D01*
G75*
G02*
X97756500Y-99855000I237500J0D01*
G01*
X98331500Y-99855000D01*
G75*
G02*
X98569000Y-100092500I0J-237500D01*
G01*
G37*
G04 #@! TD.AperFunction*
G04 #@! TA.AperFunction,SMDPad,CuDef*
G36*
G01*
X100319000Y-100092500D02*
X100319000Y-100567500D01*
G75*
G02*
X100081500Y-100805000I-237500J0D01*
G01*
X99506500Y-100805000D01*
G75*
G02*
X99269000Y-100567500I0J237500D01*
G01*
X99269000Y-100092500D01*
G75*
G02*
X99506500Y-99855000I237500J0D01*
G01*
X100081500Y-99855000D01*
G75*
G02*
X100319000Y-100092500I0J-237500D01*
G01*
G37*
G04 #@! TD.AperFunction*
G04 #@! TA.AperFunction,SMDPad,CuDef*
G36*
G01*
X98569000Y-98187500D02*
X98569000Y-98662500D01*
G75*
G02*
X98331500Y-98900000I-237500J0D01*
G01*
X97756500Y-98900000D01*
G75*
G02*
X97519000Y-98662500I0J237500D01*
G01*
X97519000Y-98187500D01*
G75*
G02*
X97756500Y-97950000I237500J0D01*
G01*
X98331500Y-97950000D01*
G75*
G02*
X98569000Y-98187500I0J-237500D01*
G01*
G37*
G04 #@! TD.AperFunction*
G04 #@! TA.AperFunction,SMDPad,CuDef*
G36*
G01*
X100319000Y-98187500D02*
X100319000Y-98662500D01*
G75*
G02*
X100081500Y-98900000I-237500J0D01*
G01*
X99506500Y-98900000D01*
G75*
G02*
X99269000Y-98662500I0J237500D01*
G01*
X99269000Y-98187500D01*
G75*
G02*
X99506500Y-97950000I237500J0D01*
G01*
X100081500Y-97950000D01*
G75*
G02*
X100319000Y-98187500I0J-237500D01*
G01*
G37*
G04 #@! TD.AperFunction*
G04 #@! TA.AperFunction,SMDPad,CuDef*
G36*
G01*
X98569000Y-96282500D02*
X98569000Y-96757500D01*
G75*
G02*
X98331500Y-96995000I-237500J0D01*
G01*
X97756500Y-96995000D01*
G75*
G02*
X97519000Y-96757500I0J237500D01*
G01*
X97519000Y-96282500D01*
G75*
G02*
X97756500Y-96045000I237500J0D01*
G01*
X98331500Y-96045000D01*
G75*
G02*
X98569000Y-96282500I0J-237500D01*
G01*
G37*
G04 #@! TD.AperFunction*
G04 #@! TA.AperFunction,SMDPad,CuDef*
G36*
G01*
X100319000Y-96282500D02*
X100319000Y-96757500D01*
G75*
G02*
X100081500Y-96995000I-237500J0D01*
G01*
X99506500Y-96995000D01*
G75*
G02*
X99269000Y-96757500I0J237500D01*
G01*
X99269000Y-96282500D01*
G75*
G02*
X99506500Y-96045000I237500J0D01*
G01*
X100081500Y-96045000D01*
G75*
G02*
X100319000Y-96282500I0J-237500D01*
G01*
G37*
G04 #@! TD.AperFunction*
G04 #@! TA.AperFunction,SMDPad,CuDef*
G36*
G01*
X91073000Y-98457500D02*
X91073000Y-97907500D01*
G75*
G02*
X91135500Y-97845000I62500J0D01*
G01*
X91260500Y-97845000D01*
G75*
G02*
X91323000Y-97907500I0J-62500D01*
G01*
X91323000Y-98457500D01*
G75*
G02*
X91260500Y-98520000I-62500J0D01*
G01*
X91135500Y-98520000D01*
G75*
G02*
X91073000Y-98457500I0J62500D01*
G01*
G37*
G04 #@! TD.AperFunction*
G04 #@! TA.AperFunction,SMDPad,CuDef*
G36*
G01*
X91573000Y-98457500D02*
X91573000Y-97907500D01*
G75*
G02*
X91635500Y-97845000I62500J0D01*
G01*
X91760500Y-97845000D01*
G75*
G02*
X91823000Y-97907500I0J-62500D01*
G01*
X91823000Y-98457500D01*
G75*
G02*
X91760500Y-98520000I-62500J0D01*
G01*
X91635500Y-98520000D01*
G75*
G02*
X91573000Y-98457500I0J62500D01*
G01*
G37*
G04 #@! TD.AperFunction*
G04 #@! TA.AperFunction,SMDPad,CuDef*
G36*
G01*
X92073000Y-98457500D02*
X92073000Y-97907500D01*
G75*
G02*
X92135500Y-97845000I62500J0D01*
G01*
X92260500Y-97845000D01*
G75*
G02*
X92323000Y-97907500I0J-62500D01*
G01*
X92323000Y-98457500D01*
G75*
G02*
X92260500Y-98520000I-62500J0D01*
G01*
X92135500Y-98520000D01*
G75*
G02*
X92073000Y-98457500I0J62500D01*
G01*
G37*
G04 #@! TD.AperFunction*
G04 #@! TA.AperFunction,SMDPad,CuDef*
G36*
G01*
X92573000Y-98457500D02*
X92573000Y-97907500D01*
G75*
G02*
X92635500Y-97845000I62500J0D01*
G01*
X92760500Y-97845000D01*
G75*
G02*
X92823000Y-97907500I0J-62500D01*
G01*
X92823000Y-98457500D01*
G75*
G02*
X92760500Y-98520000I-62500J0D01*
G01*
X92635500Y-98520000D01*
G75*
G02*
X92573000Y-98457500I0J62500D01*
G01*
G37*
G04 #@! TD.AperFunction*
G04 #@! TA.AperFunction,SMDPad,CuDef*
G36*
G01*
X93123000Y-99007500D02*
X93123000Y-98882500D01*
G75*
G02*
X93185500Y-98820000I62500J0D01*
G01*
X93735500Y-98820000D01*
G75*
G02*
X93798000Y-98882500I0J-62500D01*
G01*
X93798000Y-99007500D01*
G75*
G02*
X93735500Y-99070000I-62500J0D01*
G01*
X93185500Y-99070000D01*
G75*
G02*
X93123000Y-99007500I0J62500D01*
G01*
G37*
G04 #@! TD.AperFunction*
G04 #@! TA.AperFunction,SMDPad,CuDef*
G36*
G01*
X93123000Y-99507500D02*
X93123000Y-99382500D01*
G75*
G02*
X93185500Y-99320000I62500J0D01*
G01*
X93735500Y-99320000D01*
G75*
G02*
X93798000Y-99382500I0J-62500D01*
G01*
X93798000Y-99507500D01*
G75*
G02*
X93735500Y-99570000I-62500J0D01*
G01*
X93185500Y-99570000D01*
G75*
G02*
X93123000Y-99507500I0J62500D01*
G01*
G37*
G04 #@! TD.AperFunction*
G04 #@! TA.AperFunction,SMDPad,CuDef*
G36*
G01*
X93123000Y-100007500D02*
X93123000Y-99882500D01*
G75*
G02*
X93185500Y-99820000I62500J0D01*
G01*
X93735500Y-99820000D01*
G75*
G02*
X93798000Y-99882500I0J-62500D01*
G01*
X93798000Y-100007500D01*
G75*
G02*
X93735500Y-100070000I-62500J0D01*
G01*
X93185500Y-100070000D01*
G75*
G02*
X93123000Y-100007500I0J62500D01*
G01*
G37*
G04 #@! TD.AperFunction*
G04 #@! TA.AperFunction,SMDPad,CuDef*
G36*
G01*
X93123000Y-100507500D02*
X93123000Y-100382500D01*
G75*
G02*
X93185500Y-100320000I62500J0D01*
G01*
X93735500Y-100320000D01*
G75*
G02*
X93798000Y-100382500I0J-62500D01*
G01*
X93798000Y-100507500D01*
G75*
G02*
X93735500Y-100570000I-62500J0D01*
G01*
X93185500Y-100570000D01*
G75*
G02*
X93123000Y-100507500I0J62500D01*
G01*
G37*
G04 #@! TD.AperFunction*
G04 #@! TA.AperFunction,SMDPad,CuDef*
G36*
G01*
X92573000Y-101482500D02*
X92573000Y-100932500D01*
G75*
G02*
X92635500Y-100870000I62500J0D01*
G01*
X92760500Y-100870000D01*
G75*
G02*
X92823000Y-100932500I0J-62500D01*
G01*
X92823000Y-101482500D01*
G75*
G02*
X92760500Y-101545000I-62500J0D01*
G01*
X92635500Y-101545000D01*
G75*
G02*
X92573000Y-101482500I0J62500D01*
G01*
G37*
G04 #@! TD.AperFunction*
G04 #@! TA.AperFunction,SMDPad,CuDef*
G36*
G01*
X92073000Y-101482500D02*
X92073000Y-100932500D01*
G75*
G02*
X92135500Y-100870000I62500J0D01*
G01*
X92260500Y-100870000D01*
G75*
G02*
X92323000Y-100932500I0J-62500D01*
G01*
X92323000Y-101482500D01*
G75*
G02*
X92260500Y-101545000I-62500J0D01*
G01*
X92135500Y-101545000D01*
G75*
G02*
X92073000Y-101482500I0J62500D01*
G01*
G37*
G04 #@! TD.AperFunction*
G04 #@! TA.AperFunction,SMDPad,CuDef*
G36*
G01*
X91573000Y-101482500D02*
X91573000Y-100932500D01*
G75*
G02*
X91635500Y-100870000I62500J0D01*
G01*
X91760500Y-100870000D01*
G75*
G02*
X91823000Y-100932500I0J-62500D01*
G01*
X91823000Y-101482500D01*
G75*
G02*
X91760500Y-101545000I-62500J0D01*
G01*
X91635500Y-101545000D01*
G75*
G02*
X91573000Y-101482500I0J62500D01*
G01*
G37*
G04 #@! TD.AperFunction*
G04 #@! TA.AperFunction,SMDPad,CuDef*
G36*
G01*
X91073000Y-101482500D02*
X91073000Y-100932500D01*
G75*
G02*
X91135500Y-100870000I62500J0D01*
G01*
X91260500Y-100870000D01*
G75*
G02*
X91323000Y-100932500I0J-62500D01*
G01*
X91323000Y-101482500D01*
G75*
G02*
X91260500Y-101545000I-62500J0D01*
G01*
X91135500Y-101545000D01*
G75*
G02*
X91073000Y-101482500I0J62500D01*
G01*
G37*
G04 #@! TD.AperFunction*
G04 #@! TA.AperFunction,SMDPad,CuDef*
G36*
G01*
X90098000Y-100507500D02*
X90098000Y-100382500D01*
G75*
G02*
X90160500Y-100320000I62500J0D01*
G01*
X90710500Y-100320000D01*
G75*
G02*
X90773000Y-100382500I0J-62500D01*
G01*
X90773000Y-100507500D01*
G75*
G02*
X90710500Y-100570000I-62500J0D01*
G01*
X90160500Y-100570000D01*
G75*
G02*
X90098000Y-100507500I0J62500D01*
G01*
G37*
G04 #@! TD.AperFunction*
G04 #@! TA.AperFunction,SMDPad,CuDef*
G36*
G01*
X90098000Y-100007500D02*
X90098000Y-99882500D01*
G75*
G02*
X90160500Y-99820000I62500J0D01*
G01*
X90710500Y-99820000D01*
G75*
G02*
X90773000Y-99882500I0J-62500D01*
G01*
X90773000Y-100007500D01*
G75*
G02*
X90710500Y-100070000I-62500J0D01*
G01*
X90160500Y-100070000D01*
G75*
G02*
X90098000Y-100007500I0J62500D01*
G01*
G37*
G04 #@! TD.AperFunction*
G04 #@! TA.AperFunction,SMDPad,CuDef*
G36*
G01*
X90098000Y-99507500D02*
X90098000Y-99382500D01*
G75*
G02*
X90160500Y-99320000I62500J0D01*
G01*
X90710500Y-99320000D01*
G75*
G02*
X90773000Y-99382500I0J-62500D01*
G01*
X90773000Y-99507500D01*
G75*
G02*
X90710500Y-99570000I-62500J0D01*
G01*
X90160500Y-99570000D01*
G75*
G02*
X90098000Y-99507500I0J62500D01*
G01*
G37*
G04 #@! TD.AperFunction*
G04 #@! TA.AperFunction,SMDPad,CuDef*
G36*
G01*
X90098000Y-99007500D02*
X90098000Y-98882500D01*
G75*
G02*
X90160500Y-98820000I62500J0D01*
G01*
X90710500Y-98820000D01*
G75*
G02*
X90773000Y-98882500I0J-62500D01*
G01*
X90773000Y-99007500D01*
G75*
G02*
X90710500Y-99070000I-62500J0D01*
G01*
X90160500Y-99070000D01*
G75*
G02*
X90098000Y-99007500I0J62500D01*
G01*
G37*
G04 #@! TD.AperFunction*
G04 #@! TA.AperFunction,SMDPad,CuDef*
G36*
G01*
X90998000Y-100395000D02*
X90998000Y-98995000D01*
G75*
G02*
X91248000Y-98745000I250000J0D01*
G01*
X92648000Y-98745000D01*
G75*
G02*
X92898000Y-98995000I0J-250000D01*
G01*
X92898000Y-100395000D01*
G75*
G02*
X92648000Y-100645000I-250000J0D01*
G01*
X91248000Y-100645000D01*
G75*
G02*
X90998000Y-100395000I0J250000D01*
G01*
G37*
G04 #@! TD.AperFunction*
D16*
X90678000Y-97028000D03*
X88392000Y-94996000D03*
X96774000Y-102108000D03*
X93512540Y-102044500D03*
X89154000Y-101600000D03*
D17*
X91412000Y-95758000D02*
X90887000Y-95758000D01*
D18*
X91412000Y-97559000D02*
X91412000Y-95758000D01*
X91698000Y-97845000D02*
X91412000Y-97559000D01*
X91698000Y-98182500D02*
X91698000Y-97845000D01*
X90678000Y-97028000D02*
X91412000Y-96294000D01*
X91412000Y-96294000D02*
X91412000Y-95758000D01*
X93460500Y-100445000D02*
X93460500Y-100572500D01*
X93460500Y-100572500D02*
X94234000Y-101346000D01*
X94234000Y-101346000D02*
X94234000Y-102362000D01*
X94234000Y-102362000D02*
X93726000Y-102870000D01*
X87630000Y-102870000D02*
X86360000Y-101600000D01*
X93726000Y-102870000D02*
X87630000Y-102870000D01*
X98044000Y-106680000D02*
X94234000Y-102870000D01*
X94234000Y-102870000D02*
X93726000Y-102870000D01*
X90435500Y-98512156D02*
X86924795Y-95001451D01*
X90435500Y-98945000D02*
X90435500Y-98512156D01*
X86924795Y-95001451D02*
X84841451Y-95001451D01*
X84841451Y-95001451D02*
X83820000Y-93980000D01*
X90994384Y-101716460D02*
X90389393Y-102321451D01*
X90389393Y-102321451D02*
X88807703Y-102321451D01*
X92198000Y-101207500D02*
X92198000Y-101545000D01*
X88432549Y-101946297D02*
X88432549Y-101692297D01*
X92026540Y-101716460D02*
X90994384Y-101716460D01*
X88807703Y-102321451D02*
X88432549Y-101946297D01*
X87318801Y-100578549D02*
X84841451Y-100578549D01*
X92198000Y-101545000D02*
X92026540Y-101716460D01*
X88432549Y-101692297D02*
X87318801Y-100578549D01*
X84841451Y-100578549D02*
X83820000Y-101600000D01*
X98569000Y-94615000D02*
X98044000Y-94615000D01*
X98740460Y-99158540D02*
X98740460Y-94786460D01*
X98044000Y-99855000D02*
X98740460Y-99158540D01*
X98740460Y-94786460D02*
X98569000Y-94615000D01*
X98044000Y-100330000D02*
X98044000Y-99855000D01*
X89662000Y-94262000D02*
X89690000Y-94234000D01*
X89662000Y-95758000D02*
X89662000Y-94262000D01*
X89690000Y-94234000D02*
X89690000Y-92710000D01*
D17*
X97663000Y-100711000D02*
X98044000Y-100330000D01*
D18*
X91198000Y-101207500D02*
X91323000Y-101207500D01*
X91323000Y-101207500D02*
X91698000Y-101207500D01*
D17*
X92698000Y-101207500D02*
X93512540Y-102022040D01*
X93512540Y-102022040D02*
X93512540Y-102044500D01*
D18*
X90805500Y-101600000D02*
X91198000Y-101207500D01*
X89154000Y-101600000D02*
X90805500Y-101600000D01*
X98044000Y-100838000D02*
X96774000Y-102108000D01*
X98044000Y-100330000D02*
X98044000Y-100838000D01*
X89154000Y-94234000D02*
X88392000Y-94996000D01*
X89690000Y-94234000D02*
X89154000Y-94234000D01*
X90435500Y-100445000D02*
X89777000Y-100445000D01*
X89777000Y-100445000D02*
X87122000Y-97790000D01*
X85090000Y-97790000D02*
X83820000Y-99060000D01*
X87122000Y-97790000D02*
X85090000Y-97790000D01*
X89785000Y-99945000D02*
X86360000Y-96520000D01*
X90435500Y-99945000D02*
X89785000Y-99945000D01*
X90435500Y-99445000D02*
X90034748Y-99445000D01*
X90435500Y-99445000D02*
X90098000Y-99445000D01*
X90098000Y-99445000D02*
X87381451Y-96728451D01*
X87381451Y-96728451D02*
X87381451Y-95763451D01*
X84841451Y-95498549D02*
X83820000Y-96520000D01*
X87116549Y-95498549D02*
X84841451Y-95498549D01*
X87381451Y-95763451D02*
X87116549Y-95498549D01*
X92698248Y-92710000D02*
X91965000Y-92710000D01*
X93812451Y-93824203D02*
X92698248Y-92710000D01*
X91965000Y-92710000D02*
X91440000Y-92710000D01*
X93460500Y-98945000D02*
X93812451Y-98593049D01*
X93812451Y-98593049D02*
X93812451Y-93824203D01*
X98044000Y-96995000D02*
X98044000Y-96520000D01*
X95594000Y-99445000D02*
X98044000Y-96995000D01*
X93460500Y-99445000D02*
X95594000Y-99445000D01*
X95999000Y-99945000D02*
X93798000Y-99945000D01*
X97519000Y-98425000D02*
X95999000Y-99945000D01*
X93798000Y-99945000D02*
X93460500Y-99945000D01*
X98044000Y-98425000D02*
X97519000Y-98425000D01*
X91965000Y-94234000D02*
X92790500Y-95059500D01*
X91440000Y-94234000D02*
X91965000Y-94234000D01*
X92790500Y-95059500D02*
X92790500Y-96283000D01*
X92198000Y-96875500D02*
X92198000Y-98182500D01*
X92790500Y-96283000D02*
X92198000Y-96875500D01*
X99794000Y-96520000D02*
X99794000Y-94615000D01*
X103904000Y-96520000D02*
X103124000Y-96520000D01*
X106426000Y-99042000D02*
X103904000Y-96520000D01*
X103124000Y-96520000D02*
X99794000Y-96520000D01*
X99794000Y-98425000D02*
X99794000Y-100330000D01*
X99794000Y-100330000D02*
X103124000Y-100330000D01*
X105714000Y-100330000D02*
X106426000Y-101042000D01*
X103124000Y-100330000D02*
X105714000Y-100330000D01*
M02*
