G04 #@! TF.GenerationSoftware,KiCad,Pcbnew,5.1.6-c6e7f7d~86~ubuntu18.04.1*
G04 #@! TF.CreationDate,2021-05-10T21:06:11-07:00*
G04 #@! TF.ProjectId,usb_host_pmod,7573625f-686f-4737-945f-706d6f642e6b,rev?*
G04 #@! TF.SameCoordinates,Original*
G04 #@! TF.FileFunction,Copper,L2,Inr*
G04 #@! TF.FilePolarity,Positive*
%FSLAX46Y46*%
G04 Gerber Fmt 4.6, Leading zero omitted, Abs format (unit mm)*
G04 Created by KiCad (PCBNEW 5.1.6-c6e7f7d~86~ubuntu18.04.1) date 2021-05-10 21:06:11*
%MOMM*%
%LPD*%
G01*
G04 APERTURE LIST*
G04 #@! TA.AperFunction,ViaPad*
%ADD10R,1.000000X1.000000*%
G04 #@! TD*
G04 #@! TA.AperFunction,ViaPad*
%ADD11C,1.600000*%
G04 #@! TD*
G04 #@! TA.AperFunction,ViaPad*
%ADD12R,1.600000X1.600000*%
G04 #@! TD*
G04 #@! TA.AperFunction,ViaPad*
%ADD13C,3.000000*%
G04 #@! TD*
G04 #@! TA.AperFunction,ViaPad*
%ADD14O,1.700000X1.700000*%
G04 #@! TD*
G04 #@! TA.AperFunction,ViaPad*
%ADD15R,1.700000X1.700000*%
G04 #@! TD*
G04 #@! TA.AperFunction,ViaPad*
%ADD16C,1.100000*%
G04 #@! TD*
G04 #@! TA.AperFunction,Conductor*
%ADD17C,0.127000*%
G04 #@! TD*
G04 #@! TA.AperFunction,Conductor*
%ADD18C,0.088900*%
G04 #@! TD*
G04 #@! TA.AperFunction,Conductor*
%ADD19C,0.254000*%
G04 #@! TD*
G04 APERTURE END LIST*
D10*
X103124000Y-96520000D03*
X103124000Y-100330000D03*
D11*
X106426000Y-96542000D03*
X106426000Y-99042000D03*
X106426000Y-101042000D03*
D12*
X106426000Y-103542000D03*
D13*
X109136000Y-106612000D03*
X109136000Y-93472000D03*
D14*
X90424000Y-106680000D03*
X92964000Y-106680000D03*
X95504000Y-106680000D03*
X98044000Y-106680000D03*
D15*
X100584000Y-106680000D03*
D14*
X83820000Y-106680000D03*
X86360000Y-106680000D03*
X83820000Y-104140000D03*
X86360000Y-104140000D03*
X83820000Y-101600000D03*
X86360000Y-101600000D03*
X83820000Y-99060000D03*
X86360000Y-99060000D03*
X83820000Y-96520000D03*
X86360000Y-96520000D03*
X83820000Y-93980000D03*
D15*
X86360000Y-93980000D03*
D16*
X90678000Y-97028000D03*
X88392000Y-94996000D03*
X96774000Y-102108000D03*
X93512540Y-102044500D03*
X89154000Y-101600000D03*
D17*
X85022081Y-104140000D02*
X86360000Y-104140000D01*
X83820000Y-104140000D02*
X85022081Y-104140000D01*
X85319499Y-103099499D02*
X85319499Y-99606999D01*
X86360000Y-104140000D02*
X85319499Y-103099499D01*
X85319499Y-99606999D02*
X85319499Y-98560559D01*
X85319499Y-98560559D02*
X85860559Y-98019499D01*
X87146501Y-98019499D02*
X88392000Y-96774000D01*
X85860559Y-98019499D02*
X87146501Y-98019499D01*
D18*
X106426000Y-97034000D02*
X106426000Y-97394000D01*
X91417040Y-104140000D02*
X93512540Y-102044500D01*
X86360000Y-104140000D02*
X91417040Y-104140000D01*
X88900000Y-101600000D02*
X89154000Y-101600000D01*
X86360000Y-104140000D02*
X88900000Y-101600000D01*
X107888000Y-106680000D02*
X109136000Y-105432000D01*
X100584000Y-106680000D02*
X107888000Y-106680000D01*
X109136000Y-92652000D02*
X109136000Y-92292000D01*
X106426000Y-95362000D02*
X109136000Y-92652000D01*
X109136000Y-94404000D02*
X109136000Y-92292000D01*
X109136000Y-94324000D02*
X109136000Y-94404000D01*
X109136000Y-94404000D02*
X109136000Y-107464000D01*
X96710500Y-102044500D02*
X96774000Y-102108000D01*
X93512540Y-102044500D02*
X96710500Y-102044500D01*
X100584000Y-105918000D02*
X100584000Y-106680000D01*
X96774000Y-102108000D02*
X100584000Y-105918000D01*
X88392000Y-96774000D02*
X88392000Y-94996000D01*
D19*
G36*
X107823952Y-91980347D02*
G01*
X109136000Y-93292395D01*
X110448048Y-91980347D01*
X110381628Y-91846000D01*
X116299721Y-91846000D01*
X116647210Y-91880072D01*
X116950413Y-91971614D01*
X117230064Y-92120307D01*
X117475505Y-92320484D01*
X117677391Y-92564521D01*
X117828031Y-92843125D01*
X117921690Y-93145688D01*
X117958001Y-93491167D01*
X117958000Y-106647721D01*
X117923928Y-106995209D01*
X117832384Y-107298417D01*
X117683693Y-107578063D01*
X117483516Y-107823505D01*
X117239476Y-108025392D01*
X116960875Y-108176031D01*
X116658313Y-108269690D01*
X116312842Y-108306000D01*
X110348010Y-108306000D01*
X110448048Y-108103653D01*
X109136000Y-106791605D01*
X107823952Y-108103653D01*
X107923990Y-108306000D01*
X83598279Y-108306000D01*
X83250791Y-108271928D01*
X82947583Y-108180384D01*
X82667937Y-108031693D01*
X82422495Y-107831516D01*
X82220608Y-107587476D01*
X82069969Y-107308875D01*
X81976310Y-107006313D01*
X81940000Y-106660842D01*
X81940000Y-106533740D01*
X82335000Y-106533740D01*
X82335000Y-106826260D01*
X82392068Y-107113158D01*
X82504010Y-107383411D01*
X82666525Y-107626632D01*
X82873368Y-107833475D01*
X83116589Y-107995990D01*
X83386842Y-108107932D01*
X83673740Y-108165000D01*
X83966260Y-108165000D01*
X84253158Y-108107932D01*
X84523411Y-107995990D01*
X84766632Y-107833475D01*
X84973475Y-107626632D01*
X85090000Y-107452240D01*
X85206525Y-107626632D01*
X85413368Y-107833475D01*
X85656589Y-107995990D01*
X85926842Y-108107932D01*
X86213740Y-108165000D01*
X86506260Y-108165000D01*
X86793158Y-108107932D01*
X87063411Y-107995990D01*
X87306632Y-107833475D01*
X87513475Y-107626632D01*
X87675990Y-107383411D01*
X87787932Y-107113158D01*
X87845000Y-106826260D01*
X87845000Y-106533740D01*
X88939000Y-106533740D01*
X88939000Y-106826260D01*
X88996068Y-107113158D01*
X89108010Y-107383411D01*
X89270525Y-107626632D01*
X89477368Y-107833475D01*
X89720589Y-107995990D01*
X89990842Y-108107932D01*
X90277740Y-108165000D01*
X90570260Y-108165000D01*
X90857158Y-108107932D01*
X91127411Y-107995990D01*
X91370632Y-107833475D01*
X91577475Y-107626632D01*
X91694000Y-107452240D01*
X91810525Y-107626632D01*
X92017368Y-107833475D01*
X92260589Y-107995990D01*
X92530842Y-108107932D01*
X92817740Y-108165000D01*
X93110260Y-108165000D01*
X93397158Y-108107932D01*
X93667411Y-107995990D01*
X93910632Y-107833475D01*
X94117475Y-107626632D01*
X94234000Y-107452240D01*
X94350525Y-107626632D01*
X94557368Y-107833475D01*
X94800589Y-107995990D01*
X95070842Y-108107932D01*
X95357740Y-108165000D01*
X95650260Y-108165000D01*
X95937158Y-108107932D01*
X96207411Y-107995990D01*
X96450632Y-107833475D01*
X96657475Y-107626632D01*
X96774000Y-107452240D01*
X96890525Y-107626632D01*
X97097368Y-107833475D01*
X97340589Y-107995990D01*
X97610842Y-108107932D01*
X97897740Y-108165000D01*
X98190260Y-108165000D01*
X98477158Y-108107932D01*
X98747411Y-107995990D01*
X98990632Y-107833475D01*
X99122487Y-107701620D01*
X99144498Y-107774180D01*
X99203463Y-107884494D01*
X99282815Y-107981185D01*
X99379506Y-108060537D01*
X99489820Y-108119502D01*
X99609518Y-108155812D01*
X99734000Y-108168072D01*
X100298250Y-108165000D01*
X100457000Y-108006250D01*
X100457000Y-106807000D01*
X100711000Y-106807000D01*
X100711000Y-108006250D01*
X100869750Y-108165000D01*
X101434000Y-108168072D01*
X101558482Y-108155812D01*
X101678180Y-108119502D01*
X101788494Y-108060537D01*
X101885185Y-107981185D01*
X101964537Y-107884494D01*
X102023502Y-107774180D01*
X102059812Y-107654482D01*
X102072072Y-107530000D01*
X102069000Y-106965750D01*
X101910250Y-106807000D01*
X100711000Y-106807000D01*
X100457000Y-106807000D01*
X100437000Y-106807000D01*
X100437000Y-106654824D01*
X106991098Y-106654824D01*
X107040666Y-107072451D01*
X107170757Y-107472383D01*
X107328786Y-107768038D01*
X107644347Y-107924048D01*
X108956395Y-106612000D01*
X109315605Y-106612000D01*
X110627653Y-107924048D01*
X110943214Y-107768038D01*
X111134020Y-107393255D01*
X111248044Y-106988449D01*
X111280902Y-106569176D01*
X111231334Y-106151549D01*
X111101243Y-105751617D01*
X110943214Y-105455962D01*
X110627653Y-105299952D01*
X109315605Y-106612000D01*
X108956395Y-106612000D01*
X107644347Y-105299952D01*
X107328786Y-105455962D01*
X107137980Y-105830745D01*
X107023956Y-106235551D01*
X106991098Y-106654824D01*
X100437000Y-106654824D01*
X100437000Y-106553000D01*
X100457000Y-106553000D01*
X100457000Y-105353750D01*
X100711000Y-105353750D01*
X100711000Y-106553000D01*
X101910250Y-106553000D01*
X102069000Y-106394250D01*
X102072072Y-105830000D01*
X102059812Y-105705518D01*
X102023502Y-105585820D01*
X101964537Y-105475506D01*
X101885185Y-105378815D01*
X101788494Y-105299463D01*
X101678180Y-105240498D01*
X101558482Y-105204188D01*
X101434000Y-105191928D01*
X100869750Y-105195000D01*
X100711000Y-105353750D01*
X100457000Y-105353750D01*
X100298250Y-105195000D01*
X99734000Y-105191928D01*
X99609518Y-105204188D01*
X99489820Y-105240498D01*
X99379506Y-105299463D01*
X99282815Y-105378815D01*
X99203463Y-105475506D01*
X99144498Y-105585820D01*
X99122487Y-105658380D01*
X98990632Y-105526525D01*
X98747411Y-105364010D01*
X98477158Y-105252068D01*
X98190260Y-105195000D01*
X97897740Y-105195000D01*
X97610842Y-105252068D01*
X97340589Y-105364010D01*
X97097368Y-105526525D01*
X96890525Y-105733368D01*
X96774000Y-105907760D01*
X96657475Y-105733368D01*
X96450632Y-105526525D01*
X96207411Y-105364010D01*
X95937158Y-105252068D01*
X95650260Y-105195000D01*
X95357740Y-105195000D01*
X95070842Y-105252068D01*
X94800589Y-105364010D01*
X94557368Y-105526525D01*
X94350525Y-105733368D01*
X94234000Y-105907760D01*
X94117475Y-105733368D01*
X93910632Y-105526525D01*
X93667411Y-105364010D01*
X93397158Y-105252068D01*
X93110260Y-105195000D01*
X92817740Y-105195000D01*
X92530842Y-105252068D01*
X92260589Y-105364010D01*
X92017368Y-105526525D01*
X91810525Y-105733368D01*
X91694000Y-105907760D01*
X91577475Y-105733368D01*
X91370632Y-105526525D01*
X91127411Y-105364010D01*
X90857158Y-105252068D01*
X90570260Y-105195000D01*
X90277740Y-105195000D01*
X89990842Y-105252068D01*
X89720589Y-105364010D01*
X89477368Y-105526525D01*
X89270525Y-105733368D01*
X89108010Y-105976589D01*
X88996068Y-106246842D01*
X88939000Y-106533740D01*
X87845000Y-106533740D01*
X87787932Y-106246842D01*
X87675990Y-105976589D01*
X87513475Y-105733368D01*
X87306632Y-105526525D01*
X87124466Y-105404805D01*
X87241355Y-105335178D01*
X87457588Y-105140269D01*
X87472447Y-105120347D01*
X107823952Y-105120347D01*
X109136000Y-106432395D01*
X110448048Y-105120347D01*
X110292038Y-104804786D01*
X109917255Y-104613980D01*
X109512449Y-104499956D01*
X109093176Y-104467098D01*
X108675549Y-104516666D01*
X108275617Y-104646757D01*
X107979962Y-104804786D01*
X107823952Y-105120347D01*
X87472447Y-105120347D01*
X87631641Y-104906920D01*
X87756825Y-104644099D01*
X87801476Y-104496890D01*
X87680155Y-104267000D01*
X86487000Y-104267000D01*
X86487000Y-104287000D01*
X86233000Y-104287000D01*
X86233000Y-104267000D01*
X83947000Y-104267000D01*
X83947000Y-104287000D01*
X83693000Y-104287000D01*
X83693000Y-104267000D01*
X82499845Y-104267000D01*
X82378524Y-104496890D01*
X82423175Y-104644099D01*
X82548359Y-104906920D01*
X82722412Y-105140269D01*
X82938645Y-105335178D01*
X83055534Y-105404805D01*
X82873368Y-105526525D01*
X82666525Y-105733368D01*
X82504010Y-105976589D01*
X82392068Y-106246842D01*
X82335000Y-106533740D01*
X81940000Y-106533740D01*
X81940000Y-93833740D01*
X82335000Y-93833740D01*
X82335000Y-94126260D01*
X82392068Y-94413158D01*
X82504010Y-94683411D01*
X82666525Y-94926632D01*
X82873368Y-95133475D01*
X83047760Y-95250000D01*
X82873368Y-95366525D01*
X82666525Y-95573368D01*
X82504010Y-95816589D01*
X82392068Y-96086842D01*
X82335000Y-96373740D01*
X82335000Y-96666260D01*
X82392068Y-96953158D01*
X82504010Y-97223411D01*
X82666525Y-97466632D01*
X82873368Y-97673475D01*
X83047760Y-97790000D01*
X82873368Y-97906525D01*
X82666525Y-98113368D01*
X82504010Y-98356589D01*
X82392068Y-98626842D01*
X82335000Y-98913740D01*
X82335000Y-99206260D01*
X82392068Y-99493158D01*
X82504010Y-99763411D01*
X82666525Y-100006632D01*
X82873368Y-100213475D01*
X83047760Y-100330000D01*
X82873368Y-100446525D01*
X82666525Y-100653368D01*
X82504010Y-100896589D01*
X82392068Y-101166842D01*
X82335000Y-101453740D01*
X82335000Y-101746260D01*
X82392068Y-102033158D01*
X82504010Y-102303411D01*
X82666525Y-102546632D01*
X82873368Y-102753475D01*
X83055534Y-102875195D01*
X82938645Y-102944822D01*
X82722412Y-103139731D01*
X82548359Y-103373080D01*
X82423175Y-103635901D01*
X82378524Y-103783110D01*
X82499845Y-104013000D01*
X83693000Y-104013000D01*
X83693000Y-103993000D01*
X83947000Y-103993000D01*
X83947000Y-104013000D01*
X86233000Y-104013000D01*
X86233000Y-103993000D01*
X86487000Y-103993000D01*
X86487000Y-104013000D01*
X87680155Y-104013000D01*
X87801476Y-103783110D01*
X87756825Y-103635901D01*
X87631641Y-103373080D01*
X87457588Y-103139731D01*
X87241355Y-102944822D01*
X87124466Y-102875195D01*
X87306632Y-102753475D01*
X87318107Y-102742000D01*
X104987928Y-102742000D01*
X104987928Y-104342000D01*
X105000188Y-104466482D01*
X105036498Y-104586180D01*
X105095463Y-104696494D01*
X105174815Y-104793185D01*
X105271506Y-104872537D01*
X105381820Y-104931502D01*
X105501518Y-104967812D01*
X105626000Y-104980072D01*
X107226000Y-104980072D01*
X107350482Y-104967812D01*
X107470180Y-104931502D01*
X107580494Y-104872537D01*
X107677185Y-104793185D01*
X107756537Y-104696494D01*
X107815502Y-104586180D01*
X107851812Y-104466482D01*
X107864072Y-104342000D01*
X107864072Y-102742000D01*
X107851812Y-102617518D01*
X107815502Y-102497820D01*
X107756537Y-102387506D01*
X107677185Y-102290815D01*
X107580494Y-102211463D01*
X107470180Y-102152498D01*
X107374057Y-102123339D01*
X107540637Y-101956759D01*
X107697680Y-101721727D01*
X107805853Y-101460574D01*
X107861000Y-101183335D01*
X107861000Y-100900665D01*
X107805853Y-100623426D01*
X107697680Y-100362273D01*
X107540637Y-100127241D01*
X107455396Y-100042000D01*
X107540637Y-99956759D01*
X107697680Y-99721727D01*
X107805853Y-99460574D01*
X107861000Y-99183335D01*
X107861000Y-98900665D01*
X107805853Y-98623426D01*
X107697680Y-98362273D01*
X107540637Y-98127241D01*
X107340759Y-97927363D01*
X107140131Y-97793308D01*
X107167514Y-97778671D01*
X107239097Y-97534702D01*
X106426000Y-96721605D01*
X105612903Y-97534702D01*
X105684486Y-97778671D01*
X105713341Y-97792324D01*
X105511241Y-97927363D01*
X105311363Y-98127241D01*
X105154320Y-98362273D01*
X105046147Y-98623426D01*
X104991000Y-98900665D01*
X104991000Y-99183335D01*
X105046147Y-99460574D01*
X105154320Y-99721727D01*
X105311363Y-99956759D01*
X105396604Y-100042000D01*
X105311363Y-100127241D01*
X105154320Y-100362273D01*
X105046147Y-100623426D01*
X104991000Y-100900665D01*
X104991000Y-101183335D01*
X105046147Y-101460574D01*
X105154320Y-101721727D01*
X105311363Y-101956759D01*
X105477943Y-102123339D01*
X105381820Y-102152498D01*
X105271506Y-102211463D01*
X105174815Y-102290815D01*
X105095463Y-102387506D01*
X105036498Y-102497820D01*
X105000188Y-102617518D01*
X104987928Y-102742000D01*
X87318107Y-102742000D01*
X87513475Y-102546632D01*
X87675990Y-102303411D01*
X87787932Y-102033158D01*
X87845000Y-101746260D01*
X87845000Y-101453740D01*
X87787932Y-101166842D01*
X87675990Y-100896589D01*
X87513475Y-100653368D01*
X87306632Y-100446525D01*
X87132240Y-100330000D01*
X87306632Y-100213475D01*
X87513475Y-100006632D01*
X87631496Y-99830000D01*
X101985928Y-99830000D01*
X101985928Y-100830000D01*
X101998188Y-100954482D01*
X102034498Y-101074180D01*
X102093463Y-101184494D01*
X102172815Y-101281185D01*
X102269506Y-101360537D01*
X102379820Y-101419502D01*
X102499518Y-101455812D01*
X102624000Y-101468072D01*
X103624000Y-101468072D01*
X103748482Y-101455812D01*
X103868180Y-101419502D01*
X103978494Y-101360537D01*
X104075185Y-101281185D01*
X104154537Y-101184494D01*
X104213502Y-101074180D01*
X104249812Y-100954482D01*
X104262072Y-100830000D01*
X104262072Y-99830000D01*
X104249812Y-99705518D01*
X104213502Y-99585820D01*
X104154537Y-99475506D01*
X104075185Y-99378815D01*
X103978494Y-99299463D01*
X103868180Y-99240498D01*
X103748482Y-99204188D01*
X103624000Y-99191928D01*
X102624000Y-99191928D01*
X102499518Y-99204188D01*
X102379820Y-99240498D01*
X102269506Y-99299463D01*
X102172815Y-99378815D01*
X102093463Y-99475506D01*
X102034498Y-99585820D01*
X101998188Y-99705518D01*
X101985928Y-99830000D01*
X87631496Y-99830000D01*
X87675990Y-99763411D01*
X87787932Y-99493158D01*
X87845000Y-99206260D01*
X87845000Y-98913740D01*
X87787932Y-98626842D01*
X87675990Y-98356589D01*
X87513475Y-98113368D01*
X87306632Y-97906525D01*
X87132240Y-97790000D01*
X87306632Y-97673475D01*
X87513475Y-97466632D01*
X87675990Y-97223411D01*
X87787932Y-96953158D01*
X87796260Y-96911288D01*
X89493000Y-96911288D01*
X89493000Y-97144712D01*
X89538539Y-97373652D01*
X89627866Y-97589308D01*
X89757550Y-97783394D01*
X89922606Y-97948450D01*
X90116692Y-98078134D01*
X90332348Y-98167461D01*
X90561288Y-98213000D01*
X90794712Y-98213000D01*
X91023652Y-98167461D01*
X91239308Y-98078134D01*
X91433394Y-97948450D01*
X91598450Y-97783394D01*
X91728134Y-97589308D01*
X91817461Y-97373652D01*
X91863000Y-97144712D01*
X91863000Y-96911288D01*
X91817461Y-96682348D01*
X91728134Y-96466692D01*
X91598450Y-96272606D01*
X91433394Y-96107550D01*
X91302367Y-96020000D01*
X101985928Y-96020000D01*
X101985928Y-97020000D01*
X101998188Y-97144482D01*
X102034498Y-97264180D01*
X102093463Y-97374494D01*
X102172815Y-97471185D01*
X102269506Y-97550537D01*
X102379820Y-97609502D01*
X102499518Y-97645812D01*
X102624000Y-97658072D01*
X103624000Y-97658072D01*
X103748482Y-97645812D01*
X103868180Y-97609502D01*
X103978494Y-97550537D01*
X104075185Y-97471185D01*
X104154537Y-97374494D01*
X104213502Y-97264180D01*
X104249812Y-97144482D01*
X104262072Y-97020000D01*
X104262072Y-96612512D01*
X104985783Y-96612512D01*
X105027213Y-96892130D01*
X105122397Y-97158292D01*
X105189329Y-97283514D01*
X105433298Y-97355097D01*
X106246395Y-96542000D01*
X106605605Y-96542000D01*
X107418702Y-97355097D01*
X107662671Y-97283514D01*
X107783571Y-97028004D01*
X107852300Y-96753816D01*
X107866217Y-96471488D01*
X107824787Y-96191870D01*
X107729603Y-95925708D01*
X107662671Y-95800486D01*
X107418702Y-95728903D01*
X106605605Y-96542000D01*
X106246395Y-96542000D01*
X105433298Y-95728903D01*
X105189329Y-95800486D01*
X105068429Y-96055996D01*
X104999700Y-96330184D01*
X104985783Y-96612512D01*
X104262072Y-96612512D01*
X104262072Y-96020000D01*
X104249812Y-95895518D01*
X104213502Y-95775820D01*
X104154537Y-95665506D01*
X104075185Y-95568815D01*
X104051404Y-95549298D01*
X105612903Y-95549298D01*
X106426000Y-96362395D01*
X107239097Y-95549298D01*
X107167514Y-95305329D01*
X106912004Y-95184429D01*
X106637816Y-95115700D01*
X106355488Y-95101783D01*
X106075870Y-95143213D01*
X105809708Y-95238397D01*
X105684486Y-95305329D01*
X105612903Y-95549298D01*
X104051404Y-95549298D01*
X103978494Y-95489463D01*
X103868180Y-95430498D01*
X103748482Y-95394188D01*
X103624000Y-95381928D01*
X102624000Y-95381928D01*
X102499518Y-95394188D01*
X102379820Y-95430498D01*
X102269506Y-95489463D01*
X102172815Y-95568815D01*
X102093463Y-95665506D01*
X102034498Y-95775820D01*
X101998188Y-95895518D01*
X101985928Y-96020000D01*
X91302367Y-96020000D01*
X91239308Y-95977866D01*
X91023652Y-95888539D01*
X90794712Y-95843000D01*
X90561288Y-95843000D01*
X90332348Y-95888539D01*
X90116692Y-95977866D01*
X89922606Y-96107550D01*
X89757550Y-96272606D01*
X89627866Y-96466692D01*
X89538539Y-96682348D01*
X89493000Y-96911288D01*
X87796260Y-96911288D01*
X87845000Y-96666260D01*
X87845000Y-96373740D01*
X87787932Y-96086842D01*
X87675990Y-95816589D01*
X87513475Y-95573368D01*
X87381620Y-95441513D01*
X87454180Y-95419502D01*
X87564494Y-95360537D01*
X87661185Y-95281185D01*
X87740537Y-95184494D01*
X87799502Y-95074180D01*
X87833030Y-94963653D01*
X107823952Y-94963653D01*
X107979962Y-95279214D01*
X108354745Y-95470020D01*
X108759551Y-95584044D01*
X109178824Y-95616902D01*
X109596451Y-95567334D01*
X109996383Y-95437243D01*
X110292038Y-95279214D01*
X110448048Y-94963653D01*
X109136000Y-93651605D01*
X107823952Y-94963653D01*
X87833030Y-94963653D01*
X87835812Y-94954482D01*
X87848072Y-94830000D01*
X87848072Y-93514824D01*
X106991098Y-93514824D01*
X107040666Y-93932451D01*
X107170757Y-94332383D01*
X107328786Y-94628038D01*
X107644347Y-94784048D01*
X108956395Y-93472000D01*
X109315605Y-93472000D01*
X110627653Y-94784048D01*
X110943214Y-94628038D01*
X111134020Y-94253255D01*
X111248044Y-93848449D01*
X111280902Y-93429176D01*
X111231334Y-93011549D01*
X111101243Y-92611617D01*
X110943214Y-92315962D01*
X110627653Y-92159952D01*
X109315605Y-93472000D01*
X108956395Y-93472000D01*
X107644347Y-92159952D01*
X107328786Y-92315962D01*
X107137980Y-92690745D01*
X107023956Y-93095551D01*
X106991098Y-93514824D01*
X87848072Y-93514824D01*
X87848072Y-93130000D01*
X87835812Y-93005518D01*
X87799502Y-92885820D01*
X87740537Y-92775506D01*
X87661185Y-92678815D01*
X87564494Y-92599463D01*
X87454180Y-92540498D01*
X87334482Y-92504188D01*
X87210000Y-92491928D01*
X85510000Y-92491928D01*
X85385518Y-92504188D01*
X85265820Y-92540498D01*
X85155506Y-92599463D01*
X85058815Y-92678815D01*
X84979463Y-92775506D01*
X84920498Y-92885820D01*
X84898487Y-92958380D01*
X84766632Y-92826525D01*
X84523411Y-92664010D01*
X84253158Y-92552068D01*
X83966260Y-92495000D01*
X83673740Y-92495000D01*
X83386842Y-92552068D01*
X83116589Y-92664010D01*
X82873368Y-92826525D01*
X82666525Y-93033368D01*
X82504010Y-93276589D01*
X82392068Y-93546842D01*
X82335000Y-93833740D01*
X81940000Y-93833740D01*
X81940000Y-93504279D01*
X81974072Y-93156790D01*
X82065614Y-92853587D01*
X82214307Y-92573936D01*
X82414484Y-92328495D01*
X82658521Y-92126609D01*
X82937125Y-91975969D01*
X83239688Y-91882310D01*
X83585158Y-91846000D01*
X107890372Y-91846000D01*
X107823952Y-91980347D01*
G37*
X107823952Y-91980347D02*
X109136000Y-93292395D01*
X110448048Y-91980347D01*
X110381628Y-91846000D01*
X116299721Y-91846000D01*
X116647210Y-91880072D01*
X116950413Y-91971614D01*
X117230064Y-92120307D01*
X117475505Y-92320484D01*
X117677391Y-92564521D01*
X117828031Y-92843125D01*
X117921690Y-93145688D01*
X117958001Y-93491167D01*
X117958000Y-106647721D01*
X117923928Y-106995209D01*
X117832384Y-107298417D01*
X117683693Y-107578063D01*
X117483516Y-107823505D01*
X117239476Y-108025392D01*
X116960875Y-108176031D01*
X116658313Y-108269690D01*
X116312842Y-108306000D01*
X110348010Y-108306000D01*
X110448048Y-108103653D01*
X109136000Y-106791605D01*
X107823952Y-108103653D01*
X107923990Y-108306000D01*
X83598279Y-108306000D01*
X83250791Y-108271928D01*
X82947583Y-108180384D01*
X82667937Y-108031693D01*
X82422495Y-107831516D01*
X82220608Y-107587476D01*
X82069969Y-107308875D01*
X81976310Y-107006313D01*
X81940000Y-106660842D01*
X81940000Y-106533740D01*
X82335000Y-106533740D01*
X82335000Y-106826260D01*
X82392068Y-107113158D01*
X82504010Y-107383411D01*
X82666525Y-107626632D01*
X82873368Y-107833475D01*
X83116589Y-107995990D01*
X83386842Y-108107932D01*
X83673740Y-108165000D01*
X83966260Y-108165000D01*
X84253158Y-108107932D01*
X84523411Y-107995990D01*
X84766632Y-107833475D01*
X84973475Y-107626632D01*
X85090000Y-107452240D01*
X85206525Y-107626632D01*
X85413368Y-107833475D01*
X85656589Y-107995990D01*
X85926842Y-108107932D01*
X86213740Y-108165000D01*
X86506260Y-108165000D01*
X86793158Y-108107932D01*
X87063411Y-107995990D01*
X87306632Y-107833475D01*
X87513475Y-107626632D01*
X87675990Y-107383411D01*
X87787932Y-107113158D01*
X87845000Y-106826260D01*
X87845000Y-106533740D01*
X88939000Y-106533740D01*
X88939000Y-106826260D01*
X88996068Y-107113158D01*
X89108010Y-107383411D01*
X89270525Y-107626632D01*
X89477368Y-107833475D01*
X89720589Y-107995990D01*
X89990842Y-108107932D01*
X90277740Y-108165000D01*
X90570260Y-108165000D01*
X90857158Y-108107932D01*
X91127411Y-107995990D01*
X91370632Y-107833475D01*
X91577475Y-107626632D01*
X91694000Y-107452240D01*
X91810525Y-107626632D01*
X92017368Y-107833475D01*
X92260589Y-107995990D01*
X92530842Y-108107932D01*
X92817740Y-108165000D01*
X93110260Y-108165000D01*
X93397158Y-108107932D01*
X93667411Y-107995990D01*
X93910632Y-107833475D01*
X94117475Y-107626632D01*
X94234000Y-107452240D01*
X94350525Y-107626632D01*
X94557368Y-107833475D01*
X94800589Y-107995990D01*
X95070842Y-108107932D01*
X95357740Y-108165000D01*
X95650260Y-108165000D01*
X95937158Y-108107932D01*
X96207411Y-107995990D01*
X96450632Y-107833475D01*
X96657475Y-107626632D01*
X96774000Y-107452240D01*
X96890525Y-107626632D01*
X97097368Y-107833475D01*
X97340589Y-107995990D01*
X97610842Y-108107932D01*
X97897740Y-108165000D01*
X98190260Y-108165000D01*
X98477158Y-108107932D01*
X98747411Y-107995990D01*
X98990632Y-107833475D01*
X99122487Y-107701620D01*
X99144498Y-107774180D01*
X99203463Y-107884494D01*
X99282815Y-107981185D01*
X99379506Y-108060537D01*
X99489820Y-108119502D01*
X99609518Y-108155812D01*
X99734000Y-108168072D01*
X100298250Y-108165000D01*
X100457000Y-108006250D01*
X100457000Y-106807000D01*
X100711000Y-106807000D01*
X100711000Y-108006250D01*
X100869750Y-108165000D01*
X101434000Y-108168072D01*
X101558482Y-108155812D01*
X101678180Y-108119502D01*
X101788494Y-108060537D01*
X101885185Y-107981185D01*
X101964537Y-107884494D01*
X102023502Y-107774180D01*
X102059812Y-107654482D01*
X102072072Y-107530000D01*
X102069000Y-106965750D01*
X101910250Y-106807000D01*
X100711000Y-106807000D01*
X100457000Y-106807000D01*
X100437000Y-106807000D01*
X100437000Y-106654824D01*
X106991098Y-106654824D01*
X107040666Y-107072451D01*
X107170757Y-107472383D01*
X107328786Y-107768038D01*
X107644347Y-107924048D01*
X108956395Y-106612000D01*
X109315605Y-106612000D01*
X110627653Y-107924048D01*
X110943214Y-107768038D01*
X111134020Y-107393255D01*
X111248044Y-106988449D01*
X111280902Y-106569176D01*
X111231334Y-106151549D01*
X111101243Y-105751617D01*
X110943214Y-105455962D01*
X110627653Y-105299952D01*
X109315605Y-106612000D01*
X108956395Y-106612000D01*
X107644347Y-105299952D01*
X107328786Y-105455962D01*
X107137980Y-105830745D01*
X107023956Y-106235551D01*
X106991098Y-106654824D01*
X100437000Y-106654824D01*
X100437000Y-106553000D01*
X100457000Y-106553000D01*
X100457000Y-105353750D01*
X100711000Y-105353750D01*
X100711000Y-106553000D01*
X101910250Y-106553000D01*
X102069000Y-106394250D01*
X102072072Y-105830000D01*
X102059812Y-105705518D01*
X102023502Y-105585820D01*
X101964537Y-105475506D01*
X101885185Y-105378815D01*
X101788494Y-105299463D01*
X101678180Y-105240498D01*
X101558482Y-105204188D01*
X101434000Y-105191928D01*
X100869750Y-105195000D01*
X100711000Y-105353750D01*
X100457000Y-105353750D01*
X100298250Y-105195000D01*
X99734000Y-105191928D01*
X99609518Y-105204188D01*
X99489820Y-105240498D01*
X99379506Y-105299463D01*
X99282815Y-105378815D01*
X99203463Y-105475506D01*
X99144498Y-105585820D01*
X99122487Y-105658380D01*
X98990632Y-105526525D01*
X98747411Y-105364010D01*
X98477158Y-105252068D01*
X98190260Y-105195000D01*
X97897740Y-105195000D01*
X97610842Y-105252068D01*
X97340589Y-105364010D01*
X97097368Y-105526525D01*
X96890525Y-105733368D01*
X96774000Y-105907760D01*
X96657475Y-105733368D01*
X96450632Y-105526525D01*
X96207411Y-105364010D01*
X95937158Y-105252068D01*
X95650260Y-105195000D01*
X95357740Y-105195000D01*
X95070842Y-105252068D01*
X94800589Y-105364010D01*
X94557368Y-105526525D01*
X94350525Y-105733368D01*
X94234000Y-105907760D01*
X94117475Y-105733368D01*
X93910632Y-105526525D01*
X93667411Y-105364010D01*
X93397158Y-105252068D01*
X93110260Y-105195000D01*
X92817740Y-105195000D01*
X92530842Y-105252068D01*
X92260589Y-105364010D01*
X92017368Y-105526525D01*
X91810525Y-105733368D01*
X91694000Y-105907760D01*
X91577475Y-105733368D01*
X91370632Y-105526525D01*
X91127411Y-105364010D01*
X90857158Y-105252068D01*
X90570260Y-105195000D01*
X90277740Y-105195000D01*
X89990842Y-105252068D01*
X89720589Y-105364010D01*
X89477368Y-105526525D01*
X89270525Y-105733368D01*
X89108010Y-105976589D01*
X88996068Y-106246842D01*
X88939000Y-106533740D01*
X87845000Y-106533740D01*
X87787932Y-106246842D01*
X87675990Y-105976589D01*
X87513475Y-105733368D01*
X87306632Y-105526525D01*
X87124466Y-105404805D01*
X87241355Y-105335178D01*
X87457588Y-105140269D01*
X87472447Y-105120347D01*
X107823952Y-105120347D01*
X109136000Y-106432395D01*
X110448048Y-105120347D01*
X110292038Y-104804786D01*
X109917255Y-104613980D01*
X109512449Y-104499956D01*
X109093176Y-104467098D01*
X108675549Y-104516666D01*
X108275617Y-104646757D01*
X107979962Y-104804786D01*
X107823952Y-105120347D01*
X87472447Y-105120347D01*
X87631641Y-104906920D01*
X87756825Y-104644099D01*
X87801476Y-104496890D01*
X87680155Y-104267000D01*
X86487000Y-104267000D01*
X86487000Y-104287000D01*
X86233000Y-104287000D01*
X86233000Y-104267000D01*
X83947000Y-104267000D01*
X83947000Y-104287000D01*
X83693000Y-104287000D01*
X83693000Y-104267000D01*
X82499845Y-104267000D01*
X82378524Y-104496890D01*
X82423175Y-104644099D01*
X82548359Y-104906920D01*
X82722412Y-105140269D01*
X82938645Y-105335178D01*
X83055534Y-105404805D01*
X82873368Y-105526525D01*
X82666525Y-105733368D01*
X82504010Y-105976589D01*
X82392068Y-106246842D01*
X82335000Y-106533740D01*
X81940000Y-106533740D01*
X81940000Y-93833740D01*
X82335000Y-93833740D01*
X82335000Y-94126260D01*
X82392068Y-94413158D01*
X82504010Y-94683411D01*
X82666525Y-94926632D01*
X82873368Y-95133475D01*
X83047760Y-95250000D01*
X82873368Y-95366525D01*
X82666525Y-95573368D01*
X82504010Y-95816589D01*
X82392068Y-96086842D01*
X82335000Y-96373740D01*
X82335000Y-96666260D01*
X82392068Y-96953158D01*
X82504010Y-97223411D01*
X82666525Y-97466632D01*
X82873368Y-97673475D01*
X83047760Y-97790000D01*
X82873368Y-97906525D01*
X82666525Y-98113368D01*
X82504010Y-98356589D01*
X82392068Y-98626842D01*
X82335000Y-98913740D01*
X82335000Y-99206260D01*
X82392068Y-99493158D01*
X82504010Y-99763411D01*
X82666525Y-100006632D01*
X82873368Y-100213475D01*
X83047760Y-100330000D01*
X82873368Y-100446525D01*
X82666525Y-100653368D01*
X82504010Y-100896589D01*
X82392068Y-101166842D01*
X82335000Y-101453740D01*
X82335000Y-101746260D01*
X82392068Y-102033158D01*
X82504010Y-102303411D01*
X82666525Y-102546632D01*
X82873368Y-102753475D01*
X83055534Y-102875195D01*
X82938645Y-102944822D01*
X82722412Y-103139731D01*
X82548359Y-103373080D01*
X82423175Y-103635901D01*
X82378524Y-103783110D01*
X82499845Y-104013000D01*
X83693000Y-104013000D01*
X83693000Y-103993000D01*
X83947000Y-103993000D01*
X83947000Y-104013000D01*
X86233000Y-104013000D01*
X86233000Y-103993000D01*
X86487000Y-103993000D01*
X86487000Y-104013000D01*
X87680155Y-104013000D01*
X87801476Y-103783110D01*
X87756825Y-103635901D01*
X87631641Y-103373080D01*
X87457588Y-103139731D01*
X87241355Y-102944822D01*
X87124466Y-102875195D01*
X87306632Y-102753475D01*
X87318107Y-102742000D01*
X104987928Y-102742000D01*
X104987928Y-104342000D01*
X105000188Y-104466482D01*
X105036498Y-104586180D01*
X105095463Y-104696494D01*
X105174815Y-104793185D01*
X105271506Y-104872537D01*
X105381820Y-104931502D01*
X105501518Y-104967812D01*
X105626000Y-104980072D01*
X107226000Y-104980072D01*
X107350482Y-104967812D01*
X107470180Y-104931502D01*
X107580494Y-104872537D01*
X107677185Y-104793185D01*
X107756537Y-104696494D01*
X107815502Y-104586180D01*
X107851812Y-104466482D01*
X107864072Y-104342000D01*
X107864072Y-102742000D01*
X107851812Y-102617518D01*
X107815502Y-102497820D01*
X107756537Y-102387506D01*
X107677185Y-102290815D01*
X107580494Y-102211463D01*
X107470180Y-102152498D01*
X107374057Y-102123339D01*
X107540637Y-101956759D01*
X107697680Y-101721727D01*
X107805853Y-101460574D01*
X107861000Y-101183335D01*
X107861000Y-100900665D01*
X107805853Y-100623426D01*
X107697680Y-100362273D01*
X107540637Y-100127241D01*
X107455396Y-100042000D01*
X107540637Y-99956759D01*
X107697680Y-99721727D01*
X107805853Y-99460574D01*
X107861000Y-99183335D01*
X107861000Y-98900665D01*
X107805853Y-98623426D01*
X107697680Y-98362273D01*
X107540637Y-98127241D01*
X107340759Y-97927363D01*
X107140131Y-97793308D01*
X107167514Y-97778671D01*
X107239097Y-97534702D01*
X106426000Y-96721605D01*
X105612903Y-97534702D01*
X105684486Y-97778671D01*
X105713341Y-97792324D01*
X105511241Y-97927363D01*
X105311363Y-98127241D01*
X105154320Y-98362273D01*
X105046147Y-98623426D01*
X104991000Y-98900665D01*
X104991000Y-99183335D01*
X105046147Y-99460574D01*
X105154320Y-99721727D01*
X105311363Y-99956759D01*
X105396604Y-100042000D01*
X105311363Y-100127241D01*
X105154320Y-100362273D01*
X105046147Y-100623426D01*
X104991000Y-100900665D01*
X104991000Y-101183335D01*
X105046147Y-101460574D01*
X105154320Y-101721727D01*
X105311363Y-101956759D01*
X105477943Y-102123339D01*
X105381820Y-102152498D01*
X105271506Y-102211463D01*
X105174815Y-102290815D01*
X105095463Y-102387506D01*
X105036498Y-102497820D01*
X105000188Y-102617518D01*
X104987928Y-102742000D01*
X87318107Y-102742000D01*
X87513475Y-102546632D01*
X87675990Y-102303411D01*
X87787932Y-102033158D01*
X87845000Y-101746260D01*
X87845000Y-101453740D01*
X87787932Y-101166842D01*
X87675990Y-100896589D01*
X87513475Y-100653368D01*
X87306632Y-100446525D01*
X87132240Y-100330000D01*
X87306632Y-100213475D01*
X87513475Y-100006632D01*
X87631496Y-99830000D01*
X101985928Y-99830000D01*
X101985928Y-100830000D01*
X101998188Y-100954482D01*
X102034498Y-101074180D01*
X102093463Y-101184494D01*
X102172815Y-101281185D01*
X102269506Y-101360537D01*
X102379820Y-101419502D01*
X102499518Y-101455812D01*
X102624000Y-101468072D01*
X103624000Y-101468072D01*
X103748482Y-101455812D01*
X103868180Y-101419502D01*
X103978494Y-101360537D01*
X104075185Y-101281185D01*
X104154537Y-101184494D01*
X104213502Y-101074180D01*
X104249812Y-100954482D01*
X104262072Y-100830000D01*
X104262072Y-99830000D01*
X104249812Y-99705518D01*
X104213502Y-99585820D01*
X104154537Y-99475506D01*
X104075185Y-99378815D01*
X103978494Y-99299463D01*
X103868180Y-99240498D01*
X103748482Y-99204188D01*
X103624000Y-99191928D01*
X102624000Y-99191928D01*
X102499518Y-99204188D01*
X102379820Y-99240498D01*
X102269506Y-99299463D01*
X102172815Y-99378815D01*
X102093463Y-99475506D01*
X102034498Y-99585820D01*
X101998188Y-99705518D01*
X101985928Y-99830000D01*
X87631496Y-99830000D01*
X87675990Y-99763411D01*
X87787932Y-99493158D01*
X87845000Y-99206260D01*
X87845000Y-98913740D01*
X87787932Y-98626842D01*
X87675990Y-98356589D01*
X87513475Y-98113368D01*
X87306632Y-97906525D01*
X87132240Y-97790000D01*
X87306632Y-97673475D01*
X87513475Y-97466632D01*
X87675990Y-97223411D01*
X87787932Y-96953158D01*
X87796260Y-96911288D01*
X89493000Y-96911288D01*
X89493000Y-97144712D01*
X89538539Y-97373652D01*
X89627866Y-97589308D01*
X89757550Y-97783394D01*
X89922606Y-97948450D01*
X90116692Y-98078134D01*
X90332348Y-98167461D01*
X90561288Y-98213000D01*
X90794712Y-98213000D01*
X91023652Y-98167461D01*
X91239308Y-98078134D01*
X91433394Y-97948450D01*
X91598450Y-97783394D01*
X91728134Y-97589308D01*
X91817461Y-97373652D01*
X91863000Y-97144712D01*
X91863000Y-96911288D01*
X91817461Y-96682348D01*
X91728134Y-96466692D01*
X91598450Y-96272606D01*
X91433394Y-96107550D01*
X91302367Y-96020000D01*
X101985928Y-96020000D01*
X101985928Y-97020000D01*
X101998188Y-97144482D01*
X102034498Y-97264180D01*
X102093463Y-97374494D01*
X102172815Y-97471185D01*
X102269506Y-97550537D01*
X102379820Y-97609502D01*
X102499518Y-97645812D01*
X102624000Y-97658072D01*
X103624000Y-97658072D01*
X103748482Y-97645812D01*
X103868180Y-97609502D01*
X103978494Y-97550537D01*
X104075185Y-97471185D01*
X104154537Y-97374494D01*
X104213502Y-97264180D01*
X104249812Y-97144482D01*
X104262072Y-97020000D01*
X104262072Y-96612512D01*
X104985783Y-96612512D01*
X105027213Y-96892130D01*
X105122397Y-97158292D01*
X105189329Y-97283514D01*
X105433298Y-97355097D01*
X106246395Y-96542000D01*
X106605605Y-96542000D01*
X107418702Y-97355097D01*
X107662671Y-97283514D01*
X107783571Y-97028004D01*
X107852300Y-96753816D01*
X107866217Y-96471488D01*
X107824787Y-96191870D01*
X107729603Y-95925708D01*
X107662671Y-95800486D01*
X107418702Y-95728903D01*
X106605605Y-96542000D01*
X106246395Y-96542000D01*
X105433298Y-95728903D01*
X105189329Y-95800486D01*
X105068429Y-96055996D01*
X104999700Y-96330184D01*
X104985783Y-96612512D01*
X104262072Y-96612512D01*
X104262072Y-96020000D01*
X104249812Y-95895518D01*
X104213502Y-95775820D01*
X104154537Y-95665506D01*
X104075185Y-95568815D01*
X104051404Y-95549298D01*
X105612903Y-95549298D01*
X106426000Y-96362395D01*
X107239097Y-95549298D01*
X107167514Y-95305329D01*
X106912004Y-95184429D01*
X106637816Y-95115700D01*
X106355488Y-95101783D01*
X106075870Y-95143213D01*
X105809708Y-95238397D01*
X105684486Y-95305329D01*
X105612903Y-95549298D01*
X104051404Y-95549298D01*
X103978494Y-95489463D01*
X103868180Y-95430498D01*
X103748482Y-95394188D01*
X103624000Y-95381928D01*
X102624000Y-95381928D01*
X102499518Y-95394188D01*
X102379820Y-95430498D01*
X102269506Y-95489463D01*
X102172815Y-95568815D01*
X102093463Y-95665506D01*
X102034498Y-95775820D01*
X101998188Y-95895518D01*
X101985928Y-96020000D01*
X91302367Y-96020000D01*
X91239308Y-95977866D01*
X91023652Y-95888539D01*
X90794712Y-95843000D01*
X90561288Y-95843000D01*
X90332348Y-95888539D01*
X90116692Y-95977866D01*
X89922606Y-96107550D01*
X89757550Y-96272606D01*
X89627866Y-96466692D01*
X89538539Y-96682348D01*
X89493000Y-96911288D01*
X87796260Y-96911288D01*
X87845000Y-96666260D01*
X87845000Y-96373740D01*
X87787932Y-96086842D01*
X87675990Y-95816589D01*
X87513475Y-95573368D01*
X87381620Y-95441513D01*
X87454180Y-95419502D01*
X87564494Y-95360537D01*
X87661185Y-95281185D01*
X87740537Y-95184494D01*
X87799502Y-95074180D01*
X87833030Y-94963653D01*
X107823952Y-94963653D01*
X107979962Y-95279214D01*
X108354745Y-95470020D01*
X108759551Y-95584044D01*
X109178824Y-95616902D01*
X109596451Y-95567334D01*
X109996383Y-95437243D01*
X110292038Y-95279214D01*
X110448048Y-94963653D01*
X109136000Y-93651605D01*
X107823952Y-94963653D01*
X87833030Y-94963653D01*
X87835812Y-94954482D01*
X87848072Y-94830000D01*
X87848072Y-93514824D01*
X106991098Y-93514824D01*
X107040666Y-93932451D01*
X107170757Y-94332383D01*
X107328786Y-94628038D01*
X107644347Y-94784048D01*
X108956395Y-93472000D01*
X109315605Y-93472000D01*
X110627653Y-94784048D01*
X110943214Y-94628038D01*
X111134020Y-94253255D01*
X111248044Y-93848449D01*
X111280902Y-93429176D01*
X111231334Y-93011549D01*
X111101243Y-92611617D01*
X110943214Y-92315962D01*
X110627653Y-92159952D01*
X109315605Y-93472000D01*
X108956395Y-93472000D01*
X107644347Y-92159952D01*
X107328786Y-92315962D01*
X107137980Y-92690745D01*
X107023956Y-93095551D01*
X106991098Y-93514824D01*
X87848072Y-93514824D01*
X87848072Y-93130000D01*
X87835812Y-93005518D01*
X87799502Y-92885820D01*
X87740537Y-92775506D01*
X87661185Y-92678815D01*
X87564494Y-92599463D01*
X87454180Y-92540498D01*
X87334482Y-92504188D01*
X87210000Y-92491928D01*
X85510000Y-92491928D01*
X85385518Y-92504188D01*
X85265820Y-92540498D01*
X85155506Y-92599463D01*
X85058815Y-92678815D01*
X84979463Y-92775506D01*
X84920498Y-92885820D01*
X84898487Y-92958380D01*
X84766632Y-92826525D01*
X84523411Y-92664010D01*
X84253158Y-92552068D01*
X83966260Y-92495000D01*
X83673740Y-92495000D01*
X83386842Y-92552068D01*
X83116589Y-92664010D01*
X82873368Y-92826525D01*
X82666525Y-93033368D01*
X82504010Y-93276589D01*
X82392068Y-93546842D01*
X82335000Y-93833740D01*
X81940000Y-93833740D01*
X81940000Y-93504279D01*
X81974072Y-93156790D01*
X82065614Y-92853587D01*
X82214307Y-92573936D01*
X82414484Y-92328495D01*
X82658521Y-92126609D01*
X82937125Y-91975969D01*
X83239688Y-91882310D01*
X83585158Y-91846000D01*
X107890372Y-91846000D01*
X107823952Y-91980347D01*
G36*
X85206525Y-102546632D02*
G01*
X85413368Y-102753475D01*
X85595534Y-102875195D01*
X85478645Y-102944822D01*
X85262412Y-103139731D01*
X85090000Y-103370880D01*
X84917588Y-103139731D01*
X84701355Y-102944822D01*
X84584466Y-102875195D01*
X84766632Y-102753475D01*
X84973475Y-102546632D01*
X85090000Y-102372240D01*
X85206525Y-102546632D01*
G37*
X85206525Y-102546632D02*
X85413368Y-102753475D01*
X85595534Y-102875195D01*
X85478645Y-102944822D01*
X85262412Y-103139731D01*
X85090000Y-103370880D01*
X84917588Y-103139731D01*
X84701355Y-102944822D01*
X84584466Y-102875195D01*
X84766632Y-102753475D01*
X84973475Y-102546632D01*
X85090000Y-102372240D01*
X85206525Y-102546632D01*
M02*
