%TF.GenerationSoftware,KiCad,Pcbnew,5.1.6-c6e7f7d~86~ubuntu18.04.1*%
%TF.CreationDate,2021-07-01T18:37:21-07:00*%
%TF.ProjectId,usb_combo_pmod,7573625f-636f-46d6-926f-5f706d6f642e,rev?*%
%TF.SameCoordinates,Original*%
%TF.FileFunction,Copper,L4,Bot*%
%TF.FilePolarity,Positive*%
%FSLAX46Y46*%
G04 Gerber Fmt 4.6, Leading zero omitted, Abs format (unit mm)*
G04 Created by KiCad (PCBNEW 5.1.6-c6e7f7d~86~ubuntu18.04.1) date 2021-07-01 18:37:21*
%MOMM*%
%LPD*%
G01*
G04 APERTURE LIST*
%TA.AperFunction,ComponentPad*%
%ADD10O,1.700000X1.700000*%
%TD*%
%TA.AperFunction,ComponentPad*%
%ADD11R,1.700000X1.700000*%
%TD*%
%TA.AperFunction,ComponentPad*%
%ADD12C,1.600000*%
%TD*%
%TA.AperFunction,ComponentPad*%
%ADD13R,1.600000X1.600000*%
%TD*%
%TA.AperFunction,ComponentPad*%
%ADD14C,3.000000*%
%TD*%
%TA.AperFunction,ComponentPad*%
%ADD15C,3.316000*%
%TD*%
%TA.AperFunction,ComponentPad*%
%ADD16C,1.428000*%
%TD*%
%TA.AperFunction,ComponentPad*%
%ADD17R,1.428000X1.428000*%
%TD*%
%TA.AperFunction,ComponentPad*%
%ADD18R,1.000000X1.000000*%
%TD*%
%TA.AperFunction,ViaPad*%
%ADD19C,1.100000*%
%TD*%
%TA.AperFunction,ViaPad*%
%ADD20C,0.500000*%
%TD*%
%TA.AperFunction,Conductor*%
%ADD21C,0.127000*%
%TD*%
G04 APERTURE END LIST*
D10*
%TO.P,J1,12*%
%TO.N,+3V3*%
X99060000Y-83820000D03*
%TO.P,J1,6*%
X101600000Y-83820000D03*
%TO.P,J1,11*%
%TO.N,GND*%
X99060000Y-81280000D03*
%TO.P,J1,5*%
X101600000Y-81280000D03*
%TO.P,J1,10*%
%TO.N,/D_SUS*%
X99060000Y-78740000D03*
%TO.P,J1,4*%
%TO.N,/D_OE_*%
X101600000Y-78740000D03*
%TO.P,J1,9*%
%TO.N,/D_VM*%
X99060000Y-76200000D03*
%TO.P,J1,3*%
%TO.N,/D_CON*%
X101600000Y-76200000D03*
%TO.P,J1,8*%
%TO.N,/D_VP*%
X99060000Y-73660000D03*
%TO.P,J1,2*%
%TO.N,/D_RCV*%
X101600000Y-73660000D03*
%TO.P,J1,7*%
%TO.N,/D_SPD*%
X99060000Y-71120000D03*
D11*
%TO.P,J1,1*%
%TO.N,/D_VBUS_DET*%
X101600000Y-71120000D03*
%TD*%
D12*
%TO.P,J5,4*%
%TO.N,GND*%
X119888000Y-73772000D03*
%TO.P,J5,3*%
%TO.N,/D_DP*%
X119888000Y-76272000D03*
%TO.P,J5,2*%
%TO.N,/D_DN*%
X119888000Y-78272000D03*
D13*
%TO.P,J5,1*%
%TO.N,/D_VBUS*%
X119888000Y-80772000D03*
D14*
%TO.P,J5,5*%
%TO.N,GND*%
X122598000Y-83842000D03*
X122598000Y-70702000D03*
%TD*%
D15*
%TO.P,J4,S2*%
%TO.N,GND*%
X127646000Y-71323000D03*
%TO.P,J4,S1*%
X127646000Y-83363000D03*
D16*
%TO.P,J4,4*%
X124936000Y-76053000D03*
%TO.P,J4,3*%
%TO.N,/D_DP*%
X124936000Y-78553000D03*
%TO.P,J4,2*%
%TO.N,/D_DN*%
X122936000Y-78553000D03*
D17*
%TO.P,J4,1*%
%TO.N,/D_VBUS*%
X122936000Y-76053000D03*
%TD*%
D10*
%TO.P,J3,2*%
%TO.N,GND*%
X111252000Y-71120000D03*
D11*
%TO.P,J3,1*%
%TO.N,/D_VBUS*%
X113792000Y-71120000D03*
%TD*%
D10*
%TO.P,J2,5*%
%TO.N,/D_VM*%
X105664000Y-84328000D03*
%TO.P,J2,4*%
%TO.N,/D_VP*%
X108204000Y-84328000D03*
%TO.P,J2,3*%
%TO.N,/D_RCV*%
X110744000Y-84328000D03*
%TO.P,J2,2*%
%TO.N,/D_OE_*%
X113284000Y-84328000D03*
D11*
%TO.P,J2,1*%
%TO.N,GND*%
X115824000Y-84328000D03*
%TD*%
D18*
%TO.P,DP1,1*%
%TO.N,/D_DP*%
X115824000Y-76200000D03*
%TD*%
%TO.P,DN1,1*%
%TO.N,/D_DN*%
X115824000Y-78232000D03*
%TD*%
D19*
%TO.N,+3V3*%
X104777632Y-75899501D03*
%TO.N,GND*%
X106140593Y-80264167D03*
X104140000Y-70104000D03*
D20*
%TO.N,/D_SPD*%
X107696000Y-80264000D03*
%TO.N,/D_VPU*%
X107696000Y-75692000D03*
X109220000Y-75184000D03*
%TD*%
D21*
%TO.N,/D_OE_*%
X103124000Y-84328000D02*
X103124000Y-80264000D01*
X103124000Y-80264000D02*
X101600000Y-78740000D01*
X104164501Y-85368501D02*
X103124000Y-84328000D01*
X112243499Y-85368501D02*
X104164501Y-85368501D01*
X113284000Y-84328000D02*
X112243499Y-85368501D01*
%TO.N,/D_VM*%
X103632000Y-82296000D02*
X103632000Y-79248000D01*
X103632000Y-79248000D02*
X102083499Y-77699499D01*
X105664000Y-84328000D02*
X103632000Y-82296000D01*
X100559499Y-77699499D02*
X99060000Y-76200000D01*
X102083499Y-77699499D02*
X100559499Y-77699499D01*
%TO.N,/D_RCV*%
X103124000Y-75184000D02*
X101600000Y-73660000D01*
X103124000Y-77216000D02*
X103124000Y-75184000D01*
X104648000Y-78740000D02*
X103124000Y-77216000D01*
X104648000Y-81788000D02*
X104648000Y-78740000D01*
X105156000Y-82296000D02*
X104648000Y-81788000D01*
X108712000Y-82296000D02*
X105156000Y-82296000D01*
X110744000Y-84328000D02*
X108712000Y-82296000D01*
%TO.N,/D_VP*%
X104140000Y-79248000D02*
X104140000Y-80772000D01*
X102132501Y-77240501D02*
X104140000Y-79248000D01*
X100608501Y-77240501D02*
X102132501Y-77240501D01*
X100100501Y-76732501D02*
X100608501Y-77240501D01*
X100100501Y-74700501D02*
X100100501Y-76732501D01*
X99060000Y-73660000D02*
X100100501Y-74700501D01*
X106680000Y-82804000D02*
X108204000Y-84328000D01*
X106172000Y-82804000D02*
X106680000Y-82804000D01*
X106172000Y-82804000D02*
X105156000Y-82804000D01*
X105156000Y-82804000D02*
X104648000Y-82804000D01*
X104648000Y-82804000D02*
X104140000Y-82296000D01*
X104140000Y-82296000D02*
X104140000Y-80264000D01*
%TO.N,/D_SPD*%
X107696000Y-80264000D02*
X103632000Y-76200000D01*
X103632000Y-76200000D02*
X103632000Y-73152000D01*
X103099499Y-72619499D02*
X100608501Y-72619499D01*
X103632000Y-73152000D02*
X103099499Y-72619499D01*
X99109002Y-71120000D02*
X99060000Y-71120000D01*
X100608501Y-72619499D02*
X99109002Y-71120000D01*
%TO.N,/D_VPU*%
X108712000Y-75692000D02*
X109220000Y-75184000D01*
X107696000Y-75692000D02*
X108712000Y-75692000D01*
%TD*%
M02*
