%TF.GenerationSoftware,KiCad,Pcbnew,5.1.6-c6e7f7d~86~ubuntu18.04.1*%
%TF.CreationDate,2021-07-01T18:37:21-07:00*%
%TF.ProjectId,usb_combo_pmod,7573625f-636f-46d6-926f-5f706d6f642e,rev?*%
%TF.SameCoordinates,Original*%
%TF.FileFunction,Legend,Top*%
%TF.FilePolarity,Positive*%
%FSLAX46Y46*%
G04 Gerber Fmt 4.6, Leading zero omitted, Abs format (unit mm)*
G04 Created by KiCad (PCBNEW 5.1.6-c6e7f7d~86~ubuntu18.04.1) date 2021-07-01 18:37:21*
%MOMM*%
%LPD*%
G01*
G04 APERTURE LIST*
%ADD10C,0.114300*%
%ADD11C,0.120000*%
%ADD12C,0.240000*%
%ADD13C,0.127000*%
%ADD14C,0.150000*%
G04 APERTURE END LIST*
D10*
X110768190Y-68516500D02*
X110707714Y-68486261D01*
X110617000Y-68486261D01*
X110526285Y-68516500D01*
X110465809Y-68576976D01*
X110435571Y-68637452D01*
X110405333Y-68758404D01*
X110405333Y-68849119D01*
X110435571Y-68970071D01*
X110465809Y-69030547D01*
X110526285Y-69091023D01*
X110617000Y-69121261D01*
X110677476Y-69121261D01*
X110768190Y-69091023D01*
X110798428Y-69060785D01*
X110798428Y-68849119D01*
X110677476Y-68849119D01*
X111070571Y-69121261D02*
X111070571Y-68486261D01*
X111433428Y-69121261D01*
X111433428Y-68486261D01*
X111735809Y-69121261D02*
X111735809Y-68486261D01*
X111887000Y-68486261D01*
X111977714Y-68516500D01*
X112038190Y-68576976D01*
X112068428Y-68637452D01*
X112098666Y-68758404D01*
X112098666Y-68849119D01*
X112068428Y-68970071D01*
X112038190Y-69030547D01*
X111977714Y-69091023D01*
X111887000Y-69121261D01*
X111735809Y-69121261D01*
X112881833Y-68486261D02*
X113093500Y-69121261D01*
X113305166Y-68486261D01*
X113728500Y-68788642D02*
X113819214Y-68818880D01*
X113849452Y-68849119D01*
X113879690Y-68909595D01*
X113879690Y-69000309D01*
X113849452Y-69060785D01*
X113819214Y-69091023D01*
X113758738Y-69121261D01*
X113516833Y-69121261D01*
X113516833Y-68486261D01*
X113728500Y-68486261D01*
X113788976Y-68516500D01*
X113819214Y-68546738D01*
X113849452Y-68607214D01*
X113849452Y-68667690D01*
X113819214Y-68728166D01*
X113788976Y-68758404D01*
X113728500Y-68788642D01*
X113516833Y-68788642D01*
X114151833Y-68486261D02*
X114151833Y-69000309D01*
X114182071Y-69060785D01*
X114212309Y-69091023D01*
X114272785Y-69121261D01*
X114393738Y-69121261D01*
X114454214Y-69091023D01*
X114484452Y-69060785D01*
X114514690Y-69000309D01*
X114514690Y-68486261D01*
X114786833Y-69091023D02*
X114877547Y-69121261D01*
X115028738Y-69121261D01*
X115089214Y-69091023D01*
X115119452Y-69060785D01*
X115149690Y-69000309D01*
X115149690Y-68939833D01*
X115119452Y-68879357D01*
X115089214Y-68849119D01*
X115028738Y-68818880D01*
X114907785Y-68788642D01*
X114847309Y-68758404D01*
X114817071Y-68728166D01*
X114786833Y-68667690D01*
X114786833Y-68607214D01*
X114817071Y-68546738D01*
X114847309Y-68516500D01*
X114907785Y-68486261D01*
X115058976Y-68486261D01*
X115149690Y-68516500D01*
X115340190Y-81978500D02*
X115279714Y-81948261D01*
X115189000Y-81948261D01*
X115098285Y-81978500D01*
X115037809Y-82038976D01*
X115007571Y-82099452D01*
X114977333Y-82220404D01*
X114977333Y-82311119D01*
X115007571Y-82432071D01*
X115037809Y-82492547D01*
X115098285Y-82553023D01*
X115189000Y-82583261D01*
X115249476Y-82583261D01*
X115340190Y-82553023D01*
X115370428Y-82522785D01*
X115370428Y-82311119D01*
X115249476Y-82311119D01*
X115642571Y-82583261D02*
X115642571Y-81948261D01*
X116005428Y-82583261D01*
X116005428Y-81948261D01*
X116307809Y-82583261D02*
X116307809Y-81948261D01*
X116459000Y-81948261D01*
X116549714Y-81978500D01*
X116610190Y-82038976D01*
X116640428Y-82099452D01*
X116670666Y-82220404D01*
X116670666Y-82311119D01*
X116640428Y-82432071D01*
X116610190Y-82492547D01*
X116549714Y-82553023D01*
X116459000Y-82583261D01*
X116307809Y-82583261D01*
X112948357Y-81948261D02*
X113069309Y-81948261D01*
X113129785Y-81978500D01*
X113190261Y-82038976D01*
X113220500Y-82159928D01*
X113220500Y-82371595D01*
X113190261Y-82492547D01*
X113129785Y-82553023D01*
X113069309Y-82583261D01*
X112948357Y-82583261D01*
X112887880Y-82553023D01*
X112827404Y-82492547D01*
X112797166Y-82371595D01*
X112797166Y-82159928D01*
X112827404Y-82038976D01*
X112887880Y-81978500D01*
X112948357Y-81948261D01*
X113492642Y-82250642D02*
X113704309Y-82250642D01*
X113795023Y-82583261D02*
X113492642Y-82583261D01*
X113492642Y-81948261D01*
X113795023Y-81948261D01*
X113915976Y-82643738D02*
X114399785Y-82643738D01*
X110350904Y-82583261D02*
X110139238Y-82280880D01*
X109988047Y-82583261D02*
X109988047Y-81948261D01*
X110229952Y-81948261D01*
X110290428Y-81978500D01*
X110320666Y-82008738D01*
X110350904Y-82069214D01*
X110350904Y-82159928D01*
X110320666Y-82220404D01*
X110290428Y-82250642D01*
X110229952Y-82280880D01*
X109988047Y-82280880D01*
X110985904Y-82522785D02*
X110955666Y-82553023D01*
X110864952Y-82583261D01*
X110804476Y-82583261D01*
X110713761Y-82553023D01*
X110653285Y-82492547D01*
X110623047Y-82432071D01*
X110592809Y-82311119D01*
X110592809Y-82220404D01*
X110623047Y-82099452D01*
X110653285Y-82038976D01*
X110713761Y-81978500D01*
X110804476Y-81948261D01*
X110864952Y-81948261D01*
X110955666Y-81978500D01*
X110985904Y-82008738D01*
X111167333Y-81948261D02*
X111379000Y-82583261D01*
X111590666Y-81948261D01*
X107674833Y-81948261D02*
X107886500Y-82583261D01*
X108098166Y-81948261D01*
X108309833Y-82583261D02*
X108309833Y-81948261D01*
X108551738Y-81948261D01*
X108612214Y-81978500D01*
X108642452Y-82008738D01*
X108672690Y-82069214D01*
X108672690Y-82159928D01*
X108642452Y-82220404D01*
X108612214Y-82250642D01*
X108551738Y-82280880D01*
X108309833Y-82280880D01*
X105089476Y-81948261D02*
X105301142Y-82583261D01*
X105512809Y-81948261D01*
X105724476Y-82583261D02*
X105724476Y-81948261D01*
X105936142Y-82401833D01*
X106147809Y-81948261D01*
X106147809Y-82583261D01*
D11*
%TO.C,J1*%
X102930000Y-69663000D02*
X101600000Y-69663000D01*
X102930000Y-70993000D02*
X102930000Y-69663000D01*
X100330000Y-69663000D02*
X97730000Y-69663000D01*
X100330000Y-72263000D02*
X100330000Y-69663000D01*
X102930000Y-72263000D02*
X100330000Y-72263000D01*
X97730000Y-69663000D02*
X97730000Y-85023000D01*
X102930000Y-72263000D02*
X102930000Y-85023000D01*
X102930000Y-85023000D02*
X97730000Y-85023000D01*
%TO.C,U1*%
X105512000Y-76114000D02*
X105037000Y-76114000D01*
X108257000Y-79334000D02*
X108257000Y-78859000D01*
X107782000Y-79334000D02*
X108257000Y-79334000D01*
X105037000Y-79334000D02*
X105037000Y-78859000D01*
X105512000Y-79334000D02*
X105037000Y-79334000D01*
X108257000Y-76114000D02*
X108257000Y-76589000D01*
X107782000Y-76114000D02*
X108257000Y-76114000D01*
%TO.C,R5*%
X111282267Y-75690000D02*
X110939733Y-75690000D01*
X111282267Y-76710000D02*
X110939733Y-76710000D01*
%TO.C,R4*%
X111282267Y-80262000D02*
X110939733Y-80262000D01*
X111282267Y-81282000D02*
X110939733Y-81282000D01*
%TO.C,R3*%
X111282267Y-74166000D02*
X110939733Y-74166000D01*
X111282267Y-75186000D02*
X110939733Y-75186000D01*
%TO.C,R2*%
X111282267Y-78738000D02*
X110939733Y-78738000D01*
X111282267Y-79758000D02*
X110939733Y-79758000D01*
%TO.C,R1*%
X111282267Y-77214000D02*
X110939733Y-77214000D01*
X111282267Y-78234000D02*
X110939733Y-78234000D01*
%TO.C,J5*%
X132878000Y-84522000D02*
X132878000Y-70022000D01*
X132878000Y-70022000D02*
X132378000Y-70022000D01*
X132378000Y-70022000D02*
X132378000Y-71022000D01*
X132378000Y-71022000D02*
X124378000Y-71022000D01*
X120878000Y-71022000D02*
X118878000Y-71022000D01*
X118878000Y-71022000D02*
X118878000Y-83522000D01*
X118878000Y-83522000D02*
X120878000Y-83522000D01*
X124378000Y-83522000D02*
X132378000Y-83522000D01*
X132378000Y-83522000D02*
X132378000Y-84522000D01*
X132378000Y-84522000D02*
X132878000Y-84522000D01*
X118628000Y-81272000D02*
X118628000Y-80272000D01*
D12*
%TO.C,J4*%
X121116000Y-75643000D02*
G75*
G03*
X121116000Y-75643000I-120000J0D01*
G01*
D13*
X125646000Y-83343000D02*
X121846000Y-83343000D01*
X137946000Y-83343000D02*
X129646000Y-83343000D01*
X137946000Y-71343000D02*
X137946000Y-83343000D01*
X129646000Y-71343000D02*
X137946000Y-71343000D01*
X121846000Y-71343000D02*
X125646000Y-71343000D01*
X121846000Y-72993000D02*
X121846000Y-71343000D01*
X121446000Y-73193000D02*
X121846000Y-72993000D01*
X121446000Y-81493000D02*
X121446000Y-73193000D01*
X121846000Y-81693000D02*
X121446000Y-81493000D01*
X121846000Y-83343000D02*
X121846000Y-81693000D01*
D11*
%TO.C,J3*%
X115122000Y-69790000D02*
X115122000Y-71120000D01*
X113792000Y-69790000D02*
X115122000Y-69790000D01*
X112522000Y-69790000D02*
X112522000Y-72450000D01*
X112522000Y-72450000D02*
X109922000Y-72450000D01*
X112522000Y-69790000D02*
X109922000Y-69790000D01*
X109922000Y-69790000D02*
X109922000Y-72450000D01*
%TO.C,J2*%
X117154000Y-82998000D02*
X117154000Y-84328000D01*
X115824000Y-82998000D02*
X117154000Y-82998000D01*
X114554000Y-82998000D02*
X114554000Y-85658000D01*
X114554000Y-85658000D02*
X104334000Y-85658000D01*
X114554000Y-82998000D02*
X104334000Y-82998000D01*
X104334000Y-82998000D02*
X104334000Y-85658000D01*
%TO.C,DP1*%
X115124000Y-76900000D02*
X115124000Y-75500000D01*
X116524000Y-76900000D02*
X115124000Y-76900000D01*
X116524000Y-75500000D02*
X116524000Y-76900000D01*
X115124000Y-75500000D02*
X116524000Y-75500000D01*
%TO.C,DN1*%
X115124000Y-78932000D02*
X115124000Y-77532000D01*
X116524000Y-78932000D02*
X115124000Y-78932000D01*
X116524000Y-77532000D02*
X116524000Y-78932000D01*
X115124000Y-77532000D02*
X116524000Y-77532000D01*
%TO.C,C3*%
X106202267Y-70610000D02*
X105859733Y-70610000D01*
X106202267Y-71630000D02*
X105859733Y-71630000D01*
%TO.C,C2*%
X106202267Y-72134000D02*
X105859733Y-72134000D01*
X106202267Y-73154000D02*
X105859733Y-73154000D01*
%TO.C,C1*%
X105859733Y-74678000D02*
X106202267Y-74678000D01*
X105859733Y-73658000D02*
X106202267Y-73658000D01*
%TO.C,J1*%
D14*
X99996666Y-68242380D02*
X99996666Y-68956666D01*
X99949047Y-69099523D01*
X99853809Y-69194761D01*
X99710952Y-69242380D01*
X99615714Y-69242380D01*
X100996666Y-69242380D02*
X100425238Y-69242380D01*
X100710952Y-69242380D02*
X100710952Y-68242380D01*
X100615714Y-68385238D01*
X100520476Y-68480476D01*
X100425238Y-68528095D01*
%TO.C,U1*%
X103886095Y-79716380D02*
X103886095Y-80525904D01*
X103933714Y-80621142D01*
X103981333Y-80668761D01*
X104076571Y-80716380D01*
X104267047Y-80716380D01*
X104362285Y-80668761D01*
X104409904Y-80621142D01*
X104457523Y-80525904D01*
X104457523Y-79716380D01*
X105457523Y-80716380D02*
X104886095Y-80716380D01*
X105171809Y-80716380D02*
X105171809Y-79716380D01*
X105076571Y-79859238D01*
X104981333Y-79954476D01*
X104886095Y-80002095D01*
%TO.C,R5*%
X113625333Y-76652380D02*
X113292000Y-76176190D01*
X113053904Y-76652380D02*
X113053904Y-75652380D01*
X113434857Y-75652380D01*
X113530095Y-75700000D01*
X113577714Y-75747619D01*
X113625333Y-75842857D01*
X113625333Y-75985714D01*
X113577714Y-76080952D01*
X113530095Y-76128571D01*
X113434857Y-76176190D01*
X113053904Y-76176190D01*
X114530095Y-75652380D02*
X114053904Y-75652380D01*
X114006285Y-76128571D01*
X114053904Y-76080952D01*
X114149142Y-76033333D01*
X114387238Y-76033333D01*
X114482476Y-76080952D01*
X114530095Y-76128571D01*
X114577714Y-76223809D01*
X114577714Y-76461904D01*
X114530095Y-76557142D01*
X114482476Y-76604761D01*
X114387238Y-76652380D01*
X114149142Y-76652380D01*
X114053904Y-76604761D01*
X114006285Y-76557142D01*
%TO.C,R4*%
X113625333Y-81224380D02*
X113292000Y-80748190D01*
X113053904Y-81224380D02*
X113053904Y-80224380D01*
X113434857Y-80224380D01*
X113530095Y-80272000D01*
X113577714Y-80319619D01*
X113625333Y-80414857D01*
X113625333Y-80557714D01*
X113577714Y-80652952D01*
X113530095Y-80700571D01*
X113434857Y-80748190D01*
X113053904Y-80748190D01*
X114482476Y-80557714D02*
X114482476Y-81224380D01*
X114244380Y-80176761D02*
X114006285Y-80891047D01*
X114625333Y-80891047D01*
%TO.C,R3*%
X113625333Y-75128380D02*
X113292000Y-74652190D01*
X113053904Y-75128380D02*
X113053904Y-74128380D01*
X113434857Y-74128380D01*
X113530095Y-74176000D01*
X113577714Y-74223619D01*
X113625333Y-74318857D01*
X113625333Y-74461714D01*
X113577714Y-74556952D01*
X113530095Y-74604571D01*
X113434857Y-74652190D01*
X113053904Y-74652190D01*
X113958666Y-74128380D02*
X114577714Y-74128380D01*
X114244380Y-74509333D01*
X114387238Y-74509333D01*
X114482476Y-74556952D01*
X114530095Y-74604571D01*
X114577714Y-74699809D01*
X114577714Y-74937904D01*
X114530095Y-75033142D01*
X114482476Y-75080761D01*
X114387238Y-75128380D01*
X114101523Y-75128380D01*
X114006285Y-75080761D01*
X113958666Y-75033142D01*
%TO.C,R2*%
X113625333Y-79700380D02*
X113292000Y-79224190D01*
X113053904Y-79700380D02*
X113053904Y-78700380D01*
X113434857Y-78700380D01*
X113530095Y-78748000D01*
X113577714Y-78795619D01*
X113625333Y-78890857D01*
X113625333Y-79033714D01*
X113577714Y-79128952D01*
X113530095Y-79176571D01*
X113434857Y-79224190D01*
X113053904Y-79224190D01*
X114006285Y-78795619D02*
X114053904Y-78748000D01*
X114149142Y-78700380D01*
X114387238Y-78700380D01*
X114482476Y-78748000D01*
X114530095Y-78795619D01*
X114577714Y-78890857D01*
X114577714Y-78986095D01*
X114530095Y-79128952D01*
X113958666Y-79700380D01*
X114577714Y-79700380D01*
%TO.C,R1*%
X113625333Y-78176380D02*
X113292000Y-77700190D01*
X113053904Y-78176380D02*
X113053904Y-77176380D01*
X113434857Y-77176380D01*
X113530095Y-77224000D01*
X113577714Y-77271619D01*
X113625333Y-77366857D01*
X113625333Y-77509714D01*
X113577714Y-77604952D01*
X113530095Y-77652571D01*
X113434857Y-77700190D01*
X113053904Y-77700190D01*
X114577714Y-78176380D02*
X114006285Y-78176380D01*
X114292000Y-78176380D02*
X114292000Y-77176380D01*
X114196761Y-77319238D01*
X114101523Y-77414476D01*
X114006285Y-77462095D01*
%TO.C,J5*%
X119046666Y-69048380D02*
X119046666Y-69762666D01*
X118999047Y-69905523D01*
X118903809Y-70000761D01*
X118760952Y-70048380D01*
X118665714Y-70048380D01*
X119999047Y-69048380D02*
X119522857Y-69048380D01*
X119475238Y-69524571D01*
X119522857Y-69476952D01*
X119618095Y-69429333D01*
X119856190Y-69429333D01*
X119951428Y-69476952D01*
X119999047Y-69524571D01*
X120046666Y-69619809D01*
X120046666Y-69857904D01*
X119999047Y-69953142D01*
X119951428Y-70000761D01*
X119856190Y-70048380D01*
X119618095Y-70048380D01*
X119522857Y-70000761D01*
X119475238Y-69953142D01*
%TO.C,J4*%
X130222666Y-69048380D02*
X130222666Y-69762666D01*
X130175047Y-69905523D01*
X130079809Y-70000761D01*
X129936952Y-70048380D01*
X129841714Y-70048380D01*
X131127428Y-69381714D02*
X131127428Y-70048380D01*
X130889333Y-69000761D02*
X130651238Y-69715047D01*
X131270285Y-69715047D01*
%TO.C,J3*%
X115998666Y-72604380D02*
X115998666Y-73318666D01*
X115951047Y-73461523D01*
X115855809Y-73556761D01*
X115712952Y-73604380D01*
X115617714Y-73604380D01*
X116379619Y-72604380D02*
X116998666Y-72604380D01*
X116665333Y-72985333D01*
X116808190Y-72985333D01*
X116903428Y-73032952D01*
X116951047Y-73080571D01*
X116998666Y-73175809D01*
X116998666Y-73413904D01*
X116951047Y-73509142D01*
X116903428Y-73556761D01*
X116808190Y-73604380D01*
X116522476Y-73604380D01*
X116427238Y-73556761D01*
X116379619Y-73509142D01*
%TO.C,J2*%
X117522666Y-85050380D02*
X117522666Y-85764666D01*
X117475047Y-85907523D01*
X117379809Y-86002761D01*
X117236952Y-86050380D01*
X117141714Y-86050380D01*
X117951238Y-85145619D02*
X117998857Y-85098000D01*
X118094095Y-85050380D01*
X118332190Y-85050380D01*
X118427428Y-85098000D01*
X118475047Y-85145619D01*
X118522666Y-85240857D01*
X118522666Y-85336095D01*
X118475047Y-85478952D01*
X117903619Y-86050380D01*
X118522666Y-86050380D01*
%TO.C,DP1*%
D13*
X116912571Y-76544714D02*
X116912571Y-75782714D01*
X117094000Y-75782714D01*
X117202857Y-75819000D01*
X117275428Y-75891571D01*
X117311714Y-75964142D01*
X117348000Y-76109285D01*
X117348000Y-76218142D01*
X117311714Y-76363285D01*
X117275428Y-76435857D01*
X117202857Y-76508428D01*
X117094000Y-76544714D01*
X116912571Y-76544714D01*
X117674571Y-76544714D02*
X117674571Y-75782714D01*
X117964857Y-75782714D01*
X118037428Y-75819000D01*
X118073714Y-75855285D01*
X118110000Y-75927857D01*
X118110000Y-76036714D01*
X118073714Y-76109285D01*
X118037428Y-76145571D01*
X117964857Y-76181857D01*
X117674571Y-76181857D01*
X118835714Y-76544714D02*
X118400285Y-76544714D01*
X118618000Y-76544714D02*
X118618000Y-75782714D01*
X118545428Y-75891571D01*
X118472857Y-75964142D01*
X118400285Y-76000428D01*
%TO.C,DN1*%
X116894428Y-78576714D02*
X116894428Y-77814714D01*
X117075857Y-77814714D01*
X117184714Y-77851000D01*
X117257285Y-77923571D01*
X117293571Y-77996142D01*
X117329857Y-78141285D01*
X117329857Y-78250142D01*
X117293571Y-78395285D01*
X117257285Y-78467857D01*
X117184714Y-78540428D01*
X117075857Y-78576714D01*
X116894428Y-78576714D01*
X117656428Y-78576714D02*
X117656428Y-77814714D01*
X118091857Y-78576714D01*
X118091857Y-77814714D01*
X118853857Y-78576714D02*
X118418428Y-78576714D01*
X118636142Y-78576714D02*
X118636142Y-77814714D01*
X118563571Y-77923571D01*
X118491000Y-77996142D01*
X118418428Y-78032428D01*
%TO.C,C3*%
D14*
X108545333Y-71477142D02*
X108497714Y-71524761D01*
X108354857Y-71572380D01*
X108259619Y-71572380D01*
X108116761Y-71524761D01*
X108021523Y-71429523D01*
X107973904Y-71334285D01*
X107926285Y-71143809D01*
X107926285Y-71000952D01*
X107973904Y-70810476D01*
X108021523Y-70715238D01*
X108116761Y-70620000D01*
X108259619Y-70572380D01*
X108354857Y-70572380D01*
X108497714Y-70620000D01*
X108545333Y-70667619D01*
X108878666Y-70572380D02*
X109497714Y-70572380D01*
X109164380Y-70953333D01*
X109307238Y-70953333D01*
X109402476Y-71000952D01*
X109450095Y-71048571D01*
X109497714Y-71143809D01*
X109497714Y-71381904D01*
X109450095Y-71477142D01*
X109402476Y-71524761D01*
X109307238Y-71572380D01*
X109021523Y-71572380D01*
X108926285Y-71524761D01*
X108878666Y-71477142D01*
%TO.C,C2*%
X108545333Y-73001142D02*
X108497714Y-73048761D01*
X108354857Y-73096380D01*
X108259619Y-73096380D01*
X108116761Y-73048761D01*
X108021523Y-72953523D01*
X107973904Y-72858285D01*
X107926285Y-72667809D01*
X107926285Y-72524952D01*
X107973904Y-72334476D01*
X108021523Y-72239238D01*
X108116761Y-72144000D01*
X108259619Y-72096380D01*
X108354857Y-72096380D01*
X108497714Y-72144000D01*
X108545333Y-72191619D01*
X108926285Y-72191619D02*
X108973904Y-72144000D01*
X109069142Y-72096380D01*
X109307238Y-72096380D01*
X109402476Y-72144000D01*
X109450095Y-72191619D01*
X109497714Y-72286857D01*
X109497714Y-72382095D01*
X109450095Y-72524952D01*
X108878666Y-73096380D01*
X109497714Y-73096380D01*
%TO.C,C1*%
X108545333Y-74525142D02*
X108497714Y-74572761D01*
X108354857Y-74620380D01*
X108259619Y-74620380D01*
X108116761Y-74572761D01*
X108021523Y-74477523D01*
X107973904Y-74382285D01*
X107926285Y-74191809D01*
X107926285Y-74048952D01*
X107973904Y-73858476D01*
X108021523Y-73763238D01*
X108116761Y-73668000D01*
X108259619Y-73620380D01*
X108354857Y-73620380D01*
X108497714Y-73668000D01*
X108545333Y-73715619D01*
X109497714Y-74620380D02*
X108926285Y-74620380D01*
X109212000Y-74620380D02*
X109212000Y-73620380D01*
X109116761Y-73763238D01*
X109021523Y-73858476D01*
X108926285Y-73906095D01*
%TD*%
M02*
