%TF.GenerationSoftware,KiCad,Pcbnew,5.1.6-c6e7f7d~86~ubuntu18.04.1*%
%TF.CreationDate,2021-07-01T18:37:21-07:00*%
%TF.ProjectId,usb_combo_pmod,7573625f-636f-46d6-926f-5f706d6f642e,rev?*%
%TF.SameCoordinates,Original*%
%TF.FileFunction,Soldermask,Top*%
%TF.FilePolarity,Negative*%
%FSLAX46Y46*%
G04 Gerber Fmt 4.6, Leading zero omitted, Abs format (unit mm)*
G04 Created by KiCad (PCBNEW 5.1.6-c6e7f7d~86~ubuntu18.04.1) date 2021-07-01 18:37:21*
%MOMM*%
%LPD*%
G01*
G04 APERTURE LIST*
%ADD10C,0.100000*%
G04 APERTURE END LIST*
D10*
G36*
X122900585Y-82320802D02*
G01*
X123050410Y-82350604D01*
X123332674Y-82467521D01*
X123586705Y-82637259D01*
X123802741Y-82853295D01*
X123972479Y-83107326D01*
X124089396Y-83389590D01*
X124149000Y-83689240D01*
X124149000Y-83994760D01*
X124089396Y-84294410D01*
X123972479Y-84576674D01*
X123802741Y-84830705D01*
X123586705Y-85046741D01*
X123332674Y-85216479D01*
X123050410Y-85333396D01*
X122900585Y-85363198D01*
X122750761Y-85393000D01*
X122445239Y-85393000D01*
X122295415Y-85363198D01*
X122145590Y-85333396D01*
X121863326Y-85216479D01*
X121609295Y-85046741D01*
X121393259Y-84830705D01*
X121223521Y-84576674D01*
X121106604Y-84294410D01*
X121047000Y-83994760D01*
X121047000Y-83689240D01*
X121106604Y-83389590D01*
X121223521Y-83107326D01*
X121393259Y-82853295D01*
X121609295Y-82637259D01*
X121863326Y-82467521D01*
X122145590Y-82350604D01*
X122295415Y-82320802D01*
X122445239Y-82291000D01*
X122750761Y-82291000D01*
X122900585Y-82320802D01*
G37*
G36*
X116725000Y-85229000D02*
G01*
X114923000Y-85229000D01*
X114923000Y-83427000D01*
X116725000Y-83427000D01*
X116725000Y-85229000D01*
G37*
G36*
X105777512Y-83431927D02*
G01*
X105926812Y-83461624D01*
X106090784Y-83529544D01*
X106238354Y-83628147D01*
X106363853Y-83753646D01*
X106462456Y-83901216D01*
X106530376Y-84065188D01*
X106565000Y-84239259D01*
X106565000Y-84416741D01*
X106530376Y-84590812D01*
X106462456Y-84754784D01*
X106363853Y-84902354D01*
X106238354Y-85027853D01*
X106090784Y-85126456D01*
X105926812Y-85194376D01*
X105777512Y-85224073D01*
X105752742Y-85229000D01*
X105575258Y-85229000D01*
X105550488Y-85224073D01*
X105401188Y-85194376D01*
X105237216Y-85126456D01*
X105089646Y-85027853D01*
X104964147Y-84902354D01*
X104865544Y-84754784D01*
X104797624Y-84590812D01*
X104763000Y-84416741D01*
X104763000Y-84239259D01*
X104797624Y-84065188D01*
X104865544Y-83901216D01*
X104964147Y-83753646D01*
X105089646Y-83628147D01*
X105237216Y-83529544D01*
X105401188Y-83461624D01*
X105550488Y-83431927D01*
X105575258Y-83427000D01*
X105752742Y-83427000D01*
X105777512Y-83431927D01*
G37*
G36*
X108317512Y-83431927D02*
G01*
X108466812Y-83461624D01*
X108630784Y-83529544D01*
X108778354Y-83628147D01*
X108903853Y-83753646D01*
X109002456Y-83901216D01*
X109070376Y-84065188D01*
X109105000Y-84239259D01*
X109105000Y-84416741D01*
X109070376Y-84590812D01*
X109002456Y-84754784D01*
X108903853Y-84902354D01*
X108778354Y-85027853D01*
X108630784Y-85126456D01*
X108466812Y-85194376D01*
X108317512Y-85224073D01*
X108292742Y-85229000D01*
X108115258Y-85229000D01*
X108090488Y-85224073D01*
X107941188Y-85194376D01*
X107777216Y-85126456D01*
X107629646Y-85027853D01*
X107504147Y-84902354D01*
X107405544Y-84754784D01*
X107337624Y-84590812D01*
X107303000Y-84416741D01*
X107303000Y-84239259D01*
X107337624Y-84065188D01*
X107405544Y-83901216D01*
X107504147Y-83753646D01*
X107629646Y-83628147D01*
X107777216Y-83529544D01*
X107941188Y-83461624D01*
X108090488Y-83431927D01*
X108115258Y-83427000D01*
X108292742Y-83427000D01*
X108317512Y-83431927D01*
G37*
G36*
X110857512Y-83431927D02*
G01*
X111006812Y-83461624D01*
X111170784Y-83529544D01*
X111318354Y-83628147D01*
X111443853Y-83753646D01*
X111542456Y-83901216D01*
X111610376Y-84065188D01*
X111645000Y-84239259D01*
X111645000Y-84416741D01*
X111610376Y-84590812D01*
X111542456Y-84754784D01*
X111443853Y-84902354D01*
X111318354Y-85027853D01*
X111170784Y-85126456D01*
X111006812Y-85194376D01*
X110857512Y-85224073D01*
X110832742Y-85229000D01*
X110655258Y-85229000D01*
X110630488Y-85224073D01*
X110481188Y-85194376D01*
X110317216Y-85126456D01*
X110169646Y-85027853D01*
X110044147Y-84902354D01*
X109945544Y-84754784D01*
X109877624Y-84590812D01*
X109843000Y-84416741D01*
X109843000Y-84239259D01*
X109877624Y-84065188D01*
X109945544Y-83901216D01*
X110044147Y-83753646D01*
X110169646Y-83628147D01*
X110317216Y-83529544D01*
X110481188Y-83461624D01*
X110630488Y-83431927D01*
X110655258Y-83427000D01*
X110832742Y-83427000D01*
X110857512Y-83431927D01*
G37*
G36*
X113397512Y-83431927D02*
G01*
X113546812Y-83461624D01*
X113710784Y-83529544D01*
X113858354Y-83628147D01*
X113983853Y-83753646D01*
X114082456Y-83901216D01*
X114150376Y-84065188D01*
X114185000Y-84239259D01*
X114185000Y-84416741D01*
X114150376Y-84590812D01*
X114082456Y-84754784D01*
X113983853Y-84902354D01*
X113858354Y-85027853D01*
X113710784Y-85126456D01*
X113546812Y-85194376D01*
X113397512Y-85224073D01*
X113372742Y-85229000D01*
X113195258Y-85229000D01*
X113170488Y-85224073D01*
X113021188Y-85194376D01*
X112857216Y-85126456D01*
X112709646Y-85027853D01*
X112584147Y-84902354D01*
X112485544Y-84754784D01*
X112417624Y-84590812D01*
X112383000Y-84416741D01*
X112383000Y-84239259D01*
X112417624Y-84065188D01*
X112485544Y-83901216D01*
X112584147Y-83753646D01*
X112709646Y-83628147D01*
X112857216Y-83529544D01*
X113021188Y-83461624D01*
X113170488Y-83431927D01*
X113195258Y-83427000D01*
X113372742Y-83427000D01*
X113397512Y-83431927D01*
G37*
G36*
X128144496Y-81719675D02*
G01*
X128455513Y-81848503D01*
X128455515Y-81848504D01*
X128735424Y-82035533D01*
X128973467Y-82273576D01*
X129160496Y-82553485D01*
X129160497Y-82553487D01*
X129289325Y-82864504D01*
X129355000Y-83194677D01*
X129355000Y-83531323D01*
X129289325Y-83861496D01*
X129160497Y-84172513D01*
X129160496Y-84172515D01*
X128973467Y-84452424D01*
X128735424Y-84690467D01*
X128455515Y-84877496D01*
X128455514Y-84877497D01*
X128455513Y-84877497D01*
X128144496Y-85006325D01*
X127814323Y-85072000D01*
X127477677Y-85072000D01*
X127147504Y-85006325D01*
X126836487Y-84877497D01*
X126836486Y-84877497D01*
X126836485Y-84877496D01*
X126556576Y-84690467D01*
X126318533Y-84452424D01*
X126131504Y-84172515D01*
X126131503Y-84172513D01*
X126002675Y-83861496D01*
X125937000Y-83531323D01*
X125937000Y-83194677D01*
X126002675Y-82864504D01*
X126131503Y-82553487D01*
X126131504Y-82553485D01*
X126318533Y-82273576D01*
X126556576Y-82035533D01*
X126836485Y-81848504D01*
X126836487Y-81848503D01*
X127147504Y-81719675D01*
X127477677Y-81654000D01*
X127814323Y-81654000D01*
X128144496Y-81719675D01*
G37*
G36*
X99173512Y-82923927D02*
G01*
X99322812Y-82953624D01*
X99486784Y-83021544D01*
X99634354Y-83120147D01*
X99759853Y-83245646D01*
X99858456Y-83393216D01*
X99926376Y-83557188D01*
X99961000Y-83731259D01*
X99961000Y-83908741D01*
X99926376Y-84082812D01*
X99858456Y-84246784D01*
X99759853Y-84394354D01*
X99634354Y-84519853D01*
X99486784Y-84618456D01*
X99322812Y-84686376D01*
X99173512Y-84716073D01*
X99148742Y-84721000D01*
X98971258Y-84721000D01*
X98946488Y-84716073D01*
X98797188Y-84686376D01*
X98633216Y-84618456D01*
X98485646Y-84519853D01*
X98360147Y-84394354D01*
X98261544Y-84246784D01*
X98193624Y-84082812D01*
X98159000Y-83908741D01*
X98159000Y-83731259D01*
X98193624Y-83557188D01*
X98261544Y-83393216D01*
X98360147Y-83245646D01*
X98485646Y-83120147D01*
X98633216Y-83021544D01*
X98797188Y-82953624D01*
X98946488Y-82923927D01*
X98971258Y-82919000D01*
X99148742Y-82919000D01*
X99173512Y-82923927D01*
G37*
G36*
X101713512Y-82923927D02*
G01*
X101862812Y-82953624D01*
X102026784Y-83021544D01*
X102174354Y-83120147D01*
X102299853Y-83245646D01*
X102398456Y-83393216D01*
X102466376Y-83557188D01*
X102501000Y-83731259D01*
X102501000Y-83908741D01*
X102466376Y-84082812D01*
X102398456Y-84246784D01*
X102299853Y-84394354D01*
X102174354Y-84519853D01*
X102026784Y-84618456D01*
X101862812Y-84686376D01*
X101713512Y-84716073D01*
X101688742Y-84721000D01*
X101511258Y-84721000D01*
X101486488Y-84716073D01*
X101337188Y-84686376D01*
X101173216Y-84618456D01*
X101025646Y-84519853D01*
X100900147Y-84394354D01*
X100801544Y-84246784D01*
X100733624Y-84082812D01*
X100699000Y-83908741D01*
X100699000Y-83731259D01*
X100733624Y-83557188D01*
X100801544Y-83393216D01*
X100900147Y-83245646D01*
X101025646Y-83120147D01*
X101173216Y-83021544D01*
X101337188Y-82953624D01*
X101486488Y-82923927D01*
X101511258Y-82919000D01*
X101688742Y-82919000D01*
X101713512Y-82923927D01*
G37*
G36*
X101713512Y-80383927D02*
G01*
X101862812Y-80413624D01*
X102026784Y-80481544D01*
X102174354Y-80580147D01*
X102299853Y-80705646D01*
X102398456Y-80853216D01*
X102466376Y-81017188D01*
X102501000Y-81191259D01*
X102501000Y-81368741D01*
X102466376Y-81542812D01*
X102398456Y-81706784D01*
X102299853Y-81854354D01*
X102174354Y-81979853D01*
X102026784Y-82078456D01*
X101862812Y-82146376D01*
X101713512Y-82176073D01*
X101688742Y-82181000D01*
X101511258Y-82181000D01*
X101486488Y-82176073D01*
X101337188Y-82146376D01*
X101173216Y-82078456D01*
X101025646Y-81979853D01*
X100900147Y-81854354D01*
X100801544Y-81706784D01*
X100733624Y-81542812D01*
X100699000Y-81368741D01*
X100699000Y-81191259D01*
X100733624Y-81017188D01*
X100801544Y-80853216D01*
X100900147Y-80705646D01*
X101025646Y-80580147D01*
X101173216Y-80481544D01*
X101337188Y-80413624D01*
X101486488Y-80383927D01*
X101511258Y-80379000D01*
X101688742Y-80379000D01*
X101713512Y-80383927D01*
G37*
G36*
X99173512Y-80383927D02*
G01*
X99322812Y-80413624D01*
X99486784Y-80481544D01*
X99634354Y-80580147D01*
X99759853Y-80705646D01*
X99858456Y-80853216D01*
X99926376Y-81017188D01*
X99961000Y-81191259D01*
X99961000Y-81368741D01*
X99926376Y-81542812D01*
X99858456Y-81706784D01*
X99759853Y-81854354D01*
X99634354Y-81979853D01*
X99486784Y-82078456D01*
X99322812Y-82146376D01*
X99173512Y-82176073D01*
X99148742Y-82181000D01*
X98971258Y-82181000D01*
X98946488Y-82176073D01*
X98797188Y-82146376D01*
X98633216Y-82078456D01*
X98485646Y-81979853D01*
X98360147Y-81854354D01*
X98261544Y-81706784D01*
X98193624Y-81542812D01*
X98159000Y-81368741D01*
X98159000Y-81191259D01*
X98193624Y-81017188D01*
X98261544Y-80853216D01*
X98360147Y-80705646D01*
X98485646Y-80580147D01*
X98633216Y-80481544D01*
X98797188Y-80413624D01*
X98946488Y-80383927D01*
X98971258Y-80379000D01*
X99148742Y-80379000D01*
X99173512Y-80383927D01*
G37*
G36*
X120739000Y-81623000D02*
G01*
X119037000Y-81623000D01*
X119037000Y-79921000D01*
X120739000Y-79921000D01*
X120739000Y-81623000D01*
G37*
G36*
X112400499Y-80250445D02*
G01*
X112437995Y-80261820D01*
X112472554Y-80280292D01*
X112502847Y-80305153D01*
X112527708Y-80335446D01*
X112546180Y-80370005D01*
X112557555Y-80407501D01*
X112562000Y-80452638D01*
X112562000Y-81091362D01*
X112557555Y-81136499D01*
X112546180Y-81173995D01*
X112527708Y-81208554D01*
X112502847Y-81238847D01*
X112472554Y-81263708D01*
X112437995Y-81282180D01*
X112400499Y-81293555D01*
X112355362Y-81298000D01*
X111616638Y-81298000D01*
X111571501Y-81293555D01*
X111534005Y-81282180D01*
X111499446Y-81263708D01*
X111469153Y-81238847D01*
X111444292Y-81208554D01*
X111425820Y-81173995D01*
X111414445Y-81136499D01*
X111410000Y-81091362D01*
X111410000Y-80452638D01*
X111414445Y-80407501D01*
X111425820Y-80370005D01*
X111444292Y-80335446D01*
X111469153Y-80305153D01*
X111499446Y-80280292D01*
X111534005Y-80261820D01*
X111571501Y-80250445D01*
X111616638Y-80246000D01*
X112355362Y-80246000D01*
X112400499Y-80250445D01*
G37*
G36*
X110650499Y-80250445D02*
G01*
X110687995Y-80261820D01*
X110722554Y-80280292D01*
X110752847Y-80305153D01*
X110777708Y-80335446D01*
X110796180Y-80370005D01*
X110807555Y-80407501D01*
X110812000Y-80452638D01*
X110812000Y-81091362D01*
X110807555Y-81136499D01*
X110796180Y-81173995D01*
X110777708Y-81208554D01*
X110752847Y-81238847D01*
X110722554Y-81263708D01*
X110687995Y-81282180D01*
X110650499Y-81293555D01*
X110605362Y-81298000D01*
X109866638Y-81298000D01*
X109821501Y-81293555D01*
X109784005Y-81282180D01*
X109749446Y-81263708D01*
X109719153Y-81238847D01*
X109694292Y-81208554D01*
X109675820Y-81173995D01*
X109664445Y-81136499D01*
X109660000Y-81091362D01*
X109660000Y-80452638D01*
X109664445Y-80407501D01*
X109675820Y-80370005D01*
X109694292Y-80335446D01*
X109719153Y-80305153D01*
X109749446Y-80280292D01*
X109784005Y-80261820D01*
X109821501Y-80250445D01*
X109866638Y-80246000D01*
X110605362Y-80246000D01*
X110650499Y-80250445D01*
G37*
G36*
X112400499Y-78726445D02*
G01*
X112437995Y-78737820D01*
X112472554Y-78756292D01*
X112502847Y-78781153D01*
X112527708Y-78811446D01*
X112546180Y-78846005D01*
X112557555Y-78883501D01*
X112562000Y-78928638D01*
X112562000Y-79567362D01*
X112557555Y-79612499D01*
X112546180Y-79649995D01*
X112527708Y-79684554D01*
X112502847Y-79714847D01*
X112472554Y-79739708D01*
X112437995Y-79758180D01*
X112400499Y-79769555D01*
X112355362Y-79774000D01*
X111616638Y-79774000D01*
X111571501Y-79769555D01*
X111534005Y-79758180D01*
X111499446Y-79739708D01*
X111469153Y-79714847D01*
X111444292Y-79684554D01*
X111425820Y-79649995D01*
X111414445Y-79612499D01*
X111410000Y-79567362D01*
X111410000Y-78928638D01*
X111414445Y-78883501D01*
X111425820Y-78846005D01*
X111444292Y-78811446D01*
X111469153Y-78781153D01*
X111499446Y-78756292D01*
X111534005Y-78737820D01*
X111571501Y-78726445D01*
X111616638Y-78722000D01*
X112355362Y-78722000D01*
X112400499Y-78726445D01*
G37*
G36*
X110650499Y-78726445D02*
G01*
X110687995Y-78737820D01*
X110722554Y-78756292D01*
X110752847Y-78781153D01*
X110777708Y-78811446D01*
X110796180Y-78846005D01*
X110807555Y-78883501D01*
X110812000Y-78928638D01*
X110812000Y-79567362D01*
X110807555Y-79612499D01*
X110796180Y-79649995D01*
X110777708Y-79684554D01*
X110752847Y-79714847D01*
X110722554Y-79739708D01*
X110687995Y-79758180D01*
X110650499Y-79769555D01*
X110605362Y-79774000D01*
X109866638Y-79774000D01*
X109821501Y-79769555D01*
X109784005Y-79758180D01*
X109749446Y-79739708D01*
X109719153Y-79714847D01*
X109694292Y-79684554D01*
X109675820Y-79649995D01*
X109664445Y-79612499D01*
X109660000Y-79567362D01*
X109660000Y-78928638D01*
X109664445Y-78883501D01*
X109675820Y-78846005D01*
X109694292Y-78811446D01*
X109719153Y-78781153D01*
X109749446Y-78756292D01*
X109784005Y-78737820D01*
X109821501Y-78726445D01*
X109866638Y-78722000D01*
X110605362Y-78722000D01*
X110650499Y-78726445D01*
G37*
G36*
X101713512Y-77843927D02*
G01*
X101862812Y-77873624D01*
X102026784Y-77941544D01*
X102174354Y-78040147D01*
X102299853Y-78165646D01*
X102398456Y-78313216D01*
X102466376Y-78477188D01*
X102501000Y-78651259D01*
X102501000Y-78828741D01*
X102466376Y-79002812D01*
X102398456Y-79166784D01*
X102299853Y-79314354D01*
X102174354Y-79439853D01*
X102026784Y-79538456D01*
X101862812Y-79606376D01*
X101713512Y-79636073D01*
X101688742Y-79641000D01*
X101511258Y-79641000D01*
X101486488Y-79636073D01*
X101337188Y-79606376D01*
X101173216Y-79538456D01*
X101025646Y-79439853D01*
X100900147Y-79314354D01*
X100801544Y-79166784D01*
X100733624Y-79002812D01*
X100699000Y-78828741D01*
X100699000Y-78651259D01*
X100733624Y-78477188D01*
X100801544Y-78313216D01*
X100900147Y-78165646D01*
X101025646Y-78040147D01*
X101173216Y-77941544D01*
X101337188Y-77873624D01*
X101486488Y-77843927D01*
X101511258Y-77839000D01*
X101688742Y-77839000D01*
X101713512Y-77843927D01*
G37*
G36*
X99173512Y-77843927D02*
G01*
X99322812Y-77873624D01*
X99486784Y-77941544D01*
X99634354Y-78040147D01*
X99759853Y-78165646D01*
X99858456Y-78313216D01*
X99926376Y-78477188D01*
X99961000Y-78651259D01*
X99961000Y-78828741D01*
X99926376Y-79002812D01*
X99858456Y-79166784D01*
X99759853Y-79314354D01*
X99634354Y-79439853D01*
X99486784Y-79538456D01*
X99322812Y-79606376D01*
X99173512Y-79636073D01*
X99148742Y-79641000D01*
X98971258Y-79641000D01*
X98946488Y-79636073D01*
X98797188Y-79606376D01*
X98633216Y-79538456D01*
X98485646Y-79439853D01*
X98360147Y-79314354D01*
X98261544Y-79166784D01*
X98193624Y-79002812D01*
X98159000Y-78828741D01*
X98159000Y-78651259D01*
X98193624Y-78477188D01*
X98261544Y-78313216D01*
X98360147Y-78165646D01*
X98485646Y-78040147D01*
X98633216Y-77941544D01*
X98797188Y-77873624D01*
X98946488Y-77843927D01*
X98971258Y-77839000D01*
X99148742Y-77839000D01*
X99173512Y-77843927D01*
G37*
G36*
X106052355Y-75824083D02*
G01*
X106057029Y-75825501D01*
X106061330Y-75827800D01*
X106067702Y-75833029D01*
X106088076Y-75846643D01*
X106110715Y-75856020D01*
X106134749Y-75860800D01*
X106159253Y-75860800D01*
X106183286Y-75856019D01*
X106205925Y-75846642D01*
X106226298Y-75833029D01*
X106232670Y-75827800D01*
X106236971Y-75825501D01*
X106241645Y-75824083D01*
X106252641Y-75823000D01*
X106541359Y-75823000D01*
X106552355Y-75824083D01*
X106557029Y-75825501D01*
X106561330Y-75827800D01*
X106567702Y-75833029D01*
X106588076Y-75846643D01*
X106610715Y-75856020D01*
X106634749Y-75860800D01*
X106659253Y-75860800D01*
X106683286Y-75856019D01*
X106705925Y-75846642D01*
X106726298Y-75833029D01*
X106732670Y-75827800D01*
X106736971Y-75825501D01*
X106741645Y-75824083D01*
X106752641Y-75823000D01*
X107041359Y-75823000D01*
X107052355Y-75824083D01*
X107057029Y-75825501D01*
X107061330Y-75827800D01*
X107067702Y-75833029D01*
X107088076Y-75846643D01*
X107110715Y-75856020D01*
X107134749Y-75860800D01*
X107159253Y-75860800D01*
X107183286Y-75856019D01*
X107205925Y-75846642D01*
X107226298Y-75833029D01*
X107232670Y-75827800D01*
X107236971Y-75825501D01*
X107241645Y-75824083D01*
X107252641Y-75823000D01*
X107541359Y-75823000D01*
X107552355Y-75824083D01*
X107557029Y-75825501D01*
X107561331Y-75827800D01*
X107565104Y-75830896D01*
X107568200Y-75834669D01*
X107570499Y-75838971D01*
X107571917Y-75843645D01*
X107573000Y-75854641D01*
X107573000Y-76568357D01*
X107571287Y-76585747D01*
X107571287Y-76610251D01*
X107576067Y-76634285D01*
X107585444Y-76656923D01*
X107599057Y-76677298D01*
X107616384Y-76694625D01*
X107636758Y-76708239D01*
X107655325Y-76715930D01*
X107657515Y-76723151D01*
X107669066Y-76744762D01*
X107684611Y-76763704D01*
X107703553Y-76779249D01*
X107725164Y-76790800D01*
X107748613Y-76797913D01*
X107772999Y-76800315D01*
X107785253Y-76799713D01*
X107802643Y-76798000D01*
X108516359Y-76798000D01*
X108527355Y-76799083D01*
X108532029Y-76800501D01*
X108536331Y-76802800D01*
X108540104Y-76805896D01*
X108543200Y-76809669D01*
X108545499Y-76813971D01*
X108546917Y-76818645D01*
X108548000Y-76829641D01*
X108548000Y-77118359D01*
X108546917Y-77129355D01*
X108545499Y-77134029D01*
X108543200Y-77138330D01*
X108537971Y-77144702D01*
X108524357Y-77165076D01*
X108514980Y-77187715D01*
X108510200Y-77211749D01*
X108510200Y-77236253D01*
X108514981Y-77260286D01*
X108524358Y-77282925D01*
X108537971Y-77303298D01*
X108543200Y-77309670D01*
X108545499Y-77313971D01*
X108546917Y-77318645D01*
X108548000Y-77329641D01*
X108548000Y-77618359D01*
X108546917Y-77629355D01*
X108545499Y-77634029D01*
X108543200Y-77638330D01*
X108537971Y-77644702D01*
X108524357Y-77665076D01*
X108514980Y-77687715D01*
X108510200Y-77711749D01*
X108510200Y-77736253D01*
X108514981Y-77760286D01*
X108524358Y-77782925D01*
X108537971Y-77803298D01*
X108543200Y-77809670D01*
X108545499Y-77813971D01*
X108546917Y-77818645D01*
X108548000Y-77829641D01*
X108548000Y-78118359D01*
X108546917Y-78129355D01*
X108545499Y-78134029D01*
X108543200Y-78138330D01*
X108537971Y-78144702D01*
X108524357Y-78165076D01*
X108514980Y-78187715D01*
X108510200Y-78211749D01*
X108510200Y-78236253D01*
X108514981Y-78260286D01*
X108524358Y-78282925D01*
X108537971Y-78303298D01*
X108543200Y-78309670D01*
X108545499Y-78313971D01*
X108546917Y-78318645D01*
X108548000Y-78329641D01*
X108548000Y-78618359D01*
X108546917Y-78629355D01*
X108545499Y-78634029D01*
X108543200Y-78638331D01*
X108540104Y-78642104D01*
X108536331Y-78645200D01*
X108532029Y-78647499D01*
X108527355Y-78648917D01*
X108516359Y-78650000D01*
X107802643Y-78650000D01*
X107785253Y-78648287D01*
X107760749Y-78648287D01*
X107736715Y-78653067D01*
X107714077Y-78662444D01*
X107693702Y-78676057D01*
X107676375Y-78693384D01*
X107662761Y-78713758D01*
X107655070Y-78732325D01*
X107647849Y-78734515D01*
X107626238Y-78746066D01*
X107607296Y-78761611D01*
X107591751Y-78780553D01*
X107580200Y-78802164D01*
X107573087Y-78825613D01*
X107570685Y-78849999D01*
X107571287Y-78862253D01*
X107573000Y-78879643D01*
X107573000Y-79593359D01*
X107571917Y-79604355D01*
X107570499Y-79609029D01*
X107568200Y-79613331D01*
X107565104Y-79617104D01*
X107561331Y-79620200D01*
X107557029Y-79622499D01*
X107552355Y-79623917D01*
X107541359Y-79625000D01*
X107252641Y-79625000D01*
X107241645Y-79623917D01*
X107236971Y-79622499D01*
X107232670Y-79620200D01*
X107226298Y-79614971D01*
X107205924Y-79601357D01*
X107183285Y-79591980D01*
X107159251Y-79587200D01*
X107134747Y-79587200D01*
X107110714Y-79591981D01*
X107088075Y-79601358D01*
X107067702Y-79614971D01*
X107061330Y-79620200D01*
X107057029Y-79622499D01*
X107052355Y-79623917D01*
X107041359Y-79625000D01*
X106752641Y-79625000D01*
X106741645Y-79623917D01*
X106736971Y-79622499D01*
X106732670Y-79620200D01*
X106726298Y-79614971D01*
X106705924Y-79601357D01*
X106683285Y-79591980D01*
X106659251Y-79587200D01*
X106634747Y-79587200D01*
X106610714Y-79591981D01*
X106588075Y-79601358D01*
X106567702Y-79614971D01*
X106561330Y-79620200D01*
X106557029Y-79622499D01*
X106552355Y-79623917D01*
X106541359Y-79625000D01*
X106252641Y-79625000D01*
X106241645Y-79623917D01*
X106236971Y-79622499D01*
X106232670Y-79620200D01*
X106226298Y-79614971D01*
X106205924Y-79601357D01*
X106183285Y-79591980D01*
X106159251Y-79587200D01*
X106134747Y-79587200D01*
X106110714Y-79591981D01*
X106088075Y-79601358D01*
X106067702Y-79614971D01*
X106061330Y-79620200D01*
X106057029Y-79622499D01*
X106052355Y-79623917D01*
X106041359Y-79625000D01*
X105752641Y-79625000D01*
X105741645Y-79623917D01*
X105736971Y-79622499D01*
X105732669Y-79620200D01*
X105728896Y-79617104D01*
X105725800Y-79613331D01*
X105723501Y-79609029D01*
X105722083Y-79604355D01*
X105721000Y-79593359D01*
X105721000Y-78879643D01*
X105722713Y-78862253D01*
X105722713Y-78837749D01*
X105717933Y-78813715D01*
X105708556Y-78791077D01*
X105694943Y-78770702D01*
X105677616Y-78753375D01*
X105657242Y-78739761D01*
X105638675Y-78732070D01*
X105636485Y-78724849D01*
X105624934Y-78703238D01*
X105609389Y-78684296D01*
X105590447Y-78668751D01*
X105568836Y-78657200D01*
X105545387Y-78650087D01*
X105521001Y-78647685D01*
X105508747Y-78648287D01*
X105491357Y-78650000D01*
X104777641Y-78650000D01*
X104766645Y-78648917D01*
X104761971Y-78647499D01*
X104757669Y-78645200D01*
X104753896Y-78642104D01*
X104750800Y-78638331D01*
X104748501Y-78634029D01*
X104747083Y-78629355D01*
X104746000Y-78618359D01*
X104746000Y-78329641D01*
X104747083Y-78318645D01*
X104748501Y-78313971D01*
X104750800Y-78309670D01*
X104756029Y-78303298D01*
X104769643Y-78282924D01*
X104779020Y-78260285D01*
X104783800Y-78236251D01*
X104783800Y-78211747D01*
X104779019Y-78187714D01*
X104769642Y-78165075D01*
X104756029Y-78144702D01*
X104750800Y-78138330D01*
X104748501Y-78134029D01*
X104747083Y-78129355D01*
X104746000Y-78118359D01*
X104746000Y-77829641D01*
X104747083Y-77818645D01*
X104748501Y-77813971D01*
X104750800Y-77809670D01*
X104756029Y-77803298D01*
X104769643Y-77782924D01*
X104779020Y-77760285D01*
X104783800Y-77736251D01*
X104783800Y-77711747D01*
X104779019Y-77687714D01*
X104769642Y-77665075D01*
X104756029Y-77644702D01*
X104750800Y-77638330D01*
X104748501Y-77634029D01*
X104747083Y-77629355D01*
X104746000Y-77618359D01*
X104746000Y-77329641D01*
X104747083Y-77318645D01*
X104748501Y-77313971D01*
X104750800Y-77309670D01*
X104756029Y-77303298D01*
X104769643Y-77282924D01*
X104779020Y-77260285D01*
X104783800Y-77236251D01*
X104783800Y-77211747D01*
X104779019Y-77187714D01*
X104769642Y-77165075D01*
X104756029Y-77144702D01*
X104750800Y-77138330D01*
X104748501Y-77134029D01*
X104747083Y-77129355D01*
X104746000Y-77118359D01*
X104746000Y-76829641D01*
X104747083Y-76818645D01*
X104748501Y-76813971D01*
X104750800Y-76809669D01*
X104753896Y-76805896D01*
X104757669Y-76802800D01*
X104761971Y-76800501D01*
X104766645Y-76799083D01*
X104777641Y-76798000D01*
X105491357Y-76798000D01*
X105508747Y-76799713D01*
X105533251Y-76799713D01*
X105557285Y-76794933D01*
X105579923Y-76785556D01*
X105600298Y-76771943D01*
X105617625Y-76754616D01*
X105631239Y-76734242D01*
X105638930Y-76715675D01*
X105646151Y-76713485D01*
X105667762Y-76701934D01*
X105686704Y-76686389D01*
X105702249Y-76667447D01*
X105713800Y-76645836D01*
X105720913Y-76622387D01*
X105723315Y-76598001D01*
X105722713Y-76585747D01*
X105721000Y-76568357D01*
X105721000Y-75854641D01*
X105722083Y-75843645D01*
X105723501Y-75838971D01*
X105725800Y-75834669D01*
X105728896Y-75830896D01*
X105732669Y-75827800D01*
X105736971Y-75825501D01*
X105741645Y-75824083D01*
X105752641Y-75823000D01*
X106041359Y-75823000D01*
X106052355Y-75824083D01*
G37*
G36*
X125061620Y-77798000D02*
G01*
X125159142Y-77817398D01*
X125298364Y-77875065D01*
X125423659Y-77958785D01*
X125530215Y-78065341D01*
X125613935Y-78190636D01*
X125665021Y-78313971D01*
X125671602Y-78329859D01*
X125701000Y-78477653D01*
X125701000Y-78628347D01*
X125696083Y-78653067D01*
X125671602Y-78776142D01*
X125613935Y-78915364D01*
X125530215Y-79040659D01*
X125423659Y-79147215D01*
X125298364Y-79230935D01*
X125159142Y-79288602D01*
X125085244Y-79303301D01*
X125011347Y-79318000D01*
X124860653Y-79318000D01*
X124786756Y-79303301D01*
X124712858Y-79288602D01*
X124573636Y-79230935D01*
X124448341Y-79147215D01*
X124341785Y-79040659D01*
X124258065Y-78915364D01*
X124200398Y-78776142D01*
X124175917Y-78653067D01*
X124171000Y-78628347D01*
X124171000Y-78477653D01*
X124200398Y-78329859D01*
X124206979Y-78313971D01*
X124258065Y-78190636D01*
X124341785Y-78065341D01*
X124448341Y-77958785D01*
X124573636Y-77875065D01*
X124712858Y-77817398D01*
X124810380Y-77798000D01*
X124860653Y-77788000D01*
X125011347Y-77788000D01*
X125061620Y-77798000D01*
G37*
G36*
X123061620Y-77798000D02*
G01*
X123159142Y-77817398D01*
X123298364Y-77875065D01*
X123423659Y-77958785D01*
X123530215Y-78065341D01*
X123613935Y-78190636D01*
X123665021Y-78313971D01*
X123671602Y-78329859D01*
X123701000Y-78477653D01*
X123701000Y-78628347D01*
X123696083Y-78653067D01*
X123671602Y-78776142D01*
X123613935Y-78915364D01*
X123530215Y-79040659D01*
X123423659Y-79147215D01*
X123298364Y-79230935D01*
X123159142Y-79288602D01*
X123085244Y-79303301D01*
X123011347Y-79318000D01*
X122860653Y-79318000D01*
X122786756Y-79303301D01*
X122712858Y-79288602D01*
X122573636Y-79230935D01*
X122448341Y-79147215D01*
X122341785Y-79040659D01*
X122258065Y-78915364D01*
X122200398Y-78776142D01*
X122175917Y-78653067D01*
X122171000Y-78628347D01*
X122171000Y-78477653D01*
X122200398Y-78329859D01*
X122206979Y-78313971D01*
X122258065Y-78190636D01*
X122341785Y-78065341D01*
X122448341Y-77958785D01*
X122573636Y-77875065D01*
X122712858Y-77817398D01*
X122810380Y-77798000D01*
X122860653Y-77788000D01*
X123011347Y-77788000D01*
X123061620Y-77798000D01*
G37*
G36*
X120136228Y-77453703D02*
G01*
X120291100Y-77517853D01*
X120430481Y-77610985D01*
X120549015Y-77729519D01*
X120642147Y-77868900D01*
X120706297Y-78023772D01*
X120739000Y-78188184D01*
X120739000Y-78355816D01*
X120706297Y-78520228D01*
X120642147Y-78675100D01*
X120549015Y-78814481D01*
X120430481Y-78933015D01*
X120291100Y-79026147D01*
X120136228Y-79090297D01*
X119971816Y-79123000D01*
X119804184Y-79123000D01*
X119639772Y-79090297D01*
X119484900Y-79026147D01*
X119345519Y-78933015D01*
X119226985Y-78814481D01*
X119133853Y-78675100D01*
X119069703Y-78520228D01*
X119037000Y-78355816D01*
X119037000Y-78188184D01*
X119069703Y-78023772D01*
X119133853Y-77868900D01*
X119226985Y-77729519D01*
X119345519Y-77610985D01*
X119484900Y-77517853D01*
X119639772Y-77453703D01*
X119804184Y-77421000D01*
X119971816Y-77421000D01*
X120136228Y-77453703D01*
G37*
G36*
X116375000Y-78783000D02*
G01*
X115273000Y-78783000D01*
X115273000Y-77681000D01*
X116375000Y-77681000D01*
X116375000Y-78783000D01*
G37*
G36*
X110650499Y-77202445D02*
G01*
X110687995Y-77213820D01*
X110722554Y-77232292D01*
X110752847Y-77257153D01*
X110777708Y-77287446D01*
X110796180Y-77322005D01*
X110807555Y-77359501D01*
X110812000Y-77404638D01*
X110812000Y-78043362D01*
X110807555Y-78088499D01*
X110796180Y-78125995D01*
X110777708Y-78160554D01*
X110752847Y-78190847D01*
X110722554Y-78215708D01*
X110687995Y-78234180D01*
X110650499Y-78245555D01*
X110605362Y-78250000D01*
X109866638Y-78250000D01*
X109821501Y-78245555D01*
X109784005Y-78234180D01*
X109749446Y-78215708D01*
X109719153Y-78190847D01*
X109694292Y-78160554D01*
X109675820Y-78125995D01*
X109664445Y-78088499D01*
X109660000Y-78043362D01*
X109660000Y-77404638D01*
X109664445Y-77359501D01*
X109675820Y-77322005D01*
X109694292Y-77287446D01*
X109719153Y-77257153D01*
X109749446Y-77232292D01*
X109784005Y-77213820D01*
X109821501Y-77202445D01*
X109866638Y-77198000D01*
X110605362Y-77198000D01*
X110650499Y-77202445D01*
G37*
G36*
X112400499Y-77202445D02*
G01*
X112437995Y-77213820D01*
X112472554Y-77232292D01*
X112502847Y-77257153D01*
X112527708Y-77287446D01*
X112546180Y-77322005D01*
X112557555Y-77359501D01*
X112562000Y-77404638D01*
X112562000Y-78043362D01*
X112557555Y-78088499D01*
X112546180Y-78125995D01*
X112527708Y-78160554D01*
X112502847Y-78190847D01*
X112472554Y-78215708D01*
X112437995Y-78234180D01*
X112400499Y-78245555D01*
X112355362Y-78250000D01*
X111616638Y-78250000D01*
X111571501Y-78245555D01*
X111534005Y-78234180D01*
X111499446Y-78215708D01*
X111469153Y-78190847D01*
X111444292Y-78160554D01*
X111425820Y-78125995D01*
X111414445Y-78088499D01*
X111410000Y-78043362D01*
X111410000Y-77404638D01*
X111414445Y-77359501D01*
X111425820Y-77322005D01*
X111444292Y-77287446D01*
X111469153Y-77257153D01*
X111499446Y-77232292D01*
X111534005Y-77213820D01*
X111571501Y-77202445D01*
X111616638Y-77198000D01*
X112355362Y-77198000D01*
X112400499Y-77202445D01*
G37*
G36*
X120136228Y-75453703D02*
G01*
X120291100Y-75517853D01*
X120430481Y-75610985D01*
X120549015Y-75729519D01*
X120642147Y-75868900D01*
X120706297Y-76023772D01*
X120739000Y-76188184D01*
X120739000Y-76355816D01*
X120706297Y-76520228D01*
X120642147Y-76675100D01*
X120549015Y-76814481D01*
X120430481Y-76933015D01*
X120291100Y-77026147D01*
X120136228Y-77090297D01*
X119971816Y-77123000D01*
X119804184Y-77123000D01*
X119639772Y-77090297D01*
X119484900Y-77026147D01*
X119345519Y-76933015D01*
X119226985Y-76814481D01*
X119133853Y-76675100D01*
X119069703Y-76520228D01*
X119037000Y-76355816D01*
X119037000Y-76188184D01*
X119069703Y-76023772D01*
X119133853Y-75868900D01*
X119226985Y-75729519D01*
X119345519Y-75610985D01*
X119484900Y-75517853D01*
X119639772Y-75453703D01*
X119804184Y-75421000D01*
X119971816Y-75421000D01*
X120136228Y-75453703D01*
G37*
G36*
X101713512Y-75303927D02*
G01*
X101862812Y-75333624D01*
X102026784Y-75401544D01*
X102174354Y-75500147D01*
X102299853Y-75625646D01*
X102398456Y-75773216D01*
X102466376Y-75937188D01*
X102501000Y-76111259D01*
X102501000Y-76288741D01*
X102466376Y-76462812D01*
X102398456Y-76626784D01*
X102299853Y-76774354D01*
X102174354Y-76899853D01*
X102026784Y-76998456D01*
X101862812Y-77066376D01*
X101715507Y-77095676D01*
X101688742Y-77101000D01*
X101511258Y-77101000D01*
X101484493Y-77095676D01*
X101337188Y-77066376D01*
X101173216Y-76998456D01*
X101025646Y-76899853D01*
X100900147Y-76774354D01*
X100801544Y-76626784D01*
X100733624Y-76462812D01*
X100699000Y-76288741D01*
X100699000Y-76111259D01*
X100733624Y-75937188D01*
X100801544Y-75773216D01*
X100900147Y-75625646D01*
X101025646Y-75500147D01*
X101173216Y-75401544D01*
X101337188Y-75333624D01*
X101486488Y-75303927D01*
X101511258Y-75299000D01*
X101688742Y-75299000D01*
X101713512Y-75303927D01*
G37*
G36*
X99173512Y-75303927D02*
G01*
X99322812Y-75333624D01*
X99486784Y-75401544D01*
X99634354Y-75500147D01*
X99759853Y-75625646D01*
X99858456Y-75773216D01*
X99926376Y-75937188D01*
X99961000Y-76111259D01*
X99961000Y-76288741D01*
X99926376Y-76462812D01*
X99858456Y-76626784D01*
X99759853Y-76774354D01*
X99634354Y-76899853D01*
X99486784Y-76998456D01*
X99322812Y-77066376D01*
X99175507Y-77095676D01*
X99148742Y-77101000D01*
X98971258Y-77101000D01*
X98944493Y-77095676D01*
X98797188Y-77066376D01*
X98633216Y-76998456D01*
X98485646Y-76899853D01*
X98360147Y-76774354D01*
X98261544Y-76626784D01*
X98193624Y-76462812D01*
X98159000Y-76288741D01*
X98159000Y-76111259D01*
X98193624Y-75937188D01*
X98261544Y-75773216D01*
X98360147Y-75625646D01*
X98485646Y-75500147D01*
X98633216Y-75401544D01*
X98797188Y-75333624D01*
X98946488Y-75303927D01*
X98971258Y-75299000D01*
X99148742Y-75299000D01*
X99173512Y-75303927D01*
G37*
G36*
X125066648Y-75299000D02*
G01*
X125159142Y-75317398D01*
X125298364Y-75375065D01*
X125423659Y-75458785D01*
X125530215Y-75565341D01*
X125613935Y-75690636D01*
X125671602Y-75829858D01*
X125676806Y-75856019D01*
X125701000Y-75977653D01*
X125701000Y-76128347D01*
X125686301Y-76202244D01*
X125671602Y-76276142D01*
X125613935Y-76415364D01*
X125530215Y-76540659D01*
X125423659Y-76647215D01*
X125298364Y-76730935D01*
X125159142Y-76788602D01*
X125103393Y-76799691D01*
X125011347Y-76818000D01*
X124860653Y-76818000D01*
X124768607Y-76799691D01*
X124712858Y-76788602D01*
X124573636Y-76730935D01*
X124448341Y-76647215D01*
X124341785Y-76540659D01*
X124258065Y-76415364D01*
X124200398Y-76276142D01*
X124185699Y-76202244D01*
X124171000Y-76128347D01*
X124171000Y-75977653D01*
X124195194Y-75856019D01*
X124200398Y-75829858D01*
X124258065Y-75690636D01*
X124341785Y-75565341D01*
X124448341Y-75458785D01*
X124573636Y-75375065D01*
X124712858Y-75317398D01*
X124805352Y-75299000D01*
X124860653Y-75288000D01*
X125011347Y-75288000D01*
X125066648Y-75299000D01*
G37*
G36*
X123701000Y-76818000D02*
G01*
X122171000Y-76818000D01*
X122171000Y-75288000D01*
X123701000Y-75288000D01*
X123701000Y-76818000D01*
G37*
G36*
X116375000Y-76751000D02*
G01*
X115273000Y-76751000D01*
X115273000Y-75649000D01*
X116375000Y-75649000D01*
X116375000Y-76751000D01*
G37*
G36*
X112400499Y-75678445D02*
G01*
X112437995Y-75689820D01*
X112472554Y-75708292D01*
X112502847Y-75733153D01*
X112527708Y-75763446D01*
X112546180Y-75798005D01*
X112557555Y-75835501D01*
X112562000Y-75880638D01*
X112562000Y-76519362D01*
X112557555Y-76564499D01*
X112546180Y-76601995D01*
X112527708Y-76636554D01*
X112502847Y-76666847D01*
X112472554Y-76691708D01*
X112437995Y-76710180D01*
X112400499Y-76721555D01*
X112355362Y-76726000D01*
X111616638Y-76726000D01*
X111571501Y-76721555D01*
X111534005Y-76710180D01*
X111499446Y-76691708D01*
X111469153Y-76666847D01*
X111444292Y-76636554D01*
X111425820Y-76601995D01*
X111414445Y-76564499D01*
X111410000Y-76519362D01*
X111410000Y-75880638D01*
X111414445Y-75835501D01*
X111425820Y-75798005D01*
X111444292Y-75763446D01*
X111469153Y-75733153D01*
X111499446Y-75708292D01*
X111534005Y-75689820D01*
X111571501Y-75678445D01*
X111616638Y-75674000D01*
X112355362Y-75674000D01*
X112400499Y-75678445D01*
G37*
G36*
X110650499Y-75678445D02*
G01*
X110687995Y-75689820D01*
X110722554Y-75708292D01*
X110752847Y-75733153D01*
X110777708Y-75763446D01*
X110796180Y-75798005D01*
X110807555Y-75835501D01*
X110812000Y-75880638D01*
X110812000Y-76519362D01*
X110807555Y-76564499D01*
X110796180Y-76601995D01*
X110777708Y-76636554D01*
X110752847Y-76666847D01*
X110722554Y-76691708D01*
X110687995Y-76710180D01*
X110650499Y-76721555D01*
X110605362Y-76726000D01*
X109866638Y-76726000D01*
X109821501Y-76721555D01*
X109784005Y-76710180D01*
X109749446Y-76691708D01*
X109719153Y-76666847D01*
X109694292Y-76636554D01*
X109675820Y-76601995D01*
X109664445Y-76564499D01*
X109660000Y-76519362D01*
X109660000Y-75880638D01*
X109664445Y-75835501D01*
X109675820Y-75798005D01*
X109694292Y-75763446D01*
X109719153Y-75733153D01*
X109749446Y-75708292D01*
X109784005Y-75689820D01*
X109821501Y-75678445D01*
X109866638Y-75674000D01*
X110605362Y-75674000D01*
X110650499Y-75678445D01*
G37*
G36*
X110650499Y-74154445D02*
G01*
X110687995Y-74165820D01*
X110722554Y-74184292D01*
X110752847Y-74209153D01*
X110777708Y-74239446D01*
X110796180Y-74274005D01*
X110807555Y-74311501D01*
X110812000Y-74356638D01*
X110812000Y-74995362D01*
X110807555Y-75040499D01*
X110796180Y-75077995D01*
X110777708Y-75112554D01*
X110752847Y-75142847D01*
X110722554Y-75167708D01*
X110687995Y-75186180D01*
X110650499Y-75197555D01*
X110605362Y-75202000D01*
X109866638Y-75202000D01*
X109821501Y-75197555D01*
X109784005Y-75186180D01*
X109749446Y-75167708D01*
X109719153Y-75142847D01*
X109694292Y-75112554D01*
X109675820Y-75077995D01*
X109664445Y-75040499D01*
X109660000Y-74995362D01*
X109660000Y-74356638D01*
X109664445Y-74311501D01*
X109675820Y-74274005D01*
X109694292Y-74239446D01*
X109719153Y-74209153D01*
X109749446Y-74184292D01*
X109784005Y-74165820D01*
X109821501Y-74154445D01*
X109866638Y-74150000D01*
X110605362Y-74150000D01*
X110650499Y-74154445D01*
G37*
G36*
X112400499Y-74154445D02*
G01*
X112437995Y-74165820D01*
X112472554Y-74184292D01*
X112502847Y-74209153D01*
X112527708Y-74239446D01*
X112546180Y-74274005D01*
X112557555Y-74311501D01*
X112562000Y-74356638D01*
X112562000Y-74995362D01*
X112557555Y-75040499D01*
X112546180Y-75077995D01*
X112527708Y-75112554D01*
X112502847Y-75142847D01*
X112472554Y-75167708D01*
X112437995Y-75186180D01*
X112400499Y-75197555D01*
X112355362Y-75202000D01*
X111616638Y-75202000D01*
X111571501Y-75197555D01*
X111534005Y-75186180D01*
X111499446Y-75167708D01*
X111469153Y-75142847D01*
X111444292Y-75112554D01*
X111425820Y-75077995D01*
X111414445Y-75040499D01*
X111410000Y-74995362D01*
X111410000Y-74356638D01*
X111414445Y-74311501D01*
X111425820Y-74274005D01*
X111444292Y-74239446D01*
X111469153Y-74209153D01*
X111499446Y-74184292D01*
X111534005Y-74165820D01*
X111571501Y-74154445D01*
X111616638Y-74150000D01*
X112355362Y-74150000D01*
X112400499Y-74154445D01*
G37*
G36*
X105570499Y-73646445D02*
G01*
X105607995Y-73657820D01*
X105642554Y-73676292D01*
X105672847Y-73701153D01*
X105697708Y-73731446D01*
X105716180Y-73766005D01*
X105727555Y-73803501D01*
X105732000Y-73848638D01*
X105732000Y-74487362D01*
X105727555Y-74532499D01*
X105716180Y-74569995D01*
X105697708Y-74604554D01*
X105672847Y-74634847D01*
X105642554Y-74659708D01*
X105607995Y-74678180D01*
X105570499Y-74689555D01*
X105525362Y-74694000D01*
X104786638Y-74694000D01*
X104741501Y-74689555D01*
X104704005Y-74678180D01*
X104669446Y-74659708D01*
X104639153Y-74634847D01*
X104614292Y-74604554D01*
X104595820Y-74569995D01*
X104584445Y-74532499D01*
X104580000Y-74487362D01*
X104580000Y-73848638D01*
X104584445Y-73803501D01*
X104595820Y-73766005D01*
X104614292Y-73731446D01*
X104639153Y-73701153D01*
X104669446Y-73676292D01*
X104704005Y-73657820D01*
X104741501Y-73646445D01*
X104786638Y-73642000D01*
X105525362Y-73642000D01*
X105570499Y-73646445D01*
G37*
G36*
X107320499Y-73646445D02*
G01*
X107357995Y-73657820D01*
X107392554Y-73676292D01*
X107422847Y-73701153D01*
X107447708Y-73731446D01*
X107466180Y-73766005D01*
X107477555Y-73803501D01*
X107482000Y-73848638D01*
X107482000Y-74487362D01*
X107477555Y-74532499D01*
X107466180Y-74569995D01*
X107447708Y-74604554D01*
X107422847Y-74634847D01*
X107392554Y-74659708D01*
X107357995Y-74678180D01*
X107320499Y-74689555D01*
X107275362Y-74694000D01*
X106536638Y-74694000D01*
X106491501Y-74689555D01*
X106454005Y-74678180D01*
X106419446Y-74659708D01*
X106389153Y-74634847D01*
X106364292Y-74604554D01*
X106345820Y-74569995D01*
X106334445Y-74532499D01*
X106330000Y-74487362D01*
X106330000Y-73848638D01*
X106334445Y-73803501D01*
X106345820Y-73766005D01*
X106364292Y-73731446D01*
X106389153Y-73701153D01*
X106419446Y-73676292D01*
X106454005Y-73657820D01*
X106491501Y-73646445D01*
X106536638Y-73642000D01*
X107275362Y-73642000D01*
X107320499Y-73646445D01*
G37*
G36*
X120136228Y-72953703D02*
G01*
X120291100Y-73017853D01*
X120430481Y-73110985D01*
X120549015Y-73229519D01*
X120642147Y-73368900D01*
X120706297Y-73523772D01*
X120739000Y-73688184D01*
X120739000Y-73855816D01*
X120706297Y-74020228D01*
X120642147Y-74175100D01*
X120549015Y-74314481D01*
X120430481Y-74433015D01*
X120291100Y-74526147D01*
X120136228Y-74590297D01*
X119971816Y-74623000D01*
X119804184Y-74623000D01*
X119639772Y-74590297D01*
X119484900Y-74526147D01*
X119345519Y-74433015D01*
X119226985Y-74314481D01*
X119133853Y-74175100D01*
X119069703Y-74020228D01*
X119037000Y-73855816D01*
X119037000Y-73688184D01*
X119069703Y-73523772D01*
X119133853Y-73368900D01*
X119226985Y-73229519D01*
X119345519Y-73110985D01*
X119484900Y-73017853D01*
X119639772Y-72953703D01*
X119804184Y-72921000D01*
X119971816Y-72921000D01*
X120136228Y-72953703D01*
G37*
G36*
X99173512Y-72763927D02*
G01*
X99322812Y-72793624D01*
X99486784Y-72861544D01*
X99634354Y-72960147D01*
X99759853Y-73085646D01*
X99858456Y-73233216D01*
X99926376Y-73397188D01*
X99961000Y-73571259D01*
X99961000Y-73748741D01*
X99926376Y-73922812D01*
X99858456Y-74086784D01*
X99759853Y-74234354D01*
X99634354Y-74359853D01*
X99486784Y-74458456D01*
X99322812Y-74526376D01*
X99173512Y-74556073D01*
X99148742Y-74561000D01*
X98971258Y-74561000D01*
X98946488Y-74556073D01*
X98797188Y-74526376D01*
X98633216Y-74458456D01*
X98485646Y-74359853D01*
X98360147Y-74234354D01*
X98261544Y-74086784D01*
X98193624Y-73922812D01*
X98159000Y-73748741D01*
X98159000Y-73571259D01*
X98193624Y-73397188D01*
X98261544Y-73233216D01*
X98360147Y-73085646D01*
X98485646Y-72960147D01*
X98633216Y-72861544D01*
X98797188Y-72793624D01*
X98946488Y-72763927D01*
X98971258Y-72759000D01*
X99148742Y-72759000D01*
X99173512Y-72763927D01*
G37*
G36*
X101713512Y-72763927D02*
G01*
X101862812Y-72793624D01*
X102026784Y-72861544D01*
X102174354Y-72960147D01*
X102299853Y-73085646D01*
X102398456Y-73233216D01*
X102466376Y-73397188D01*
X102501000Y-73571259D01*
X102501000Y-73748741D01*
X102466376Y-73922812D01*
X102398456Y-74086784D01*
X102299853Y-74234354D01*
X102174354Y-74359853D01*
X102026784Y-74458456D01*
X101862812Y-74526376D01*
X101713512Y-74556073D01*
X101688742Y-74561000D01*
X101511258Y-74561000D01*
X101486488Y-74556073D01*
X101337188Y-74526376D01*
X101173216Y-74458456D01*
X101025646Y-74359853D01*
X100900147Y-74234354D01*
X100801544Y-74086784D01*
X100733624Y-73922812D01*
X100699000Y-73748741D01*
X100699000Y-73571259D01*
X100733624Y-73397188D01*
X100801544Y-73233216D01*
X100900147Y-73085646D01*
X101025646Y-72960147D01*
X101173216Y-72861544D01*
X101337188Y-72793624D01*
X101486488Y-72763927D01*
X101511258Y-72759000D01*
X101688742Y-72759000D01*
X101713512Y-72763927D01*
G37*
G36*
X105570499Y-72122445D02*
G01*
X105607995Y-72133820D01*
X105642554Y-72152292D01*
X105672847Y-72177153D01*
X105697708Y-72207446D01*
X105716180Y-72242005D01*
X105727555Y-72279501D01*
X105732000Y-72324638D01*
X105732000Y-72963362D01*
X105727555Y-73008499D01*
X105716180Y-73045995D01*
X105697708Y-73080554D01*
X105672847Y-73110847D01*
X105642554Y-73135708D01*
X105607995Y-73154180D01*
X105570499Y-73165555D01*
X105525362Y-73170000D01*
X104786638Y-73170000D01*
X104741501Y-73165555D01*
X104704005Y-73154180D01*
X104669446Y-73135708D01*
X104639153Y-73110847D01*
X104614292Y-73080554D01*
X104595820Y-73045995D01*
X104584445Y-73008499D01*
X104580000Y-72963362D01*
X104580000Y-72324638D01*
X104584445Y-72279501D01*
X104595820Y-72242005D01*
X104614292Y-72207446D01*
X104639153Y-72177153D01*
X104669446Y-72152292D01*
X104704005Y-72133820D01*
X104741501Y-72122445D01*
X104786638Y-72118000D01*
X105525362Y-72118000D01*
X105570499Y-72122445D01*
G37*
G36*
X107320499Y-72122445D02*
G01*
X107357995Y-72133820D01*
X107392554Y-72152292D01*
X107422847Y-72177153D01*
X107447708Y-72207446D01*
X107466180Y-72242005D01*
X107477555Y-72279501D01*
X107482000Y-72324638D01*
X107482000Y-72963362D01*
X107477555Y-73008499D01*
X107466180Y-73045995D01*
X107447708Y-73080554D01*
X107422847Y-73110847D01*
X107392554Y-73135708D01*
X107357995Y-73154180D01*
X107320499Y-73165555D01*
X107275362Y-73170000D01*
X106536638Y-73170000D01*
X106491501Y-73165555D01*
X106454005Y-73154180D01*
X106419446Y-73135708D01*
X106389153Y-73110847D01*
X106364292Y-73080554D01*
X106345820Y-73045995D01*
X106334445Y-73008499D01*
X106330000Y-72963362D01*
X106330000Y-72324638D01*
X106334445Y-72279501D01*
X106345820Y-72242005D01*
X106364292Y-72207446D01*
X106389153Y-72177153D01*
X106419446Y-72152292D01*
X106454005Y-72133820D01*
X106491501Y-72122445D01*
X106536638Y-72118000D01*
X107275362Y-72118000D01*
X107320499Y-72122445D01*
G37*
G36*
X128144496Y-69679675D02*
G01*
X128455513Y-69808503D01*
X128455515Y-69808504D01*
X128735424Y-69995533D01*
X128973467Y-70233576D01*
X129098130Y-70420148D01*
X129160497Y-70513487D01*
X129289325Y-70824504D01*
X129355000Y-71154677D01*
X129355000Y-71491323D01*
X129289325Y-71821496D01*
X129164667Y-72122445D01*
X129160496Y-72132515D01*
X128973467Y-72412424D01*
X128735424Y-72650467D01*
X128455515Y-72837496D01*
X128455514Y-72837497D01*
X128455513Y-72837497D01*
X128144496Y-72966325D01*
X127814323Y-73032000D01*
X127477677Y-73032000D01*
X127147504Y-72966325D01*
X126836487Y-72837497D01*
X126836486Y-72837497D01*
X126836485Y-72837496D01*
X126556576Y-72650467D01*
X126318533Y-72412424D01*
X126131504Y-72132515D01*
X126127333Y-72122445D01*
X126002675Y-71821496D01*
X125937000Y-71491323D01*
X125937000Y-71154677D01*
X126002675Y-70824504D01*
X126131503Y-70513487D01*
X126193870Y-70420148D01*
X126318533Y-70233576D01*
X126556576Y-69995533D01*
X126836485Y-69808504D01*
X126836487Y-69808503D01*
X127147504Y-69679675D01*
X127477677Y-69614000D01*
X127814323Y-69614000D01*
X128144496Y-69679675D01*
G37*
G36*
X122900585Y-69180802D02*
G01*
X123050410Y-69210604D01*
X123332674Y-69327521D01*
X123586705Y-69497259D01*
X123802741Y-69713295D01*
X123972479Y-69967326D01*
X124089396Y-70249590D01*
X124119198Y-70399415D01*
X124149000Y-70549239D01*
X124149000Y-70854761D01*
X124148517Y-70857188D01*
X124089396Y-71154410D01*
X123972479Y-71436674D01*
X123802741Y-71690705D01*
X123586705Y-71906741D01*
X123332674Y-72076479D01*
X123050410Y-72193396D01*
X122900585Y-72223198D01*
X122750761Y-72253000D01*
X122445239Y-72253000D01*
X122295415Y-72223198D01*
X122145590Y-72193396D01*
X121863326Y-72076479D01*
X121609295Y-71906741D01*
X121393259Y-71690705D01*
X121223521Y-71436674D01*
X121106604Y-71154410D01*
X121047483Y-70857188D01*
X121047000Y-70854761D01*
X121047000Y-70549239D01*
X121076802Y-70399415D01*
X121106604Y-70249590D01*
X121223521Y-69967326D01*
X121393259Y-69713295D01*
X121609295Y-69497259D01*
X121863326Y-69327521D01*
X122145590Y-69210604D01*
X122295415Y-69180802D01*
X122445239Y-69151000D01*
X122750761Y-69151000D01*
X122900585Y-69180802D01*
G37*
G36*
X102501000Y-72021000D02*
G01*
X100699000Y-72021000D01*
X100699000Y-70219000D01*
X102501000Y-70219000D01*
X102501000Y-72021000D01*
G37*
G36*
X99173512Y-70223927D02*
G01*
X99322812Y-70253624D01*
X99486784Y-70321544D01*
X99634354Y-70420147D01*
X99759853Y-70545646D01*
X99858456Y-70693216D01*
X99926376Y-70857188D01*
X99961000Y-71031259D01*
X99961000Y-71208741D01*
X99926376Y-71382812D01*
X99858456Y-71546784D01*
X99759853Y-71694354D01*
X99634354Y-71819853D01*
X99486784Y-71918456D01*
X99322812Y-71986376D01*
X99173512Y-72016073D01*
X99148742Y-72021000D01*
X98971258Y-72021000D01*
X98946488Y-72016073D01*
X98797188Y-71986376D01*
X98633216Y-71918456D01*
X98485646Y-71819853D01*
X98360147Y-71694354D01*
X98261544Y-71546784D01*
X98193624Y-71382812D01*
X98159000Y-71208741D01*
X98159000Y-71031259D01*
X98193624Y-70857188D01*
X98261544Y-70693216D01*
X98360147Y-70545646D01*
X98485646Y-70420147D01*
X98633216Y-70321544D01*
X98797188Y-70253624D01*
X98946488Y-70223927D01*
X98971258Y-70219000D01*
X99148742Y-70219000D01*
X99173512Y-70223927D01*
G37*
G36*
X111365512Y-70223927D02*
G01*
X111514812Y-70253624D01*
X111678784Y-70321544D01*
X111826354Y-70420147D01*
X111951853Y-70545646D01*
X112050456Y-70693216D01*
X112118376Y-70857188D01*
X112153000Y-71031259D01*
X112153000Y-71208741D01*
X112118376Y-71382812D01*
X112050456Y-71546784D01*
X111951853Y-71694354D01*
X111826354Y-71819853D01*
X111678784Y-71918456D01*
X111514812Y-71986376D01*
X111365512Y-72016073D01*
X111340742Y-72021000D01*
X111163258Y-72021000D01*
X111138488Y-72016073D01*
X110989188Y-71986376D01*
X110825216Y-71918456D01*
X110677646Y-71819853D01*
X110552147Y-71694354D01*
X110453544Y-71546784D01*
X110385624Y-71382812D01*
X110351000Y-71208741D01*
X110351000Y-71031259D01*
X110385624Y-70857188D01*
X110453544Y-70693216D01*
X110552147Y-70545646D01*
X110677646Y-70420147D01*
X110825216Y-70321544D01*
X110989188Y-70253624D01*
X111138488Y-70223927D01*
X111163258Y-70219000D01*
X111340742Y-70219000D01*
X111365512Y-70223927D01*
G37*
G36*
X114693000Y-72021000D02*
G01*
X112891000Y-72021000D01*
X112891000Y-70219000D01*
X114693000Y-70219000D01*
X114693000Y-72021000D01*
G37*
G36*
X105570499Y-70598445D02*
G01*
X105607995Y-70609820D01*
X105642554Y-70628292D01*
X105672847Y-70653153D01*
X105697708Y-70683446D01*
X105716180Y-70718005D01*
X105727555Y-70755501D01*
X105732000Y-70800638D01*
X105732000Y-71439362D01*
X105727555Y-71484499D01*
X105716180Y-71521995D01*
X105697708Y-71556554D01*
X105672847Y-71586847D01*
X105642554Y-71611708D01*
X105607995Y-71630180D01*
X105570499Y-71641555D01*
X105525362Y-71646000D01*
X104786638Y-71646000D01*
X104741501Y-71641555D01*
X104704005Y-71630180D01*
X104669446Y-71611708D01*
X104639153Y-71586847D01*
X104614292Y-71556554D01*
X104595820Y-71521995D01*
X104584445Y-71484499D01*
X104580000Y-71439362D01*
X104580000Y-70800638D01*
X104584445Y-70755501D01*
X104595820Y-70718005D01*
X104614292Y-70683446D01*
X104639153Y-70653153D01*
X104669446Y-70628292D01*
X104704005Y-70609820D01*
X104741501Y-70598445D01*
X104786638Y-70594000D01*
X105525362Y-70594000D01*
X105570499Y-70598445D01*
G37*
G36*
X107320499Y-70598445D02*
G01*
X107357995Y-70609820D01*
X107392554Y-70628292D01*
X107422847Y-70653153D01*
X107447708Y-70683446D01*
X107466180Y-70718005D01*
X107477555Y-70755501D01*
X107482000Y-70800638D01*
X107482000Y-71439362D01*
X107477555Y-71484499D01*
X107466180Y-71521995D01*
X107447708Y-71556554D01*
X107422847Y-71586847D01*
X107392554Y-71611708D01*
X107357995Y-71630180D01*
X107320499Y-71641555D01*
X107275362Y-71646000D01*
X106536638Y-71646000D01*
X106491501Y-71641555D01*
X106454005Y-71630180D01*
X106419446Y-71611708D01*
X106389153Y-71586847D01*
X106364292Y-71556554D01*
X106345820Y-71521995D01*
X106334445Y-71484499D01*
X106330000Y-71439362D01*
X106330000Y-70800638D01*
X106334445Y-70755501D01*
X106345820Y-70718005D01*
X106364292Y-70683446D01*
X106389153Y-70653153D01*
X106419446Y-70628292D01*
X106454005Y-70609820D01*
X106491501Y-70598445D01*
X106536638Y-70594000D01*
X107275362Y-70594000D01*
X107320499Y-70598445D01*
G37*
M02*
