%TF.GenerationSoftware,KiCad,Pcbnew,5.1.6-c6e7f7d~86~ubuntu18.04.1*%
%TF.CreationDate,2021-07-01T18:37:21-07:00*%
%TF.ProjectId,usb_combo_pmod,7573625f-636f-46d6-926f-5f706d6f642e,rev?*%
%TF.SameCoordinates,Original*%
%TF.FileFunction,Soldermask,Bot*%
%TF.FilePolarity,Negative*%
%FSLAX46Y46*%
G04 Gerber Fmt 4.6, Leading zero omitted, Abs format (unit mm)*
G04 Created by KiCad (PCBNEW 5.1.6-c6e7f7d~86~ubuntu18.04.1) date 2021-07-01 18:37:21*
%MOMM*%
%LPD*%
G01*
G04 APERTURE LIST*
%ADD10C,0.100000*%
G04 APERTURE END LIST*
D10*
G36*
X122900585Y-82320802D02*
G01*
X123050410Y-82350604D01*
X123332674Y-82467521D01*
X123586705Y-82637259D01*
X123802741Y-82853295D01*
X123972479Y-83107326D01*
X124089396Y-83389590D01*
X124149000Y-83689240D01*
X124149000Y-83994760D01*
X124089396Y-84294410D01*
X123972479Y-84576674D01*
X123802741Y-84830705D01*
X123586705Y-85046741D01*
X123332674Y-85216479D01*
X123050410Y-85333396D01*
X122900585Y-85363198D01*
X122750761Y-85393000D01*
X122445239Y-85393000D01*
X122295415Y-85363198D01*
X122145590Y-85333396D01*
X121863326Y-85216479D01*
X121609295Y-85046741D01*
X121393259Y-84830705D01*
X121223521Y-84576674D01*
X121106604Y-84294410D01*
X121047000Y-83994760D01*
X121047000Y-83689240D01*
X121106604Y-83389590D01*
X121223521Y-83107326D01*
X121393259Y-82853295D01*
X121609295Y-82637259D01*
X121863326Y-82467521D01*
X122145590Y-82350604D01*
X122295415Y-82320802D01*
X122445239Y-82291000D01*
X122750761Y-82291000D01*
X122900585Y-82320802D01*
G37*
G36*
X116725000Y-85229000D02*
G01*
X114923000Y-85229000D01*
X114923000Y-83427000D01*
X116725000Y-83427000D01*
X116725000Y-85229000D01*
G37*
G36*
X105777512Y-83431927D02*
G01*
X105926812Y-83461624D01*
X106090784Y-83529544D01*
X106238354Y-83628147D01*
X106363853Y-83753646D01*
X106462456Y-83901216D01*
X106530376Y-84065188D01*
X106565000Y-84239259D01*
X106565000Y-84416741D01*
X106530376Y-84590812D01*
X106462456Y-84754784D01*
X106363853Y-84902354D01*
X106238354Y-85027853D01*
X106090784Y-85126456D01*
X105926812Y-85194376D01*
X105777512Y-85224073D01*
X105752742Y-85229000D01*
X105575258Y-85229000D01*
X105550488Y-85224073D01*
X105401188Y-85194376D01*
X105237216Y-85126456D01*
X105089646Y-85027853D01*
X104964147Y-84902354D01*
X104865544Y-84754784D01*
X104797624Y-84590812D01*
X104763000Y-84416741D01*
X104763000Y-84239259D01*
X104797624Y-84065188D01*
X104865544Y-83901216D01*
X104964147Y-83753646D01*
X105089646Y-83628147D01*
X105237216Y-83529544D01*
X105401188Y-83461624D01*
X105550488Y-83431927D01*
X105575258Y-83427000D01*
X105752742Y-83427000D01*
X105777512Y-83431927D01*
G37*
G36*
X108317512Y-83431927D02*
G01*
X108466812Y-83461624D01*
X108630784Y-83529544D01*
X108778354Y-83628147D01*
X108903853Y-83753646D01*
X109002456Y-83901216D01*
X109070376Y-84065188D01*
X109105000Y-84239259D01*
X109105000Y-84416741D01*
X109070376Y-84590812D01*
X109002456Y-84754784D01*
X108903853Y-84902354D01*
X108778354Y-85027853D01*
X108630784Y-85126456D01*
X108466812Y-85194376D01*
X108317512Y-85224073D01*
X108292742Y-85229000D01*
X108115258Y-85229000D01*
X108090488Y-85224073D01*
X107941188Y-85194376D01*
X107777216Y-85126456D01*
X107629646Y-85027853D01*
X107504147Y-84902354D01*
X107405544Y-84754784D01*
X107337624Y-84590812D01*
X107303000Y-84416741D01*
X107303000Y-84239259D01*
X107337624Y-84065188D01*
X107405544Y-83901216D01*
X107504147Y-83753646D01*
X107629646Y-83628147D01*
X107777216Y-83529544D01*
X107941188Y-83461624D01*
X108090488Y-83431927D01*
X108115258Y-83427000D01*
X108292742Y-83427000D01*
X108317512Y-83431927D01*
G37*
G36*
X110857512Y-83431927D02*
G01*
X111006812Y-83461624D01*
X111170784Y-83529544D01*
X111318354Y-83628147D01*
X111443853Y-83753646D01*
X111542456Y-83901216D01*
X111610376Y-84065188D01*
X111645000Y-84239259D01*
X111645000Y-84416741D01*
X111610376Y-84590812D01*
X111542456Y-84754784D01*
X111443853Y-84902354D01*
X111318354Y-85027853D01*
X111170784Y-85126456D01*
X111006812Y-85194376D01*
X110857512Y-85224073D01*
X110832742Y-85229000D01*
X110655258Y-85229000D01*
X110630488Y-85224073D01*
X110481188Y-85194376D01*
X110317216Y-85126456D01*
X110169646Y-85027853D01*
X110044147Y-84902354D01*
X109945544Y-84754784D01*
X109877624Y-84590812D01*
X109843000Y-84416741D01*
X109843000Y-84239259D01*
X109877624Y-84065188D01*
X109945544Y-83901216D01*
X110044147Y-83753646D01*
X110169646Y-83628147D01*
X110317216Y-83529544D01*
X110481188Y-83461624D01*
X110630488Y-83431927D01*
X110655258Y-83427000D01*
X110832742Y-83427000D01*
X110857512Y-83431927D01*
G37*
G36*
X113397512Y-83431927D02*
G01*
X113546812Y-83461624D01*
X113710784Y-83529544D01*
X113858354Y-83628147D01*
X113983853Y-83753646D01*
X114082456Y-83901216D01*
X114150376Y-84065188D01*
X114185000Y-84239259D01*
X114185000Y-84416741D01*
X114150376Y-84590812D01*
X114082456Y-84754784D01*
X113983853Y-84902354D01*
X113858354Y-85027853D01*
X113710784Y-85126456D01*
X113546812Y-85194376D01*
X113397512Y-85224073D01*
X113372742Y-85229000D01*
X113195258Y-85229000D01*
X113170488Y-85224073D01*
X113021188Y-85194376D01*
X112857216Y-85126456D01*
X112709646Y-85027853D01*
X112584147Y-84902354D01*
X112485544Y-84754784D01*
X112417624Y-84590812D01*
X112383000Y-84416741D01*
X112383000Y-84239259D01*
X112417624Y-84065188D01*
X112485544Y-83901216D01*
X112584147Y-83753646D01*
X112709646Y-83628147D01*
X112857216Y-83529544D01*
X113021188Y-83461624D01*
X113170488Y-83431927D01*
X113195258Y-83427000D01*
X113372742Y-83427000D01*
X113397512Y-83431927D01*
G37*
G36*
X128144496Y-81719675D02*
G01*
X128455513Y-81848503D01*
X128455515Y-81848504D01*
X128735424Y-82035533D01*
X128973467Y-82273576D01*
X129160496Y-82553485D01*
X129160497Y-82553487D01*
X129289325Y-82864504D01*
X129355000Y-83194677D01*
X129355000Y-83531323D01*
X129289325Y-83861496D01*
X129160497Y-84172513D01*
X129160496Y-84172515D01*
X128973467Y-84452424D01*
X128735424Y-84690467D01*
X128455515Y-84877496D01*
X128455514Y-84877497D01*
X128455513Y-84877497D01*
X128144496Y-85006325D01*
X127814323Y-85072000D01*
X127477677Y-85072000D01*
X127147504Y-85006325D01*
X126836487Y-84877497D01*
X126836486Y-84877497D01*
X126836485Y-84877496D01*
X126556576Y-84690467D01*
X126318533Y-84452424D01*
X126131504Y-84172515D01*
X126131503Y-84172513D01*
X126002675Y-83861496D01*
X125937000Y-83531323D01*
X125937000Y-83194677D01*
X126002675Y-82864504D01*
X126131503Y-82553487D01*
X126131504Y-82553485D01*
X126318533Y-82273576D01*
X126556576Y-82035533D01*
X126836485Y-81848504D01*
X126836487Y-81848503D01*
X127147504Y-81719675D01*
X127477677Y-81654000D01*
X127814323Y-81654000D01*
X128144496Y-81719675D01*
G37*
G36*
X99173512Y-82923927D02*
G01*
X99322812Y-82953624D01*
X99486784Y-83021544D01*
X99634354Y-83120147D01*
X99759853Y-83245646D01*
X99858456Y-83393216D01*
X99926376Y-83557188D01*
X99961000Y-83731259D01*
X99961000Y-83908741D01*
X99926376Y-84082812D01*
X99858456Y-84246784D01*
X99759853Y-84394354D01*
X99634354Y-84519853D01*
X99486784Y-84618456D01*
X99322812Y-84686376D01*
X99173512Y-84716073D01*
X99148742Y-84721000D01*
X98971258Y-84721000D01*
X98946488Y-84716073D01*
X98797188Y-84686376D01*
X98633216Y-84618456D01*
X98485646Y-84519853D01*
X98360147Y-84394354D01*
X98261544Y-84246784D01*
X98193624Y-84082812D01*
X98159000Y-83908741D01*
X98159000Y-83731259D01*
X98193624Y-83557188D01*
X98261544Y-83393216D01*
X98360147Y-83245646D01*
X98485646Y-83120147D01*
X98633216Y-83021544D01*
X98797188Y-82953624D01*
X98946488Y-82923927D01*
X98971258Y-82919000D01*
X99148742Y-82919000D01*
X99173512Y-82923927D01*
G37*
G36*
X101713512Y-82923927D02*
G01*
X101862812Y-82953624D01*
X102026784Y-83021544D01*
X102174354Y-83120147D01*
X102299853Y-83245646D01*
X102398456Y-83393216D01*
X102466376Y-83557188D01*
X102501000Y-83731259D01*
X102501000Y-83908741D01*
X102466376Y-84082812D01*
X102398456Y-84246784D01*
X102299853Y-84394354D01*
X102174354Y-84519853D01*
X102026784Y-84618456D01*
X101862812Y-84686376D01*
X101713512Y-84716073D01*
X101688742Y-84721000D01*
X101511258Y-84721000D01*
X101486488Y-84716073D01*
X101337188Y-84686376D01*
X101173216Y-84618456D01*
X101025646Y-84519853D01*
X100900147Y-84394354D01*
X100801544Y-84246784D01*
X100733624Y-84082812D01*
X100699000Y-83908741D01*
X100699000Y-83731259D01*
X100733624Y-83557188D01*
X100801544Y-83393216D01*
X100900147Y-83245646D01*
X101025646Y-83120147D01*
X101173216Y-83021544D01*
X101337188Y-82953624D01*
X101486488Y-82923927D01*
X101511258Y-82919000D01*
X101688742Y-82919000D01*
X101713512Y-82923927D01*
G37*
G36*
X99173512Y-80383927D02*
G01*
X99322812Y-80413624D01*
X99486784Y-80481544D01*
X99634354Y-80580147D01*
X99759853Y-80705646D01*
X99858456Y-80853216D01*
X99926376Y-81017188D01*
X99961000Y-81191259D01*
X99961000Y-81368741D01*
X99926376Y-81542812D01*
X99858456Y-81706784D01*
X99759853Y-81854354D01*
X99634354Y-81979853D01*
X99486784Y-82078456D01*
X99322812Y-82146376D01*
X99173512Y-82176073D01*
X99148742Y-82181000D01*
X98971258Y-82181000D01*
X98946488Y-82176073D01*
X98797188Y-82146376D01*
X98633216Y-82078456D01*
X98485646Y-81979853D01*
X98360147Y-81854354D01*
X98261544Y-81706784D01*
X98193624Y-81542812D01*
X98159000Y-81368741D01*
X98159000Y-81191259D01*
X98193624Y-81017188D01*
X98261544Y-80853216D01*
X98360147Y-80705646D01*
X98485646Y-80580147D01*
X98633216Y-80481544D01*
X98797188Y-80413624D01*
X98946488Y-80383927D01*
X98971258Y-80379000D01*
X99148742Y-80379000D01*
X99173512Y-80383927D01*
G37*
G36*
X101713512Y-80383927D02*
G01*
X101862812Y-80413624D01*
X102026784Y-80481544D01*
X102174354Y-80580147D01*
X102299853Y-80705646D01*
X102398456Y-80853216D01*
X102466376Y-81017188D01*
X102501000Y-81191259D01*
X102501000Y-81368741D01*
X102466376Y-81542812D01*
X102398456Y-81706784D01*
X102299853Y-81854354D01*
X102174354Y-81979853D01*
X102026784Y-82078456D01*
X101862812Y-82146376D01*
X101713512Y-82176073D01*
X101688742Y-82181000D01*
X101511258Y-82181000D01*
X101486488Y-82176073D01*
X101337188Y-82146376D01*
X101173216Y-82078456D01*
X101025646Y-81979853D01*
X100900147Y-81854354D01*
X100801544Y-81706784D01*
X100733624Y-81542812D01*
X100699000Y-81368741D01*
X100699000Y-81191259D01*
X100733624Y-81017188D01*
X100801544Y-80853216D01*
X100900147Y-80705646D01*
X101025646Y-80580147D01*
X101173216Y-80481544D01*
X101337188Y-80413624D01*
X101486488Y-80383927D01*
X101511258Y-80379000D01*
X101688742Y-80379000D01*
X101713512Y-80383927D01*
G37*
G36*
X120739000Y-81623000D02*
G01*
X119037000Y-81623000D01*
X119037000Y-79921000D01*
X120739000Y-79921000D01*
X120739000Y-81623000D01*
G37*
G36*
X101713512Y-77843927D02*
G01*
X101862812Y-77873624D01*
X102026784Y-77941544D01*
X102174354Y-78040147D01*
X102299853Y-78165646D01*
X102398456Y-78313216D01*
X102466376Y-78477188D01*
X102501000Y-78651259D01*
X102501000Y-78828741D01*
X102466376Y-79002812D01*
X102398456Y-79166784D01*
X102299853Y-79314354D01*
X102174354Y-79439853D01*
X102026784Y-79538456D01*
X101862812Y-79606376D01*
X101713512Y-79636073D01*
X101688742Y-79641000D01*
X101511258Y-79641000D01*
X101486488Y-79636073D01*
X101337188Y-79606376D01*
X101173216Y-79538456D01*
X101025646Y-79439853D01*
X100900147Y-79314354D01*
X100801544Y-79166784D01*
X100733624Y-79002812D01*
X100699000Y-78828741D01*
X100699000Y-78651259D01*
X100733624Y-78477188D01*
X100801544Y-78313216D01*
X100900147Y-78165646D01*
X101025646Y-78040147D01*
X101173216Y-77941544D01*
X101337188Y-77873624D01*
X101486488Y-77843927D01*
X101511258Y-77839000D01*
X101688742Y-77839000D01*
X101713512Y-77843927D01*
G37*
G36*
X99173512Y-77843927D02*
G01*
X99322812Y-77873624D01*
X99486784Y-77941544D01*
X99634354Y-78040147D01*
X99759853Y-78165646D01*
X99858456Y-78313216D01*
X99926376Y-78477188D01*
X99961000Y-78651259D01*
X99961000Y-78828741D01*
X99926376Y-79002812D01*
X99858456Y-79166784D01*
X99759853Y-79314354D01*
X99634354Y-79439853D01*
X99486784Y-79538456D01*
X99322812Y-79606376D01*
X99173512Y-79636073D01*
X99148742Y-79641000D01*
X98971258Y-79641000D01*
X98946488Y-79636073D01*
X98797188Y-79606376D01*
X98633216Y-79538456D01*
X98485646Y-79439853D01*
X98360147Y-79314354D01*
X98261544Y-79166784D01*
X98193624Y-79002812D01*
X98159000Y-78828741D01*
X98159000Y-78651259D01*
X98193624Y-78477188D01*
X98261544Y-78313216D01*
X98360147Y-78165646D01*
X98485646Y-78040147D01*
X98633216Y-77941544D01*
X98797188Y-77873624D01*
X98946488Y-77843927D01*
X98971258Y-77839000D01*
X99148742Y-77839000D01*
X99173512Y-77843927D01*
G37*
G36*
X125085244Y-77802699D02*
G01*
X125159142Y-77817398D01*
X125298364Y-77875065D01*
X125423659Y-77958785D01*
X125530215Y-78065341D01*
X125613935Y-78190636D01*
X125671602Y-78329858D01*
X125671602Y-78329859D01*
X125701000Y-78477653D01*
X125701000Y-78628347D01*
X125691701Y-78675097D01*
X125671602Y-78776142D01*
X125613935Y-78915364D01*
X125530215Y-79040659D01*
X125423659Y-79147215D01*
X125298364Y-79230935D01*
X125159142Y-79288602D01*
X125085244Y-79303301D01*
X125011347Y-79318000D01*
X124860653Y-79318000D01*
X124786756Y-79303301D01*
X124712858Y-79288602D01*
X124573636Y-79230935D01*
X124448341Y-79147215D01*
X124341785Y-79040659D01*
X124258065Y-78915364D01*
X124200398Y-78776142D01*
X124180299Y-78675097D01*
X124171000Y-78628347D01*
X124171000Y-78477653D01*
X124200398Y-78329859D01*
X124200398Y-78329858D01*
X124258065Y-78190636D01*
X124341785Y-78065341D01*
X124448341Y-77958785D01*
X124573636Y-77875065D01*
X124712858Y-77817398D01*
X124786756Y-77802699D01*
X124860653Y-77788000D01*
X125011347Y-77788000D01*
X125085244Y-77802699D01*
G37*
G36*
X123085244Y-77802699D02*
G01*
X123159142Y-77817398D01*
X123298364Y-77875065D01*
X123423659Y-77958785D01*
X123530215Y-78065341D01*
X123613935Y-78190636D01*
X123671602Y-78329858D01*
X123671602Y-78329859D01*
X123701000Y-78477653D01*
X123701000Y-78628347D01*
X123691701Y-78675097D01*
X123671602Y-78776142D01*
X123613935Y-78915364D01*
X123530215Y-79040659D01*
X123423659Y-79147215D01*
X123298364Y-79230935D01*
X123159142Y-79288602D01*
X123085244Y-79303301D01*
X123011347Y-79318000D01*
X122860653Y-79318000D01*
X122786756Y-79303301D01*
X122712858Y-79288602D01*
X122573636Y-79230935D01*
X122448341Y-79147215D01*
X122341785Y-79040659D01*
X122258065Y-78915364D01*
X122200398Y-78776142D01*
X122180299Y-78675097D01*
X122171000Y-78628347D01*
X122171000Y-78477653D01*
X122200398Y-78329859D01*
X122200398Y-78329858D01*
X122258065Y-78190636D01*
X122341785Y-78065341D01*
X122448341Y-77958785D01*
X122573636Y-77875065D01*
X122712858Y-77817398D01*
X122786756Y-77802699D01*
X122860653Y-77788000D01*
X123011347Y-77788000D01*
X123085244Y-77802699D01*
G37*
G36*
X120136228Y-77453703D02*
G01*
X120291100Y-77517853D01*
X120430481Y-77610985D01*
X120549015Y-77729519D01*
X120642147Y-77868900D01*
X120706297Y-78023772D01*
X120739000Y-78188184D01*
X120739000Y-78355816D01*
X120706297Y-78520228D01*
X120642147Y-78675100D01*
X120549015Y-78814481D01*
X120430481Y-78933015D01*
X120291100Y-79026147D01*
X120136228Y-79090297D01*
X119971816Y-79123000D01*
X119804184Y-79123000D01*
X119639772Y-79090297D01*
X119484900Y-79026147D01*
X119345519Y-78933015D01*
X119226985Y-78814481D01*
X119133853Y-78675100D01*
X119069703Y-78520228D01*
X119037000Y-78355816D01*
X119037000Y-78188184D01*
X119069703Y-78023772D01*
X119133853Y-77868900D01*
X119226985Y-77729519D01*
X119345519Y-77610985D01*
X119484900Y-77517853D01*
X119639772Y-77453703D01*
X119804184Y-77421000D01*
X119971816Y-77421000D01*
X120136228Y-77453703D01*
G37*
G36*
X116375000Y-78783000D02*
G01*
X115273000Y-78783000D01*
X115273000Y-77681000D01*
X116375000Y-77681000D01*
X116375000Y-78783000D01*
G37*
G36*
X120136228Y-75453703D02*
G01*
X120291100Y-75517853D01*
X120430481Y-75610985D01*
X120549015Y-75729519D01*
X120642147Y-75868900D01*
X120706297Y-76023772D01*
X120739000Y-76188184D01*
X120739000Y-76355816D01*
X120706297Y-76520228D01*
X120642147Y-76675100D01*
X120549015Y-76814481D01*
X120430481Y-76933015D01*
X120291100Y-77026147D01*
X120136228Y-77090297D01*
X119971816Y-77123000D01*
X119804184Y-77123000D01*
X119639772Y-77090297D01*
X119484900Y-77026147D01*
X119345519Y-76933015D01*
X119226985Y-76814481D01*
X119133853Y-76675100D01*
X119069703Y-76520228D01*
X119037000Y-76355816D01*
X119037000Y-76188184D01*
X119069703Y-76023772D01*
X119133853Y-75868900D01*
X119226985Y-75729519D01*
X119345519Y-75610985D01*
X119484900Y-75517853D01*
X119639772Y-75453703D01*
X119804184Y-75421000D01*
X119971816Y-75421000D01*
X120136228Y-75453703D01*
G37*
G36*
X99173512Y-75303927D02*
G01*
X99322812Y-75333624D01*
X99486784Y-75401544D01*
X99634354Y-75500147D01*
X99759853Y-75625646D01*
X99858456Y-75773216D01*
X99926376Y-75937188D01*
X99961000Y-76111259D01*
X99961000Y-76288741D01*
X99926376Y-76462812D01*
X99858456Y-76626784D01*
X99759853Y-76774354D01*
X99634354Y-76899853D01*
X99486784Y-76998456D01*
X99322812Y-77066376D01*
X99173512Y-77096073D01*
X99148742Y-77101000D01*
X98971258Y-77101000D01*
X98946488Y-77096073D01*
X98797188Y-77066376D01*
X98633216Y-76998456D01*
X98485646Y-76899853D01*
X98360147Y-76774354D01*
X98261544Y-76626784D01*
X98193624Y-76462812D01*
X98159000Y-76288741D01*
X98159000Y-76111259D01*
X98193624Y-75937188D01*
X98261544Y-75773216D01*
X98360147Y-75625646D01*
X98485646Y-75500147D01*
X98633216Y-75401544D01*
X98797188Y-75333624D01*
X98946488Y-75303927D01*
X98971258Y-75299000D01*
X99148742Y-75299000D01*
X99173512Y-75303927D01*
G37*
G36*
X101713512Y-75303927D02*
G01*
X101862812Y-75333624D01*
X102026784Y-75401544D01*
X102174354Y-75500147D01*
X102299853Y-75625646D01*
X102398456Y-75773216D01*
X102466376Y-75937188D01*
X102501000Y-76111259D01*
X102501000Y-76288741D01*
X102466376Y-76462812D01*
X102398456Y-76626784D01*
X102299853Y-76774354D01*
X102174354Y-76899853D01*
X102026784Y-76998456D01*
X101862812Y-77066376D01*
X101713512Y-77096073D01*
X101688742Y-77101000D01*
X101511258Y-77101000D01*
X101486488Y-77096073D01*
X101337188Y-77066376D01*
X101173216Y-76998456D01*
X101025646Y-76899853D01*
X100900147Y-76774354D01*
X100801544Y-76626784D01*
X100733624Y-76462812D01*
X100699000Y-76288741D01*
X100699000Y-76111259D01*
X100733624Y-75937188D01*
X100801544Y-75773216D01*
X100900147Y-75625646D01*
X101025646Y-75500147D01*
X101173216Y-75401544D01*
X101337188Y-75333624D01*
X101486488Y-75303927D01*
X101511258Y-75299000D01*
X101688742Y-75299000D01*
X101713512Y-75303927D01*
G37*
G36*
X125066648Y-75299000D02*
G01*
X125159142Y-75317398D01*
X125298364Y-75375065D01*
X125423659Y-75458785D01*
X125530215Y-75565341D01*
X125613935Y-75690636D01*
X125671602Y-75829858D01*
X125671602Y-75829859D01*
X125701000Y-75977653D01*
X125701000Y-76128347D01*
X125686301Y-76202244D01*
X125671602Y-76276142D01*
X125613935Y-76415364D01*
X125530215Y-76540659D01*
X125423659Y-76647215D01*
X125298364Y-76730935D01*
X125159142Y-76788602D01*
X125085244Y-76803301D01*
X125011347Y-76818000D01*
X124860653Y-76818000D01*
X124786756Y-76803301D01*
X124712858Y-76788602D01*
X124573636Y-76730935D01*
X124448341Y-76647215D01*
X124341785Y-76540659D01*
X124258065Y-76415364D01*
X124200398Y-76276142D01*
X124185699Y-76202244D01*
X124171000Y-76128347D01*
X124171000Y-75977653D01*
X124200398Y-75829859D01*
X124200398Y-75829858D01*
X124258065Y-75690636D01*
X124341785Y-75565341D01*
X124448341Y-75458785D01*
X124573636Y-75375065D01*
X124712858Y-75317398D01*
X124805352Y-75299000D01*
X124860653Y-75288000D01*
X125011347Y-75288000D01*
X125066648Y-75299000D01*
G37*
G36*
X123701000Y-76818000D02*
G01*
X122171000Y-76818000D01*
X122171000Y-75288000D01*
X123701000Y-75288000D01*
X123701000Y-76818000D01*
G37*
G36*
X116375000Y-76751000D02*
G01*
X115273000Y-76751000D01*
X115273000Y-75649000D01*
X116375000Y-75649000D01*
X116375000Y-76751000D01*
G37*
G36*
X120136228Y-72953703D02*
G01*
X120291100Y-73017853D01*
X120430481Y-73110985D01*
X120549015Y-73229519D01*
X120642147Y-73368900D01*
X120706297Y-73523772D01*
X120739000Y-73688184D01*
X120739000Y-73855816D01*
X120706297Y-74020228D01*
X120642147Y-74175100D01*
X120549015Y-74314481D01*
X120430481Y-74433015D01*
X120291100Y-74526147D01*
X120136228Y-74590297D01*
X119971816Y-74623000D01*
X119804184Y-74623000D01*
X119639772Y-74590297D01*
X119484900Y-74526147D01*
X119345519Y-74433015D01*
X119226985Y-74314481D01*
X119133853Y-74175100D01*
X119069703Y-74020228D01*
X119037000Y-73855816D01*
X119037000Y-73688184D01*
X119069703Y-73523772D01*
X119133853Y-73368900D01*
X119226985Y-73229519D01*
X119345519Y-73110985D01*
X119484900Y-73017853D01*
X119639772Y-72953703D01*
X119804184Y-72921000D01*
X119971816Y-72921000D01*
X120136228Y-72953703D01*
G37*
G36*
X101713512Y-72763927D02*
G01*
X101862812Y-72793624D01*
X102026784Y-72861544D01*
X102174354Y-72960147D01*
X102299853Y-73085646D01*
X102398456Y-73233216D01*
X102466376Y-73397188D01*
X102501000Y-73571259D01*
X102501000Y-73748741D01*
X102466376Y-73922812D01*
X102398456Y-74086784D01*
X102299853Y-74234354D01*
X102174354Y-74359853D01*
X102026784Y-74458456D01*
X101862812Y-74526376D01*
X101713512Y-74556073D01*
X101688742Y-74561000D01*
X101511258Y-74561000D01*
X101486488Y-74556073D01*
X101337188Y-74526376D01*
X101173216Y-74458456D01*
X101025646Y-74359853D01*
X100900147Y-74234354D01*
X100801544Y-74086784D01*
X100733624Y-73922812D01*
X100699000Y-73748741D01*
X100699000Y-73571259D01*
X100733624Y-73397188D01*
X100801544Y-73233216D01*
X100900147Y-73085646D01*
X101025646Y-72960147D01*
X101173216Y-72861544D01*
X101337188Y-72793624D01*
X101486488Y-72763927D01*
X101511258Y-72759000D01*
X101688742Y-72759000D01*
X101713512Y-72763927D01*
G37*
G36*
X99173512Y-72763927D02*
G01*
X99322812Y-72793624D01*
X99486784Y-72861544D01*
X99634354Y-72960147D01*
X99759853Y-73085646D01*
X99858456Y-73233216D01*
X99926376Y-73397188D01*
X99961000Y-73571259D01*
X99961000Y-73748741D01*
X99926376Y-73922812D01*
X99858456Y-74086784D01*
X99759853Y-74234354D01*
X99634354Y-74359853D01*
X99486784Y-74458456D01*
X99322812Y-74526376D01*
X99173512Y-74556073D01*
X99148742Y-74561000D01*
X98971258Y-74561000D01*
X98946488Y-74556073D01*
X98797188Y-74526376D01*
X98633216Y-74458456D01*
X98485646Y-74359853D01*
X98360147Y-74234354D01*
X98261544Y-74086784D01*
X98193624Y-73922812D01*
X98159000Y-73748741D01*
X98159000Y-73571259D01*
X98193624Y-73397188D01*
X98261544Y-73233216D01*
X98360147Y-73085646D01*
X98485646Y-72960147D01*
X98633216Y-72861544D01*
X98797188Y-72793624D01*
X98946488Y-72763927D01*
X98971258Y-72759000D01*
X99148742Y-72759000D01*
X99173512Y-72763927D01*
G37*
G36*
X128144496Y-69679675D02*
G01*
X128455513Y-69808503D01*
X128455515Y-69808504D01*
X128735424Y-69995533D01*
X128973467Y-70233576D01*
X129098130Y-70420148D01*
X129160497Y-70513487D01*
X129289325Y-70824504D01*
X129355000Y-71154677D01*
X129355000Y-71491323D01*
X129289325Y-71821496D01*
X129221029Y-71986376D01*
X129160496Y-72132515D01*
X128973467Y-72412424D01*
X128735424Y-72650467D01*
X128455515Y-72837496D01*
X128455514Y-72837497D01*
X128455513Y-72837497D01*
X128144496Y-72966325D01*
X127814323Y-73032000D01*
X127477677Y-73032000D01*
X127147504Y-72966325D01*
X126836487Y-72837497D01*
X126836486Y-72837497D01*
X126836485Y-72837496D01*
X126556576Y-72650467D01*
X126318533Y-72412424D01*
X126131504Y-72132515D01*
X126070971Y-71986376D01*
X126002675Y-71821496D01*
X125937000Y-71491323D01*
X125937000Y-71154677D01*
X126002675Y-70824504D01*
X126131503Y-70513487D01*
X126193870Y-70420148D01*
X126318533Y-70233576D01*
X126556576Y-69995533D01*
X126836485Y-69808504D01*
X126836487Y-69808503D01*
X127147504Y-69679675D01*
X127477677Y-69614000D01*
X127814323Y-69614000D01*
X128144496Y-69679675D01*
G37*
G36*
X122900585Y-69180802D02*
G01*
X123050410Y-69210604D01*
X123332674Y-69327521D01*
X123586705Y-69497259D01*
X123802741Y-69713295D01*
X123972479Y-69967326D01*
X124089396Y-70249590D01*
X124119198Y-70399415D01*
X124148286Y-70545647D01*
X124149000Y-70549240D01*
X124149000Y-70854760D01*
X124089396Y-71154410D01*
X123972479Y-71436674D01*
X123802741Y-71690705D01*
X123586705Y-71906741D01*
X123332674Y-72076479D01*
X123050410Y-72193396D01*
X122900585Y-72223198D01*
X122750761Y-72253000D01*
X122445239Y-72253000D01*
X122295415Y-72223198D01*
X122145590Y-72193396D01*
X121863326Y-72076479D01*
X121609295Y-71906741D01*
X121393259Y-71690705D01*
X121223521Y-71436674D01*
X121106604Y-71154410D01*
X121047000Y-70854760D01*
X121047000Y-70549240D01*
X121047715Y-70545647D01*
X121076802Y-70399415D01*
X121106604Y-70249590D01*
X121223521Y-69967326D01*
X121393259Y-69713295D01*
X121609295Y-69497259D01*
X121863326Y-69327521D01*
X122145590Y-69210604D01*
X122295415Y-69180802D01*
X122445239Y-69151000D01*
X122750761Y-69151000D01*
X122900585Y-69180802D01*
G37*
G36*
X99173512Y-70223927D02*
G01*
X99322812Y-70253624D01*
X99486784Y-70321544D01*
X99634354Y-70420147D01*
X99759853Y-70545646D01*
X99858456Y-70693216D01*
X99926376Y-70857188D01*
X99961000Y-71031259D01*
X99961000Y-71208741D01*
X99926376Y-71382812D01*
X99858456Y-71546784D01*
X99759853Y-71694354D01*
X99634354Y-71819853D01*
X99486784Y-71918456D01*
X99322812Y-71986376D01*
X99173512Y-72016073D01*
X99148742Y-72021000D01*
X98971258Y-72021000D01*
X98946488Y-72016073D01*
X98797188Y-71986376D01*
X98633216Y-71918456D01*
X98485646Y-71819853D01*
X98360147Y-71694354D01*
X98261544Y-71546784D01*
X98193624Y-71382812D01*
X98159000Y-71208741D01*
X98159000Y-71031259D01*
X98193624Y-70857188D01*
X98261544Y-70693216D01*
X98360147Y-70545646D01*
X98485646Y-70420147D01*
X98633216Y-70321544D01*
X98797188Y-70253624D01*
X98946488Y-70223927D01*
X98971258Y-70219000D01*
X99148742Y-70219000D01*
X99173512Y-70223927D01*
G37*
G36*
X111365512Y-70223927D02*
G01*
X111514812Y-70253624D01*
X111678784Y-70321544D01*
X111826354Y-70420147D01*
X111951853Y-70545646D01*
X112050456Y-70693216D01*
X112118376Y-70857188D01*
X112153000Y-71031259D01*
X112153000Y-71208741D01*
X112118376Y-71382812D01*
X112050456Y-71546784D01*
X111951853Y-71694354D01*
X111826354Y-71819853D01*
X111678784Y-71918456D01*
X111514812Y-71986376D01*
X111365512Y-72016073D01*
X111340742Y-72021000D01*
X111163258Y-72021000D01*
X111138488Y-72016073D01*
X110989188Y-71986376D01*
X110825216Y-71918456D01*
X110677646Y-71819853D01*
X110552147Y-71694354D01*
X110453544Y-71546784D01*
X110385624Y-71382812D01*
X110351000Y-71208741D01*
X110351000Y-71031259D01*
X110385624Y-70857188D01*
X110453544Y-70693216D01*
X110552147Y-70545646D01*
X110677646Y-70420147D01*
X110825216Y-70321544D01*
X110989188Y-70253624D01*
X111138488Y-70223927D01*
X111163258Y-70219000D01*
X111340742Y-70219000D01*
X111365512Y-70223927D01*
G37*
G36*
X114693000Y-72021000D02*
G01*
X112891000Y-72021000D01*
X112891000Y-70219000D01*
X114693000Y-70219000D01*
X114693000Y-72021000D01*
G37*
G36*
X102501000Y-72021000D02*
G01*
X100699000Y-72021000D01*
X100699000Y-70219000D01*
X102501000Y-70219000D01*
X102501000Y-72021000D01*
G37*
M02*
