M48
; DRILL file {KiCad 5.1.6-c6e7f7d~86~ubuntu18.04.1} date Thu Jul  1 18:37:10 2021
; FORMAT={-:-/ absolute / inch / decimal}
; #@! TF.CreationDate,2021-07-01T18:37:10-07:00
; #@! TF.GenerationSoftware,Kicad,Pcbnew,5.1.6-c6e7f7d~86~ubuntu18.04.1
; #@! TF.FileFunction,Plated,1,4,PTH
FMAT,2
INCH
T1C0.0100
T2C0.0197
T3C0.0362
T4C0.0394
T5C0.0906
%
G90
G05
T1
X4.24Y-2.98
X4.24Y-3.16
X4.3Y-2.96
T2
X4.1Y-2.76
X4.1251Y-2.9882
X4.1788Y-3.16
X4.56Y-3.08
X4.56Y-3.0
T3
X4.84Y-2.9942
X4.84Y-3.0926
X4.9187Y-2.9942
X4.9187Y-3.0926
X4.72Y-2.9044
X4.72Y-3.0028
X4.72Y-3.0816
X4.72Y-3.18
T4
X3.9Y-2.8
X3.9Y-2.9
X3.9Y-3.0
X3.9Y-3.1
X3.9Y-3.2
X3.9Y-3.3
X4.0Y-2.8
X4.0Y-2.9
X4.0Y-3.0
X4.0Y-3.1
X4.0Y-3.2
X4.0Y-3.3
X4.16Y-3.32
X4.26Y-3.32
X4.36Y-3.32
X4.46Y-3.32
X4.56Y-3.32
X4.38Y-2.8
X4.48Y-2.8
T5
X5.0254Y-2.808
X5.0254Y-3.282
X4.8267Y-2.7835
X4.8267Y-3.3009
T0
M30
