%TF.GenerationSoftware,KiCad,Pcbnew,5.1.6-c6e7f7d~86~ubuntu18.04.1*%
%TF.CreationDate,2021-07-01T18:37:21-07:00*%
%TF.ProjectId,usb_combo_pmod,7573625f-636f-46d6-926f-5f706d6f642e,rev?*%
%TF.SameCoordinates,Original*%
%TF.FileFunction,Paste,Top*%
%TF.FilePolarity,Positive*%
%FSLAX46Y46*%
G04 Gerber Fmt 4.6, Leading zero omitted, Abs format (unit mm)*
G04 Created by KiCad (PCBNEW 5.1.6-c6e7f7d~86~ubuntu18.04.1) date 2021-07-01 18:37:21*
%MOMM*%
%LPD*%
G01*
G04 APERTURE LIST*
G04 APERTURE END LIST*
%TO.C,U1*%
G36*
G01*
X106737000Y-78391500D02*
X106737000Y-78006500D01*
G75*
G02*
X106929500Y-77814000I192500J0D01*
G01*
X107314500Y-77814000D01*
G75*
G02*
X107507000Y-78006500I0J-192500D01*
G01*
X107507000Y-78391500D01*
G75*
G02*
X107314500Y-78584000I-192500J0D01*
G01*
X106929500Y-78584000D01*
G75*
G02*
X106737000Y-78391500I0J192500D01*
G01*
G37*
G36*
G01*
X106737000Y-77441500D02*
X106737000Y-77056500D01*
G75*
G02*
X106929500Y-76864000I192500J0D01*
G01*
X107314500Y-76864000D01*
G75*
G02*
X107507000Y-77056500I0J-192500D01*
G01*
X107507000Y-77441500D01*
G75*
G02*
X107314500Y-77634000I-192500J0D01*
G01*
X106929500Y-77634000D01*
G75*
G02*
X106737000Y-77441500I0J192500D01*
G01*
G37*
G36*
G01*
X105787000Y-78391500D02*
X105787000Y-78006500D01*
G75*
G02*
X105979500Y-77814000I192500J0D01*
G01*
X106364500Y-77814000D01*
G75*
G02*
X106557000Y-78006500I0J-192500D01*
G01*
X106557000Y-78391500D01*
G75*
G02*
X106364500Y-78584000I-192500J0D01*
G01*
X105979500Y-78584000D01*
G75*
G02*
X105787000Y-78391500I0J192500D01*
G01*
G37*
G36*
G01*
X105787000Y-77441500D02*
X105787000Y-77056500D01*
G75*
G02*
X105979500Y-76864000I192500J0D01*
G01*
X106364500Y-76864000D01*
G75*
G02*
X106557000Y-77056500I0J-192500D01*
G01*
X106557000Y-77441500D01*
G75*
G02*
X106364500Y-77634000I-192500J0D01*
G01*
X105979500Y-77634000D01*
G75*
G02*
X105787000Y-77441500I0J192500D01*
G01*
G37*
G36*
G01*
X105772000Y-76486500D02*
X105772000Y-75936500D01*
G75*
G02*
X105834500Y-75874000I62500J0D01*
G01*
X105959500Y-75874000D01*
G75*
G02*
X106022000Y-75936500I0J-62500D01*
G01*
X106022000Y-76486500D01*
G75*
G02*
X105959500Y-76549000I-62500J0D01*
G01*
X105834500Y-76549000D01*
G75*
G02*
X105772000Y-76486500I0J62500D01*
G01*
G37*
G36*
G01*
X106272000Y-76486500D02*
X106272000Y-75936500D01*
G75*
G02*
X106334500Y-75874000I62500J0D01*
G01*
X106459500Y-75874000D01*
G75*
G02*
X106522000Y-75936500I0J-62500D01*
G01*
X106522000Y-76486500D01*
G75*
G02*
X106459500Y-76549000I-62500J0D01*
G01*
X106334500Y-76549000D01*
G75*
G02*
X106272000Y-76486500I0J62500D01*
G01*
G37*
G36*
G01*
X106772000Y-76486500D02*
X106772000Y-75936500D01*
G75*
G02*
X106834500Y-75874000I62500J0D01*
G01*
X106959500Y-75874000D01*
G75*
G02*
X107022000Y-75936500I0J-62500D01*
G01*
X107022000Y-76486500D01*
G75*
G02*
X106959500Y-76549000I-62500J0D01*
G01*
X106834500Y-76549000D01*
G75*
G02*
X106772000Y-76486500I0J62500D01*
G01*
G37*
G36*
G01*
X107272000Y-76486500D02*
X107272000Y-75936500D01*
G75*
G02*
X107334500Y-75874000I62500J0D01*
G01*
X107459500Y-75874000D01*
G75*
G02*
X107522000Y-75936500I0J-62500D01*
G01*
X107522000Y-76486500D01*
G75*
G02*
X107459500Y-76549000I-62500J0D01*
G01*
X107334500Y-76549000D01*
G75*
G02*
X107272000Y-76486500I0J62500D01*
G01*
G37*
G36*
G01*
X107822000Y-77036500D02*
X107822000Y-76911500D01*
G75*
G02*
X107884500Y-76849000I62500J0D01*
G01*
X108434500Y-76849000D01*
G75*
G02*
X108497000Y-76911500I0J-62500D01*
G01*
X108497000Y-77036500D01*
G75*
G02*
X108434500Y-77099000I-62500J0D01*
G01*
X107884500Y-77099000D01*
G75*
G02*
X107822000Y-77036500I0J62500D01*
G01*
G37*
G36*
G01*
X107822000Y-77536500D02*
X107822000Y-77411500D01*
G75*
G02*
X107884500Y-77349000I62500J0D01*
G01*
X108434500Y-77349000D01*
G75*
G02*
X108497000Y-77411500I0J-62500D01*
G01*
X108497000Y-77536500D01*
G75*
G02*
X108434500Y-77599000I-62500J0D01*
G01*
X107884500Y-77599000D01*
G75*
G02*
X107822000Y-77536500I0J62500D01*
G01*
G37*
G36*
G01*
X107822000Y-78036500D02*
X107822000Y-77911500D01*
G75*
G02*
X107884500Y-77849000I62500J0D01*
G01*
X108434500Y-77849000D01*
G75*
G02*
X108497000Y-77911500I0J-62500D01*
G01*
X108497000Y-78036500D01*
G75*
G02*
X108434500Y-78099000I-62500J0D01*
G01*
X107884500Y-78099000D01*
G75*
G02*
X107822000Y-78036500I0J62500D01*
G01*
G37*
G36*
G01*
X107822000Y-78536500D02*
X107822000Y-78411500D01*
G75*
G02*
X107884500Y-78349000I62500J0D01*
G01*
X108434500Y-78349000D01*
G75*
G02*
X108497000Y-78411500I0J-62500D01*
G01*
X108497000Y-78536500D01*
G75*
G02*
X108434500Y-78599000I-62500J0D01*
G01*
X107884500Y-78599000D01*
G75*
G02*
X107822000Y-78536500I0J62500D01*
G01*
G37*
G36*
G01*
X107272000Y-79511500D02*
X107272000Y-78961500D01*
G75*
G02*
X107334500Y-78899000I62500J0D01*
G01*
X107459500Y-78899000D01*
G75*
G02*
X107522000Y-78961500I0J-62500D01*
G01*
X107522000Y-79511500D01*
G75*
G02*
X107459500Y-79574000I-62500J0D01*
G01*
X107334500Y-79574000D01*
G75*
G02*
X107272000Y-79511500I0J62500D01*
G01*
G37*
G36*
G01*
X106772000Y-79511500D02*
X106772000Y-78961500D01*
G75*
G02*
X106834500Y-78899000I62500J0D01*
G01*
X106959500Y-78899000D01*
G75*
G02*
X107022000Y-78961500I0J-62500D01*
G01*
X107022000Y-79511500D01*
G75*
G02*
X106959500Y-79574000I-62500J0D01*
G01*
X106834500Y-79574000D01*
G75*
G02*
X106772000Y-79511500I0J62500D01*
G01*
G37*
G36*
G01*
X106272000Y-79511500D02*
X106272000Y-78961500D01*
G75*
G02*
X106334500Y-78899000I62500J0D01*
G01*
X106459500Y-78899000D01*
G75*
G02*
X106522000Y-78961500I0J-62500D01*
G01*
X106522000Y-79511500D01*
G75*
G02*
X106459500Y-79574000I-62500J0D01*
G01*
X106334500Y-79574000D01*
G75*
G02*
X106272000Y-79511500I0J62500D01*
G01*
G37*
G36*
G01*
X105772000Y-79511500D02*
X105772000Y-78961500D01*
G75*
G02*
X105834500Y-78899000I62500J0D01*
G01*
X105959500Y-78899000D01*
G75*
G02*
X106022000Y-78961500I0J-62500D01*
G01*
X106022000Y-79511500D01*
G75*
G02*
X105959500Y-79574000I-62500J0D01*
G01*
X105834500Y-79574000D01*
G75*
G02*
X105772000Y-79511500I0J62500D01*
G01*
G37*
G36*
G01*
X104797000Y-78536500D02*
X104797000Y-78411500D01*
G75*
G02*
X104859500Y-78349000I62500J0D01*
G01*
X105409500Y-78349000D01*
G75*
G02*
X105472000Y-78411500I0J-62500D01*
G01*
X105472000Y-78536500D01*
G75*
G02*
X105409500Y-78599000I-62500J0D01*
G01*
X104859500Y-78599000D01*
G75*
G02*
X104797000Y-78536500I0J62500D01*
G01*
G37*
G36*
G01*
X104797000Y-78036500D02*
X104797000Y-77911500D01*
G75*
G02*
X104859500Y-77849000I62500J0D01*
G01*
X105409500Y-77849000D01*
G75*
G02*
X105472000Y-77911500I0J-62500D01*
G01*
X105472000Y-78036500D01*
G75*
G02*
X105409500Y-78099000I-62500J0D01*
G01*
X104859500Y-78099000D01*
G75*
G02*
X104797000Y-78036500I0J62500D01*
G01*
G37*
G36*
G01*
X104797000Y-77536500D02*
X104797000Y-77411500D01*
G75*
G02*
X104859500Y-77349000I62500J0D01*
G01*
X105409500Y-77349000D01*
G75*
G02*
X105472000Y-77411500I0J-62500D01*
G01*
X105472000Y-77536500D01*
G75*
G02*
X105409500Y-77599000I-62500J0D01*
G01*
X104859500Y-77599000D01*
G75*
G02*
X104797000Y-77536500I0J62500D01*
G01*
G37*
G36*
G01*
X104797000Y-77036500D02*
X104797000Y-76911500D01*
G75*
G02*
X104859500Y-76849000I62500J0D01*
G01*
X105409500Y-76849000D01*
G75*
G02*
X105472000Y-76911500I0J-62500D01*
G01*
X105472000Y-77036500D01*
G75*
G02*
X105409500Y-77099000I-62500J0D01*
G01*
X104859500Y-77099000D01*
G75*
G02*
X104797000Y-77036500I0J62500D01*
G01*
G37*
%TD*%
%TO.C,R5*%
G36*
G01*
X110761000Y-75962500D02*
X110761000Y-76437500D01*
G75*
G02*
X110523500Y-76675000I-237500J0D01*
G01*
X109948500Y-76675000D01*
G75*
G02*
X109711000Y-76437500I0J237500D01*
G01*
X109711000Y-75962500D01*
G75*
G02*
X109948500Y-75725000I237500J0D01*
G01*
X110523500Y-75725000D01*
G75*
G02*
X110761000Y-75962500I0J-237500D01*
G01*
G37*
G36*
G01*
X112511000Y-75962500D02*
X112511000Y-76437500D01*
G75*
G02*
X112273500Y-76675000I-237500J0D01*
G01*
X111698500Y-76675000D01*
G75*
G02*
X111461000Y-76437500I0J237500D01*
G01*
X111461000Y-75962500D01*
G75*
G02*
X111698500Y-75725000I237500J0D01*
G01*
X112273500Y-75725000D01*
G75*
G02*
X112511000Y-75962500I0J-237500D01*
G01*
G37*
%TD*%
%TO.C,R4*%
G36*
G01*
X110761000Y-80534500D02*
X110761000Y-81009500D01*
G75*
G02*
X110523500Y-81247000I-237500J0D01*
G01*
X109948500Y-81247000D01*
G75*
G02*
X109711000Y-81009500I0J237500D01*
G01*
X109711000Y-80534500D01*
G75*
G02*
X109948500Y-80297000I237500J0D01*
G01*
X110523500Y-80297000D01*
G75*
G02*
X110761000Y-80534500I0J-237500D01*
G01*
G37*
G36*
G01*
X112511000Y-80534500D02*
X112511000Y-81009500D01*
G75*
G02*
X112273500Y-81247000I-237500J0D01*
G01*
X111698500Y-81247000D01*
G75*
G02*
X111461000Y-81009500I0J237500D01*
G01*
X111461000Y-80534500D01*
G75*
G02*
X111698500Y-80297000I237500J0D01*
G01*
X112273500Y-80297000D01*
G75*
G02*
X112511000Y-80534500I0J-237500D01*
G01*
G37*
%TD*%
%TO.C,R3*%
G36*
G01*
X110761000Y-74438500D02*
X110761000Y-74913500D01*
G75*
G02*
X110523500Y-75151000I-237500J0D01*
G01*
X109948500Y-75151000D01*
G75*
G02*
X109711000Y-74913500I0J237500D01*
G01*
X109711000Y-74438500D01*
G75*
G02*
X109948500Y-74201000I237500J0D01*
G01*
X110523500Y-74201000D01*
G75*
G02*
X110761000Y-74438500I0J-237500D01*
G01*
G37*
G36*
G01*
X112511000Y-74438500D02*
X112511000Y-74913500D01*
G75*
G02*
X112273500Y-75151000I-237500J0D01*
G01*
X111698500Y-75151000D01*
G75*
G02*
X111461000Y-74913500I0J237500D01*
G01*
X111461000Y-74438500D01*
G75*
G02*
X111698500Y-74201000I237500J0D01*
G01*
X112273500Y-74201000D01*
G75*
G02*
X112511000Y-74438500I0J-237500D01*
G01*
G37*
%TD*%
%TO.C,R2*%
G36*
G01*
X110761000Y-79010500D02*
X110761000Y-79485500D01*
G75*
G02*
X110523500Y-79723000I-237500J0D01*
G01*
X109948500Y-79723000D01*
G75*
G02*
X109711000Y-79485500I0J237500D01*
G01*
X109711000Y-79010500D01*
G75*
G02*
X109948500Y-78773000I237500J0D01*
G01*
X110523500Y-78773000D01*
G75*
G02*
X110761000Y-79010500I0J-237500D01*
G01*
G37*
G36*
G01*
X112511000Y-79010500D02*
X112511000Y-79485500D01*
G75*
G02*
X112273500Y-79723000I-237500J0D01*
G01*
X111698500Y-79723000D01*
G75*
G02*
X111461000Y-79485500I0J237500D01*
G01*
X111461000Y-79010500D01*
G75*
G02*
X111698500Y-78773000I237500J0D01*
G01*
X112273500Y-78773000D01*
G75*
G02*
X112511000Y-79010500I0J-237500D01*
G01*
G37*
%TD*%
%TO.C,R1*%
G36*
G01*
X110761000Y-77486500D02*
X110761000Y-77961500D01*
G75*
G02*
X110523500Y-78199000I-237500J0D01*
G01*
X109948500Y-78199000D01*
G75*
G02*
X109711000Y-77961500I0J237500D01*
G01*
X109711000Y-77486500D01*
G75*
G02*
X109948500Y-77249000I237500J0D01*
G01*
X110523500Y-77249000D01*
G75*
G02*
X110761000Y-77486500I0J-237500D01*
G01*
G37*
G36*
G01*
X112511000Y-77486500D02*
X112511000Y-77961500D01*
G75*
G02*
X112273500Y-78199000I-237500J0D01*
G01*
X111698500Y-78199000D01*
G75*
G02*
X111461000Y-77961500I0J237500D01*
G01*
X111461000Y-77486500D01*
G75*
G02*
X111698500Y-77249000I237500J0D01*
G01*
X112273500Y-77249000D01*
G75*
G02*
X112511000Y-77486500I0J-237500D01*
G01*
G37*
%TD*%
%TO.C,C3*%
G36*
G01*
X105681000Y-70882500D02*
X105681000Y-71357500D01*
G75*
G02*
X105443500Y-71595000I-237500J0D01*
G01*
X104868500Y-71595000D01*
G75*
G02*
X104631000Y-71357500I0J237500D01*
G01*
X104631000Y-70882500D01*
G75*
G02*
X104868500Y-70645000I237500J0D01*
G01*
X105443500Y-70645000D01*
G75*
G02*
X105681000Y-70882500I0J-237500D01*
G01*
G37*
G36*
G01*
X107431000Y-70882500D02*
X107431000Y-71357500D01*
G75*
G02*
X107193500Y-71595000I-237500J0D01*
G01*
X106618500Y-71595000D01*
G75*
G02*
X106381000Y-71357500I0J237500D01*
G01*
X106381000Y-70882500D01*
G75*
G02*
X106618500Y-70645000I237500J0D01*
G01*
X107193500Y-70645000D01*
G75*
G02*
X107431000Y-70882500I0J-237500D01*
G01*
G37*
%TD*%
%TO.C,C2*%
G36*
G01*
X105681000Y-72406500D02*
X105681000Y-72881500D01*
G75*
G02*
X105443500Y-73119000I-237500J0D01*
G01*
X104868500Y-73119000D01*
G75*
G02*
X104631000Y-72881500I0J237500D01*
G01*
X104631000Y-72406500D01*
G75*
G02*
X104868500Y-72169000I237500J0D01*
G01*
X105443500Y-72169000D01*
G75*
G02*
X105681000Y-72406500I0J-237500D01*
G01*
G37*
G36*
G01*
X107431000Y-72406500D02*
X107431000Y-72881500D01*
G75*
G02*
X107193500Y-73119000I-237500J0D01*
G01*
X106618500Y-73119000D01*
G75*
G02*
X106381000Y-72881500I0J237500D01*
G01*
X106381000Y-72406500D01*
G75*
G02*
X106618500Y-72169000I237500J0D01*
G01*
X107193500Y-72169000D01*
G75*
G02*
X107431000Y-72406500I0J-237500D01*
G01*
G37*
%TD*%
%TO.C,C1*%
G36*
G01*
X106381000Y-74405500D02*
X106381000Y-73930500D01*
G75*
G02*
X106618500Y-73693000I237500J0D01*
G01*
X107193500Y-73693000D01*
G75*
G02*
X107431000Y-73930500I0J-237500D01*
G01*
X107431000Y-74405500D01*
G75*
G02*
X107193500Y-74643000I-237500J0D01*
G01*
X106618500Y-74643000D01*
G75*
G02*
X106381000Y-74405500I0J237500D01*
G01*
G37*
G36*
G01*
X104631000Y-74405500D02*
X104631000Y-73930500D01*
G75*
G02*
X104868500Y-73693000I237500J0D01*
G01*
X105443500Y-73693000D01*
G75*
G02*
X105681000Y-73930500I0J-237500D01*
G01*
X105681000Y-74405500D01*
G75*
G02*
X105443500Y-74643000I-237500J0D01*
G01*
X104868500Y-74643000D01*
G75*
G02*
X104631000Y-74405500I0J237500D01*
G01*
G37*
%TD*%
M02*
