%TF.GenerationSoftware,KiCad,Pcbnew,5.1.6-c6e7f7d~86~ubuntu18.04.1*%
%TF.CreationDate,2021-07-01T18:37:21-07:00*%
%TF.ProjectId,usb_combo_pmod,7573625f-636f-46d6-926f-5f706d6f642e,rev?*%
%TF.SameCoordinates,Original*%
%TF.FileFunction,Legend,Bot*%
%TF.FilePolarity,Positive*%
%FSLAX46Y46*%
G04 Gerber Fmt 4.6, Leading zero omitted, Abs format (unit mm)*
G04 Created by KiCad (PCBNEW 5.1.6-c6e7f7d~86~ubuntu18.04.1) date 2021-07-01 18:37:21*
%MOMM*%
%LPD*%
G01*
G04 APERTURE LIST*
%ADD10C,0.150000*%
%ADD11C,0.121920*%
G04 APERTURE END LIST*
D10*
X117132857Y-72541380D02*
X117132857Y-73350904D01*
X117085238Y-73446142D01*
X117037619Y-73493761D01*
X116942380Y-73541380D01*
X116751904Y-73541380D01*
X116656666Y-73493761D01*
X116609047Y-73446142D01*
X116561428Y-73350904D01*
X116561428Y-72541380D01*
X116132857Y-73493761D02*
X115990000Y-73541380D01*
X115751904Y-73541380D01*
X115656666Y-73493761D01*
X115609047Y-73446142D01*
X115561428Y-73350904D01*
X115561428Y-73255666D01*
X115609047Y-73160428D01*
X115656666Y-73112809D01*
X115751904Y-73065190D01*
X115942380Y-73017571D01*
X116037619Y-72969952D01*
X116085238Y-72922333D01*
X116132857Y-72827095D01*
X116132857Y-72731857D01*
X116085238Y-72636619D01*
X116037619Y-72589000D01*
X115942380Y-72541380D01*
X115704285Y-72541380D01*
X115561428Y-72589000D01*
X114799523Y-73017571D02*
X114656666Y-73065190D01*
X114609047Y-73112809D01*
X114561428Y-73208047D01*
X114561428Y-73350904D01*
X114609047Y-73446142D01*
X114656666Y-73493761D01*
X114751904Y-73541380D01*
X115132857Y-73541380D01*
X115132857Y-72541380D01*
X114799523Y-72541380D01*
X114704285Y-72589000D01*
X114656666Y-72636619D01*
X114609047Y-72731857D01*
X114609047Y-72827095D01*
X114656666Y-72922333D01*
X114704285Y-72969952D01*
X114799523Y-73017571D01*
X115132857Y-73017571D01*
X112799523Y-73446142D02*
X112847142Y-73493761D01*
X112990000Y-73541380D01*
X113085238Y-73541380D01*
X113228095Y-73493761D01*
X113323333Y-73398523D01*
X113370952Y-73303285D01*
X113418571Y-73112809D01*
X113418571Y-72969952D01*
X113370952Y-72779476D01*
X113323333Y-72684238D01*
X113228095Y-72589000D01*
X113085238Y-72541380D01*
X112990000Y-72541380D01*
X112847142Y-72589000D01*
X112799523Y-72636619D01*
X112228095Y-73541380D02*
X112323333Y-73493761D01*
X112370952Y-73446142D01*
X112418571Y-73350904D01*
X112418571Y-73065190D01*
X112370952Y-72969952D01*
X112323333Y-72922333D01*
X112228095Y-72874714D01*
X112085238Y-72874714D01*
X111990000Y-72922333D01*
X111942380Y-72969952D01*
X111894761Y-73065190D01*
X111894761Y-73350904D01*
X111942380Y-73446142D01*
X111990000Y-73493761D01*
X112085238Y-73541380D01*
X112228095Y-73541380D01*
X111466190Y-73541380D02*
X111466190Y-72874714D01*
X111466190Y-72969952D02*
X111418571Y-72922333D01*
X111323333Y-72874714D01*
X111180476Y-72874714D01*
X111085238Y-72922333D01*
X111037619Y-73017571D01*
X111037619Y-73541380D01*
X111037619Y-73017571D02*
X110990000Y-72922333D01*
X110894761Y-72874714D01*
X110751904Y-72874714D01*
X110656666Y-72922333D01*
X110609047Y-73017571D01*
X110609047Y-73541380D01*
X110132857Y-73541380D02*
X110132857Y-72541380D01*
X110132857Y-72922333D02*
X110037619Y-72874714D01*
X109847142Y-72874714D01*
X109751904Y-72922333D01*
X109704285Y-72969952D01*
X109656666Y-73065190D01*
X109656666Y-73350904D01*
X109704285Y-73446142D01*
X109751904Y-73493761D01*
X109847142Y-73541380D01*
X110037619Y-73541380D01*
X110132857Y-73493761D01*
X109085238Y-73541380D02*
X109180476Y-73493761D01*
X109228095Y-73446142D01*
X109275714Y-73350904D01*
X109275714Y-73065190D01*
X109228095Y-72969952D01*
X109180476Y-72922333D01*
X109085238Y-72874714D01*
X108942380Y-72874714D01*
X108847142Y-72922333D01*
X108799523Y-72969952D01*
X108751904Y-73065190D01*
X108751904Y-73350904D01*
X108799523Y-73446142D01*
X108847142Y-73493761D01*
X108942380Y-73541380D01*
X109085238Y-73541380D01*
X107561428Y-73541380D02*
X107561428Y-72541380D01*
X107180476Y-72541380D01*
X107085238Y-72589000D01*
X107037619Y-72636619D01*
X106990000Y-72731857D01*
X106990000Y-72874714D01*
X107037619Y-72969952D01*
X107085238Y-73017571D01*
X107180476Y-73065190D01*
X107561428Y-73065190D01*
X106561428Y-73541380D02*
X106561428Y-72541380D01*
X106228095Y-73255666D01*
X105894761Y-72541380D01*
X105894761Y-73541380D01*
X105228095Y-72541380D02*
X105037619Y-72541380D01*
X104942380Y-72589000D01*
X104847142Y-72684238D01*
X104799523Y-72874714D01*
X104799523Y-73208047D01*
X104847142Y-73398523D01*
X104942380Y-73493761D01*
X105037619Y-73541380D01*
X105228095Y-73541380D01*
X105323333Y-73493761D01*
X105418571Y-73398523D01*
X105466190Y-73208047D01*
X105466190Y-72874714D01*
X105418571Y-72684238D01*
X105323333Y-72589000D01*
X105228095Y-72541380D01*
X104370952Y-73541380D02*
X104370952Y-72541380D01*
X104132857Y-72541380D01*
X103990000Y-72589000D01*
X103894761Y-72684238D01*
X103847142Y-72779476D01*
X103799523Y-72969952D01*
X103799523Y-73112809D01*
X103847142Y-73303285D01*
X103894761Y-73398523D01*
X103990000Y-73493761D01*
X104132857Y-73541380D01*
X104370952Y-73541380D01*
X115513809Y-74191380D02*
X114942380Y-74191380D01*
X115228095Y-75191380D02*
X115228095Y-74191380D01*
X114466190Y-75191380D02*
X114561428Y-75143761D01*
X114609047Y-75096142D01*
X114656666Y-75000904D01*
X114656666Y-74715190D01*
X114609047Y-74619952D01*
X114561428Y-74572333D01*
X114466190Y-74524714D01*
X114323333Y-74524714D01*
X114228095Y-74572333D01*
X114180476Y-74619952D01*
X114132857Y-74715190D01*
X114132857Y-75000904D01*
X114180476Y-75096142D01*
X114228095Y-75143761D01*
X114323333Y-75191380D01*
X114466190Y-75191380D01*
X113704285Y-75191380D02*
X113704285Y-74524714D01*
X113704285Y-74619952D02*
X113656666Y-74572333D01*
X113561428Y-74524714D01*
X113418571Y-74524714D01*
X113323333Y-74572333D01*
X113275714Y-74667571D01*
X113275714Y-75191380D01*
X113275714Y-74667571D02*
X113228095Y-74572333D01*
X113132857Y-74524714D01*
X112990000Y-74524714D01*
X112894761Y-74572333D01*
X112847142Y-74667571D01*
X112847142Y-75191380D01*
X111751904Y-74191380D02*
X111418571Y-75191380D01*
X111085238Y-74191380D01*
X110370952Y-75143761D02*
X110466190Y-75191380D01*
X110656666Y-75191380D01*
X110751904Y-75143761D01*
X110799523Y-75048523D01*
X110799523Y-74667571D01*
X110751904Y-74572333D01*
X110656666Y-74524714D01*
X110466190Y-74524714D01*
X110370952Y-74572333D01*
X110323333Y-74667571D01*
X110323333Y-74762809D01*
X110799523Y-74858047D01*
X109894761Y-75191380D02*
X109894761Y-74524714D01*
X109894761Y-74715190D02*
X109847142Y-74619952D01*
X109799523Y-74572333D01*
X109704285Y-74524714D01*
X109609047Y-74524714D01*
X109275714Y-75191380D02*
X109275714Y-74191380D01*
X109275714Y-74572333D02*
X109180476Y-74524714D01*
X108990000Y-74524714D01*
X108894761Y-74572333D01*
X108847142Y-74619952D01*
X108799523Y-74715190D01*
X108799523Y-75000904D01*
X108847142Y-75096142D01*
X108894761Y-75143761D01*
X108990000Y-75191380D01*
X109180476Y-75191380D01*
X109275714Y-75143761D01*
X107990000Y-75143761D02*
X108085238Y-75191380D01*
X108275714Y-75191380D01*
X108370952Y-75143761D01*
X108418571Y-75048523D01*
X108418571Y-74667571D01*
X108370952Y-74572333D01*
X108275714Y-74524714D01*
X108085238Y-74524714D01*
X107990000Y-74572333D01*
X107942380Y-74667571D01*
X107942380Y-74762809D01*
X108418571Y-74858047D01*
X107085238Y-74524714D02*
X107085238Y-75191380D01*
X107513809Y-74524714D02*
X107513809Y-75048523D01*
X107466190Y-75143761D01*
X107370952Y-75191380D01*
X107228095Y-75191380D01*
X107132857Y-75143761D01*
X107085238Y-75096142D01*
X106609047Y-75191380D02*
X106609047Y-74524714D01*
X106609047Y-74715190D02*
X106561428Y-74619952D01*
X106513809Y-74572333D01*
X106418571Y-74524714D01*
X106323333Y-74524714D01*
X105609047Y-75143761D02*
X105704285Y-75191380D01*
X105894761Y-75191380D01*
X105990000Y-75143761D01*
X106037619Y-75048523D01*
X106037619Y-74667571D01*
X105990000Y-74572333D01*
X105894761Y-74524714D01*
X105704285Y-74524714D01*
X105609047Y-74572333D01*
X105561428Y-74667571D01*
X105561428Y-74762809D01*
X106037619Y-74858047D01*
D11*
X117974533Y-81515373D02*
X117974533Y-80804173D01*
X117974533Y-81142840D02*
X117568133Y-81142840D01*
X117568133Y-81515373D02*
X117568133Y-80804173D01*
X117127866Y-81515373D02*
X117195600Y-81481506D01*
X117229466Y-81447640D01*
X117263333Y-81379906D01*
X117263333Y-81176706D01*
X117229466Y-81108973D01*
X117195600Y-81075106D01*
X117127866Y-81041240D01*
X117026266Y-81041240D01*
X116958533Y-81075106D01*
X116924666Y-81108973D01*
X116890800Y-81176706D01*
X116890800Y-81379906D01*
X116924666Y-81447640D01*
X116958533Y-81481506D01*
X117026266Y-81515373D01*
X117127866Y-81515373D01*
X116619866Y-81481506D02*
X116552133Y-81515373D01*
X116416666Y-81515373D01*
X116348933Y-81481506D01*
X116315066Y-81413773D01*
X116315066Y-81379906D01*
X116348933Y-81312173D01*
X116416666Y-81278306D01*
X116518266Y-81278306D01*
X116586000Y-81244440D01*
X116619866Y-81176706D01*
X116619866Y-81142840D01*
X116586000Y-81075106D01*
X116518266Y-81041240D01*
X116416666Y-81041240D01*
X116348933Y-81075106D01*
X116111866Y-81041240D02*
X115840933Y-81041240D01*
X116010266Y-80804173D02*
X116010266Y-81413773D01*
X115976400Y-81481506D01*
X115908666Y-81515373D01*
X115840933Y-81515373D01*
X115603866Y-81447640D02*
X115570000Y-81481506D01*
X115603866Y-81515373D01*
X115637733Y-81481506D01*
X115603866Y-81447640D01*
X115603866Y-81515373D01*
X115603866Y-81075106D02*
X115570000Y-81108973D01*
X115603866Y-81142840D01*
X115637733Y-81108973D01*
X115603866Y-81075106D01*
X115603866Y-81142840D01*
X114316933Y-81515373D02*
X114554000Y-81176706D01*
X114723333Y-81515373D02*
X114723333Y-80804173D01*
X114452400Y-80804173D01*
X114384666Y-80838040D01*
X114350800Y-80871906D01*
X114316933Y-80939640D01*
X114316933Y-81041240D01*
X114350800Y-81108973D01*
X114384666Y-81142840D01*
X114452400Y-81176706D01*
X114723333Y-81176706D01*
X113707333Y-81041240D02*
X113707333Y-81515373D01*
X113876666Y-80770306D02*
X114046000Y-81278306D01*
X113605733Y-81278306D01*
X112826800Y-80770306D02*
X113436400Y-81684706D01*
X112183333Y-81515373D02*
X112420400Y-81176706D01*
X112589733Y-81515373D02*
X112589733Y-80804173D01*
X112318800Y-80804173D01*
X112251066Y-80838040D01*
X112217200Y-80871906D01*
X112183333Y-80939640D01*
X112183333Y-81041240D01*
X112217200Y-81108973D01*
X112251066Y-81142840D01*
X112318800Y-81176706D01*
X112589733Y-81176706D01*
X111539866Y-80804173D02*
X111878533Y-80804173D01*
X111912400Y-81142840D01*
X111878533Y-81108973D01*
X111810800Y-81075106D01*
X111641466Y-81075106D01*
X111573733Y-81108973D01*
X111539866Y-81142840D01*
X111506000Y-81210573D01*
X111506000Y-81379906D01*
X111539866Y-81447640D01*
X111573733Y-81481506D01*
X111641466Y-81515373D01*
X111810800Y-81515373D01*
X111878533Y-81481506D01*
X111912400Y-81447640D01*
X111201200Y-81142840D02*
X110659333Y-81142840D01*
X110659333Y-81346040D02*
X111201200Y-81346040D01*
X109948133Y-81515373D02*
X110354533Y-81515373D01*
X110151333Y-81515373D02*
X110151333Y-80804173D01*
X110219066Y-80905773D01*
X110286800Y-80973506D01*
X110354533Y-81007373D01*
X109304666Y-80804173D02*
X109643333Y-80804173D01*
X109677200Y-81142840D01*
X109643333Y-81108973D01*
X109575600Y-81075106D01*
X109406266Y-81075106D01*
X109338533Y-81108973D01*
X109304666Y-81142840D01*
X109270800Y-81210573D01*
X109270800Y-81379906D01*
X109304666Y-81447640D01*
X109338533Y-81481506D01*
X109406266Y-81515373D01*
X109575600Y-81515373D01*
X109643333Y-81481506D01*
X109677200Y-81447640D01*
X108966000Y-81515373D02*
X108966000Y-80804173D01*
X108559600Y-81515373D02*
X108864400Y-81108973D01*
X108559600Y-80804173D02*
X108966000Y-81210573D01*
X108220933Y-81481506D02*
X108220933Y-81515373D01*
X108254800Y-81583106D01*
X108288666Y-81616973D01*
X107509733Y-81515373D02*
X107746800Y-81176706D01*
X107916133Y-81515373D02*
X107916133Y-80804173D01*
X107645200Y-80804173D01*
X107577466Y-80838040D01*
X107543600Y-80871906D01*
X107509733Y-80939640D01*
X107509733Y-81041240D01*
X107543600Y-81108973D01*
X107577466Y-81142840D01*
X107645200Y-81176706D01*
X107916133Y-81176706D01*
X107272666Y-80804173D02*
X106832400Y-80804173D01*
X107069466Y-81075106D01*
X106967866Y-81075106D01*
X106900133Y-81108973D01*
X106866266Y-81142840D01*
X106832400Y-81210573D01*
X106832400Y-81379906D01*
X106866266Y-81447640D01*
X106900133Y-81481506D01*
X106967866Y-81515373D01*
X107171066Y-81515373D01*
X107238800Y-81481506D01*
X107272666Y-81447640D01*
X106527600Y-81142840D02*
X105985733Y-81142840D01*
X105985733Y-81346040D02*
X106527600Y-81346040D01*
X105647066Y-81515373D02*
X105647066Y-80804173D01*
X105240666Y-81515373D01*
X105240666Y-80804173D01*
X104495600Y-81447640D02*
X104529466Y-81481506D01*
X104631066Y-81515373D01*
X104698800Y-81515373D01*
X104800400Y-81481506D01*
X104868133Y-81413773D01*
X104902000Y-81346040D01*
X104935866Y-81210573D01*
X104935866Y-81108973D01*
X104902000Y-80973506D01*
X104868133Y-80905773D01*
X104800400Y-80838040D01*
X104698800Y-80804173D01*
X104631066Y-80804173D01*
X104529466Y-80838040D01*
X104495600Y-80871906D01*
X117889866Y-82704093D02*
X117889866Y-81992893D01*
X117720533Y-81992893D01*
X117618933Y-82026760D01*
X117551200Y-82094493D01*
X117517333Y-82162226D01*
X117483466Y-82297693D01*
X117483466Y-82399293D01*
X117517333Y-82534760D01*
X117551200Y-82602493D01*
X117618933Y-82670226D01*
X117720533Y-82704093D01*
X117889866Y-82704093D01*
X116907733Y-82670226D02*
X116975466Y-82704093D01*
X117110933Y-82704093D01*
X117178666Y-82670226D01*
X117212533Y-82602493D01*
X117212533Y-82331560D01*
X117178666Y-82263826D01*
X117110933Y-82229960D01*
X116975466Y-82229960D01*
X116907733Y-82263826D01*
X116873866Y-82331560D01*
X116873866Y-82399293D01*
X117212533Y-82467026D01*
X116636800Y-82229960D02*
X116467466Y-82704093D01*
X116298133Y-82229960D01*
X116027200Y-82636360D02*
X115993333Y-82670226D01*
X116027200Y-82704093D01*
X116061066Y-82670226D01*
X116027200Y-82636360D01*
X116027200Y-82704093D01*
X116027200Y-82263826D02*
X115993333Y-82297693D01*
X116027200Y-82331560D01*
X116061066Y-82297693D01*
X116027200Y-82263826D01*
X116027200Y-82331560D01*
X114740266Y-82704093D02*
X114977333Y-82365426D01*
X115146666Y-82704093D02*
X115146666Y-81992893D01*
X114875733Y-81992893D01*
X114808000Y-82026760D01*
X114774133Y-82060626D01*
X114740266Y-82128360D01*
X114740266Y-82229960D01*
X114774133Y-82297693D01*
X114808000Y-82331560D01*
X114875733Y-82365426D01*
X115146666Y-82365426D01*
X114130666Y-82229960D02*
X114130666Y-82704093D01*
X114300000Y-81959026D02*
X114469333Y-82467026D01*
X114029066Y-82467026D01*
X113250133Y-81959026D02*
X113859733Y-82873426D01*
X112606666Y-82704093D02*
X112843733Y-82365426D01*
X113013066Y-82704093D02*
X113013066Y-81992893D01*
X112742133Y-81992893D01*
X112674400Y-82026760D01*
X112640533Y-82060626D01*
X112606666Y-82128360D01*
X112606666Y-82229960D01*
X112640533Y-82297693D01*
X112674400Y-82331560D01*
X112742133Y-82365426D01*
X113013066Y-82365426D01*
X111963200Y-81992893D02*
X112301866Y-81992893D01*
X112335733Y-82331560D01*
X112301866Y-82297693D01*
X112234133Y-82263826D01*
X112064800Y-82263826D01*
X111997066Y-82297693D01*
X111963200Y-82331560D01*
X111929333Y-82399293D01*
X111929333Y-82568626D01*
X111963200Y-82636360D01*
X111997066Y-82670226D01*
X112064800Y-82704093D01*
X112234133Y-82704093D01*
X112301866Y-82670226D01*
X112335733Y-82636360D01*
X111624533Y-82331560D02*
X111082666Y-82331560D01*
X111082666Y-82534760D02*
X111624533Y-82534760D01*
X110744000Y-82704093D02*
X110744000Y-81992893D01*
X110337600Y-82704093D01*
X110337600Y-81992893D01*
X109592533Y-82636360D02*
X109626400Y-82670226D01*
X109728000Y-82704093D01*
X109795733Y-82704093D01*
X109897333Y-82670226D01*
X109965066Y-82602493D01*
X109998933Y-82534760D01*
X110032800Y-82399293D01*
X110032800Y-82297693D01*
X109998933Y-82162226D01*
X109965066Y-82094493D01*
X109897333Y-82026760D01*
X109795733Y-81992893D01*
X109728000Y-81992893D01*
X109626400Y-82026760D01*
X109592533Y-82060626D01*
X109253866Y-82670226D02*
X109253866Y-82704093D01*
X109287733Y-82771826D01*
X109321600Y-82805693D01*
X108542666Y-82704093D02*
X108779733Y-82365426D01*
X108949066Y-82704093D02*
X108949066Y-81992893D01*
X108678133Y-81992893D01*
X108610400Y-82026760D01*
X108576533Y-82060626D01*
X108542666Y-82128360D01*
X108542666Y-82229960D01*
X108576533Y-82297693D01*
X108610400Y-82331560D01*
X108678133Y-82365426D01*
X108949066Y-82365426D01*
X108305600Y-81992893D02*
X107865333Y-81992893D01*
X108102400Y-82263826D01*
X108000800Y-82263826D01*
X107933066Y-82297693D01*
X107899200Y-82331560D01*
X107865333Y-82399293D01*
X107865333Y-82568626D01*
X107899200Y-82636360D01*
X107933066Y-82670226D01*
X108000800Y-82704093D01*
X108204000Y-82704093D01*
X108271733Y-82670226D01*
X108305600Y-82636360D01*
X107560533Y-82331560D02*
X107018666Y-82331560D01*
X107018666Y-82534760D02*
X107560533Y-82534760D01*
X106307466Y-82704093D02*
X106713866Y-82704093D01*
X106510666Y-82704093D02*
X106510666Y-81992893D01*
X106578400Y-82094493D01*
X106646133Y-82162226D01*
X106713866Y-82196093D01*
X106002666Y-82636360D02*
X105968800Y-82670226D01*
X106002666Y-82704093D01*
X106036533Y-82670226D01*
X106002666Y-82636360D01*
X106002666Y-82704093D01*
X105325333Y-81992893D02*
X105664000Y-81992893D01*
X105697866Y-82331560D01*
X105664000Y-82297693D01*
X105596266Y-82263826D01*
X105426933Y-82263826D01*
X105359200Y-82297693D01*
X105325333Y-82331560D01*
X105291466Y-82399293D01*
X105291466Y-82568626D01*
X105325333Y-82636360D01*
X105359200Y-82670226D01*
X105426933Y-82704093D01*
X105596266Y-82704093D01*
X105664000Y-82670226D01*
X105697866Y-82636360D01*
X104986666Y-82704093D02*
X104986666Y-81992893D01*
X104580266Y-82704093D02*
X104885066Y-82297693D01*
X104580266Y-81992893D02*
X104986666Y-82399293D01*
M02*
