%TF.GenerationSoftware,KiCad,Pcbnew,5.1.6-c6e7f7d~86~ubuntu18.04.1*%
%TF.CreationDate,2021-07-01T18:37:21-07:00*%
%TF.ProjectId,usb_combo_pmod,7573625f-636f-46d6-926f-5f706d6f642e,rev?*%
%TF.SameCoordinates,Original*%
%TF.FileFunction,Copper,L1,Top*%
%TF.FilePolarity,Positive*%
%FSLAX46Y46*%
G04 Gerber Fmt 4.6, Leading zero omitted, Abs format (unit mm)*
G04 Created by KiCad (PCBNEW 5.1.6-c6e7f7d~86~ubuntu18.04.1) date 2021-07-01 18:37:21*
%MOMM*%
%LPD*%
G01*
G04 APERTURE LIST*
%TA.AperFunction,ComponentPad*%
%ADD10O,1.700000X1.700000*%
%TD*%
%TA.AperFunction,ComponentPad*%
%ADD11R,1.700000X1.700000*%
%TD*%
%TA.AperFunction,SMDPad,CuDef*%
%ADD12R,1.900000X1.900000*%
%TD*%
%TA.AperFunction,ComponentPad*%
%ADD13C,1.600000*%
%TD*%
%TA.AperFunction,ComponentPad*%
%ADD14R,1.600000X1.600000*%
%TD*%
%TA.AperFunction,ComponentPad*%
%ADD15C,3.000000*%
%TD*%
%TA.AperFunction,ComponentPad*%
%ADD16C,3.316000*%
%TD*%
%TA.AperFunction,ComponentPad*%
%ADD17C,1.428000*%
%TD*%
%TA.AperFunction,ComponentPad*%
%ADD18R,1.428000X1.428000*%
%TD*%
%TA.AperFunction,ComponentPad*%
%ADD19R,1.000000X1.000000*%
%TD*%
%TA.AperFunction,ViaPad*%
%ADD20C,1.100000*%
%TD*%
%TA.AperFunction,ViaPad*%
%ADD21C,0.500000*%
%TD*%
%TA.AperFunction,Conductor*%
%ADD22C,0.254000*%
%TD*%
%TA.AperFunction,Conductor*%
%ADD23C,0.127000*%
%TD*%
G04 APERTURE END LIST*
D10*
%TO.P,J1,12*%
%TO.N,+3V3*%
X99060000Y-83820000D03*
%TO.P,J1,6*%
X101600000Y-83820000D03*
%TO.P,J1,11*%
%TO.N,GND*%
X99060000Y-81280000D03*
%TO.P,J1,5*%
X101600000Y-81280000D03*
%TO.P,J1,10*%
%TO.N,/D_SUS*%
X99060000Y-78740000D03*
%TO.P,J1,4*%
%TO.N,/D_OE_*%
X101600000Y-78740000D03*
%TO.P,J1,9*%
%TO.N,/D_VM*%
X99060000Y-76200000D03*
%TO.P,J1,3*%
%TO.N,/D_CON*%
X101600000Y-76200000D03*
%TO.P,J1,8*%
%TO.N,/D_VP*%
X99060000Y-73660000D03*
%TO.P,J1,2*%
%TO.N,/D_RCV*%
X101600000Y-73660000D03*
%TO.P,J1,7*%
%TO.N,/D_SPD*%
X99060000Y-71120000D03*
D11*
%TO.P,J1,1*%
%TO.N,/D_VBUS_DET*%
X101600000Y-71120000D03*
%TD*%
D12*
%TO.P,U1,17*%
%TO.N,N/C*%
X106647000Y-77724000D03*
%TO.P,U1,16*%
%TO.N,/D_VBUS_DET*%
%TA.AperFunction,SMDPad,CuDef*%
G36*
G01*
X105772000Y-76486500D02*
X105772000Y-75936500D01*
G75*
G02*
X105834500Y-75874000I62500J0D01*
G01*
X105959500Y-75874000D01*
G75*
G02*
X106022000Y-75936500I0J-62500D01*
G01*
X106022000Y-76486500D01*
G75*
G02*
X105959500Y-76549000I-62500J0D01*
G01*
X105834500Y-76549000D01*
G75*
G02*
X105772000Y-76486500I0J62500D01*
G01*
G37*
%TD.AperFunction*%
%TO.P,U1,15*%
%TO.N,+3V3*%
%TA.AperFunction,SMDPad,CuDef*%
G36*
G01*
X106272000Y-76486500D02*
X106272000Y-75936500D01*
G75*
G02*
X106334500Y-75874000I62500J0D01*
G01*
X106459500Y-75874000D01*
G75*
G02*
X106522000Y-75936500I0J-62500D01*
G01*
X106522000Y-76486500D01*
G75*
G02*
X106459500Y-76549000I-62500J0D01*
G01*
X106334500Y-76549000D01*
G75*
G02*
X106272000Y-76486500I0J62500D01*
G01*
G37*
%TD.AperFunction*%
%TO.P,U1,14*%
%TO.N,/D_VBUS*%
%TA.AperFunction,SMDPad,CuDef*%
G36*
G01*
X106772000Y-76486500D02*
X106772000Y-75936500D01*
G75*
G02*
X106834500Y-75874000I62500J0D01*
G01*
X106959500Y-75874000D01*
G75*
G02*
X107022000Y-75936500I0J-62500D01*
G01*
X107022000Y-76486500D01*
G75*
G02*
X106959500Y-76549000I-62500J0D01*
G01*
X106834500Y-76549000D01*
G75*
G02*
X106772000Y-76486500I0J62500D01*
G01*
G37*
%TD.AperFunction*%
%TO.P,U1,13*%
%TO.N,/D_VPU*%
%TA.AperFunction,SMDPad,CuDef*%
G36*
G01*
X107272000Y-76486500D02*
X107272000Y-75936500D01*
G75*
G02*
X107334500Y-75874000I62500J0D01*
G01*
X107459500Y-75874000D01*
G75*
G02*
X107522000Y-75936500I0J-62500D01*
G01*
X107522000Y-76486500D01*
G75*
G02*
X107459500Y-76549000I-62500J0D01*
G01*
X107334500Y-76549000D01*
G75*
G02*
X107272000Y-76486500I0J62500D01*
G01*
G37*
%TD.AperFunction*%
%TO.P,U1,12*%
%TO.N,/D_VTRM*%
%TA.AperFunction,SMDPad,CuDef*%
G36*
G01*
X107822000Y-77036500D02*
X107822000Y-76911500D01*
G75*
G02*
X107884500Y-76849000I62500J0D01*
G01*
X108434500Y-76849000D01*
G75*
G02*
X108497000Y-76911500I0J-62500D01*
G01*
X108497000Y-77036500D01*
G75*
G02*
X108434500Y-77099000I-62500J0D01*
G01*
X107884500Y-77099000D01*
G75*
G02*
X107822000Y-77036500I0J62500D01*
G01*
G37*
%TD.AperFunction*%
%TO.P,U1,11*%
%TO.N,/D_DPR*%
%TA.AperFunction,SMDPad,CuDef*%
G36*
G01*
X107822000Y-77536500D02*
X107822000Y-77411500D01*
G75*
G02*
X107884500Y-77349000I62500J0D01*
G01*
X108434500Y-77349000D01*
G75*
G02*
X108497000Y-77411500I0J-62500D01*
G01*
X108497000Y-77536500D01*
G75*
G02*
X108434500Y-77599000I-62500J0D01*
G01*
X107884500Y-77599000D01*
G75*
G02*
X107822000Y-77536500I0J62500D01*
G01*
G37*
%TD.AperFunction*%
%TO.P,U1,10*%
%TO.N,/D_DNR*%
%TA.AperFunction,SMDPad,CuDef*%
G36*
G01*
X107822000Y-78036500D02*
X107822000Y-77911500D01*
G75*
G02*
X107884500Y-77849000I62500J0D01*
G01*
X108434500Y-77849000D01*
G75*
G02*
X108497000Y-77911500I0J-62500D01*
G01*
X108497000Y-78036500D01*
G75*
G02*
X108434500Y-78099000I-62500J0D01*
G01*
X107884500Y-78099000D01*
G75*
G02*
X107822000Y-78036500I0J62500D01*
G01*
G37*
%TD.AperFunction*%
%TO.P,U1,9*%
%TO.N,/D_OE_*%
%TA.AperFunction,SMDPad,CuDef*%
G36*
G01*
X107822000Y-78536500D02*
X107822000Y-78411500D01*
G75*
G02*
X107884500Y-78349000I62500J0D01*
G01*
X108434500Y-78349000D01*
G75*
G02*
X108497000Y-78411500I0J-62500D01*
G01*
X108497000Y-78536500D01*
G75*
G02*
X108434500Y-78599000I-62500J0D01*
G01*
X107884500Y-78599000D01*
G75*
G02*
X107822000Y-78536500I0J62500D01*
G01*
G37*
%TD.AperFunction*%
%TO.P,U1,8*%
%TO.N,/D_SPD*%
%TA.AperFunction,SMDPad,CuDef*%
G36*
G01*
X107272000Y-79511500D02*
X107272000Y-78961500D01*
G75*
G02*
X107334500Y-78899000I62500J0D01*
G01*
X107459500Y-78899000D01*
G75*
G02*
X107522000Y-78961500I0J-62500D01*
G01*
X107522000Y-79511500D01*
G75*
G02*
X107459500Y-79574000I-62500J0D01*
G01*
X107334500Y-79574000D01*
G75*
G02*
X107272000Y-79511500I0J62500D01*
G01*
G37*
%TD.AperFunction*%
%TO.P,U1,7*%
%TO.N,/D_SUS*%
%TA.AperFunction,SMDPad,CuDef*%
G36*
G01*
X106772000Y-79511500D02*
X106772000Y-78961500D01*
G75*
G02*
X106834500Y-78899000I62500J0D01*
G01*
X106959500Y-78899000D01*
G75*
G02*
X107022000Y-78961500I0J-62500D01*
G01*
X107022000Y-79511500D01*
G75*
G02*
X106959500Y-79574000I-62500J0D01*
G01*
X106834500Y-79574000D01*
G75*
G02*
X106772000Y-79511500I0J62500D01*
G01*
G37*
%TD.AperFunction*%
%TO.P,U1,6*%
%TO.N,GND*%
%TA.AperFunction,SMDPad,CuDef*%
G36*
G01*
X106272000Y-79511500D02*
X106272000Y-78961500D01*
G75*
G02*
X106334500Y-78899000I62500J0D01*
G01*
X106459500Y-78899000D01*
G75*
G02*
X106522000Y-78961500I0J-62500D01*
G01*
X106522000Y-79511500D01*
G75*
G02*
X106459500Y-79574000I-62500J0D01*
G01*
X106334500Y-79574000D01*
G75*
G02*
X106272000Y-79511500I0J62500D01*
G01*
G37*
%TD.AperFunction*%
%TO.P,U1,5*%
%TO.N,/D_CON*%
%TA.AperFunction,SMDPad,CuDef*%
G36*
G01*
X105772000Y-79511500D02*
X105772000Y-78961500D01*
G75*
G02*
X105834500Y-78899000I62500J0D01*
G01*
X105959500Y-78899000D01*
G75*
G02*
X106022000Y-78961500I0J-62500D01*
G01*
X106022000Y-79511500D01*
G75*
G02*
X105959500Y-79574000I-62500J0D01*
G01*
X105834500Y-79574000D01*
G75*
G02*
X105772000Y-79511500I0J62500D01*
G01*
G37*
%TD.AperFunction*%
%TO.P,U1,4*%
%TO.N,/D_VM*%
%TA.AperFunction,SMDPad,CuDef*%
G36*
G01*
X104797000Y-78536500D02*
X104797000Y-78411500D01*
G75*
G02*
X104859500Y-78349000I62500J0D01*
G01*
X105409500Y-78349000D01*
G75*
G02*
X105472000Y-78411500I0J-62500D01*
G01*
X105472000Y-78536500D01*
G75*
G02*
X105409500Y-78599000I-62500J0D01*
G01*
X104859500Y-78599000D01*
G75*
G02*
X104797000Y-78536500I0J62500D01*
G01*
G37*
%TD.AperFunction*%
%TO.P,U1,3*%
%TO.N,/D_VP*%
%TA.AperFunction,SMDPad,CuDef*%
G36*
G01*
X104797000Y-78036500D02*
X104797000Y-77911500D01*
G75*
G02*
X104859500Y-77849000I62500J0D01*
G01*
X105409500Y-77849000D01*
G75*
G02*
X105472000Y-77911500I0J-62500D01*
G01*
X105472000Y-78036500D01*
G75*
G02*
X105409500Y-78099000I-62500J0D01*
G01*
X104859500Y-78099000D01*
G75*
G02*
X104797000Y-78036500I0J62500D01*
G01*
G37*
%TD.AperFunction*%
%TO.P,U1,2*%
%TO.N,/D_RCV*%
%TA.AperFunction,SMDPad,CuDef*%
G36*
G01*
X104797000Y-77536500D02*
X104797000Y-77411500D01*
G75*
G02*
X104859500Y-77349000I62500J0D01*
G01*
X105409500Y-77349000D01*
G75*
G02*
X105472000Y-77411500I0J-62500D01*
G01*
X105472000Y-77536500D01*
G75*
G02*
X105409500Y-77599000I-62500J0D01*
G01*
X104859500Y-77599000D01*
G75*
G02*
X104797000Y-77536500I0J62500D01*
G01*
G37*
%TD.AperFunction*%
%TO.P,U1,1*%
%TO.N,/D_SPD*%
%TA.AperFunction,SMDPad,CuDef*%
G36*
G01*
X104797000Y-77036500D02*
X104797000Y-76911500D01*
G75*
G02*
X104859500Y-76849000I62500J0D01*
G01*
X105409500Y-76849000D01*
G75*
G02*
X105472000Y-76911500I0J-62500D01*
G01*
X105472000Y-77036500D01*
G75*
G02*
X105409500Y-77099000I-62500J0D01*
G01*
X104859500Y-77099000D01*
G75*
G02*
X104797000Y-77036500I0J62500D01*
G01*
G37*
%TD.AperFunction*%
%TD*%
%TO.P,R5,2*%
%TO.N,GND*%
%TA.AperFunction,SMDPad,CuDef*%
G36*
G01*
X110761000Y-75962500D02*
X110761000Y-76437500D01*
G75*
G02*
X110523500Y-76675000I-237500J0D01*
G01*
X109948500Y-76675000D01*
G75*
G02*
X109711000Y-76437500I0J237500D01*
G01*
X109711000Y-75962500D01*
G75*
G02*
X109948500Y-75725000I237500J0D01*
G01*
X110523500Y-75725000D01*
G75*
G02*
X110761000Y-75962500I0J-237500D01*
G01*
G37*
%TD.AperFunction*%
%TO.P,R5,1*%
%TO.N,/D_DP*%
%TA.AperFunction,SMDPad,CuDef*%
G36*
G01*
X112511000Y-75962500D02*
X112511000Y-76437500D01*
G75*
G02*
X112273500Y-76675000I-237500J0D01*
G01*
X111698500Y-76675000D01*
G75*
G02*
X111461000Y-76437500I0J237500D01*
G01*
X111461000Y-75962500D01*
G75*
G02*
X111698500Y-75725000I237500J0D01*
G01*
X112273500Y-75725000D01*
G75*
G02*
X112511000Y-75962500I0J-237500D01*
G01*
G37*
%TD.AperFunction*%
%TD*%
%TO.P,R4,2*%
%TO.N,GND*%
%TA.AperFunction,SMDPad,CuDef*%
G36*
G01*
X110761000Y-80534500D02*
X110761000Y-81009500D01*
G75*
G02*
X110523500Y-81247000I-237500J0D01*
G01*
X109948500Y-81247000D01*
G75*
G02*
X109711000Y-81009500I0J237500D01*
G01*
X109711000Y-80534500D01*
G75*
G02*
X109948500Y-80297000I237500J0D01*
G01*
X110523500Y-80297000D01*
G75*
G02*
X110761000Y-80534500I0J-237500D01*
G01*
G37*
%TD.AperFunction*%
%TO.P,R4,1*%
%TO.N,/D_DN*%
%TA.AperFunction,SMDPad,CuDef*%
G36*
G01*
X112511000Y-80534500D02*
X112511000Y-81009500D01*
G75*
G02*
X112273500Y-81247000I-237500J0D01*
G01*
X111698500Y-81247000D01*
G75*
G02*
X111461000Y-81009500I0J237500D01*
G01*
X111461000Y-80534500D01*
G75*
G02*
X111698500Y-80297000I237500J0D01*
G01*
X112273500Y-80297000D01*
G75*
G02*
X112511000Y-80534500I0J-237500D01*
G01*
G37*
%TD.AperFunction*%
%TD*%
%TO.P,R3,2*%
%TO.N,/D_VPU*%
%TA.AperFunction,SMDPad,CuDef*%
G36*
G01*
X110761000Y-74438500D02*
X110761000Y-74913500D01*
G75*
G02*
X110523500Y-75151000I-237500J0D01*
G01*
X109948500Y-75151000D01*
G75*
G02*
X109711000Y-74913500I0J237500D01*
G01*
X109711000Y-74438500D01*
G75*
G02*
X109948500Y-74201000I237500J0D01*
G01*
X110523500Y-74201000D01*
G75*
G02*
X110761000Y-74438500I0J-237500D01*
G01*
G37*
%TD.AperFunction*%
%TO.P,R3,1*%
%TO.N,/D_DN*%
%TA.AperFunction,SMDPad,CuDef*%
G36*
G01*
X112511000Y-74438500D02*
X112511000Y-74913500D01*
G75*
G02*
X112273500Y-75151000I-237500J0D01*
G01*
X111698500Y-75151000D01*
G75*
G02*
X111461000Y-74913500I0J237500D01*
G01*
X111461000Y-74438500D01*
G75*
G02*
X111698500Y-74201000I237500J0D01*
G01*
X112273500Y-74201000D01*
G75*
G02*
X112511000Y-74438500I0J-237500D01*
G01*
G37*
%TD.AperFunction*%
%TD*%
%TO.P,R2,2*%
%TO.N,/D_DNR*%
%TA.AperFunction,SMDPad,CuDef*%
G36*
G01*
X110761000Y-79010500D02*
X110761000Y-79485500D01*
G75*
G02*
X110523500Y-79723000I-237500J0D01*
G01*
X109948500Y-79723000D01*
G75*
G02*
X109711000Y-79485500I0J237500D01*
G01*
X109711000Y-79010500D01*
G75*
G02*
X109948500Y-78773000I237500J0D01*
G01*
X110523500Y-78773000D01*
G75*
G02*
X110761000Y-79010500I0J-237500D01*
G01*
G37*
%TD.AperFunction*%
%TO.P,R2,1*%
%TO.N,/D_DN*%
%TA.AperFunction,SMDPad,CuDef*%
G36*
G01*
X112511000Y-79010500D02*
X112511000Y-79485500D01*
G75*
G02*
X112273500Y-79723000I-237500J0D01*
G01*
X111698500Y-79723000D01*
G75*
G02*
X111461000Y-79485500I0J237500D01*
G01*
X111461000Y-79010500D01*
G75*
G02*
X111698500Y-78773000I237500J0D01*
G01*
X112273500Y-78773000D01*
G75*
G02*
X112511000Y-79010500I0J-237500D01*
G01*
G37*
%TD.AperFunction*%
%TD*%
%TO.P,R1,2*%
%TO.N,/D_DPR*%
%TA.AperFunction,SMDPad,CuDef*%
G36*
G01*
X110761000Y-77486500D02*
X110761000Y-77961500D01*
G75*
G02*
X110523500Y-78199000I-237500J0D01*
G01*
X109948500Y-78199000D01*
G75*
G02*
X109711000Y-77961500I0J237500D01*
G01*
X109711000Y-77486500D01*
G75*
G02*
X109948500Y-77249000I237500J0D01*
G01*
X110523500Y-77249000D01*
G75*
G02*
X110761000Y-77486500I0J-237500D01*
G01*
G37*
%TD.AperFunction*%
%TO.P,R1,1*%
%TO.N,/D_DP*%
%TA.AperFunction,SMDPad,CuDef*%
G36*
G01*
X112511000Y-77486500D02*
X112511000Y-77961500D01*
G75*
G02*
X112273500Y-78199000I-237500J0D01*
G01*
X111698500Y-78199000D01*
G75*
G02*
X111461000Y-77961500I0J237500D01*
G01*
X111461000Y-77486500D01*
G75*
G02*
X111698500Y-77249000I237500J0D01*
G01*
X112273500Y-77249000D01*
G75*
G02*
X112511000Y-77486500I0J-237500D01*
G01*
G37*
%TD.AperFunction*%
%TD*%
D13*
%TO.P,J5,4*%
%TO.N,GND*%
X119888000Y-73772000D03*
%TO.P,J5,3*%
%TO.N,/D_DP*%
X119888000Y-76272000D03*
%TO.P,J5,2*%
%TO.N,/D_DN*%
X119888000Y-78272000D03*
D14*
%TO.P,J5,1*%
%TO.N,/D_VBUS*%
X119888000Y-80772000D03*
D15*
%TO.P,J5,5*%
%TO.N,GND*%
X122598000Y-83842000D03*
X122598000Y-70702000D03*
%TD*%
D16*
%TO.P,J4,S2*%
%TO.N,GND*%
X127646000Y-71323000D03*
%TO.P,J4,S1*%
X127646000Y-83363000D03*
D17*
%TO.P,J4,4*%
X124936000Y-76053000D03*
%TO.P,J4,3*%
%TO.N,/D_DP*%
X124936000Y-78553000D03*
%TO.P,J4,2*%
%TO.N,/D_DN*%
X122936000Y-78553000D03*
D18*
%TO.P,J4,1*%
%TO.N,/D_VBUS*%
X122936000Y-76053000D03*
%TD*%
D10*
%TO.P,J3,2*%
%TO.N,GND*%
X111252000Y-71120000D03*
D11*
%TO.P,J3,1*%
%TO.N,/D_VBUS*%
X113792000Y-71120000D03*
%TD*%
D10*
%TO.P,J2,5*%
%TO.N,/D_VM*%
X105664000Y-84328000D03*
%TO.P,J2,4*%
%TO.N,/D_VP*%
X108204000Y-84328000D03*
%TO.P,J2,3*%
%TO.N,/D_RCV*%
X110744000Y-84328000D03*
%TO.P,J2,2*%
%TO.N,/D_OE_*%
X113284000Y-84328000D03*
D11*
%TO.P,J2,1*%
%TO.N,GND*%
X115824000Y-84328000D03*
%TD*%
D19*
%TO.P,DP1,1*%
%TO.N,/D_DP*%
X115824000Y-76200000D03*
%TD*%
%TO.P,DN1,1*%
%TO.N,/D_DN*%
X115824000Y-78232000D03*
%TD*%
%TO.P,C3,2*%
%TO.N,GND*%
%TA.AperFunction,SMDPad,CuDef*%
G36*
G01*
X105681000Y-70882500D02*
X105681000Y-71357500D01*
G75*
G02*
X105443500Y-71595000I-237500J0D01*
G01*
X104868500Y-71595000D01*
G75*
G02*
X104631000Y-71357500I0J237500D01*
G01*
X104631000Y-70882500D01*
G75*
G02*
X104868500Y-70645000I237500J0D01*
G01*
X105443500Y-70645000D01*
G75*
G02*
X105681000Y-70882500I0J-237500D01*
G01*
G37*
%TD.AperFunction*%
%TO.P,C3,1*%
%TO.N,/D_VTRM*%
%TA.AperFunction,SMDPad,CuDef*%
G36*
G01*
X107431000Y-70882500D02*
X107431000Y-71357500D01*
G75*
G02*
X107193500Y-71595000I-237500J0D01*
G01*
X106618500Y-71595000D01*
G75*
G02*
X106381000Y-71357500I0J237500D01*
G01*
X106381000Y-70882500D01*
G75*
G02*
X106618500Y-70645000I237500J0D01*
G01*
X107193500Y-70645000D01*
G75*
G02*
X107431000Y-70882500I0J-237500D01*
G01*
G37*
%TD.AperFunction*%
%TD*%
%TO.P,C2,2*%
%TO.N,GND*%
%TA.AperFunction,SMDPad,CuDef*%
G36*
G01*
X105681000Y-72406500D02*
X105681000Y-72881500D01*
G75*
G02*
X105443500Y-73119000I-237500J0D01*
G01*
X104868500Y-73119000D01*
G75*
G02*
X104631000Y-72881500I0J237500D01*
G01*
X104631000Y-72406500D01*
G75*
G02*
X104868500Y-72169000I237500J0D01*
G01*
X105443500Y-72169000D01*
G75*
G02*
X105681000Y-72406500I0J-237500D01*
G01*
G37*
%TD.AperFunction*%
%TO.P,C2,1*%
%TO.N,/D_VBUS*%
%TA.AperFunction,SMDPad,CuDef*%
G36*
G01*
X107431000Y-72406500D02*
X107431000Y-72881500D01*
G75*
G02*
X107193500Y-73119000I-237500J0D01*
G01*
X106618500Y-73119000D01*
G75*
G02*
X106381000Y-72881500I0J237500D01*
G01*
X106381000Y-72406500D01*
G75*
G02*
X106618500Y-72169000I237500J0D01*
G01*
X107193500Y-72169000D01*
G75*
G02*
X107431000Y-72406500I0J-237500D01*
G01*
G37*
%TD.AperFunction*%
%TD*%
%TO.P,C1,2*%
%TO.N,+3V3*%
%TA.AperFunction,SMDPad,CuDef*%
G36*
G01*
X106381000Y-74405500D02*
X106381000Y-73930500D01*
G75*
G02*
X106618500Y-73693000I237500J0D01*
G01*
X107193500Y-73693000D01*
G75*
G02*
X107431000Y-73930500I0J-237500D01*
G01*
X107431000Y-74405500D01*
G75*
G02*
X107193500Y-74643000I-237500J0D01*
G01*
X106618500Y-74643000D01*
G75*
G02*
X106381000Y-74405500I0J237500D01*
G01*
G37*
%TD.AperFunction*%
%TO.P,C1,1*%
%TO.N,GND*%
%TA.AperFunction,SMDPad,CuDef*%
G36*
G01*
X104631000Y-74405500D02*
X104631000Y-73930500D01*
G75*
G02*
X104868500Y-73693000I237500J0D01*
G01*
X105443500Y-73693000D01*
G75*
G02*
X105681000Y-73930500I0J-237500D01*
G01*
X105681000Y-74405500D01*
G75*
G02*
X105443500Y-74643000I-237500J0D01*
G01*
X104868500Y-74643000D01*
G75*
G02*
X104631000Y-74405500I0J237500D01*
G01*
G37*
%TD.AperFunction*%
%TD*%
D20*
%TO.N,+3V3*%
X104777632Y-75899501D03*
%TO.N,GND*%
X106140593Y-80264167D03*
X104140000Y-70104000D03*
D21*
%TO.N,/D_SPD*%
X107696000Y-80264000D03*
%TO.N,/D_VPU*%
X107696000Y-75692000D03*
X109220000Y-75184000D03*
%TD*%
D22*
%TO.N,+3V3*%
X106906000Y-74168000D02*
X106509133Y-74168000D01*
X106397000Y-75874000D02*
X106397000Y-76211500D01*
X105872502Y-75349502D02*
X106397000Y-75874000D01*
X105327631Y-75349502D02*
X105872502Y-75349502D01*
X104777632Y-75899501D02*
X105327631Y-75349502D01*
X106397000Y-74677000D02*
X106906000Y-74168000D01*
X106397000Y-76211500D02*
X106397000Y-74677000D01*
%TO.N,GND*%
X111015010Y-71391010D02*
X110744000Y-71120000D01*
X110236000Y-75896102D02*
X111015010Y-75117092D01*
X110236000Y-76200000D02*
X110236000Y-75896102D01*
X105156000Y-74168000D02*
X105156000Y-72644000D01*
X105156000Y-72644000D02*
X105156000Y-71120000D01*
X106397000Y-79236500D02*
X106397000Y-80007760D01*
X106397000Y-80007760D02*
X106140593Y-80264167D01*
X110236000Y-80772000D02*
X110236000Y-81280000D01*
X110236000Y-81280000D02*
X111252000Y-82296000D01*
X113792000Y-82296000D02*
X115824000Y-84328000D01*
X111252000Y-82296000D02*
X113792000Y-82296000D01*
X122112000Y-84328000D02*
X122598000Y-83842000D01*
X127167000Y-83842000D02*
X127646000Y-83363000D01*
X124936000Y-76168000D02*
X124936000Y-76053000D01*
X123219000Y-71323000D02*
X122598000Y-70702000D01*
X119888000Y-73412000D02*
X119888000Y-73772000D01*
X105156000Y-71120000D02*
X104140000Y-70104000D01*
X111015010Y-71356990D02*
X111252000Y-71120000D01*
X111015010Y-75117092D02*
X111015010Y-71356990D01*
%TO.N,/D_VBUS*%
X119888000Y-80772000D02*
X124968000Y-80772000D01*
X125904001Y-79835999D02*
X125904001Y-78152001D01*
X124968000Y-80772000D02*
X125904001Y-79835999D01*
X123904001Y-77021001D02*
X122936000Y-76053000D01*
X124773001Y-77021001D02*
X123904001Y-77021001D01*
X125904001Y-78152001D02*
X124773001Y-77021001D01*
X114841999Y-75217999D02*
X113284000Y-73660000D01*
X122100999Y-75217999D02*
X114841999Y-75217999D01*
X113284000Y-73660000D02*
X113284000Y-71120000D01*
X122936000Y-76053000D02*
X122100999Y-75217999D01*
X106897000Y-76211500D02*
X106897000Y-75745076D01*
X106897000Y-75745076D02*
X107685010Y-74957066D01*
X107685010Y-74957066D02*
X107685010Y-73423010D01*
X107685010Y-73423010D02*
X106906000Y-72644000D01*
X106126990Y-71864990D02*
X106126990Y-70657010D01*
X106126990Y-70657010D02*
X106768001Y-70015999D01*
X106906000Y-72644000D02*
X106126990Y-71864990D01*
X112687999Y-70015999D02*
X113792000Y-71120000D01*
X106768001Y-70015999D02*
X112687999Y-70015999D01*
%TO.N,/D_VTRM*%
X108284500Y-71973500D02*
X107431000Y-71120000D01*
X107431000Y-71120000D02*
X106906000Y-71120000D01*
X108159500Y-76974000D02*
X108284500Y-76849000D01*
X108284500Y-76849000D02*
X108284500Y-71973500D01*
D23*
%TO.N,/D_DN*%
X113284000Y-79248000D02*
X114300000Y-78232000D01*
X111986000Y-79248000D02*
X113284000Y-79248000D01*
X119848000Y-78232000D02*
X119888000Y-78272000D01*
X114300000Y-78232000D02*
X119848000Y-78232000D01*
X122655000Y-78272000D02*
X122936000Y-78553000D01*
X119888000Y-78272000D02*
X122655000Y-78272000D01*
X111986000Y-80772000D02*
X111986000Y-79248000D01*
X111270490Y-78532490D02*
X111986000Y-79248000D01*
X111270490Y-75391510D02*
X111270490Y-78532490D01*
X111986000Y-74676000D02*
X111270490Y-75391510D01*
%TO.N,/D_DP*%
X112776000Y-77724000D02*
X114300000Y-76200000D01*
X111986000Y-77724000D02*
X112776000Y-77724000D01*
X119816000Y-76200000D02*
X119888000Y-76272000D01*
X114300000Y-76200000D02*
X119816000Y-76200000D01*
X123454999Y-77071999D02*
X124936000Y-78553000D01*
X120687999Y-77071999D02*
X123454999Y-77071999D01*
X119888000Y-76272000D02*
X120687999Y-77071999D01*
X111986000Y-77724000D02*
X111986000Y-76200000D01*
%TO.N,/D_SUS*%
X103099499Y-77699499D02*
X100100501Y-77699499D01*
X100100501Y-77699499D02*
X99060000Y-78740000D01*
X104648000Y-79248000D02*
X103099499Y-77699499D01*
X104648000Y-79248000D02*
X105156000Y-79756000D01*
X106897000Y-79236500D02*
X106897000Y-80555000D01*
X106496034Y-81004668D02*
X105785152Y-81004668D01*
X106881094Y-80619608D02*
X106496034Y-81004668D01*
X106881094Y-80570906D02*
X106881094Y-80619608D01*
X106897000Y-80555000D02*
X106881094Y-80570906D01*
X105785152Y-81004668D02*
X105156000Y-80375516D01*
X105156000Y-80375516D02*
X105156000Y-79756000D01*
%TO.N,/D_OE_*%
X105679938Y-81258678D02*
X106150678Y-81258678D01*
X103161260Y-78740000D02*
X105679938Y-81258678D01*
X101600000Y-78740000D02*
X103161260Y-78740000D01*
X106150678Y-81258678D02*
X106172000Y-81280000D01*
X106172000Y-81280000D02*
X107696000Y-81280000D01*
X108159500Y-80816500D02*
X108159500Y-78474000D01*
X107696000Y-81280000D02*
X108159500Y-80816500D01*
%TO.N,/D_VM*%
X104797000Y-78474000D02*
X103021086Y-76698086D01*
X103021086Y-75589086D02*
X102386512Y-74954512D01*
X102386512Y-74954512D02*
X100305488Y-74954512D01*
X100305488Y-74954512D02*
X99060000Y-76200000D01*
X105134500Y-78474000D02*
X104797000Y-78474000D01*
X103021086Y-76698086D02*
X103021086Y-75589086D01*
%TO.N,/D_CON*%
X105897000Y-79236500D02*
X105144500Y-79236500D01*
X102108000Y-76200000D02*
X101600000Y-76200000D01*
X105144500Y-79236500D02*
X102108000Y-76200000D01*
%TO.N,/D_RCV*%
X104537737Y-77474000D02*
X103529108Y-76465371D01*
X103529108Y-74387027D02*
X102802081Y-73660000D01*
X105134500Y-77474000D02*
X104537737Y-77474000D01*
X103529108Y-76465371D02*
X103529108Y-74387027D01*
X102802081Y-73660000D02*
X101600000Y-73660000D01*
%TO.N,/D_VP*%
X102491726Y-74700501D02*
X100100501Y-74700501D01*
X104678512Y-77974000D02*
X103275097Y-76570585D01*
X103275097Y-76570585D02*
X103275097Y-75483872D01*
X103275097Y-75483872D02*
X102491726Y-74700501D01*
X100100501Y-74700501D02*
X99060000Y-73660000D01*
X105134500Y-77974000D02*
X104678512Y-77974000D01*
%TO.N,/D_SPD*%
X107397000Y-79965000D02*
X107696000Y-80264000D01*
X107397000Y-79236500D02*
X107397000Y-79965000D01*
X103099499Y-72619499D02*
X100559499Y-72619499D01*
X104396962Y-76974000D02*
X103783119Y-76360157D01*
X99909999Y-71969999D02*
X99060000Y-71120000D01*
X105134500Y-76974000D02*
X104396962Y-76974000D01*
X103783119Y-76360157D02*
X103783119Y-73303119D01*
X100559499Y-72619499D02*
X99909999Y-71969999D01*
X103783119Y-73303119D02*
X103099499Y-72619499D01*
%TO.N,/D_VBUS_DET*%
X104422190Y-76640003D02*
X104037130Y-76254943D01*
X105468497Y-76640003D02*
X104422190Y-76640003D01*
X102577000Y-71120000D02*
X101600000Y-71120000D01*
X104037130Y-72580130D02*
X102577000Y-71120000D01*
X105897000Y-76211500D02*
X105468497Y-76640003D01*
X104037130Y-76254943D02*
X104037130Y-72580130D01*
%TO.N,/D_DPR*%
X109986000Y-77474000D02*
X110236000Y-77724000D01*
X108159500Y-77474000D02*
X109986000Y-77474000D01*
%TO.N,/D_DNR*%
X108962000Y-77974000D02*
X110236000Y-79248000D01*
X108159500Y-77974000D02*
X108962000Y-77974000D01*
%TO.N,/D_VPU*%
X107397000Y-75991000D02*
X107696000Y-75692000D01*
X107397000Y-76211500D02*
X107397000Y-75991000D01*
X109728000Y-75184000D02*
X110236000Y-74676000D01*
X109220000Y-75184000D02*
X109728000Y-75184000D01*
%TD*%
M02*
